G04 #@! TF.GenerationSoftware,KiCad,Pcbnew,(5.1.0-0)*
G04 #@! TF.CreationDate,2019-06-07T13:15:32+08:00*
G04 #@! TF.ProjectId,BottomPlate,426f7474-6f6d-4506-9c61-74652e6b6963,rev?*
G04 #@! TF.SameCoordinates,Original*
G04 #@! TF.FileFunction,Copper,L2,Bot*
G04 #@! TF.FilePolarity,Positive*
%FSLAX46Y46*%
G04 Gerber Fmt 4.6, Leading zero omitted, Abs format (unit mm)*
G04 Created by KiCad (PCBNEW (5.1.0-0)) date 2019-06-07 13:15:32*
%MOMM*%
%LPD*%
G04 APERTURE LIST*
%ADD10C,2.600000*%
%ADD11C,0.254000*%
G04 APERTURE END LIST*
D10*
X89080000Y-100230000D03*
X70030000Y-62130000D03*
X241480000Y-118090000D03*
X241480000Y-44270000D03*
X146230000Y-100230000D03*
X33120000Y-118100000D03*
D11*
G36*
X53478665Y-41499865D02*
G01*
X53586645Y-41510500D01*
X242940803Y-41510500D01*
X243221771Y-41538049D01*
X243457462Y-41609208D01*
X243674839Y-41724791D01*
X243865629Y-41880395D01*
X244022561Y-42070093D01*
X244139656Y-42286657D01*
X244212459Y-42521844D01*
X244241751Y-42800537D01*
X244241750Y-119552553D01*
X244214201Y-119833521D01*
X244143041Y-120069212D01*
X244027461Y-120286588D01*
X243871854Y-120477379D01*
X243682158Y-120634311D01*
X243465593Y-120751406D01*
X243230406Y-120824209D01*
X242951722Y-120853500D01*
X31658697Y-120853500D01*
X31377729Y-120825951D01*
X31142038Y-120754791D01*
X30924662Y-120639211D01*
X30733871Y-120483604D01*
X30576939Y-120293908D01*
X30459844Y-120077343D01*
X30387041Y-119842156D01*
X30357750Y-119563472D01*
X30357750Y-117909419D01*
X31185000Y-117909419D01*
X31185000Y-118290581D01*
X31259361Y-118664419D01*
X31405225Y-119016566D01*
X31616987Y-119333491D01*
X31886509Y-119603013D01*
X32203434Y-119814775D01*
X32555581Y-119960639D01*
X32929419Y-120035000D01*
X33310581Y-120035000D01*
X33684419Y-119960639D01*
X34036566Y-119814775D01*
X34353491Y-119603013D01*
X34623013Y-119333491D01*
X34834775Y-119016566D01*
X34980639Y-118664419D01*
X35055000Y-118290581D01*
X35055000Y-117909419D01*
X35053011Y-117899419D01*
X239545000Y-117899419D01*
X239545000Y-118280581D01*
X239619361Y-118654419D01*
X239765225Y-119006566D01*
X239976987Y-119323491D01*
X240246509Y-119593013D01*
X240563434Y-119804775D01*
X240915581Y-119950639D01*
X241289419Y-120025000D01*
X241670581Y-120025000D01*
X242044419Y-119950639D01*
X242396566Y-119804775D01*
X242713491Y-119593013D01*
X242983013Y-119323491D01*
X243194775Y-119006566D01*
X243340639Y-118654419D01*
X243415000Y-118280581D01*
X243415000Y-117899419D01*
X243340639Y-117525581D01*
X243194775Y-117173434D01*
X242983013Y-116856509D01*
X242713491Y-116586987D01*
X242396566Y-116375225D01*
X242044419Y-116229361D01*
X241670581Y-116155000D01*
X241289419Y-116155000D01*
X240915581Y-116229361D01*
X240563434Y-116375225D01*
X240246509Y-116586987D01*
X239976987Y-116856509D01*
X239765225Y-117173434D01*
X239619361Y-117525581D01*
X239545000Y-117899419D01*
X35053011Y-117899419D01*
X34980639Y-117535581D01*
X34834775Y-117183434D01*
X34623013Y-116866509D01*
X34353491Y-116596987D01*
X34036566Y-116385225D01*
X33684419Y-116239361D01*
X33310581Y-116165000D01*
X32929419Y-116165000D01*
X32555581Y-116239361D01*
X32203434Y-116385225D01*
X31886509Y-116596987D01*
X31616987Y-116866509D01*
X31405225Y-117183434D01*
X31259361Y-117535581D01*
X31185000Y-117909419D01*
X30357750Y-117909419D01*
X30357750Y-100039419D01*
X87145000Y-100039419D01*
X87145000Y-100420581D01*
X87219361Y-100794419D01*
X87365225Y-101146566D01*
X87576987Y-101463491D01*
X87846509Y-101733013D01*
X88163434Y-101944775D01*
X88515581Y-102090639D01*
X88889419Y-102165000D01*
X89270581Y-102165000D01*
X89644419Y-102090639D01*
X89996566Y-101944775D01*
X90313491Y-101733013D01*
X90583013Y-101463491D01*
X90794775Y-101146566D01*
X90940639Y-100794419D01*
X91015000Y-100420581D01*
X91015000Y-100039419D01*
X144295000Y-100039419D01*
X144295000Y-100420581D01*
X144369361Y-100794419D01*
X144515225Y-101146566D01*
X144726987Y-101463491D01*
X144996509Y-101733013D01*
X145313434Y-101944775D01*
X145665581Y-102090639D01*
X146039419Y-102165000D01*
X146420581Y-102165000D01*
X146794419Y-102090639D01*
X147146566Y-101944775D01*
X147463491Y-101733013D01*
X147733013Y-101463491D01*
X147944775Y-101146566D01*
X148090639Y-100794419D01*
X148165000Y-100420581D01*
X148165000Y-100039419D01*
X148090639Y-99665581D01*
X147944775Y-99313434D01*
X147733013Y-98996509D01*
X147463491Y-98726987D01*
X147146566Y-98515225D01*
X146794419Y-98369361D01*
X146420581Y-98295000D01*
X146039419Y-98295000D01*
X145665581Y-98369361D01*
X145313434Y-98515225D01*
X144996509Y-98726987D01*
X144726987Y-98996509D01*
X144515225Y-99313434D01*
X144369361Y-99665581D01*
X144295000Y-100039419D01*
X91015000Y-100039419D01*
X90940639Y-99665581D01*
X90794775Y-99313434D01*
X90583013Y-98996509D01*
X90313491Y-98726987D01*
X89996566Y-98515225D01*
X89644419Y-98369361D01*
X89270581Y-98295000D01*
X88889419Y-98295000D01*
X88515581Y-98369361D01*
X88163434Y-98515225D01*
X87846509Y-98726987D01*
X87576987Y-98996509D01*
X87365225Y-99313434D01*
X87219361Y-99665581D01*
X87145000Y-100039419D01*
X30357750Y-100039419D01*
X30357750Y-82739395D01*
X30347115Y-82631415D01*
X30333432Y-82586308D01*
X30407406Y-61939419D01*
X68095000Y-61939419D01*
X68095000Y-62320581D01*
X68169361Y-62694419D01*
X68315225Y-63046566D01*
X68526987Y-63363491D01*
X68796509Y-63633013D01*
X69113434Y-63844775D01*
X69465581Y-63990639D01*
X69839419Y-64065000D01*
X70220581Y-64065000D01*
X70594419Y-63990639D01*
X70946566Y-63844775D01*
X71263491Y-63633013D01*
X71533013Y-63363491D01*
X71744775Y-63046566D01*
X71890639Y-62694419D01*
X71965000Y-62320581D01*
X71965000Y-61939419D01*
X71890639Y-61565581D01*
X71744775Y-61213434D01*
X71533013Y-60896509D01*
X71263491Y-60626987D01*
X70946566Y-60415225D01*
X70594419Y-60269361D01*
X70220581Y-60195000D01*
X69839419Y-60195000D01*
X69465581Y-60269361D01*
X69113434Y-60415225D01*
X68796509Y-60626987D01*
X68526987Y-60896509D01*
X68315225Y-61213434D01*
X68169361Y-61565581D01*
X68095000Y-61939419D01*
X30407406Y-61939419D01*
X30471395Y-44079419D01*
X239545000Y-44079419D01*
X239545000Y-44460581D01*
X239619361Y-44834419D01*
X239765225Y-45186566D01*
X239976987Y-45503491D01*
X240246509Y-45773013D01*
X240563434Y-45984775D01*
X240915581Y-46130639D01*
X241289419Y-46205000D01*
X241670581Y-46205000D01*
X242044419Y-46130639D01*
X242396566Y-45984775D01*
X242713491Y-45773013D01*
X242983013Y-45503491D01*
X243194775Y-45186566D01*
X243340639Y-44834419D01*
X243415000Y-44460581D01*
X243415000Y-44079419D01*
X243340639Y-43705581D01*
X243194775Y-43353434D01*
X242983013Y-43036509D01*
X242713491Y-42766987D01*
X242396566Y-42555225D01*
X242044419Y-42409361D01*
X241670581Y-42335000D01*
X241289419Y-42335000D01*
X240915581Y-42409361D01*
X240563434Y-42555225D01*
X240246509Y-42766987D01*
X239976987Y-43036509D01*
X239765225Y-43353434D01*
X239619361Y-43705581D01*
X239545000Y-44079419D01*
X30471395Y-44079419D01*
X30475106Y-43043706D01*
X30496169Y-42944610D01*
X30497242Y-42934404D01*
X30528299Y-42617659D01*
X30599458Y-42381968D01*
X30715041Y-42164591D01*
X30870645Y-41973801D01*
X31060343Y-41816869D01*
X31276907Y-41699774D01*
X31512094Y-41626971D01*
X31828616Y-41593703D01*
X31849375Y-41589442D01*
X31911041Y-41583177D01*
X31947730Y-41571959D01*
X53433812Y-41486259D01*
X53478665Y-41499865D01*
X53478665Y-41499865D01*
G37*
X53478665Y-41499865D02*
X53586645Y-41510500D01*
X242940803Y-41510500D01*
X243221771Y-41538049D01*
X243457462Y-41609208D01*
X243674839Y-41724791D01*
X243865629Y-41880395D01*
X244022561Y-42070093D01*
X244139656Y-42286657D01*
X244212459Y-42521844D01*
X244241751Y-42800537D01*
X244241750Y-119552553D01*
X244214201Y-119833521D01*
X244143041Y-120069212D01*
X244027461Y-120286588D01*
X243871854Y-120477379D01*
X243682158Y-120634311D01*
X243465593Y-120751406D01*
X243230406Y-120824209D01*
X242951722Y-120853500D01*
X31658697Y-120853500D01*
X31377729Y-120825951D01*
X31142038Y-120754791D01*
X30924662Y-120639211D01*
X30733871Y-120483604D01*
X30576939Y-120293908D01*
X30459844Y-120077343D01*
X30387041Y-119842156D01*
X30357750Y-119563472D01*
X30357750Y-117909419D01*
X31185000Y-117909419D01*
X31185000Y-118290581D01*
X31259361Y-118664419D01*
X31405225Y-119016566D01*
X31616987Y-119333491D01*
X31886509Y-119603013D01*
X32203434Y-119814775D01*
X32555581Y-119960639D01*
X32929419Y-120035000D01*
X33310581Y-120035000D01*
X33684419Y-119960639D01*
X34036566Y-119814775D01*
X34353491Y-119603013D01*
X34623013Y-119333491D01*
X34834775Y-119016566D01*
X34980639Y-118664419D01*
X35055000Y-118290581D01*
X35055000Y-117909419D01*
X35053011Y-117899419D01*
X239545000Y-117899419D01*
X239545000Y-118280581D01*
X239619361Y-118654419D01*
X239765225Y-119006566D01*
X239976987Y-119323491D01*
X240246509Y-119593013D01*
X240563434Y-119804775D01*
X240915581Y-119950639D01*
X241289419Y-120025000D01*
X241670581Y-120025000D01*
X242044419Y-119950639D01*
X242396566Y-119804775D01*
X242713491Y-119593013D01*
X242983013Y-119323491D01*
X243194775Y-119006566D01*
X243340639Y-118654419D01*
X243415000Y-118280581D01*
X243415000Y-117899419D01*
X243340639Y-117525581D01*
X243194775Y-117173434D01*
X242983013Y-116856509D01*
X242713491Y-116586987D01*
X242396566Y-116375225D01*
X242044419Y-116229361D01*
X241670581Y-116155000D01*
X241289419Y-116155000D01*
X240915581Y-116229361D01*
X240563434Y-116375225D01*
X240246509Y-116586987D01*
X239976987Y-116856509D01*
X239765225Y-117173434D01*
X239619361Y-117525581D01*
X239545000Y-117899419D01*
X35053011Y-117899419D01*
X34980639Y-117535581D01*
X34834775Y-117183434D01*
X34623013Y-116866509D01*
X34353491Y-116596987D01*
X34036566Y-116385225D01*
X33684419Y-116239361D01*
X33310581Y-116165000D01*
X32929419Y-116165000D01*
X32555581Y-116239361D01*
X32203434Y-116385225D01*
X31886509Y-116596987D01*
X31616987Y-116866509D01*
X31405225Y-117183434D01*
X31259361Y-117535581D01*
X31185000Y-117909419D01*
X30357750Y-117909419D01*
X30357750Y-100039419D01*
X87145000Y-100039419D01*
X87145000Y-100420581D01*
X87219361Y-100794419D01*
X87365225Y-101146566D01*
X87576987Y-101463491D01*
X87846509Y-101733013D01*
X88163434Y-101944775D01*
X88515581Y-102090639D01*
X88889419Y-102165000D01*
X89270581Y-102165000D01*
X89644419Y-102090639D01*
X89996566Y-101944775D01*
X90313491Y-101733013D01*
X90583013Y-101463491D01*
X90794775Y-101146566D01*
X90940639Y-100794419D01*
X91015000Y-100420581D01*
X91015000Y-100039419D01*
X144295000Y-100039419D01*
X144295000Y-100420581D01*
X144369361Y-100794419D01*
X144515225Y-101146566D01*
X144726987Y-101463491D01*
X144996509Y-101733013D01*
X145313434Y-101944775D01*
X145665581Y-102090639D01*
X146039419Y-102165000D01*
X146420581Y-102165000D01*
X146794419Y-102090639D01*
X147146566Y-101944775D01*
X147463491Y-101733013D01*
X147733013Y-101463491D01*
X147944775Y-101146566D01*
X148090639Y-100794419D01*
X148165000Y-100420581D01*
X148165000Y-100039419D01*
X148090639Y-99665581D01*
X147944775Y-99313434D01*
X147733013Y-98996509D01*
X147463491Y-98726987D01*
X147146566Y-98515225D01*
X146794419Y-98369361D01*
X146420581Y-98295000D01*
X146039419Y-98295000D01*
X145665581Y-98369361D01*
X145313434Y-98515225D01*
X144996509Y-98726987D01*
X144726987Y-98996509D01*
X144515225Y-99313434D01*
X144369361Y-99665581D01*
X144295000Y-100039419D01*
X91015000Y-100039419D01*
X90940639Y-99665581D01*
X90794775Y-99313434D01*
X90583013Y-98996509D01*
X90313491Y-98726987D01*
X89996566Y-98515225D01*
X89644419Y-98369361D01*
X89270581Y-98295000D01*
X88889419Y-98295000D01*
X88515581Y-98369361D01*
X88163434Y-98515225D01*
X87846509Y-98726987D01*
X87576987Y-98996509D01*
X87365225Y-99313434D01*
X87219361Y-99665581D01*
X87145000Y-100039419D01*
X30357750Y-100039419D01*
X30357750Y-82739395D01*
X30347115Y-82631415D01*
X30333432Y-82586308D01*
X30407406Y-61939419D01*
X68095000Y-61939419D01*
X68095000Y-62320581D01*
X68169361Y-62694419D01*
X68315225Y-63046566D01*
X68526987Y-63363491D01*
X68796509Y-63633013D01*
X69113434Y-63844775D01*
X69465581Y-63990639D01*
X69839419Y-64065000D01*
X70220581Y-64065000D01*
X70594419Y-63990639D01*
X70946566Y-63844775D01*
X71263491Y-63633013D01*
X71533013Y-63363491D01*
X71744775Y-63046566D01*
X71890639Y-62694419D01*
X71965000Y-62320581D01*
X71965000Y-61939419D01*
X71890639Y-61565581D01*
X71744775Y-61213434D01*
X71533013Y-60896509D01*
X71263491Y-60626987D01*
X70946566Y-60415225D01*
X70594419Y-60269361D01*
X70220581Y-60195000D01*
X69839419Y-60195000D01*
X69465581Y-60269361D01*
X69113434Y-60415225D01*
X68796509Y-60626987D01*
X68526987Y-60896509D01*
X68315225Y-61213434D01*
X68169361Y-61565581D01*
X68095000Y-61939419D01*
X30407406Y-61939419D01*
X30471395Y-44079419D01*
X239545000Y-44079419D01*
X239545000Y-44460581D01*
X239619361Y-44834419D01*
X239765225Y-45186566D01*
X239976987Y-45503491D01*
X240246509Y-45773013D01*
X240563434Y-45984775D01*
X240915581Y-46130639D01*
X241289419Y-46205000D01*
X241670581Y-46205000D01*
X242044419Y-46130639D01*
X242396566Y-45984775D01*
X242713491Y-45773013D01*
X242983013Y-45503491D01*
X243194775Y-45186566D01*
X243340639Y-44834419D01*
X243415000Y-44460581D01*
X243415000Y-44079419D01*
X243340639Y-43705581D01*
X243194775Y-43353434D01*
X242983013Y-43036509D01*
X242713491Y-42766987D01*
X242396566Y-42555225D01*
X242044419Y-42409361D01*
X241670581Y-42335000D01*
X241289419Y-42335000D01*
X240915581Y-42409361D01*
X240563434Y-42555225D01*
X240246509Y-42766987D01*
X239976987Y-43036509D01*
X239765225Y-43353434D01*
X239619361Y-43705581D01*
X239545000Y-44079419D01*
X30471395Y-44079419D01*
X30475106Y-43043706D01*
X30496169Y-42944610D01*
X30497242Y-42934404D01*
X30528299Y-42617659D01*
X30599458Y-42381968D01*
X30715041Y-42164591D01*
X30870645Y-41973801D01*
X31060343Y-41816869D01*
X31276907Y-41699774D01*
X31512094Y-41626971D01*
X31828616Y-41593703D01*
X31849375Y-41589442D01*
X31911041Y-41583177D01*
X31947730Y-41571959D01*
X53433812Y-41486259D01*
X53478665Y-41499865D01*
G36*
X28919068Y-81010966D02*
G01*
X28702120Y-80446438D01*
X28702120Y-77419354D01*
X28933698Y-76927535D01*
X28919068Y-81010966D01*
X28919068Y-81010966D01*
G37*
X28919068Y-81010966D02*
X28702120Y-80446438D01*
X28702120Y-77419354D01*
X28933698Y-76927535D01*
X28919068Y-81010966D01*
G36*
X245711750Y-79987846D02*
G01*
X245711750Y-42739395D01*
X245708589Y-42707306D01*
X245708676Y-42694921D01*
X245707675Y-42684708D01*
X245666874Y-42296515D01*
X245653465Y-42231195D01*
X245640995Y-42165823D01*
X245638030Y-42155999D01*
X245522606Y-41783124D01*
X245496788Y-41721705D01*
X245471836Y-41659947D01*
X245467018Y-41650886D01*
X245281367Y-41307531D01*
X245244092Y-41252268D01*
X245207637Y-41196559D01*
X245201151Y-41188606D01*
X244952344Y-40887851D01*
X244905038Y-40840874D01*
X244858467Y-40793317D01*
X244850560Y-40786775D01*
X244548075Y-40540074D01*
X244492567Y-40503195D01*
X244437622Y-40465573D01*
X244428595Y-40460692D01*
X244083953Y-40277442D01*
X244067295Y-40270576D01*
X246102138Y-40267116D01*
X245711750Y-79987846D01*
X245711750Y-79987846D01*
G37*
X245711750Y-79987846D02*
X245711750Y-42739395D01*
X245708589Y-42707306D01*
X245708676Y-42694921D01*
X245707675Y-42684708D01*
X245666874Y-42296515D01*
X245653465Y-42231195D01*
X245640995Y-42165823D01*
X245638030Y-42155999D01*
X245522606Y-41783124D01*
X245496788Y-41721705D01*
X245471836Y-41659947D01*
X245467018Y-41650886D01*
X245281367Y-41307531D01*
X245244092Y-41252268D01*
X245207637Y-41196559D01*
X245201151Y-41188606D01*
X244952344Y-40887851D01*
X244905038Y-40840874D01*
X244858467Y-40793317D01*
X244850560Y-40786775D01*
X244548075Y-40540074D01*
X244492567Y-40503195D01*
X244437622Y-40465573D01*
X244428595Y-40460692D01*
X244083953Y-40277442D01*
X244067295Y-40270576D01*
X246102138Y-40267116D01*
X245711750Y-79987846D01*
G36*
X30178856Y-40638279D02*
G01*
X29878101Y-40887086D01*
X29831124Y-40934392D01*
X29783567Y-40980963D01*
X29777025Y-40988870D01*
X29530324Y-41291355D01*
X29493445Y-41346863D01*
X29455823Y-41401808D01*
X29450942Y-41410835D01*
X29267692Y-41755477D01*
X29242296Y-41817093D01*
X29216063Y-41878298D01*
X29213028Y-41888101D01*
X29100210Y-42261773D01*
X29087262Y-42327165D01*
X29073421Y-42392281D01*
X29072348Y-42402487D01*
X29034258Y-42790956D01*
X29034258Y-42934403D01*
X29055112Y-43039723D01*
X28963047Y-68736036D01*
X28194847Y-45136014D01*
X28688957Y-40636807D01*
X30183778Y-40634265D01*
X30178856Y-40638279D01*
X30178856Y-40638279D01*
G37*
X30178856Y-40638279D02*
X29878101Y-40887086D01*
X29831124Y-40934392D01*
X29783567Y-40980963D01*
X29777025Y-40988870D01*
X29530324Y-41291355D01*
X29493445Y-41346863D01*
X29455823Y-41401808D01*
X29450942Y-41410835D01*
X29267692Y-41755477D01*
X29242296Y-41817093D01*
X29216063Y-41878298D01*
X29213028Y-41888101D01*
X29100210Y-42261773D01*
X29087262Y-42327165D01*
X29073421Y-42392281D01*
X29072348Y-42402487D01*
X29034258Y-42790956D01*
X29034258Y-42934403D01*
X29055112Y-43039723D01*
X28963047Y-68736036D01*
X28194847Y-45136014D01*
X28688957Y-40636807D01*
X30183778Y-40634265D01*
X30178856Y-40638279D01*
M02*
