  0
SECTION
  2
HEADER
  9
$ANGBASE
  50
0.0
  9
$ANGDIR
  70
  1
  9
$MEASUREMENT
  70
0
  0
ENDSEC
  0
SECTION
  2
TABLES
  0
TABLE
  2
LTYPE
  70
4
  0
LTYPE
  5
40F
  2
CONTINUOUS
  70
0
  3
Solid line
  72
65
  73
0
  40
0.0
  0
LTYPE
  5
410
  2
DASHDOT
 70
0
  3
Dash Dot ____ _ ____ _
 72
65
 73
4
 40
2.0
 49
1.25
 49
-0.25
 49
0.25
 49
-0.25
  0
LTYPE
  5
411
  2
DASHED
 70
0
  3
Dashed __ __ __ __ __
 72
65
 73
2
 40
0.75
 49
0.5
 49
-0.25
  0
LTYPE
  5
43B
  2
DOTTED
 70
0
  3
Dotted .  .  .  .
 72
65
 73
2
 40
0.2
 49
0.0
 49
-0.2
  0
ENDTAB
  0
TABLE
  2
STYLE
  70
4
  0
STYLE
  2
KICAD
  70
0
  40
0
  41
1
  42
1
  50
0
  71
0
  3
isocp.shx
  0
STYLE
  2
KICADB
  70
0
  40
0
  41
1
  42
1
  50
0
  71
0
  3
isocp.shx
  0
STYLE
  2
KICADI
  70
0
  40
0
  41
1
  42
1
  50
15
  71
0
  3
isocp.shx
  0
STYLE
  2
KICADBI
  70
0
  40
0
  41
1
  42
1
  50
15
  71
0
  3
isocp.shx
  0
ENDTAB
  0
TABLE
  2
LAYER
  70
30
  0
LAYER
  2
BLACK
  70
0
  62
7
  6
CONTINUOUS
  0
LAYER
  2
GRAY1
  70
0
  62
251
  6
CONTINUOUS
  0
LAYER
  2
GRAY2
  70
0
  62
8
  6
CONTINUOUS
  0
LAYER
  2
GRAY3
  70
0
  62
9
  6
CONTINUOUS
  0
LAYER
  2
WHITE
  70
0
  62
7
  6
CONTINUOUS
  0
LAYER
  2
LYELLOW
  70
0
  62
51
  6
CONTINUOUS
  0
LAYER
  2
BLUE1
  70
0
  62
178
  6
CONTINUOUS
  0
LAYER
  2
GREEN1
  70
0
  62
98
  6
CONTINUOUS
  0
LAYER
  2
CYAN1
  70
0
  62
138
  6
CONTINUOUS
  0
LAYER
  2
RED1
  70
0
  62
18
  6
CONTINUOUS
  0
LAYER
  2
MAGENTA1
  70
0
  62
228
  6
CONTINUOUS
  0
LAYER
  2
BROWN1
  70
0
  62
58
  6
CONTINUOUS
  0
LAYER
  2
BLUE2
  70
0
  62
5
  6
CONTINUOUS
  0
LAYER
  2
GREEN2
  70
0
  62
3
  6
CONTINUOUS
  0
LAYER
  2
CYAN2
  70
0
  62
4
  6
CONTINUOUS
  0
LAYER
  2
RED2
  70
0
  62
1
  6
CONTINUOUS
  0
LAYER
  2
MAGENTA2
  70
0
  62
6
  6
CONTINUOUS
  0
LAYER
  2
BROWN2
  70
0
  62
54
  6
CONTINUOUS
  0
LAYER
  2
BLUE3
  70
0
  62
171
  6
CONTINUOUS
  0
LAYER
  2
GREEN3
  70
0
  62
91
  6
CONTINUOUS
  0
LAYER
  2
CYAN3
  70
0
  62
131
  6
CONTINUOUS
  0
LAYER
  2
RED3
  70
0
  62
11
  6
CONTINUOUS
  0
LAYER
  2
MAGENTA3
  70
0
  62
221
  6
CONTINUOUS
  0
LAYER
  2
YELLOW3
  70
0
  62
2
  6
CONTINUOUS
  0
LAYER
  2
BLUE4
  70
0
  62
5
  6
CONTINUOUS
  0
LAYER
  2
GREEN4
  70
0
  62
3
  6
CONTINUOUS
  0
LAYER
  2
CYAN4
  70
0
  62
4
  6
CONTINUOUS
  0
LAYER
  2
RED4
  70
0
  62
1
  6
CONTINUOUS
  0
LAYER
  2
MAGENTA4
  70
0
  62
6
  6
CONTINUOUS
  0
LAYER
  2
YELLOW4
  70
0
  62
2
  6
CONTINUOUS
  0
ENDTAB
  0
ENDSEC
  0
SECTION
  2
ENTITIES
0
LINE
8
BLACK
6
CONTINUOUS
10
259.336
20
-187.052
11
258.969
21
-187.558
0
LINE
8
BLACK
6
CONTINUOUS
10
258.969
20
-187.558
11
258.487
21
-187.957
0
LINE
8
BLACK
6
CONTINUOUS
10
258.487
20
-187.957
11
257.921
21
-188.223
0
LINE
8
BLACK
6
CONTINUOUS
10
257.921
20
-188.223
11
257.307
21
-188.34
0
LINE
8
BLACK
6
CONTINUOUS
10
257.307
20
-188.34
11
256.682
21
-188.301
0
LINE
8
BLACK
6
CONTINUOUS
10
256.682
20
-188.301
11
256.088
21
-188.108
0
LINE
8
BLACK
6
CONTINUOUS
10
256.088
20
-188.108
11
255.56
21
-187.772
0
LINE
8
BLACK
6
CONTINUOUS
10
255.56
20
-187.772
11
255.132
21
-187.317
0
LINE
8
BLACK
6
CONTINUOUS
10
255.132
20
-187.317
11
254.83
21
-186.768
0
LINE
8
BLACK
6
CONTINUOUS
10
254.83
20
-186.768
11
254.675
21
-186.163
0
LINE
8
BLACK
6
CONTINUOUS
10
254.675
20
-186.163
11
254.675
21
-185.537
0
LINE
8
BLACK
6
CONTINUOUS
10
254.675
20
-185.537
11
254.83
21
-184.932
0
LINE
8
BLACK
6
CONTINUOUS
10
254.83
20
-184.932
11
255.132
21
-184.383
0
LINE
8
BLACK
6
CONTINUOUS
10
255.132
20
-184.383
11
255.56
21
-183.928
0
LINE
8
BLACK
6
CONTINUOUS
10
255.56
20
-183.928
11
256.088
21
-183.592
0
LINE
8
BLACK
6
CONTINUOUS
10
256.088
20
-183.592
11
256.682
21
-183.399
0
LINE
8
BLACK
6
CONTINUOUS
10
256.682
20
-183.399
11
257.307
21
-183.36
0
LINE
8
BLACK
6
CONTINUOUS
10
257.307
20
-183.36
11
257.921
21
-183.477
0
LINE
8
BLACK
6
CONTINUOUS
10
257.921
20
-183.477
11
258.487
21
-183.743
0
LINE
8
BLACK
6
CONTINUOUS
10
258.487
20
-183.743
11
258.969
21
-184.142
0
LINE
8
BLACK
6
CONTINUOUS
10
258.969
20
-184.142
11
259.336
21
-184.648
0
LINE
8
BLACK
6
CONTINUOUS
10
259.336
20
-184.648
11
259.567
21
-185.23
0
LINE
8
BLACK
6
CONTINUOUS
10
259.567
20
-185.23
11
259.645
21
-185.85
0
LINE
8
BLACK
6
CONTINUOUS
10
259.645
20
-185.85
11
259.567
21
-186.47
0
LINE
8
BLACK
6
CONTINUOUS
10
259.567
20
-186.47
11
259.336
21
-187.052
0
LINE
8
BLACK
6
CONTINUOUS
10
259.275
20
-184.682
11
258.918
21
-184.19
0
LINE
8
BLACK
6
CONTINUOUS
10
258.918
20
-184.19
11
258.449
21
-183.803
0
LINE
8
BLACK
6
CONTINUOUS
10
258.449
20
-183.803
11
257.899
21
-183.544
0
LINE
8
BLACK
6
CONTINUOUS
10
257.899
20
-183.544
11
257.302
21
-183.43
0
LINE
8
BLACK
6
CONTINUOUS
10
257.302
20
-183.43
11
256.696
21
-183.468
0
LINE
8
BLACK
6
CONTINUOUS
10
256.696
20
-183.468
11
256.117
21
-183.656
0
LINE
8
BLACK
6
CONTINUOUS
10
256.117
20
-183.656
11
255.604
21
-183.982
0
LINE
8
BLACK
6
CONTINUOUS
10
255.604
20
-183.982
11
255.188
21
-184.425
0
LINE
8
BLACK
6
CONTINUOUS
10
255.188
20
-184.425
11
254.895
21
-184.957
0
LINE
8
BLACK
6
CONTINUOUS
10
254.895
20
-184.957
11
254.744
21
-185.546
0
LINE
8
BLACK
6
CONTINUOUS
10
254.744
20
-185.546
11
254.744
21
-186.154
0
LINE
8
BLACK
6
CONTINUOUS
10
254.744
20
-186.154
11
254.895
21
-186.743
0
LINE
8
BLACK
6
CONTINUOUS
10
254.895
20
-186.743
11
255.188
21
-187.275
0
LINE
8
BLACK
6
CONTINUOUS
10
255.188
20
-187.275
11
255.604
21
-187.718
0
LINE
8
BLACK
6
CONTINUOUS
10
255.604
20
-187.718
11
256.117
21
-188.044
0
LINE
8
BLACK
6
CONTINUOUS
10
256.117
20
-188.044
11
256.696
21
-188.232
0
LINE
8
BLACK
6
CONTINUOUS
10
256.696
20
-188.232
11
257.302
21
-188.27
0
LINE
8
BLACK
6
CONTINUOUS
10
257.302
20
-188.27
11
257.899
21
-188.156
0
LINE
8
BLACK
6
CONTINUOUS
10
257.899
20
-188.156
11
258.449
21
-187.897
0
LINE
8
BLACK
6
CONTINUOUS
10
258.449
20
-187.897
11
258.918
21
-187.51
0
LINE
8
BLACK
6
CONTINUOUS
10
258.918
20
-187.51
11
259.275
21
-187.018
0
LINE
8
BLACK
6
CONTINUOUS
10
259.275
20
-187.018
11
259.499
21
-186.453
0
LINE
8
BLACK
6
CONTINUOUS
10
259.499
20
-186.453
11
259.575
21
-185.85
0
LINE
8
BLACK
6
CONTINUOUS
10
259.575
20
-185.85
11
259.499
21
-185.247
0
LINE
8
BLACK
6
CONTINUOUS
10
259.499
20
-185.247
11
259.275
21
-184.682
0
LINE
8
BLACK
6
CONTINUOUS
10
353.511
20
-186.602
11
353.144
21
-187.108
0
LINE
8
BLACK
6
CONTINUOUS
10
353.144
20
-187.108
11
352.662
21
-187.507
0
LINE
8
BLACK
6
CONTINUOUS
10
352.662
20
-187.507
11
352.096
21
-187.773
0
LINE
8
BLACK
6
CONTINUOUS
10
352.096
20
-187.773
11
351.482
21
-187.89
0
LINE
8
BLACK
6
CONTINUOUS
10
351.482
20
-187.89
11
350.857
21
-187.851
0
LINE
8
BLACK
6
CONTINUOUS
10
350.857
20
-187.851
11
350.263
21
-187.658
0
LINE
8
BLACK
6
CONTINUOUS
10
350.263
20
-187.658
11
349.735
21
-187.322
0
LINE
8
BLACK
6
CONTINUOUS
10
349.735
20
-187.322
11
349.307
21
-186.867
0
LINE
8
BLACK
6
CONTINUOUS
10
349.307
20
-186.867
11
349.005
21
-186.318
0
LINE
8
BLACK
6
CONTINUOUS
10
349.005
20
-186.318
11
348.85
21
-185.713
0
LINE
8
BLACK
6
CONTINUOUS
10
348.85
20
-185.713
11
348.85
21
-185.087
0
LINE
8
BLACK
6
CONTINUOUS
10
348.85
20
-185.087
11
349.005
21
-184.482
0
LINE
8
BLACK
6
CONTINUOUS
10
349.005
20
-184.482
11
349.307
21
-183.933
0
LINE
8
BLACK
6
CONTINUOUS
10
349.307
20
-183.933
11
349.735
21
-183.478
0
LINE
8
BLACK
6
CONTINUOUS
10
349.735
20
-183.478
11
350.263
21
-183.142
0
LINE
8
BLACK
6
CONTINUOUS
10
350.263
20
-183.142
11
350.857
21
-182.949
0
LINE
8
BLACK
6
CONTINUOUS
10
350.857
20
-182.949
11
351.482
21
-182.91
0
LINE
8
BLACK
6
CONTINUOUS
10
351.482
20
-182.91
11
352.096
21
-183.027
0
LINE
8
BLACK
6
CONTINUOUS
10
352.096
20
-183.027
11
352.662
21
-183.293
0
LINE
8
BLACK
6
CONTINUOUS
10
352.662
20
-183.293
11
353.144
21
-183.692
0
LINE
8
BLACK
6
CONTINUOUS
10
353.144
20
-183.692
11
353.511
21
-184.198
0
LINE
8
BLACK
6
CONTINUOUS
10
353.511
20
-184.198
11
353.742
21
-184.78
0
LINE
8
BLACK
6
CONTINUOUS
10
353.742
20
-184.78
11
353.82
21
-185.4
0
LINE
8
BLACK
6
CONTINUOUS
10
353.82
20
-185.4
11
353.742
21
-186.02
0
LINE
8
BLACK
6
CONTINUOUS
10
353.742
20
-186.02
11
353.511
21
-186.602
0
LINE
8
BLACK
6
CONTINUOUS
10
353.45
20
-184.232
11
353.093
21
-183.74
0
LINE
8
BLACK
6
CONTINUOUS
10
353.093
20
-183.74
11
352.624
21
-183.353
0
LINE
8
BLACK
6
CONTINUOUS
10
352.624
20
-183.353
11
352.074
21
-183.094
0
LINE
8
BLACK
6
CONTINUOUS
10
352.074
20
-183.094
11
351.477
21
-182.98
0
LINE
8
BLACK
6
CONTINUOUS
10
351.477
20
-182.98
11
350.871
21
-183.018
0
LINE
8
BLACK
6
CONTINUOUS
10
350.871
20
-183.018
11
350.292
21
-183.206
0
LINE
8
BLACK
6
CONTINUOUS
10
350.292
20
-183.206
11
349.779
21
-183.532
0
LINE
8
BLACK
6
CONTINUOUS
10
349.779
20
-183.532
11
349.363
21
-183.975
0
LINE
8
BLACK
6
CONTINUOUS
10
349.363
20
-183.975
11
349.07
21
-184.507
0
LINE
8
BLACK
6
CONTINUOUS
10
349.07
20
-184.507
11
348.919
21
-185.096
0
LINE
8
BLACK
6
CONTINUOUS
10
348.919
20
-185.096
11
348.919
21
-185.704
0
LINE
8
BLACK
6
CONTINUOUS
10
348.919
20
-185.704
11
349.07
21
-186.293
0
LINE
8
BLACK
6
CONTINUOUS
10
349.07
20
-186.293
11
349.363
21
-186.825
0
LINE
8
BLACK
6
CONTINUOUS
10
349.363
20
-186.825
11
349.779
21
-187.268
0
LINE
8
BLACK
6
CONTINUOUS
10
349.779
20
-187.268
11
350.292
21
-187.594
0
LINE
8
BLACK
6
CONTINUOUS
10
350.292
20
-187.594
11
350.871
21
-187.782
0
LINE
8
BLACK
6
CONTINUOUS
10
350.871
20
-187.782
11
351.477
21
-187.82
0
LINE
8
BLACK
6
CONTINUOUS
10
351.477
20
-187.82
11
352.074
21
-187.706
0
LINE
8
BLACK
6
CONTINUOUS
10
352.074
20
-187.706
11
352.624
21
-187.447
0
LINE
8
BLACK
6
CONTINUOUS
10
352.624
20
-187.447
11
353.093
21
-187.06
0
LINE
8
BLACK
6
CONTINUOUS
10
353.093
20
-187.06
11
353.45
21
-186.568
0
LINE
8
BLACK
6
CONTINUOUS
10
353.45
20
-186.568
11
353.674
21
-186.003
0
LINE
8
BLACK
6
CONTINUOUS
10
353.674
20
-186.003
11
353.75
21
-185.4
0
LINE
8
BLACK
6
CONTINUOUS
10
353.75
20
-185.4
11
353.674
21
-184.797
0
LINE
8
BLACK
6
CONTINUOUS
10
353.674
20
-184.797
11
353.45
21
-184.232
0
LINE
8
BLACK
6
CONTINUOUS
10
145.211
20
-186.352
11
144.844
21
-186.858
0
LINE
8
BLACK
6
CONTINUOUS
10
144.844
20
-186.858
11
144.362
21
-187.257
0
LINE
8
BLACK
6
CONTINUOUS
10
144.362
20
-187.257
11
143.796
21
-187.523
0
LINE
8
BLACK
6
CONTINUOUS
10
143.796
20
-187.523
11
143.182
21
-187.64
0
LINE
8
BLACK
6
CONTINUOUS
10
143.182
20
-187.64
11
142.557
21
-187.601
0
LINE
8
BLACK
6
CONTINUOUS
10
142.557
20
-187.601
11
141.963
21
-187.408
0
LINE
8
BLACK
6
CONTINUOUS
10
141.963
20
-187.408
11
141.435
21
-187.072
0
LINE
8
BLACK
6
CONTINUOUS
10
141.435
20
-187.072
11
141.007
21
-186.617
0
LINE
8
BLACK
6
CONTINUOUS
10
141.007
20
-186.617
11
140.705
21
-186.068
0
LINE
8
BLACK
6
CONTINUOUS
10
140.705
20
-186.068
11
140.55
21
-185.463
0
LINE
8
BLACK
6
CONTINUOUS
10
140.55
20
-185.463
11
140.55
21
-184.837
0
LINE
8
BLACK
6
CONTINUOUS
10
140.55
20
-184.837
11
140.705
21
-184.232
0
LINE
8
BLACK
6
CONTINUOUS
10
140.705
20
-184.232
11
141.007
21
-183.683
0
LINE
8
BLACK
6
CONTINUOUS
10
141.007
20
-183.683
11
141.435
21
-183.228
0
LINE
8
BLACK
6
CONTINUOUS
10
141.435
20
-183.228
11
141.963
21
-182.892
0
LINE
8
BLACK
6
CONTINUOUS
10
141.963
20
-182.892
11
142.557
21
-182.699
0
LINE
8
BLACK
6
CONTINUOUS
10
142.557
20
-182.699
11
143.182
21
-182.66
0
LINE
8
BLACK
6
CONTINUOUS
10
143.182
20
-182.66
11
143.796
21
-182.777
0
LINE
8
BLACK
6
CONTINUOUS
10
143.796
20
-182.777
11
144.362
21
-183.043
0
LINE
8
BLACK
6
CONTINUOUS
10
144.362
20
-183.043
11
144.844
21
-183.442
0
LINE
8
BLACK
6
CONTINUOUS
10
144.844
20
-183.442
11
145.211
21
-183.948
0
LINE
8
BLACK
6
CONTINUOUS
10
145.211
20
-183.948
11
145.442
21
-184.53
0
LINE
8
BLACK
6
CONTINUOUS
10
145.442
20
-184.53
11
145.52
21
-185.15
0
LINE
8
BLACK
6
CONTINUOUS
10
145.52
20
-185.15
11
145.442
21
-185.77
0
LINE
8
BLACK
6
CONTINUOUS
10
145.442
20
-185.77
11
145.211
21
-186.352
0
LINE
8
BLACK
6
CONTINUOUS
10
145.15
20
-183.982
11
144.793
21
-183.49
0
LINE
8
BLACK
6
CONTINUOUS
10
144.793
20
-183.49
11
144.324
21
-183.103
0
LINE
8
BLACK
6
CONTINUOUS
10
144.324
20
-183.103
11
143.774
21
-182.844
0
LINE
8
BLACK
6
CONTINUOUS
10
143.774
20
-182.844
11
143.177
21
-182.73
0
LINE
8
BLACK
6
CONTINUOUS
10
143.177
20
-182.73
11
142.571
21
-182.768
0
LINE
8
BLACK
6
CONTINUOUS
10
142.571
20
-182.768
11
141.992
21
-182.956
0
LINE
8
BLACK
6
CONTINUOUS
10
141.992
20
-182.956
11
141.479
21
-183.282
0
LINE
8
BLACK
6
CONTINUOUS
10
141.479
20
-183.282
11
141.063
21
-183.725
0
LINE
8
BLACK
6
CONTINUOUS
10
141.063
20
-183.725
11
140.77
21
-184.257
0
LINE
8
BLACK
6
CONTINUOUS
10
140.77
20
-184.257
11
140.619
21
-184.846
0
LINE
8
BLACK
6
CONTINUOUS
10
140.619
20
-184.846
11
140.619
21
-185.454
0
LINE
8
BLACK
6
CONTINUOUS
10
140.619
20
-185.454
11
140.77
21
-186.043
0
LINE
8
BLACK
6
CONTINUOUS
10
140.77
20
-186.043
11
141.063
21
-186.575
0
LINE
8
BLACK
6
CONTINUOUS
10
141.063
20
-186.575
11
141.479
21
-187.018
0
LINE
8
BLACK
6
CONTINUOUS
10
141.479
20
-187.018
11
141.992
21
-187.344
0
LINE
8
BLACK
6
CONTINUOUS
10
141.992
20
-187.344
11
142.571
21
-187.532
0
LINE
8
BLACK
6
CONTINUOUS
10
142.571
20
-187.532
11
143.177
21
-187.57
0
LINE
8
BLACK
6
CONTINUOUS
10
143.177
20
-187.57
11
143.774
21
-187.456
0
LINE
8
BLACK
6
CONTINUOUS
10
143.774
20
-187.456
11
144.324
21
-187.197
0
LINE
8
BLACK
6
CONTINUOUS
10
144.324
20
-187.197
11
144.793
21
-186.81
0
LINE
8
BLACK
6
CONTINUOUS
10
144.793
20
-186.81
11
145.15
21
-186.318
0
LINE
8
BLACK
6
CONTINUOUS
10
145.15
20
-186.318
11
145.374
21
-185.753
0
LINE
8
BLACK
6
CONTINUOUS
10
145.374
20
-185.753
11
145.45
21
-185.15
0
LINE
8
BLACK
6
CONTINUOUS
10
145.45
20
-185.15
11
145.374
21
-184.547
0
LINE
8
BLACK
6
CONTINUOUS
10
145.374
20
-184.547
11
145.15
21
-183.982
0
LINE
8
BLACK
6
CONTINUOUS
10
202.211
20
-136.302
11
201.844
21
-136.808
0
LINE
8
BLACK
6
CONTINUOUS
10
201.844
20
-136.808
11
201.362
21
-137.207
0
LINE
8
BLACK
6
CONTINUOUS
10
201.362
20
-137.207
11
200.796
21
-137.473
0
LINE
8
BLACK
6
CONTINUOUS
10
200.796
20
-137.473
11
200.182
21
-137.59
0
LINE
8
BLACK
6
CONTINUOUS
10
200.182
20
-137.59
11
199.557
21
-137.551
0
LINE
8
BLACK
6
CONTINUOUS
10
199.557
20
-137.551
11
198.963
21
-137.358
0
LINE
8
BLACK
6
CONTINUOUS
10
198.963
20
-137.358
11
198.435
21
-137.022
0
LINE
8
BLACK
6
CONTINUOUS
10
198.435
20
-137.022
11
198.007
21
-136.567
0
LINE
8
BLACK
6
CONTINUOUS
10
198.007
20
-136.567
11
197.705
21
-136.018
0
LINE
8
BLACK
6
CONTINUOUS
10
197.705
20
-136.018
11
197.55
21
-135.413
0
LINE
8
BLACK
6
CONTINUOUS
10
197.55
20
-135.413
11
197.55
21
-134.787
0
LINE
8
BLACK
6
CONTINUOUS
10
197.55
20
-134.787
11
197.705
21
-134.182
0
LINE
8
BLACK
6
CONTINUOUS
10
197.705
20
-134.182
11
198.007
21
-133.633
0
LINE
8
BLACK
6
CONTINUOUS
10
198.007
20
-133.633
11
198.435
21
-133.178
0
LINE
8
BLACK
6
CONTINUOUS
10
198.435
20
-133.178
11
198.963
21
-132.842
0
LINE
8
BLACK
6
CONTINUOUS
10
198.963
20
-132.842
11
199.557
21
-132.649
0
LINE
8
BLACK
6
CONTINUOUS
10
199.557
20
-132.649
11
200.182
21
-132.61
0
LINE
8
BLACK
6
CONTINUOUS
10
200.182
20
-132.61
11
200.796
21
-132.727
0
LINE
8
BLACK
6
CONTINUOUS
10
200.796
20
-132.727
11
201.362
21
-132.993
0
LINE
8
BLACK
6
CONTINUOUS
10
201.362
20
-132.993
11
201.844
21
-133.392
0
LINE
8
BLACK
6
CONTINUOUS
10
201.844
20
-133.392
11
202.211
21
-133.898
0
LINE
8
BLACK
6
CONTINUOUS
10
202.211
20
-133.898
11
202.442
21
-134.48
0
LINE
8
BLACK
6
CONTINUOUS
10
202.442
20
-134.48
11
202.52
21
-135.1
0
LINE
8
BLACK
6
CONTINUOUS
10
202.52
20
-135.1
11
202.442
21
-135.72
0
LINE
8
BLACK
6
CONTINUOUS
10
202.442
20
-135.72
11
202.211
21
-136.302
0
LINE
8
BLACK
6
CONTINUOUS
10
202.15
20
-133.932
11
201.793
21
-133.44
0
LINE
8
BLACK
6
CONTINUOUS
10
201.793
20
-133.44
11
201.324
21
-133.053
0
LINE
8
BLACK
6
CONTINUOUS
10
201.324
20
-133.053
11
200.774
21
-132.794
0
LINE
8
BLACK
6
CONTINUOUS
10
200.774
20
-132.794
11
200.177
21
-132.68
0
LINE
8
BLACK
6
CONTINUOUS
10
200.177
20
-132.68
11
199.571
21
-132.718
0
LINE
8
BLACK
6
CONTINUOUS
10
199.571
20
-132.718
11
198.992
21
-132.906
0
LINE
8
BLACK
6
CONTINUOUS
10
198.992
20
-132.906
11
198.479
21
-133.232
0
LINE
8
BLACK
6
CONTINUOUS
10
198.479
20
-133.232
11
198.063
21
-133.675
0
LINE
8
BLACK
6
CONTINUOUS
10
198.063
20
-133.675
11
197.77
21
-134.207
0
LINE
8
BLACK
6
CONTINUOUS
10
197.77
20
-134.207
11
197.619
21
-134.796
0
LINE
8
BLACK
6
CONTINUOUS
10
197.619
20
-134.796
11
197.619
21
-135.404
0
LINE
8
BLACK
6
CONTINUOUS
10
197.619
20
-135.404
11
197.77
21
-135.993
0
LINE
8
BLACK
6
CONTINUOUS
10
197.77
20
-135.993
11
198.063
21
-136.525
0
LINE
8
BLACK
6
CONTINUOUS
10
198.063
20
-136.525
11
198.479
21
-136.968
0
LINE
8
BLACK
6
CONTINUOUS
10
198.479
20
-136.968
11
198.992
21
-137.294
0
LINE
8
BLACK
6
CONTINUOUS
10
198.992
20
-137.294
11
199.571
21
-137.482
0
LINE
8
BLACK
6
CONTINUOUS
10
199.571
20
-137.482
11
200.177
21
-137.52
0
LINE
8
BLACK
6
CONTINUOUS
10
200.177
20
-137.52
11
200.774
21
-137.406
0
LINE
8
BLACK
6
CONTINUOUS
10
200.774
20
-137.406
11
201.324
21
-137.147
0
LINE
8
BLACK
6
CONTINUOUS
10
201.324
20
-137.147
11
201.793
21
-136.76
0
LINE
8
BLACK
6
CONTINUOUS
10
201.793
20
-136.76
11
202.15
21
-136.268
0
LINE
8
BLACK
6
CONTINUOUS
10
202.15
20
-136.268
11
202.374
21
-135.703
0
LINE
8
BLACK
6
CONTINUOUS
10
202.374
20
-135.703
11
202.45
21
-135.1
0
LINE
8
BLACK
6
CONTINUOUS
10
202.45
20
-135.1
11
202.374
21
-134.497
0
LINE
8
BLACK
6
CONTINUOUS
10
202.374
20
-134.497
11
202.15
21
-133.932
0
LINE
8
BLACK
6
CONTINUOUS
10
354.586
20
-125.027
11
354.219
21
-125.533
0
LINE
8
BLACK
6
CONTINUOUS
10
354.219
20
-125.533
11
353.737
21
-125.932
0
LINE
8
BLACK
6
CONTINUOUS
10
353.737
20
-125.932
11
353.171
21
-126.198
0
LINE
8
BLACK
6
CONTINUOUS
10
353.171
20
-126.198
11
352.557
21
-126.315
0
LINE
8
BLACK
6
CONTINUOUS
10
352.557
20
-126.315
11
351.932
21
-126.276
0
LINE
8
BLACK
6
CONTINUOUS
10
351.932
20
-126.276
11
351.338
21
-126.083
0
LINE
8
BLACK
6
CONTINUOUS
10
351.338
20
-126.083
11
350.81
21
-125.747
0
LINE
8
BLACK
6
CONTINUOUS
10
350.81
20
-125.747
11
350.382
21
-125.292
0
LINE
8
BLACK
6
CONTINUOUS
10
350.382
20
-125.292
11
350.08
21
-124.743
0
LINE
8
BLACK
6
CONTINUOUS
10
350.08
20
-124.743
11
349.925
21
-124.138
0
LINE
8
BLACK
6
CONTINUOUS
10
349.925
20
-124.138
11
349.925
21
-123.512
0
LINE
8
BLACK
6
CONTINUOUS
10
349.925
20
-123.512
11
350.08
21
-122.907
0
LINE
8
BLACK
6
CONTINUOUS
10
350.08
20
-122.907
11
350.382
21
-122.358
0
LINE
8
BLACK
6
CONTINUOUS
10
350.382
20
-122.358
11
350.81
21
-121.903
0
LINE
8
BLACK
6
CONTINUOUS
10
350.81
20
-121.903
11
351.338
21
-121.567
0
LINE
8
BLACK
6
CONTINUOUS
10
351.338
20
-121.567
11
351.932
21
-121.374
0
LINE
8
BLACK
6
CONTINUOUS
10
351.932
20
-121.374
11
352.557
21
-121.335
0
LINE
8
BLACK
6
CONTINUOUS
10
352.557
20
-121.335
11
353.171
21
-121.452
0
LINE
8
BLACK
6
CONTINUOUS
10
353.171
20
-121.452
11
353.737
21
-121.718
0
LINE
8
BLACK
6
CONTINUOUS
10
353.737
20
-121.718
11
354.219
21
-122.117
0
LINE
8
BLACK
6
CONTINUOUS
10
354.219
20
-122.117
11
354.586
21
-122.623
0
LINE
8
BLACK
6
CONTINUOUS
10
354.586
20
-122.623
11
354.817
21
-123.205
0
LINE
8
BLACK
6
CONTINUOUS
10
354.817
20
-123.205
11
354.895
21
-123.825
0
LINE
8
BLACK
6
CONTINUOUS
10
354.895
20
-123.825
11
354.817
21
-124.445
0
LINE
8
BLACK
6
CONTINUOUS
10
354.817
20
-124.445
11
354.586
21
-125.027
0
LINE
8
BLACK
6
CONTINUOUS
10
354.525
20
-122.657
11
354.168
21
-122.165
0
LINE
8
BLACK
6
CONTINUOUS
10
354.168
20
-122.165
11
353.699
21
-121.778
0
LINE
8
BLACK
6
CONTINUOUS
10
353.699
20
-121.778
11
353.149
21
-121.519
0
LINE
8
BLACK
6
CONTINUOUS
10
353.149
20
-121.519
11
352.552
21
-121.405
0
LINE
8
BLACK
6
CONTINUOUS
10
352.552
20
-121.405
11
351.946
21
-121.443
0
LINE
8
BLACK
6
CONTINUOUS
10
351.946
20
-121.443
11
351.367
21
-121.631
0
LINE
8
BLACK
6
CONTINUOUS
10
351.367
20
-121.631
11
350.854
21
-121.957
0
LINE
8
BLACK
6
CONTINUOUS
10
350.854
20
-121.957
11
350.438
21
-122.4
0
LINE
8
BLACK
6
CONTINUOUS
10
350.438
20
-122.4
11
350.145
21
-122.932
0
LINE
8
BLACK
6
CONTINUOUS
10
350.145
20
-122.932
11
349.994
21
-123.521
0
LINE
8
BLACK
6
CONTINUOUS
10
349.994
20
-123.521
11
349.994
21
-124.129
0
LINE
8
BLACK
6
CONTINUOUS
10
349.994
20
-124.129
11
350.145
21
-124.718
0
LINE
8
BLACK
6
CONTINUOUS
10
350.145
20
-124.718
11
350.438
21
-125.25
0
LINE
8
BLACK
6
CONTINUOUS
10
350.438
20
-125.25
11
350.854
21
-125.693
0
LINE
8
BLACK
6
CONTINUOUS
10
350.854
20
-125.693
11
351.367
21
-126.019
0
LINE
8
BLACK
6
CONTINUOUS
10
351.367
20
-126.019
11
351.946
21
-126.207
0
LINE
8
BLACK
6
CONTINUOUS
10
351.946
20
-126.207
11
352.552
21
-126.245
0
LINE
8
BLACK
6
CONTINUOUS
10
352.552
20
-126.245
11
353.149
21
-126.131
0
LINE
8
BLACK
6
CONTINUOUS
10
353.149
20
-126.131
11
353.699
21
-125.872
0
LINE
8
BLACK
6
CONTINUOUS
10
353.699
20
-125.872
11
354.168
21
-125.485
0
LINE
8
BLACK
6
CONTINUOUS
10
354.168
20
-125.485
11
354.525
21
-124.993
0
LINE
8
BLACK
6
CONTINUOUS
10
354.525
20
-124.993
11
354.749
21
-124.428
0
LINE
8
BLACK
6
CONTINUOUS
10
354.749
20
-124.428
11
354.825
21
-123.825
0
LINE
8
BLACK
6
CONTINUOUS
10
354.825
20
-123.825
11
354.749
21
-123.222
0
LINE
8
BLACK
6
CONTINUOUS
10
354.749
20
-123.222
11
354.525
21
-122.657
  0
ENDSEC
  0
EOF
