  0
SECTION
  2
HEADER
  9
$ANGBASE
  50
0.0
  9
$ANGDIR
  70
  1
  9
$MEASUREMENT
  70
0
  0
ENDSEC
  0
SECTION
  2
TABLES
  0
TABLE
  2
LTYPE
  70
4
  0
LTYPE
  5
40F
  2
CONTINUOUS
  70
0
  3
Solid line
  72
65
  73
0
  40
0.0
  0
LTYPE
  5
410
  2
DASHDOT
 70
0
  3
Dash Dot ____ _ ____ _
 72
65
 73
4
 40
2.0
 49
1.25
 49
-0.25
 49
0.25
 49
-0.25
  0
LTYPE
  5
411
  2
DASHED
 70
0
  3
Dashed __ __ __ __ __
 72
65
 73
2
 40
0.75
 49
0.5
 49
-0.25
  0
LTYPE
  5
43B
  2
DOTTED
 70
0
  3
Dotted .  .  .  .
 72
65
 73
2
 40
0.2
 49
0.0
 49
-0.2
  0
ENDTAB
  0
TABLE
  2
STYLE
  70
4
  0
STYLE
  2
KICAD
  70
0
  40
0
  41
1
  42
1
  50
0
  71
0
  3
isocp.shx
  0
STYLE
  2
KICADB
  70
0
  40
0
  41
1
  42
1
  50
0
  71
0
  3
isocp.shx
  0
STYLE
  2
KICADI
  70
0
  40
0
  41
1
  42
1
  50
15
  71
0
  3
isocp.shx
  0
STYLE
  2
KICADBI
  70
0
  40
0
  41
1
  42
1
  50
15
  71
0
  3
isocp.shx
  0
ENDTAB
  0
TABLE
  2
LAYER
  70
30
  0
LAYER
  2
BLACK
  70
0
  62
7
  6
CONTINUOUS
  0
LAYER
  2
GRAY1
  70
0
  62
251
  6
CONTINUOUS
  0
LAYER
  2
GRAY2
  70
0
  62
8
  6
CONTINUOUS
  0
LAYER
  2
GRAY3
  70
0
  62
9
  6
CONTINUOUS
  0
LAYER
  2
WHITE
  70
0
  62
7
  6
CONTINUOUS
  0
LAYER
  2
LYELLOW
  70
0
  62
51
  6
CONTINUOUS
  0
LAYER
  2
BLUE1
  70
0
  62
178
  6
CONTINUOUS
  0
LAYER
  2
GREEN1
  70
0
  62
98
  6
CONTINUOUS
  0
LAYER
  2
CYAN1
  70
0
  62
138
  6
CONTINUOUS
  0
LAYER
  2
RED1
  70
0
  62
18
  6
CONTINUOUS
  0
LAYER
  2
MAGENTA1
  70
0
  62
228
  6
CONTINUOUS
  0
LAYER
  2
BROWN1
  70
0
  62
58
  6
CONTINUOUS
  0
LAYER
  2
BLUE2
  70
0
  62
5
  6
CONTINUOUS
  0
LAYER
  2
GREEN2
  70
0
  62
3
  6
CONTINUOUS
  0
LAYER
  2
CYAN2
  70
0
  62
4
  6
CONTINUOUS
  0
LAYER
  2
RED2
  70
0
  62
1
  6
CONTINUOUS
  0
LAYER
  2
MAGENTA2
  70
0
  62
6
  6
CONTINUOUS
  0
LAYER
  2
BROWN2
  70
0
  62
54
  6
CONTINUOUS
  0
LAYER
  2
BLUE3
  70
0
  62
171
  6
CONTINUOUS
  0
LAYER
  2
GREEN3
  70
0
  62
91
  6
CONTINUOUS
  0
LAYER
  2
CYAN3
  70
0
  62
131
  6
CONTINUOUS
  0
LAYER
  2
RED3
  70
0
  62
11
  6
CONTINUOUS
  0
LAYER
  2
MAGENTA3
  70
0
  62
221
  6
CONTINUOUS
  0
LAYER
  2
YELLOW3
  70
0
  62
2
  6
CONTINUOUS
  0
LAYER
  2
BLUE4
  70
0
  62
5
  6
CONTINUOUS
  0
LAYER
  2
GREEN4
  70
0
  62
3
  6
CONTINUOUS
  0
LAYER
  2
CYAN4
  70
0
  62
4
  6
CONTINUOUS
  0
LAYER
  2
RED4
  70
0
  62
1
  6
CONTINUOUS
  0
LAYER
  2
MAGENTA4
  70
0
  62
6
  6
CONTINUOUS
  0
LAYER
  2
YELLOW4
  70
0
  62
2
  6
CONTINUOUS
  0
ENDTAB
  0
ENDSEC
  0
SECTION
  2
ENTITIES
0
LINE
8
BLACK
6
CONTINUOUS
10
353.621
20
-121.367
11
353.621
21
-121.367
0
LINE
8
BLACK
6
CONTINUOUS
10
353.621
20
-121.367
11
354.028
21
-121.439
0
LINE
8
BLACK
6
CONTINUOUS
10
354.028
20
-121.439
11
354.053
21
-121.448
0
LINE
8
BLACK
6
CONTINUOUS
10
354.053
20
-121.448
11
354.053
21
-121.448
0
LINE
8
BLACK
6
CONTINUOUS
10
354.053
20
-121.448
11
354.411
21
-121.655
0
LINE
8
BLACK
6
CONTINUOUS
10
354.411
20
-121.655
11
354.431
21
-121.672
0
LINE
8
BLACK
6
CONTINUOUS
10
354.431
20
-121.672
11
354.431
21
-121.672
0
LINE
8
BLACK
6
CONTINUOUS
10
354.431
20
-121.672
11
354.697
21
-121.988
0
LINE
8
BLACK
6
CONTINUOUS
10
354.697
20
-121.988
11
354.697
21
-121.988
0
LINE
8
BLACK
6
CONTINUOUS
10
354.697
20
-121.988
11
354.71
21
-122.011
0
LINE
8
BLACK
6
CONTINUOUS
10
354.71
20
-122.011
11
354.851
21
-122.399
0
LINE
8
BLACK
6
CONTINUOUS
10
354.851
20
-122.399
11
354.853
21
-122.409
0
LINE
8
BLACK
6
CONTINUOUS
10
354.853
20
-122.409
11
354.855
21
-122.419
0
LINE
8
BLACK
6
CONTINUOUS
10
354.855
20
-122.419
11
354.873
21
-122.622
0
LINE
8
BLACK
6
CONTINUOUS
10
354.873
20
-122.622
11
354.874
21
-122.625
0
LINE
8
BLACK
6
CONTINUOUS
10
354.874
20
-122.625
11
354.874
21
-201.218
0
LINE
8
BLACK
6
CONTINUOUS
10
354.874
20
-201.218
11
354.873
21
-201.224
0
LINE
8
BLACK
6
CONTINUOUS
10
354.873
20
-201.224
11
354.873
21
-201.224
0
LINE
8
BLACK
6
CONTINUOUS
10
354.873
20
-201.224
11
354.801
21
-201.632
0
LINE
8
BLACK
6
CONTINUOUS
10
354.801
20
-201.632
11
354.792
21
-201.656
0
LINE
8
BLACK
6
CONTINUOUS
10
354.792
20
-201.656
11
354.792
21
-201.656
0
LINE
8
BLACK
6
CONTINUOUS
10
354.792
20
-201.656
11
354.585
21
-202.014
0
LINE
8
BLACK
6
CONTINUOUS
10
354.585
20
-202.014
11
354.568
21
-202.034
0
LINE
8
BLACK
6
CONTINUOUS
10
354.568
20
-202.034
11
354.252
21
-202.3
0
LINE
8
BLACK
6
CONTINUOUS
10
354.252
20
-202.3
11
354.229
21
-202.313
0
LINE
8
BLACK
6
CONTINUOUS
10
354.229
20
-202.313
11
353.841
21
-202.454
0
LINE
8
BLACK
6
CONTINUOUS
10
353.841
20
-202.454
11
353.831
21
-202.456
0
LINE
8
BLACK
6
CONTINUOUS
10
353.831
20
-202.456
11
353.821
21
-202.459
0
LINE
8
BLACK
6
CONTINUOUS
10
353.821
20
-202.459
11
353.618
21
-202.476
0
LINE
8
BLACK
6
CONTINUOUS
10
353.618
20
-202.476
11
353.615
21
-202.477
0
LINE
8
BLACK
6
CONTINUOUS
10
353.615
20
-202.477
11
141.675
21
-202.477
0
LINE
8
BLACK
6
CONTINUOUS
10
141.675
20
-202.477
11
141.668
21
-202.476
0
LINE
8
BLACK
6
CONTINUOUS
10
141.668
20
-202.476
11
141.668
21
-202.476
0
LINE
8
BLACK
6
CONTINUOUS
10
141.668
20
-202.476
11
141.261
21
-202.404
0
LINE
8
BLACK
6
CONTINUOUS
10
141.261
20
-202.404
11
141.237
21
-202.395
0
LINE
8
BLACK
6
CONTINUOUS
10
141.237
20
-202.395
11
141.237
21
-202.395
0
LINE
8
BLACK
6
CONTINUOUS
10
141.237
20
-202.395
11
140.879
21
-202.188
0
LINE
8
BLACK
6
CONTINUOUS
10
140.879
20
-202.188
11
140.859
21
-202.172
0
LINE
8
BLACK
6
CONTINUOUS
10
140.859
20
-202.172
11
140.593
21
-201.855
0
LINE
8
BLACK
6
CONTINUOUS
10
140.593
20
-201.855
11
140.58
21
-201.832
0
LINE
8
BLACK
6
CONTINUOUS
10
140.58
20
-201.832
11
140.438
21
-201.444
0
LINE
8
BLACK
6
CONTINUOUS
10
140.438
20
-201.444
11
140.437
21
-201.434
0
LINE
8
BLACK
6
CONTINUOUS
10
140.437
20
-201.434
11
140.434
21
-201.425
0
LINE
8
BLACK
6
CONTINUOUS
10
140.434
20
-201.425
11
140.416
21
-201.221
0
LINE
8
BLACK
6
CONTINUOUS
10
140.416
20
-201.221
11
140.416
21
-201.218
0
LINE
8
BLACK
6
CONTINUOUS
10
140.416
20
-201.218
11
140.416
21
-122.625
0
LINE
8
BLACK
6
CONTINUOUS
10
140.416
20
-122.625
11
140.417
21
-122.619
0
LINE
8
BLACK
6
CONTINUOUS
10
140.417
20
-122.619
11
140.417
21
-122.619
0
LINE
8
BLACK
6
CONTINUOUS
10
140.417
20
-122.619
11
140.489
21
-122.212
0
LINE
8
BLACK
6
CONTINUOUS
10
140.489
20
-122.212
11
140.498
21
-122.187
0
LINE
8
BLACK
6
CONTINUOUS
10
140.498
20
-122.187
11
140.498
21
-122.187
0
LINE
8
BLACK
6
CONTINUOUS
10
140.498
20
-122.187
11
140.704
21
-121.829
0
LINE
8
BLACK
6
CONTINUOUS
10
140.704
20
-121.829
11
140.721
21
-121.809
0
LINE
8
BLACK
6
CONTINUOUS
10
140.721
20
-121.809
11
140.721
21
-121.809
0
LINE
8
BLACK
6
CONTINUOUS
10
140.721
20
-121.809
11
141.038
21
-121.543
0
LINE
8
BLACK
6
CONTINUOUS
10
141.038
20
-121.543
11
141.038
21
-121.543
0
LINE
8
BLACK
6
CONTINUOUS
10
141.038
20
-121.543
11
141.06
21
-121.53
0
LINE
8
BLACK
6
CONTINUOUS
10
141.06
20
-121.53
11
141.449
21
-121.389
0
LINE
8
BLACK
6
CONTINUOUS
10
141.449
20
-121.389
11
141.459
21
-121.387
0
LINE
8
BLACK
6
CONTINUOUS
10
141.459
20
-121.387
11
141.468
21
-121.385
0
LINE
8
BLACK
6
CONTINUOUS
10
141.468
20
-121.385
11
141.672
21
-121.367
0
LINE
8
BLACK
6
CONTINUOUS
10
141.672
20
-121.367
11
141.675
21
-121.366
0
LINE
8
BLACK
6
CONTINUOUS
10
141.675
20
-121.366
11
353.615
21
-121.366
0
LINE
8
BLACK
6
CONTINUOUS
10
353.615
20
-121.366
11
353.621
21
-121.367
0
LINE
8
BLACK
6
CONTINUOUS
10
141.685
20
-121.516
11
141.491
21
-121.533
0
LINE
8
BLACK
6
CONTINUOUS
10
141.491
20
-121.533
11
141.124
21
-121.667
0
LINE
8
BLACK
6
CONTINUOUS
10
141.124
20
-121.667
11
140.828
21
-121.915
0
LINE
8
BLACK
6
CONTINUOUS
10
140.828
20
-121.915
11
140.634
21
-122.251
0
LINE
8
BLACK
6
CONTINUOUS
10
140.634
20
-122.251
11
140.566
21
-122.638
0
LINE
8
BLACK
6
CONTINUOUS
10
140.566
20
-122.638
11
140.566
21
-201.208
0
LINE
8
BLACK
6
CONTINUOUS
10
140.566
20
-201.208
11
140.583
21
-201.402
0
LINE
8
BLACK
6
CONTINUOUS
10
140.583
20
-201.402
11
140.716
21
-201.769
0
LINE
8
BLACK
6
CONTINUOUS
10
140.716
20
-201.769
11
140.965
21
-202.065
0
LINE
8
BLACK
6
CONTINUOUS
10
140.965
20
-202.065
11
141.3
21
-202.259
0
LINE
8
BLACK
6
CONTINUOUS
10
141.3
20
-202.259
11
141.688
21
-202.327
0
LINE
8
BLACK
6
CONTINUOUS
10
141.688
20
-202.327
11
353.605
21
-202.327
0
LINE
8
BLACK
6
CONTINUOUS
10
353.605
20
-202.327
11
353.799
21
-202.31
0
LINE
8
BLACK
6
CONTINUOUS
10
353.799
20
-202.31
11
354.165
21
-202.177
0
LINE
8
BLACK
6
CONTINUOUS
10
354.165
20
-202.177
11
354.462
21
-201.928
0
LINE
8
BLACK
6
CONTINUOUS
10
354.462
20
-201.928
11
354.655
21
-201.593
0
LINE
8
BLACK
6
CONTINUOUS
10
354.655
20
-201.593
11
354.724
21
-201.205
0
LINE
8
BLACK
6
CONTINUOUS
10
354.724
20
-201.205
11
354.724
21
-122.635
0
LINE
8
BLACK
6
CONTINUOUS
10
354.724
20
-122.635
11
354.707
21
-122.441
0
LINE
8
BLACK
6
CONTINUOUS
10
354.707
20
-122.441
11
354.573
21
-122.075
0
LINE
8
BLACK
6
CONTINUOUS
10
354.573
20
-122.075
11
354.325
21
-121.778
0
LINE
8
BLACK
6
CONTINUOUS
10
354.325
20
-121.778
11
353.989
21
-121.585
0
LINE
8
BLACK
6
CONTINUOUS
10
353.989
20
-121.585
11
353.602
21
-121.516
0
LINE
8
BLACK
6
CONTINUOUS
10
353.602
20
-121.516
11
141.685
21
-121.516
  0
ENDSEC
  0
EOF
