G04 #@! TF.GenerationSoftware,KiCad,Pcbnew,(5.0.0)*
G04 #@! TF.CreationDate,2019-03-21T00:22:59+08:00*
G04 #@! TF.ProjectId,nqg,6E71672E6B696361645F706362000000,rev?*
G04 #@! TF.SameCoordinates,Original*
G04 #@! TF.FileFunction,Legend,Bot*
G04 #@! TF.FilePolarity,Positive*
%FSLAX46Y46*%
G04 Gerber Fmt 4.6, Leading zero omitted, Abs format (unit mm)*
G04 Created by KiCad (PCBNEW (5.0.0)) date 03/21/19 00:22:59*
%MOMM*%
%LPD*%
G01*
G04 APERTURE LIST*
%ADD10C,0.400000*%
%ADD11C,0.500000*%
%ADD12C,1.000000*%
%ADD13C,0.150000*%
%ADD14C,3.500000*%
%ADD15C,3.000000*%
%ADD16C,0.800000*%
%ADD17C,0.300000*%
%ADD18C,0.120000*%
%ADD19C,0.010000*%
G04 APERTURE END LIST*
D10*
G04 #@! TO.C,SW30*
X309200000Y-129450000D02*
X309200000Y-130150000D01*
X309200000Y-126950000D02*
X307800000Y-126950000D01*
D11*
X299100000Y-132050000D02*
X301800000Y-132050000D01*
D12*
X301783682Y-131828529D02*
G75*
G02X304000000Y-129950000I2151318J-291471D01*
G01*
D13*
X309400000Y-127100000D02*
X309400000Y-126750000D01*
X298900000Y-128650001D02*
G75*
G02X300999999Y-126750000I2000000J-99999D01*
G01*
X302183682Y-132228529D02*
G75*
G02X304400000Y-130350000I2151318J-291471D01*
G01*
X309400000Y-126750000D02*
X300999999Y-126750000D01*
X304400000Y-130350000D02*
X309400000Y-130350000D01*
X298900000Y-132250000D02*
X302180000Y-132250000D01*
X298900000Y-128650000D02*
X298900000Y-129650000D01*
X298900000Y-132250000D02*
X298900000Y-131890000D01*
X299100000Y-131890000D02*
X298900000Y-131890000D01*
X299130000Y-129650000D02*
X299130000Y-131890000D01*
X298900000Y-129650000D02*
X299100000Y-129650000D01*
X309200000Y-127100000D02*
X309400000Y-127100000D01*
X309180000Y-129350000D02*
X309180000Y-127100000D01*
X309400000Y-129350000D02*
X309200000Y-129350000D01*
X309400000Y-130350000D02*
X309400000Y-129350000D01*
D14*
X307400000Y-128550000D02*
X300700000Y-128550000D01*
D12*
X308700000Y-127350000D02*
X308700000Y-129850000D01*
D11*
X309100000Y-130050000D02*
X307700000Y-130050000D01*
D15*
X300630000Y-128250000D02*
X300630000Y-130490000D01*
D16*
X299500000Y-131750000D02*
X299500000Y-129950001D01*
D17*
X299000000Y-129549999D02*
X299000000Y-128650000D01*
D10*
G04 #@! TO.C,SW34*
X328250000Y-129450000D02*
X328250000Y-130150000D01*
X328250000Y-126950000D02*
X326850000Y-126950000D01*
D11*
X318150000Y-132050000D02*
X320850000Y-132050000D01*
D12*
X320833682Y-131828529D02*
G75*
G02X323050000Y-129950000I2151318J-291471D01*
G01*
D13*
X328450000Y-127100000D02*
X328450000Y-126750000D01*
X317950000Y-128650001D02*
G75*
G02X320049999Y-126750000I2000000J-99999D01*
G01*
X321233682Y-132228529D02*
G75*
G02X323450000Y-130350000I2151318J-291471D01*
G01*
X328450000Y-126750000D02*
X320049999Y-126750000D01*
X323450000Y-130350000D02*
X328450000Y-130350000D01*
X317950000Y-132250000D02*
X321230000Y-132250000D01*
X317950000Y-128650000D02*
X317950000Y-129650000D01*
X317950000Y-132250000D02*
X317950000Y-131890000D01*
X318150000Y-131890000D02*
X317950000Y-131890000D01*
X318180000Y-129650000D02*
X318180000Y-131890000D01*
X317950000Y-129650000D02*
X318150000Y-129650000D01*
X328250000Y-127100000D02*
X328450000Y-127100000D01*
X328230000Y-129350000D02*
X328230000Y-127100000D01*
X328450000Y-129350000D02*
X328250000Y-129350000D01*
X328450000Y-130350000D02*
X328450000Y-129350000D01*
D14*
X326450000Y-128550000D02*
X319750000Y-128550000D01*
D12*
X327750000Y-127350000D02*
X327750000Y-129850000D01*
D11*
X328150000Y-130050000D02*
X326750000Y-130050000D01*
D15*
X319680000Y-128250000D02*
X319680000Y-130490000D01*
D16*
X318550000Y-131750000D02*
X318550000Y-129950001D01*
D17*
X318050000Y-129549999D02*
X318050000Y-128650000D01*
G04 #@! TO.C,SW38*
X337100000Y-148599999D02*
X337100000Y-147700000D01*
D16*
X337600000Y-150800000D02*
X337600000Y-149000001D01*
D15*
X338730000Y-147300000D02*
X338730000Y-149540000D01*
D11*
X347200000Y-149100000D02*
X345800000Y-149100000D01*
D12*
X346800000Y-146400000D02*
X346800000Y-148900000D01*
D14*
X345500000Y-147600000D02*
X338800000Y-147600000D01*
D13*
X347500000Y-149400000D02*
X347500000Y-148400000D01*
X347500000Y-148400000D02*
X347300000Y-148400000D01*
X347280000Y-148400000D02*
X347280000Y-146150000D01*
X347300000Y-146150000D02*
X347500000Y-146150000D01*
X337000000Y-148700000D02*
X337200000Y-148700000D01*
X337230000Y-148700000D02*
X337230000Y-150940000D01*
X337200000Y-150940000D02*
X337000000Y-150940000D01*
X337000000Y-151300000D02*
X337000000Y-150940000D01*
X337000000Y-147700000D02*
X337000000Y-148700000D01*
X337000000Y-151300000D02*
X340280000Y-151300000D01*
X342500000Y-149400000D02*
X347500000Y-149400000D01*
X347500000Y-145800000D02*
X339099999Y-145800000D01*
X340283682Y-151278529D02*
G75*
G02X342500000Y-149400000I2151318J-291471D01*
G01*
X337000000Y-147700001D02*
G75*
G02X339099999Y-145800000I2000000J-99999D01*
G01*
X347500000Y-146150000D02*
X347500000Y-145800000D01*
D12*
X339883682Y-150878529D02*
G75*
G02X342100000Y-149000000I2151318J-291471D01*
G01*
D11*
X337200000Y-151100000D02*
X339900000Y-151100000D01*
D10*
X347300000Y-146000000D02*
X345900000Y-146000000D01*
X347300000Y-148500000D02*
X347300000Y-149200000D01*
D18*
G04 #@! TO.C,D1*
X162924250Y-176270500D02*
X160924250Y-176270500D01*
X160924250Y-176270500D02*
X160924250Y-172370500D01*
X162924250Y-176270500D02*
X162924250Y-172370500D01*
G04 #@! TO.C,D2*
X181974250Y-138170500D02*
X181974250Y-134270500D01*
X179974250Y-138170500D02*
X179974250Y-134270500D01*
X181974250Y-138170500D02*
X179974250Y-138170500D01*
G04 #@! TO.C,D3*
X181974250Y-157220500D02*
X179974250Y-157220500D01*
X179974250Y-157220500D02*
X179974250Y-153320500D01*
X181974250Y-157220500D02*
X181974250Y-153320500D01*
G04 #@! TO.C,D4*
X181974250Y-176270500D02*
X179974250Y-176270500D01*
X179974250Y-176270500D02*
X179974250Y-172370500D01*
X181974250Y-176270500D02*
X181974250Y-172370500D01*
G04 #@! TO.C,D5*
X201024250Y-138170500D02*
X199024250Y-138170500D01*
X199024250Y-138170500D02*
X199024250Y-134270500D01*
X201024250Y-138170500D02*
X201024250Y-134270500D01*
G04 #@! TO.C,D6*
X201024250Y-157220500D02*
X201024250Y-153320500D01*
X199024250Y-157220500D02*
X199024250Y-153320500D01*
X201024250Y-157220500D02*
X199024250Y-157220500D01*
G04 #@! TO.C,D7*
X201024250Y-176270500D02*
X201024250Y-172370500D01*
X199024250Y-176270500D02*
X199024250Y-172370500D01*
X201024250Y-176270500D02*
X199024250Y-176270500D01*
G04 #@! TO.C,D8*
X220074250Y-138170500D02*
X218074250Y-138170500D01*
X218074250Y-138170500D02*
X218074250Y-134270500D01*
X220074250Y-138170500D02*
X220074250Y-134270500D01*
G04 #@! TO.C,D9*
X220074250Y-157220500D02*
X218074250Y-157220500D01*
X218074250Y-157220500D02*
X218074250Y-153320500D01*
X220074250Y-157220500D02*
X220074250Y-153320500D01*
G04 #@! TO.C,D10*
X220074250Y-176270500D02*
X218074250Y-176270500D01*
X218074250Y-176270500D02*
X218074250Y-172370500D01*
X220074250Y-176270500D02*
X220074250Y-172370500D01*
G04 #@! TO.C,D11*
X220074250Y-195320500D02*
X220074250Y-191420500D01*
X218074250Y-195320500D02*
X218074250Y-191420500D01*
X220074250Y-195320500D02*
X218074250Y-195320500D01*
G04 #@! TO.C,D12*
X239124250Y-138170500D02*
X239124250Y-134270500D01*
X237124250Y-138170500D02*
X237124250Y-134270500D01*
X239124250Y-138170500D02*
X237124250Y-138170500D01*
G04 #@! TO.C,D13*
X239124250Y-157220500D02*
X239124250Y-153320500D01*
X237124250Y-157220500D02*
X237124250Y-153320500D01*
X239124250Y-157220500D02*
X237124250Y-157220500D01*
G04 #@! TO.C,D14*
X239124250Y-176270500D02*
X237124250Y-176270500D01*
X237124250Y-176270500D02*
X237124250Y-172370500D01*
X239124250Y-176270500D02*
X239124250Y-172370500D01*
G04 #@! TO.C,D15*
X258174250Y-138170500D02*
X256174250Y-138170500D01*
X256174250Y-138170500D02*
X256174250Y-134270500D01*
X258174250Y-138170500D02*
X258174250Y-134270500D01*
G04 #@! TO.C,D16*
X258174250Y-157220500D02*
X256174250Y-157220500D01*
X256174250Y-157220500D02*
X256174250Y-153320500D01*
X258174250Y-157220500D02*
X258174250Y-153320500D01*
G04 #@! TO.C,D17*
X258174250Y-176270500D02*
X256174250Y-176270500D01*
X256174250Y-176270500D02*
X256174250Y-172370500D01*
X258174250Y-176270500D02*
X258174250Y-172370500D01*
G04 #@! TO.C,D18*
X258174250Y-195320500D02*
X258174250Y-191420500D01*
X256174250Y-195320500D02*
X256174250Y-191420500D01*
X258174250Y-195320500D02*
X256174250Y-195320500D01*
G04 #@! TO.C,D19*
X277224250Y-138170500D02*
X277224250Y-134270500D01*
X275224250Y-138170500D02*
X275224250Y-134270500D01*
X277224250Y-138170500D02*
X275224250Y-138170500D01*
G04 #@! TO.C,D20*
X277224250Y-157220500D02*
X277224250Y-153320500D01*
X275224250Y-157220500D02*
X275224250Y-153320500D01*
X277224250Y-157220500D02*
X275224250Y-157220500D01*
G04 #@! TO.C,D21*
X277224250Y-176270500D02*
X277224250Y-172370500D01*
X275224250Y-176270500D02*
X275224250Y-172370500D01*
X277224250Y-176270500D02*
X275224250Y-176270500D01*
G04 #@! TO.C,D22*
X296274250Y-195320500D02*
X294274250Y-195320500D01*
X294274250Y-195320500D02*
X294274250Y-191420500D01*
X296274250Y-195320500D02*
X296274250Y-191420500D01*
G04 #@! TO.C,D23*
X296274250Y-138170500D02*
X294274250Y-138170500D01*
X294274250Y-138170500D02*
X294274250Y-134270500D01*
X296274250Y-138170500D02*
X296274250Y-134270500D01*
G04 #@! TO.C,D24*
X296274250Y-157220500D02*
X294274250Y-157220500D01*
X294274250Y-157220500D02*
X294274250Y-153320500D01*
X296274250Y-157220500D02*
X296274250Y-153320500D01*
G04 #@! TO.C,D25*
X296274250Y-176270500D02*
X294274250Y-176270500D01*
X294274250Y-176270500D02*
X294274250Y-172370500D01*
X296274250Y-176270500D02*
X296274250Y-172370500D01*
G04 #@! TO.C,D26*
X315324250Y-138170500D02*
X315324250Y-134270500D01*
X313324250Y-138170500D02*
X313324250Y-134270500D01*
X315324250Y-138170500D02*
X313324250Y-138170500D01*
G04 #@! TO.C,D27*
X315324250Y-157220500D02*
X315324250Y-153320500D01*
X313324250Y-157220500D02*
X313324250Y-153320500D01*
X315324250Y-157220500D02*
X313324250Y-157220500D01*
G04 #@! TO.C,D28*
X315324250Y-176270500D02*
X315324250Y-172370500D01*
X313324250Y-176270500D02*
X313324250Y-172370500D01*
X315324250Y-176270500D02*
X313324250Y-176270500D01*
G04 #@! TO.C,D29*
X315324250Y-195320500D02*
X315324250Y-191420500D01*
X313324250Y-195320500D02*
X313324250Y-191420500D01*
X315324250Y-195320500D02*
X313324250Y-195320500D01*
G04 #@! TO.C,D30*
X334374250Y-138170500D02*
X332374250Y-138170500D01*
X332374250Y-138170500D02*
X332374250Y-134270500D01*
X334374250Y-138170500D02*
X334374250Y-134270500D01*
G04 #@! TO.C,D31*
X334374250Y-157220500D02*
X332374250Y-157220500D01*
X332374250Y-157220500D02*
X332374250Y-153320500D01*
X334374250Y-157220500D02*
X334374250Y-153320500D01*
G04 #@! TO.C,D32*
X334374250Y-176270500D02*
X332374250Y-176270500D01*
X332374250Y-176270500D02*
X332374250Y-172370500D01*
X334374250Y-176270500D02*
X334374250Y-172370500D01*
G04 #@! TO.C,D33*
X353424250Y-138170500D02*
X353424250Y-134270500D01*
X351424250Y-138170500D02*
X351424250Y-134270500D01*
X353424250Y-138170500D02*
X351424250Y-138170500D01*
G04 #@! TO.C,D34*
X353424250Y-157220500D02*
X353424250Y-153320500D01*
X351424250Y-157220500D02*
X351424250Y-153320500D01*
X353424250Y-157220500D02*
X351424250Y-157220500D01*
G04 #@! TO.C,D35*
X353424250Y-176270500D02*
X353424250Y-172370500D01*
X351424250Y-176270500D02*
X351424250Y-172370500D01*
X353424250Y-176270500D02*
X351424250Y-176270500D01*
D10*
G04 #@! TO.C,SW1*
X156800000Y-167550000D02*
X156800000Y-168250000D01*
X156800000Y-165050000D02*
X155400000Y-165050000D01*
D11*
X146700000Y-170150000D02*
X149400000Y-170150000D01*
D12*
X149383682Y-169928529D02*
G75*
G02X151600000Y-168050000I2151318J-291471D01*
G01*
D13*
X157000000Y-165200000D02*
X157000000Y-164850000D01*
X146500000Y-166750001D02*
G75*
G02X148599999Y-164850000I2000000J-99999D01*
G01*
X149783682Y-170328529D02*
G75*
G02X152000000Y-168450000I2151318J-291471D01*
G01*
X157000000Y-164850000D02*
X148599999Y-164850000D01*
X152000000Y-168450000D02*
X157000000Y-168450000D01*
X146500000Y-170350000D02*
X149780000Y-170350000D01*
X146500000Y-166750000D02*
X146500000Y-167750000D01*
X146500000Y-170350000D02*
X146500000Y-169990000D01*
X146700000Y-169990000D02*
X146500000Y-169990000D01*
X146730000Y-167750000D02*
X146730000Y-169990000D01*
X146500000Y-167750000D02*
X146700000Y-167750000D01*
X156800000Y-165200000D02*
X157000000Y-165200000D01*
X156780000Y-167450000D02*
X156780000Y-165200000D01*
X157000000Y-167450000D02*
X156800000Y-167450000D01*
X157000000Y-168450000D02*
X157000000Y-167450000D01*
D14*
X155000000Y-166650000D02*
X148300000Y-166650000D01*
D12*
X156300000Y-165450000D02*
X156300000Y-167950000D01*
D11*
X156700000Y-168150000D02*
X155300000Y-168150000D01*
D15*
X148230000Y-166350000D02*
X148230000Y-168590000D01*
D16*
X147100000Y-169850000D02*
X147100000Y-168050001D01*
D17*
X146600000Y-167649999D02*
X146600000Y-166750000D01*
D10*
G04 #@! TO.C,SW2*
X175850000Y-129450000D02*
X175850000Y-130150000D01*
X175850000Y-126950000D02*
X174450000Y-126950000D01*
D11*
X165750000Y-132050000D02*
X168450000Y-132050000D01*
D12*
X168433682Y-131828529D02*
G75*
G02X170650000Y-129950000I2151318J-291471D01*
G01*
D13*
X176050000Y-127100000D02*
X176050000Y-126750000D01*
X165550000Y-128650001D02*
G75*
G02X167649999Y-126750000I2000000J-99999D01*
G01*
X168833682Y-132228529D02*
G75*
G02X171050000Y-130350000I2151318J-291471D01*
G01*
X176050000Y-126750000D02*
X167649999Y-126750000D01*
X171050000Y-130350000D02*
X176050000Y-130350000D01*
X165550000Y-132250000D02*
X168830000Y-132250000D01*
X165550000Y-128650000D02*
X165550000Y-129650000D01*
X165550000Y-132250000D02*
X165550000Y-131890000D01*
X165750000Y-131890000D02*
X165550000Y-131890000D01*
X165780000Y-129650000D02*
X165780000Y-131890000D01*
X165550000Y-129650000D02*
X165750000Y-129650000D01*
X175850000Y-127100000D02*
X176050000Y-127100000D01*
X175830000Y-129350000D02*
X175830000Y-127100000D01*
X176050000Y-129350000D02*
X175850000Y-129350000D01*
X176050000Y-130350000D02*
X176050000Y-129350000D01*
D14*
X174050000Y-128550000D02*
X167350000Y-128550000D01*
D12*
X175350000Y-127350000D02*
X175350000Y-129850000D01*
D11*
X175750000Y-130050000D02*
X174350000Y-130050000D01*
D15*
X167280000Y-128250000D02*
X167280000Y-130490000D01*
D16*
X166150000Y-131750000D02*
X166150000Y-129950001D01*
D17*
X165650000Y-129549999D02*
X165650000Y-128650000D01*
D10*
G04 #@! TO.C,SW3*
X175850000Y-148500000D02*
X175850000Y-149200000D01*
X175850000Y-146000000D02*
X174450000Y-146000000D01*
D11*
X165750000Y-151100000D02*
X168450000Y-151100000D01*
D12*
X168433682Y-150878529D02*
G75*
G02X170650000Y-149000000I2151318J-291471D01*
G01*
D13*
X176050000Y-146150000D02*
X176050000Y-145800000D01*
X165550000Y-147700001D02*
G75*
G02X167649999Y-145800000I2000000J-99999D01*
G01*
X168833682Y-151278529D02*
G75*
G02X171050000Y-149400000I2151318J-291471D01*
G01*
X176050000Y-145800000D02*
X167649999Y-145800000D01*
X171050000Y-149400000D02*
X176050000Y-149400000D01*
X165550000Y-151300000D02*
X168830000Y-151300000D01*
X165550000Y-147700000D02*
X165550000Y-148700000D01*
X165550000Y-151300000D02*
X165550000Y-150940000D01*
X165750000Y-150940000D02*
X165550000Y-150940000D01*
X165780000Y-148700000D02*
X165780000Y-150940000D01*
X165550000Y-148700000D02*
X165750000Y-148700000D01*
X175850000Y-146150000D02*
X176050000Y-146150000D01*
X175830000Y-148400000D02*
X175830000Y-146150000D01*
X176050000Y-148400000D02*
X175850000Y-148400000D01*
X176050000Y-149400000D02*
X176050000Y-148400000D01*
D14*
X174050000Y-147600000D02*
X167350000Y-147600000D01*
D12*
X175350000Y-146400000D02*
X175350000Y-148900000D01*
D11*
X175750000Y-149100000D02*
X174350000Y-149100000D01*
D15*
X167280000Y-147300000D02*
X167280000Y-149540000D01*
D16*
X166150000Y-150800000D02*
X166150000Y-149000001D01*
D17*
X165650000Y-148599999D02*
X165650000Y-147700000D01*
D10*
G04 #@! TO.C,SW4*
X175850000Y-167550000D02*
X175850000Y-168250000D01*
X175850000Y-165050000D02*
X174450000Y-165050000D01*
D11*
X165750000Y-170150000D02*
X168450000Y-170150000D01*
D12*
X168433682Y-169928529D02*
G75*
G02X170650000Y-168050000I2151318J-291471D01*
G01*
D13*
X176050000Y-165200000D02*
X176050000Y-164850000D01*
X165550000Y-166750001D02*
G75*
G02X167649999Y-164850000I2000000J-99999D01*
G01*
X168833682Y-170328529D02*
G75*
G02X171050000Y-168450000I2151318J-291471D01*
G01*
X176050000Y-164850000D02*
X167649999Y-164850000D01*
X171050000Y-168450000D02*
X176050000Y-168450000D01*
X165550000Y-170350000D02*
X168830000Y-170350000D01*
X165550000Y-166750000D02*
X165550000Y-167750000D01*
X165550000Y-170350000D02*
X165550000Y-169990000D01*
X165750000Y-169990000D02*
X165550000Y-169990000D01*
X165780000Y-167750000D02*
X165780000Y-169990000D01*
X165550000Y-167750000D02*
X165750000Y-167750000D01*
X175850000Y-165200000D02*
X176050000Y-165200000D01*
X175830000Y-167450000D02*
X175830000Y-165200000D01*
X176050000Y-167450000D02*
X175850000Y-167450000D01*
X176050000Y-168450000D02*
X176050000Y-167450000D01*
D14*
X174050000Y-166650000D02*
X167350000Y-166650000D01*
D12*
X175350000Y-165450000D02*
X175350000Y-167950000D01*
D11*
X175750000Y-168150000D02*
X174350000Y-168150000D01*
D15*
X167280000Y-166350000D02*
X167280000Y-168590000D01*
D16*
X166150000Y-169850000D02*
X166150000Y-168050001D01*
D17*
X165650000Y-167649999D02*
X165650000Y-166750000D01*
G04 #@! TO.C,SW5*
X184700000Y-129549999D02*
X184700000Y-128650000D01*
D16*
X185200000Y-131750000D02*
X185200000Y-129950001D01*
D15*
X186330000Y-128250000D02*
X186330000Y-130490000D01*
D11*
X194800000Y-130050000D02*
X193400000Y-130050000D01*
D12*
X194400000Y-127350000D02*
X194400000Y-129850000D01*
D14*
X193100000Y-128550000D02*
X186400000Y-128550000D01*
D13*
X195100000Y-130350000D02*
X195100000Y-129350000D01*
X195100000Y-129350000D02*
X194900000Y-129350000D01*
X194880000Y-129350000D02*
X194880000Y-127100000D01*
X194900000Y-127100000D02*
X195100000Y-127100000D01*
X184600000Y-129650000D02*
X184800000Y-129650000D01*
X184830000Y-129650000D02*
X184830000Y-131890000D01*
X184800000Y-131890000D02*
X184600000Y-131890000D01*
X184600000Y-132250000D02*
X184600000Y-131890000D01*
X184600000Y-128650000D02*
X184600000Y-129650000D01*
X184600000Y-132250000D02*
X187880000Y-132250000D01*
X190100000Y-130350000D02*
X195100000Y-130350000D01*
X195100000Y-126750000D02*
X186699999Y-126750000D01*
X187883682Y-132228529D02*
G75*
G02X190100000Y-130350000I2151318J-291471D01*
G01*
X184600000Y-128650001D02*
G75*
G02X186699999Y-126750000I2000000J-99999D01*
G01*
X195100000Y-127100000D02*
X195100000Y-126750000D01*
D12*
X187483682Y-131828529D02*
G75*
G02X189700000Y-129950000I2151318J-291471D01*
G01*
D11*
X184800000Y-132050000D02*
X187500000Y-132050000D01*
D10*
X194900000Y-126950000D02*
X193500000Y-126950000D01*
X194900000Y-129450000D02*
X194900000Y-130150000D01*
D17*
G04 #@! TO.C,SW6*
X184700000Y-148599999D02*
X184700000Y-147700000D01*
D16*
X185200000Y-150800000D02*
X185200000Y-149000001D01*
D15*
X186330000Y-147300000D02*
X186330000Y-149540000D01*
D11*
X194800000Y-149100000D02*
X193400000Y-149100000D01*
D12*
X194400000Y-146400000D02*
X194400000Y-148900000D01*
D14*
X193100000Y-147600000D02*
X186400000Y-147600000D01*
D13*
X195100000Y-149400000D02*
X195100000Y-148400000D01*
X195100000Y-148400000D02*
X194900000Y-148400000D01*
X194880000Y-148400000D02*
X194880000Y-146150000D01*
X194900000Y-146150000D02*
X195100000Y-146150000D01*
X184600000Y-148700000D02*
X184800000Y-148700000D01*
X184830000Y-148700000D02*
X184830000Y-150940000D01*
X184800000Y-150940000D02*
X184600000Y-150940000D01*
X184600000Y-151300000D02*
X184600000Y-150940000D01*
X184600000Y-147700000D02*
X184600000Y-148700000D01*
X184600000Y-151300000D02*
X187880000Y-151300000D01*
X190100000Y-149400000D02*
X195100000Y-149400000D01*
X195100000Y-145800000D02*
X186699999Y-145800000D01*
X187883682Y-151278529D02*
G75*
G02X190100000Y-149400000I2151318J-291471D01*
G01*
X184600000Y-147700001D02*
G75*
G02X186699999Y-145800000I2000000J-99999D01*
G01*
X195100000Y-146150000D02*
X195100000Y-145800000D01*
D12*
X187483682Y-150878529D02*
G75*
G02X189700000Y-149000000I2151318J-291471D01*
G01*
D11*
X184800000Y-151100000D02*
X187500000Y-151100000D01*
D10*
X194900000Y-146000000D02*
X193500000Y-146000000D01*
X194900000Y-148500000D02*
X194900000Y-149200000D01*
D17*
G04 #@! TO.C,SW7*
X184700000Y-167649999D02*
X184700000Y-166750000D01*
D16*
X185200000Y-169850000D02*
X185200000Y-168050001D01*
D15*
X186330000Y-166350000D02*
X186330000Y-168590000D01*
D11*
X194800000Y-168150000D02*
X193400000Y-168150000D01*
D12*
X194400000Y-165450000D02*
X194400000Y-167950000D01*
D14*
X193100000Y-166650000D02*
X186400000Y-166650000D01*
D13*
X195100000Y-168450000D02*
X195100000Y-167450000D01*
X195100000Y-167450000D02*
X194900000Y-167450000D01*
X194880000Y-167450000D02*
X194880000Y-165200000D01*
X194900000Y-165200000D02*
X195100000Y-165200000D01*
X184600000Y-167750000D02*
X184800000Y-167750000D01*
X184830000Y-167750000D02*
X184830000Y-169990000D01*
X184800000Y-169990000D02*
X184600000Y-169990000D01*
X184600000Y-170350000D02*
X184600000Y-169990000D01*
X184600000Y-166750000D02*
X184600000Y-167750000D01*
X184600000Y-170350000D02*
X187880000Y-170350000D01*
X190100000Y-168450000D02*
X195100000Y-168450000D01*
X195100000Y-164850000D02*
X186699999Y-164850000D01*
X187883682Y-170328529D02*
G75*
G02X190100000Y-168450000I2151318J-291471D01*
G01*
X184600000Y-166750001D02*
G75*
G02X186699999Y-164850000I2000000J-99999D01*
G01*
X195100000Y-165200000D02*
X195100000Y-164850000D01*
D12*
X187483682Y-169928529D02*
G75*
G02X189700000Y-168050000I2151318J-291471D01*
G01*
D11*
X184800000Y-170150000D02*
X187500000Y-170150000D01*
D10*
X194900000Y-165050000D02*
X193500000Y-165050000D01*
X194900000Y-167550000D02*
X194900000Y-168250000D01*
G04 #@! TO.C,SW8*
X213950000Y-129450000D02*
X213950000Y-130150000D01*
X213950000Y-126950000D02*
X212550000Y-126950000D01*
D11*
X203850000Y-132050000D02*
X206550000Y-132050000D01*
D12*
X206533682Y-131828529D02*
G75*
G02X208750000Y-129950000I2151318J-291471D01*
G01*
D13*
X214150000Y-127100000D02*
X214150000Y-126750000D01*
X203650000Y-128650001D02*
G75*
G02X205749999Y-126750000I2000000J-99999D01*
G01*
X206933682Y-132228529D02*
G75*
G02X209150000Y-130350000I2151318J-291471D01*
G01*
X214150000Y-126750000D02*
X205749999Y-126750000D01*
X209150000Y-130350000D02*
X214150000Y-130350000D01*
X203650000Y-132250000D02*
X206930000Y-132250000D01*
X203650000Y-128650000D02*
X203650000Y-129650000D01*
X203650000Y-132250000D02*
X203650000Y-131890000D01*
X203850000Y-131890000D02*
X203650000Y-131890000D01*
X203880000Y-129650000D02*
X203880000Y-131890000D01*
X203650000Y-129650000D02*
X203850000Y-129650000D01*
X213950000Y-127100000D02*
X214150000Y-127100000D01*
X213930000Y-129350000D02*
X213930000Y-127100000D01*
X214150000Y-129350000D02*
X213950000Y-129350000D01*
X214150000Y-130350000D02*
X214150000Y-129350000D01*
D14*
X212150000Y-128550000D02*
X205450000Y-128550000D01*
D12*
X213450000Y-127350000D02*
X213450000Y-129850000D01*
D11*
X213850000Y-130050000D02*
X212450000Y-130050000D01*
D15*
X205380000Y-128250000D02*
X205380000Y-130490000D01*
D16*
X204250000Y-131750000D02*
X204250000Y-129950001D01*
D17*
X203750000Y-129549999D02*
X203750000Y-128650000D01*
D10*
G04 #@! TO.C,SW9*
X213950000Y-148500000D02*
X213950000Y-149200000D01*
X213950000Y-146000000D02*
X212550000Y-146000000D01*
D11*
X203850000Y-151100000D02*
X206550000Y-151100000D01*
D12*
X206533682Y-150878529D02*
G75*
G02X208750000Y-149000000I2151318J-291471D01*
G01*
D13*
X214150000Y-146150000D02*
X214150000Y-145800000D01*
X203650000Y-147700001D02*
G75*
G02X205749999Y-145800000I2000000J-99999D01*
G01*
X206933682Y-151278529D02*
G75*
G02X209150000Y-149400000I2151318J-291471D01*
G01*
X214150000Y-145800000D02*
X205749999Y-145800000D01*
X209150000Y-149400000D02*
X214150000Y-149400000D01*
X203650000Y-151300000D02*
X206930000Y-151300000D01*
X203650000Y-147700000D02*
X203650000Y-148700000D01*
X203650000Y-151300000D02*
X203650000Y-150940000D01*
X203850000Y-150940000D02*
X203650000Y-150940000D01*
X203880000Y-148700000D02*
X203880000Y-150940000D01*
X203650000Y-148700000D02*
X203850000Y-148700000D01*
X213950000Y-146150000D02*
X214150000Y-146150000D01*
X213930000Y-148400000D02*
X213930000Y-146150000D01*
X214150000Y-148400000D02*
X213950000Y-148400000D01*
X214150000Y-149400000D02*
X214150000Y-148400000D01*
D14*
X212150000Y-147600000D02*
X205450000Y-147600000D01*
D12*
X213450000Y-146400000D02*
X213450000Y-148900000D01*
D11*
X213850000Y-149100000D02*
X212450000Y-149100000D01*
D15*
X205380000Y-147300000D02*
X205380000Y-149540000D01*
D16*
X204250000Y-150800000D02*
X204250000Y-149000001D01*
D17*
X203750000Y-148599999D02*
X203750000Y-147700000D01*
D10*
G04 #@! TO.C,SW10*
X213950000Y-167550000D02*
X213950000Y-168250000D01*
X213950000Y-165050000D02*
X212550000Y-165050000D01*
D11*
X203850000Y-170150000D02*
X206550000Y-170150000D01*
D12*
X206533682Y-169928529D02*
G75*
G02X208750000Y-168050000I2151318J-291471D01*
G01*
D13*
X214150000Y-165200000D02*
X214150000Y-164850000D01*
X203650000Y-166750001D02*
G75*
G02X205749999Y-164850000I2000000J-99999D01*
G01*
X206933682Y-170328529D02*
G75*
G02X209150000Y-168450000I2151318J-291471D01*
G01*
X214150000Y-164850000D02*
X205749999Y-164850000D01*
X209150000Y-168450000D02*
X214150000Y-168450000D01*
X203650000Y-170350000D02*
X206930000Y-170350000D01*
X203650000Y-166750000D02*
X203650000Y-167750000D01*
X203650000Y-170350000D02*
X203650000Y-169990000D01*
X203850000Y-169990000D02*
X203650000Y-169990000D01*
X203880000Y-167750000D02*
X203880000Y-169990000D01*
X203650000Y-167750000D02*
X203850000Y-167750000D01*
X213950000Y-165200000D02*
X214150000Y-165200000D01*
X213930000Y-167450000D02*
X213930000Y-165200000D01*
X214150000Y-167450000D02*
X213950000Y-167450000D01*
X214150000Y-168450000D02*
X214150000Y-167450000D01*
D14*
X212150000Y-166650000D02*
X205450000Y-166650000D01*
D12*
X213450000Y-165450000D02*
X213450000Y-167950000D01*
D11*
X213850000Y-168150000D02*
X212450000Y-168150000D01*
D15*
X205380000Y-166350000D02*
X205380000Y-168590000D01*
D16*
X204250000Y-169850000D02*
X204250000Y-168050001D01*
D17*
X203750000Y-167649999D02*
X203750000Y-166750000D01*
G04 #@! TO.C,SW11*
X203750000Y-186699999D02*
X203750000Y-185800000D01*
D16*
X204250000Y-188900000D02*
X204250000Y-187100001D01*
D15*
X205380000Y-185400000D02*
X205380000Y-187640000D01*
D11*
X213850000Y-187200000D02*
X212450000Y-187200000D01*
D12*
X213450000Y-184500000D02*
X213450000Y-187000000D01*
D14*
X212150000Y-185700000D02*
X205450000Y-185700000D01*
D13*
X214150000Y-187500000D02*
X214150000Y-186500000D01*
X214150000Y-186500000D02*
X213950000Y-186500000D01*
X213930000Y-186500000D02*
X213930000Y-184250000D01*
X213950000Y-184250000D02*
X214150000Y-184250000D01*
X203650000Y-186800000D02*
X203850000Y-186800000D01*
X203880000Y-186800000D02*
X203880000Y-189040000D01*
X203850000Y-189040000D02*
X203650000Y-189040000D01*
X203650000Y-189400000D02*
X203650000Y-189040000D01*
X203650000Y-185800000D02*
X203650000Y-186800000D01*
X203650000Y-189400000D02*
X206930000Y-189400000D01*
X209150000Y-187500000D02*
X214150000Y-187500000D01*
X214150000Y-183900000D02*
X205749999Y-183900000D01*
X206933682Y-189378529D02*
G75*
G02X209150000Y-187500000I2151318J-291471D01*
G01*
X203650000Y-185800001D02*
G75*
G02X205749999Y-183900000I2000000J-99999D01*
G01*
X214150000Y-184250000D02*
X214150000Y-183900000D01*
D12*
X206533682Y-188978529D02*
G75*
G02X208750000Y-187100000I2151318J-291471D01*
G01*
D11*
X203850000Y-189200000D02*
X206550000Y-189200000D01*
D10*
X213950000Y-184100000D02*
X212550000Y-184100000D01*
X213950000Y-186600000D02*
X213950000Y-187300000D01*
D17*
G04 #@! TO.C,SW12*
X222800000Y-129549999D02*
X222800000Y-128650000D01*
D16*
X223300000Y-131750000D02*
X223300000Y-129950001D01*
D15*
X224430000Y-128250000D02*
X224430000Y-130490000D01*
D11*
X232900000Y-130050000D02*
X231500000Y-130050000D01*
D12*
X232500000Y-127350000D02*
X232500000Y-129850000D01*
D14*
X231200000Y-128550000D02*
X224500000Y-128550000D01*
D13*
X233200000Y-130350000D02*
X233200000Y-129350000D01*
X233200000Y-129350000D02*
X233000000Y-129350000D01*
X232980000Y-129350000D02*
X232980000Y-127100000D01*
X233000000Y-127100000D02*
X233200000Y-127100000D01*
X222700000Y-129650000D02*
X222900000Y-129650000D01*
X222930000Y-129650000D02*
X222930000Y-131890000D01*
X222900000Y-131890000D02*
X222700000Y-131890000D01*
X222700000Y-132250000D02*
X222700000Y-131890000D01*
X222700000Y-128650000D02*
X222700000Y-129650000D01*
X222700000Y-132250000D02*
X225980000Y-132250000D01*
X228200000Y-130350000D02*
X233200000Y-130350000D01*
X233200000Y-126750000D02*
X224799999Y-126750000D01*
X225983682Y-132228529D02*
G75*
G02X228200000Y-130350000I2151318J-291471D01*
G01*
X222700000Y-128650001D02*
G75*
G02X224799999Y-126750000I2000000J-99999D01*
G01*
X233200000Y-127100000D02*
X233200000Y-126750000D01*
D12*
X225583682Y-131828529D02*
G75*
G02X227800000Y-129950000I2151318J-291471D01*
G01*
D11*
X222900000Y-132050000D02*
X225600000Y-132050000D01*
D10*
X233000000Y-126950000D02*
X231600000Y-126950000D01*
X233000000Y-129450000D02*
X233000000Y-130150000D01*
D17*
G04 #@! TO.C,SW13*
X222800000Y-148599999D02*
X222800000Y-147700000D01*
D16*
X223300000Y-150800000D02*
X223300000Y-149000001D01*
D15*
X224430000Y-147300000D02*
X224430000Y-149540000D01*
D11*
X232900000Y-149100000D02*
X231500000Y-149100000D01*
D12*
X232500000Y-146400000D02*
X232500000Y-148900000D01*
D14*
X231200000Y-147600000D02*
X224500000Y-147600000D01*
D13*
X233200000Y-149400000D02*
X233200000Y-148400000D01*
X233200000Y-148400000D02*
X233000000Y-148400000D01*
X232980000Y-148400000D02*
X232980000Y-146150000D01*
X233000000Y-146150000D02*
X233200000Y-146150000D01*
X222700000Y-148700000D02*
X222900000Y-148700000D01*
X222930000Y-148700000D02*
X222930000Y-150940000D01*
X222900000Y-150940000D02*
X222700000Y-150940000D01*
X222700000Y-151300000D02*
X222700000Y-150940000D01*
X222700000Y-147700000D02*
X222700000Y-148700000D01*
X222700000Y-151300000D02*
X225980000Y-151300000D01*
X228200000Y-149400000D02*
X233200000Y-149400000D01*
X233200000Y-145800000D02*
X224799999Y-145800000D01*
X225983682Y-151278529D02*
G75*
G02X228200000Y-149400000I2151318J-291471D01*
G01*
X222700000Y-147700001D02*
G75*
G02X224799999Y-145800000I2000000J-99999D01*
G01*
X233200000Y-146150000D02*
X233200000Y-145800000D01*
D12*
X225583682Y-150878529D02*
G75*
G02X227800000Y-149000000I2151318J-291471D01*
G01*
D11*
X222900000Y-151100000D02*
X225600000Y-151100000D01*
D10*
X233000000Y-146000000D02*
X231600000Y-146000000D01*
X233000000Y-148500000D02*
X233000000Y-149200000D01*
G04 #@! TO.C,SW14*
X233000000Y-167550000D02*
X233000000Y-168250000D01*
X233000000Y-165050000D02*
X231600000Y-165050000D01*
D11*
X222900000Y-170150000D02*
X225600000Y-170150000D01*
D12*
X225583682Y-169928529D02*
G75*
G02X227800000Y-168050000I2151318J-291471D01*
G01*
D13*
X233200000Y-165200000D02*
X233200000Y-164850000D01*
X222700000Y-166750001D02*
G75*
G02X224799999Y-164850000I2000000J-99999D01*
G01*
X225983682Y-170328529D02*
G75*
G02X228200000Y-168450000I2151318J-291471D01*
G01*
X233200000Y-164850000D02*
X224799999Y-164850000D01*
X228200000Y-168450000D02*
X233200000Y-168450000D01*
X222700000Y-170350000D02*
X225980000Y-170350000D01*
X222700000Y-166750000D02*
X222700000Y-167750000D01*
X222700000Y-170350000D02*
X222700000Y-169990000D01*
X222900000Y-169990000D02*
X222700000Y-169990000D01*
X222930000Y-167750000D02*
X222930000Y-169990000D01*
X222700000Y-167750000D02*
X222900000Y-167750000D01*
X233000000Y-165200000D02*
X233200000Y-165200000D01*
X232980000Y-167450000D02*
X232980000Y-165200000D01*
X233200000Y-167450000D02*
X233000000Y-167450000D01*
X233200000Y-168450000D02*
X233200000Y-167450000D01*
D14*
X231200000Y-166650000D02*
X224500000Y-166650000D01*
D12*
X232500000Y-165450000D02*
X232500000Y-167950000D01*
D11*
X232900000Y-168150000D02*
X231500000Y-168150000D01*
D15*
X224430000Y-166350000D02*
X224430000Y-168590000D01*
D16*
X223300000Y-169850000D02*
X223300000Y-168050001D01*
D17*
X222800000Y-167649999D02*
X222800000Y-166750000D01*
D10*
G04 #@! TO.C,SW15*
X252050000Y-129450000D02*
X252050000Y-130150000D01*
X252050000Y-126950000D02*
X250650000Y-126950000D01*
D11*
X241950000Y-132050000D02*
X244650000Y-132050000D01*
D12*
X244633682Y-131828529D02*
G75*
G02X246850000Y-129950000I2151318J-291471D01*
G01*
D13*
X252250000Y-127100000D02*
X252250000Y-126750000D01*
X241750000Y-128650001D02*
G75*
G02X243849999Y-126750000I2000000J-99999D01*
G01*
X245033682Y-132228529D02*
G75*
G02X247250000Y-130350000I2151318J-291471D01*
G01*
X252250000Y-126750000D02*
X243849999Y-126750000D01*
X247250000Y-130350000D02*
X252250000Y-130350000D01*
X241750000Y-132250000D02*
X245030000Y-132250000D01*
X241750000Y-128650000D02*
X241750000Y-129650000D01*
X241750000Y-132250000D02*
X241750000Y-131890000D01*
X241950000Y-131890000D02*
X241750000Y-131890000D01*
X241980000Y-129650000D02*
X241980000Y-131890000D01*
X241750000Y-129650000D02*
X241950000Y-129650000D01*
X252050000Y-127100000D02*
X252250000Y-127100000D01*
X252030000Y-129350000D02*
X252030000Y-127100000D01*
X252250000Y-129350000D02*
X252050000Y-129350000D01*
X252250000Y-130350000D02*
X252250000Y-129350000D01*
D14*
X250250000Y-128550000D02*
X243550000Y-128550000D01*
D12*
X251550000Y-127350000D02*
X251550000Y-129850000D01*
D11*
X251950000Y-130050000D02*
X250550000Y-130050000D01*
D15*
X243480000Y-128250000D02*
X243480000Y-130490000D01*
D16*
X242350000Y-131750000D02*
X242350000Y-129950001D01*
D17*
X241850000Y-129549999D02*
X241850000Y-128650000D01*
D10*
G04 #@! TO.C,SW16*
X252050000Y-148500000D02*
X252050000Y-149200000D01*
X252050000Y-146000000D02*
X250650000Y-146000000D01*
D11*
X241950000Y-151100000D02*
X244650000Y-151100000D01*
D12*
X244633682Y-150878529D02*
G75*
G02X246850000Y-149000000I2151318J-291471D01*
G01*
D13*
X252250000Y-146150000D02*
X252250000Y-145800000D01*
X241750000Y-147700001D02*
G75*
G02X243849999Y-145800000I2000000J-99999D01*
G01*
X245033682Y-151278529D02*
G75*
G02X247250000Y-149400000I2151318J-291471D01*
G01*
X252250000Y-145800000D02*
X243849999Y-145800000D01*
X247250000Y-149400000D02*
X252250000Y-149400000D01*
X241750000Y-151300000D02*
X245030000Y-151300000D01*
X241750000Y-147700000D02*
X241750000Y-148700000D01*
X241750000Y-151300000D02*
X241750000Y-150940000D01*
X241950000Y-150940000D02*
X241750000Y-150940000D01*
X241980000Y-148700000D02*
X241980000Y-150940000D01*
X241750000Y-148700000D02*
X241950000Y-148700000D01*
X252050000Y-146150000D02*
X252250000Y-146150000D01*
X252030000Y-148400000D02*
X252030000Y-146150000D01*
X252250000Y-148400000D02*
X252050000Y-148400000D01*
X252250000Y-149400000D02*
X252250000Y-148400000D01*
D14*
X250250000Y-147600000D02*
X243550000Y-147600000D01*
D12*
X251550000Y-146400000D02*
X251550000Y-148900000D01*
D11*
X251950000Y-149100000D02*
X250550000Y-149100000D01*
D15*
X243480000Y-147300000D02*
X243480000Y-149540000D01*
D16*
X242350000Y-150800000D02*
X242350000Y-149000001D01*
D17*
X241850000Y-148599999D02*
X241850000Y-147700000D01*
D10*
G04 #@! TO.C,SW17*
X252050000Y-167550000D02*
X252050000Y-168250000D01*
X252050000Y-165050000D02*
X250650000Y-165050000D01*
D11*
X241950000Y-170150000D02*
X244650000Y-170150000D01*
D12*
X244633682Y-169928529D02*
G75*
G02X246850000Y-168050000I2151318J-291471D01*
G01*
D13*
X252250000Y-165200000D02*
X252250000Y-164850000D01*
X241750000Y-166750001D02*
G75*
G02X243849999Y-164850000I2000000J-99999D01*
G01*
X245033682Y-170328529D02*
G75*
G02X247250000Y-168450000I2151318J-291471D01*
G01*
X252250000Y-164850000D02*
X243849999Y-164850000D01*
X247250000Y-168450000D02*
X252250000Y-168450000D01*
X241750000Y-170350000D02*
X245030000Y-170350000D01*
X241750000Y-166750000D02*
X241750000Y-167750000D01*
X241750000Y-170350000D02*
X241750000Y-169990000D01*
X241950000Y-169990000D02*
X241750000Y-169990000D01*
X241980000Y-167750000D02*
X241980000Y-169990000D01*
X241750000Y-167750000D02*
X241950000Y-167750000D01*
X252050000Y-165200000D02*
X252250000Y-165200000D01*
X252030000Y-167450000D02*
X252030000Y-165200000D01*
X252250000Y-167450000D02*
X252050000Y-167450000D01*
X252250000Y-168450000D02*
X252250000Y-167450000D01*
D14*
X250250000Y-166650000D02*
X243550000Y-166650000D01*
D12*
X251550000Y-165450000D02*
X251550000Y-167950000D01*
D11*
X251950000Y-168150000D02*
X250550000Y-168150000D01*
D15*
X243480000Y-166350000D02*
X243480000Y-168590000D01*
D16*
X242350000Y-169850000D02*
X242350000Y-168050001D01*
D17*
X241850000Y-167649999D02*
X241850000Y-166750000D01*
G04 #@! TO.C,SW18*
X224799999Y-196300000D02*
X223900000Y-196300000D01*
D16*
X227000000Y-195800000D02*
X225200001Y-195800000D01*
D15*
X223500000Y-194670000D02*
X225740000Y-194670000D01*
D11*
X225300000Y-186200000D02*
X225300000Y-187600000D01*
D12*
X222600000Y-186600000D02*
X225100000Y-186600000D01*
D14*
X223800000Y-187900000D02*
X223800000Y-194600000D01*
D13*
X225600000Y-185900000D02*
X224600000Y-185900000D01*
X224600000Y-185900000D02*
X224600000Y-186100000D01*
X224600000Y-186120000D02*
X222350000Y-186120000D01*
X222350000Y-186100000D02*
X222350000Y-185900000D01*
X224900000Y-196400000D02*
X224900000Y-196200000D01*
X224900000Y-196170000D02*
X227140000Y-196170000D01*
X227140000Y-196200000D02*
X227140000Y-196400000D01*
X227500000Y-196400000D02*
X227140000Y-196400000D01*
X223900000Y-196400000D02*
X224900000Y-196400000D01*
X227500000Y-196400000D02*
X227500000Y-193120000D01*
X225600000Y-190900000D02*
X225600000Y-185900000D01*
X222000000Y-185900000D02*
X222000000Y-194300001D01*
X227478529Y-193116318D02*
G75*
G02X225600000Y-190900000I291471J2151318D01*
G01*
X223900001Y-196400000D02*
G75*
G02X222000000Y-194300001I99999J2000000D01*
G01*
X222350000Y-185900000D02*
X222000000Y-185900000D01*
D12*
X227078529Y-193516318D02*
G75*
G02X225200000Y-191300000I291471J2151318D01*
G01*
D11*
X227300000Y-196200000D02*
X227300000Y-193500000D01*
D10*
X222200000Y-186100000D02*
X222200000Y-187500000D01*
X224700000Y-186100000D02*
X225400000Y-186100000D01*
G04 #@! TO.C,SW19*
X234225000Y-186100000D02*
X234925000Y-186100000D01*
X231725000Y-186100000D02*
X231725000Y-187500000D01*
D11*
X236825000Y-196200000D02*
X236825000Y-193500000D01*
D12*
X236603529Y-193516318D02*
G75*
G02X234725000Y-191300000I291471J2151318D01*
G01*
D13*
X231875000Y-185900000D02*
X231525000Y-185900000D01*
X233425001Y-196400000D02*
G75*
G02X231525000Y-194300001I99999J2000000D01*
G01*
X237003529Y-193116318D02*
G75*
G02X235125000Y-190900000I291471J2151318D01*
G01*
X231525000Y-185900000D02*
X231525000Y-194300001D01*
X235125000Y-190900000D02*
X235125000Y-185900000D01*
X237025000Y-196400000D02*
X237025000Y-193120000D01*
X233425000Y-196400000D02*
X234425000Y-196400000D01*
X237025000Y-196400000D02*
X236665000Y-196400000D01*
X236665000Y-196200000D02*
X236665000Y-196400000D01*
X234425000Y-196170000D02*
X236665000Y-196170000D01*
X234425000Y-196400000D02*
X234425000Y-196200000D01*
X231875000Y-186100000D02*
X231875000Y-185900000D01*
X234125000Y-186120000D02*
X231875000Y-186120000D01*
X234125000Y-185900000D02*
X234125000Y-186100000D01*
X235125000Y-185900000D02*
X234125000Y-185900000D01*
D14*
X233325000Y-187900000D02*
X233325000Y-194600000D01*
D12*
X232125000Y-186600000D02*
X234625000Y-186600000D01*
D11*
X234825000Y-186200000D02*
X234825000Y-187600000D01*
D15*
X233025000Y-194670000D02*
X235265000Y-194670000D01*
D16*
X236525000Y-195800000D02*
X234725001Y-195800000D01*
D17*
X234324999Y-196300000D02*
X233425000Y-196300000D01*
G04 #@! TO.C,SW20*
X243849999Y-196300000D02*
X242950000Y-196300000D01*
D16*
X246050000Y-195800000D02*
X244250001Y-195800000D01*
D15*
X242550000Y-194670000D02*
X244790000Y-194670000D01*
D11*
X244350000Y-186200000D02*
X244350000Y-187600000D01*
D12*
X241650000Y-186600000D02*
X244150000Y-186600000D01*
D14*
X242850000Y-187900000D02*
X242850000Y-194600000D01*
D13*
X244650000Y-185900000D02*
X243650000Y-185900000D01*
X243650000Y-185900000D02*
X243650000Y-186100000D01*
X243650000Y-186120000D02*
X241400000Y-186120000D01*
X241400000Y-186100000D02*
X241400000Y-185900000D01*
X243950000Y-196400000D02*
X243950000Y-196200000D01*
X243950000Y-196170000D02*
X246190000Y-196170000D01*
X246190000Y-196200000D02*
X246190000Y-196400000D01*
X246550000Y-196400000D02*
X246190000Y-196400000D01*
X242950000Y-196400000D02*
X243950000Y-196400000D01*
X246550000Y-196400000D02*
X246550000Y-193120000D01*
X244650000Y-190900000D02*
X244650000Y-185900000D01*
X241050000Y-185900000D02*
X241050000Y-194300001D01*
X246528529Y-193116318D02*
G75*
G02X244650000Y-190900000I291471J2151318D01*
G01*
X242950001Y-196400000D02*
G75*
G02X241050000Y-194300001I99999J2000000D01*
G01*
X241400000Y-185900000D02*
X241050000Y-185900000D01*
D12*
X246128529Y-193516318D02*
G75*
G02X244250000Y-191300000I291471J2151318D01*
G01*
D11*
X246350000Y-196200000D02*
X246350000Y-193500000D01*
D10*
X241250000Y-186100000D02*
X241250000Y-187500000D01*
X243750000Y-186100000D02*
X244450000Y-186100000D01*
D17*
G04 #@! TO.C,SW21*
X260900000Y-129549999D02*
X260900000Y-128650000D01*
D16*
X261400000Y-131750000D02*
X261400000Y-129950001D01*
D15*
X262530000Y-128250000D02*
X262530000Y-130490000D01*
D11*
X271000000Y-130050000D02*
X269600000Y-130050000D01*
D12*
X270600000Y-127350000D02*
X270600000Y-129850000D01*
D14*
X269300000Y-128550000D02*
X262600000Y-128550000D01*
D13*
X271300000Y-130350000D02*
X271300000Y-129350000D01*
X271300000Y-129350000D02*
X271100000Y-129350000D01*
X271080000Y-129350000D02*
X271080000Y-127100000D01*
X271100000Y-127100000D02*
X271300000Y-127100000D01*
X260800000Y-129650000D02*
X261000000Y-129650000D01*
X261030000Y-129650000D02*
X261030000Y-131890000D01*
X261000000Y-131890000D02*
X260800000Y-131890000D01*
X260800000Y-132250000D02*
X260800000Y-131890000D01*
X260800000Y-128650000D02*
X260800000Y-129650000D01*
X260800000Y-132250000D02*
X264080000Y-132250000D01*
X266300000Y-130350000D02*
X271300000Y-130350000D01*
X271300000Y-126750000D02*
X262899999Y-126750000D01*
X264083682Y-132228529D02*
G75*
G02X266300000Y-130350000I2151318J-291471D01*
G01*
X260800000Y-128650001D02*
G75*
G02X262899999Y-126750000I2000000J-99999D01*
G01*
X271300000Y-127100000D02*
X271300000Y-126750000D01*
D12*
X263683682Y-131828529D02*
G75*
G02X265900000Y-129950000I2151318J-291471D01*
G01*
D11*
X261000000Y-132050000D02*
X263700000Y-132050000D01*
D10*
X271100000Y-126950000D02*
X269700000Y-126950000D01*
X271100000Y-129450000D02*
X271100000Y-130150000D01*
D17*
G04 #@! TO.C,SW22*
X260900000Y-148599999D02*
X260900000Y-147700000D01*
D16*
X261400000Y-150800000D02*
X261400000Y-149000001D01*
D15*
X262530000Y-147300000D02*
X262530000Y-149540000D01*
D11*
X271000000Y-149100000D02*
X269600000Y-149100000D01*
D12*
X270600000Y-146400000D02*
X270600000Y-148900000D01*
D14*
X269300000Y-147600000D02*
X262600000Y-147600000D01*
D13*
X271300000Y-149400000D02*
X271300000Y-148400000D01*
X271300000Y-148400000D02*
X271100000Y-148400000D01*
X271080000Y-148400000D02*
X271080000Y-146150000D01*
X271100000Y-146150000D02*
X271300000Y-146150000D01*
X260800000Y-148700000D02*
X261000000Y-148700000D01*
X261030000Y-148700000D02*
X261030000Y-150940000D01*
X261000000Y-150940000D02*
X260800000Y-150940000D01*
X260800000Y-151300000D02*
X260800000Y-150940000D01*
X260800000Y-147700000D02*
X260800000Y-148700000D01*
X260800000Y-151300000D02*
X264080000Y-151300000D01*
X266300000Y-149400000D02*
X271300000Y-149400000D01*
X271300000Y-145800000D02*
X262899999Y-145800000D01*
X264083682Y-151278529D02*
G75*
G02X266300000Y-149400000I2151318J-291471D01*
G01*
X260800000Y-147700001D02*
G75*
G02X262899999Y-145800000I2000000J-99999D01*
G01*
X271300000Y-146150000D02*
X271300000Y-145800000D01*
D12*
X263683682Y-150878529D02*
G75*
G02X265900000Y-149000000I2151318J-291471D01*
G01*
D11*
X261000000Y-151100000D02*
X263700000Y-151100000D01*
D10*
X271100000Y-146000000D02*
X269700000Y-146000000D01*
X271100000Y-148500000D02*
X271100000Y-149200000D01*
D17*
G04 #@! TO.C,SW23*
X260900000Y-167649999D02*
X260900000Y-166750000D01*
D16*
X261400000Y-169850000D02*
X261400000Y-168050001D01*
D15*
X262530000Y-166350000D02*
X262530000Y-168590000D01*
D11*
X271000000Y-168150000D02*
X269600000Y-168150000D01*
D12*
X270600000Y-165450000D02*
X270600000Y-167950000D01*
D14*
X269300000Y-166650000D02*
X262600000Y-166650000D01*
D13*
X271300000Y-168450000D02*
X271300000Y-167450000D01*
X271300000Y-167450000D02*
X271100000Y-167450000D01*
X271080000Y-167450000D02*
X271080000Y-165200000D01*
X271100000Y-165200000D02*
X271300000Y-165200000D01*
X260800000Y-167750000D02*
X261000000Y-167750000D01*
X261030000Y-167750000D02*
X261030000Y-169990000D01*
X261000000Y-169990000D02*
X260800000Y-169990000D01*
X260800000Y-170350000D02*
X260800000Y-169990000D01*
X260800000Y-166750000D02*
X260800000Y-167750000D01*
X260800000Y-170350000D02*
X264080000Y-170350000D01*
X266300000Y-168450000D02*
X271300000Y-168450000D01*
X271300000Y-164850000D02*
X262899999Y-164850000D01*
X264083682Y-170328529D02*
G75*
G02X266300000Y-168450000I2151318J-291471D01*
G01*
X260800000Y-166750001D02*
G75*
G02X262899999Y-164850000I2000000J-99999D01*
G01*
X271300000Y-165200000D02*
X271300000Y-164850000D01*
D12*
X263683682Y-169928529D02*
G75*
G02X265900000Y-168050000I2151318J-291471D01*
G01*
D11*
X261000000Y-170150000D02*
X263700000Y-170150000D01*
D10*
X271100000Y-165050000D02*
X269700000Y-165050000D01*
X271100000Y-167550000D02*
X271100000Y-168250000D01*
D17*
G04 #@! TO.C,SW24*
X262899999Y-196300000D02*
X262000000Y-196300000D01*
D16*
X265100000Y-195800000D02*
X263300001Y-195800000D01*
D15*
X261600000Y-194670000D02*
X263840000Y-194670000D01*
D11*
X263400000Y-186200000D02*
X263400000Y-187600000D01*
D12*
X260700000Y-186600000D02*
X263200000Y-186600000D01*
D14*
X261900000Y-187900000D02*
X261900000Y-194600000D01*
D13*
X263700000Y-185900000D02*
X262700000Y-185900000D01*
X262700000Y-185900000D02*
X262700000Y-186100000D01*
X262700000Y-186120000D02*
X260450000Y-186120000D01*
X260450000Y-186100000D02*
X260450000Y-185900000D01*
X263000000Y-196400000D02*
X263000000Y-196200000D01*
X263000000Y-196170000D02*
X265240000Y-196170000D01*
X265240000Y-196200000D02*
X265240000Y-196400000D01*
X265600000Y-196400000D02*
X265240000Y-196400000D01*
X262000000Y-196400000D02*
X263000000Y-196400000D01*
X265600000Y-196400000D02*
X265600000Y-193120000D01*
X263700000Y-190900000D02*
X263700000Y-185900000D01*
X260100000Y-185900000D02*
X260100000Y-194300001D01*
X265578529Y-193116318D02*
G75*
G02X263700000Y-190900000I291471J2151318D01*
G01*
X262000001Y-196400000D02*
G75*
G02X260100000Y-194300001I99999J2000000D01*
G01*
X260450000Y-185900000D02*
X260100000Y-185900000D01*
D12*
X265178529Y-193516318D02*
G75*
G02X263300000Y-191300000I291471J2151318D01*
G01*
D11*
X265400000Y-196200000D02*
X265400000Y-193500000D01*
D10*
X260300000Y-186100000D02*
X260300000Y-187500000D01*
X262800000Y-186100000D02*
X263500000Y-186100000D01*
D17*
G04 #@! TO.C,SW25*
X272424999Y-196300000D02*
X271525000Y-196300000D01*
D16*
X274625000Y-195800000D02*
X272825001Y-195800000D01*
D15*
X271125000Y-194670000D02*
X273365000Y-194670000D01*
D11*
X272925000Y-186200000D02*
X272925000Y-187600000D01*
D12*
X270225000Y-186600000D02*
X272725000Y-186600000D01*
D14*
X271425000Y-187900000D02*
X271425000Y-194600000D01*
D13*
X273225000Y-185900000D02*
X272225000Y-185900000D01*
X272225000Y-185900000D02*
X272225000Y-186100000D01*
X272225000Y-186120000D02*
X269975000Y-186120000D01*
X269975000Y-186100000D02*
X269975000Y-185900000D01*
X272525000Y-196400000D02*
X272525000Y-196200000D01*
X272525000Y-196170000D02*
X274765000Y-196170000D01*
X274765000Y-196200000D02*
X274765000Y-196400000D01*
X275125000Y-196400000D02*
X274765000Y-196400000D01*
X271525000Y-196400000D02*
X272525000Y-196400000D01*
X275125000Y-196400000D02*
X275125000Y-193120000D01*
X273225000Y-190900000D02*
X273225000Y-185900000D01*
X269625000Y-185900000D02*
X269625000Y-194300001D01*
X275103529Y-193116318D02*
G75*
G02X273225000Y-190900000I291471J2151318D01*
G01*
X271525001Y-196400000D02*
G75*
G02X269625000Y-194300001I99999J2000000D01*
G01*
X269975000Y-185900000D02*
X269625000Y-185900000D01*
D12*
X274703529Y-193516318D02*
G75*
G02X272825000Y-191300000I291471J2151318D01*
G01*
D11*
X274925000Y-196200000D02*
X274925000Y-193500000D01*
D10*
X269825000Y-186100000D02*
X269825000Y-187500000D01*
X272325000Y-186100000D02*
X273025000Y-186100000D01*
G04 #@! TO.C,SW26*
X281850000Y-186100000D02*
X282550000Y-186100000D01*
X279350000Y-186100000D02*
X279350000Y-187500000D01*
D11*
X284450000Y-196200000D02*
X284450000Y-193500000D01*
D12*
X284228529Y-193516318D02*
G75*
G02X282350000Y-191300000I291471J2151318D01*
G01*
D13*
X279500000Y-185900000D02*
X279150000Y-185900000D01*
X281050001Y-196400000D02*
G75*
G02X279150000Y-194300001I99999J2000000D01*
G01*
X284628529Y-193116318D02*
G75*
G02X282750000Y-190900000I291471J2151318D01*
G01*
X279150000Y-185900000D02*
X279150000Y-194300001D01*
X282750000Y-190900000D02*
X282750000Y-185900000D01*
X284650000Y-196400000D02*
X284650000Y-193120000D01*
X281050000Y-196400000D02*
X282050000Y-196400000D01*
X284650000Y-196400000D02*
X284290000Y-196400000D01*
X284290000Y-196200000D02*
X284290000Y-196400000D01*
X282050000Y-196170000D02*
X284290000Y-196170000D01*
X282050000Y-196400000D02*
X282050000Y-196200000D01*
X279500000Y-186100000D02*
X279500000Y-185900000D01*
X281750000Y-186120000D02*
X279500000Y-186120000D01*
X281750000Y-185900000D02*
X281750000Y-186100000D01*
X282750000Y-185900000D02*
X281750000Y-185900000D01*
D14*
X280950000Y-187900000D02*
X280950000Y-194600000D01*
D12*
X279750000Y-186600000D02*
X282250000Y-186600000D01*
D11*
X282450000Y-186200000D02*
X282450000Y-187600000D01*
D15*
X280650000Y-194670000D02*
X282890000Y-194670000D01*
D16*
X284150000Y-195800000D02*
X282350001Y-195800000D01*
D17*
X281949999Y-196300000D02*
X281050000Y-196300000D01*
D10*
G04 #@! TO.C,SW27*
X290150000Y-129450000D02*
X290150000Y-130150000D01*
X290150000Y-126950000D02*
X288750000Y-126950000D01*
D11*
X280050000Y-132050000D02*
X282750000Y-132050000D01*
D12*
X282733682Y-131828529D02*
G75*
G02X284950000Y-129950000I2151318J-291471D01*
G01*
D13*
X290350000Y-127100000D02*
X290350000Y-126750000D01*
X279850000Y-128650001D02*
G75*
G02X281949999Y-126750000I2000000J-99999D01*
G01*
X283133682Y-132228529D02*
G75*
G02X285350000Y-130350000I2151318J-291471D01*
G01*
X290350000Y-126750000D02*
X281949999Y-126750000D01*
X285350000Y-130350000D02*
X290350000Y-130350000D01*
X279850000Y-132250000D02*
X283130000Y-132250000D01*
X279850000Y-128650000D02*
X279850000Y-129650000D01*
X279850000Y-132250000D02*
X279850000Y-131890000D01*
X280050000Y-131890000D02*
X279850000Y-131890000D01*
X280080000Y-129650000D02*
X280080000Y-131890000D01*
X279850000Y-129650000D02*
X280050000Y-129650000D01*
X290150000Y-127100000D02*
X290350000Y-127100000D01*
X290130000Y-129350000D02*
X290130000Y-127100000D01*
X290350000Y-129350000D02*
X290150000Y-129350000D01*
X290350000Y-130350000D02*
X290350000Y-129350000D01*
D14*
X288350000Y-128550000D02*
X281650000Y-128550000D01*
D12*
X289650000Y-127350000D02*
X289650000Y-129850000D01*
D11*
X290050000Y-130050000D02*
X288650000Y-130050000D01*
D15*
X281580000Y-128250000D02*
X281580000Y-130490000D01*
D16*
X280450000Y-131750000D02*
X280450000Y-129950001D01*
D17*
X279950000Y-129549999D02*
X279950000Y-128650000D01*
D10*
G04 #@! TO.C,SW28*
X290150000Y-148500000D02*
X290150000Y-149200000D01*
X290150000Y-146000000D02*
X288750000Y-146000000D01*
D11*
X280050000Y-151100000D02*
X282750000Y-151100000D01*
D12*
X282733682Y-150878529D02*
G75*
G02X284950000Y-149000000I2151318J-291471D01*
G01*
D13*
X290350000Y-146150000D02*
X290350000Y-145800000D01*
X279850000Y-147700001D02*
G75*
G02X281949999Y-145800000I2000000J-99999D01*
G01*
X283133682Y-151278529D02*
G75*
G02X285350000Y-149400000I2151318J-291471D01*
G01*
X290350000Y-145800000D02*
X281949999Y-145800000D01*
X285350000Y-149400000D02*
X290350000Y-149400000D01*
X279850000Y-151300000D02*
X283130000Y-151300000D01*
X279850000Y-147700000D02*
X279850000Y-148700000D01*
X279850000Y-151300000D02*
X279850000Y-150940000D01*
X280050000Y-150940000D02*
X279850000Y-150940000D01*
X280080000Y-148700000D02*
X280080000Y-150940000D01*
X279850000Y-148700000D02*
X280050000Y-148700000D01*
X290150000Y-146150000D02*
X290350000Y-146150000D01*
X290130000Y-148400000D02*
X290130000Y-146150000D01*
X290350000Y-148400000D02*
X290150000Y-148400000D01*
X290350000Y-149400000D02*
X290350000Y-148400000D01*
D14*
X288350000Y-147600000D02*
X281650000Y-147600000D01*
D12*
X289650000Y-146400000D02*
X289650000Y-148900000D01*
D11*
X290050000Y-149100000D02*
X288650000Y-149100000D01*
D15*
X281580000Y-147300000D02*
X281580000Y-149540000D01*
D16*
X280450000Y-150800000D02*
X280450000Y-149000001D01*
D17*
X279950000Y-148599999D02*
X279950000Y-147700000D01*
D10*
G04 #@! TO.C,SW29*
X290150000Y-167550000D02*
X290150000Y-168250000D01*
X290150000Y-165050000D02*
X288750000Y-165050000D01*
D11*
X280050000Y-170150000D02*
X282750000Y-170150000D01*
D12*
X282733682Y-169928529D02*
G75*
G02X284950000Y-168050000I2151318J-291471D01*
G01*
D13*
X290350000Y-165200000D02*
X290350000Y-164850000D01*
X279850000Y-166750001D02*
G75*
G02X281949999Y-164850000I2000000J-99999D01*
G01*
X283133682Y-170328529D02*
G75*
G02X285350000Y-168450000I2151318J-291471D01*
G01*
X290350000Y-164850000D02*
X281949999Y-164850000D01*
X285350000Y-168450000D02*
X290350000Y-168450000D01*
X279850000Y-170350000D02*
X283130000Y-170350000D01*
X279850000Y-166750000D02*
X279850000Y-167750000D01*
X279850000Y-170350000D02*
X279850000Y-169990000D01*
X280050000Y-169990000D02*
X279850000Y-169990000D01*
X280080000Y-167750000D02*
X280080000Y-169990000D01*
X279850000Y-167750000D02*
X280050000Y-167750000D01*
X290150000Y-165200000D02*
X290350000Y-165200000D01*
X290130000Y-167450000D02*
X290130000Y-165200000D01*
X290350000Y-167450000D02*
X290150000Y-167450000D01*
X290350000Y-168450000D02*
X290350000Y-167450000D01*
D14*
X288350000Y-166650000D02*
X281650000Y-166650000D01*
D12*
X289650000Y-165450000D02*
X289650000Y-167950000D01*
D11*
X290050000Y-168150000D02*
X288650000Y-168150000D01*
D15*
X281580000Y-166350000D02*
X281580000Y-168590000D01*
D16*
X280450000Y-169850000D02*
X280450000Y-168050001D01*
D17*
X279950000Y-167649999D02*
X279950000Y-166750000D01*
G04 #@! TO.C,SW31*
X299000000Y-148599999D02*
X299000000Y-147700000D01*
D16*
X299500000Y-150800000D02*
X299500000Y-149000001D01*
D15*
X300630000Y-147300000D02*
X300630000Y-149540000D01*
D11*
X309100000Y-149100000D02*
X307700000Y-149100000D01*
D12*
X308700000Y-146400000D02*
X308700000Y-148900000D01*
D14*
X307400000Y-147600000D02*
X300700000Y-147600000D01*
D13*
X309400000Y-149400000D02*
X309400000Y-148400000D01*
X309400000Y-148400000D02*
X309200000Y-148400000D01*
X309180000Y-148400000D02*
X309180000Y-146150000D01*
X309200000Y-146150000D02*
X309400000Y-146150000D01*
X298900000Y-148700000D02*
X299100000Y-148700000D01*
X299130000Y-148700000D02*
X299130000Y-150940000D01*
X299100000Y-150940000D02*
X298900000Y-150940000D01*
X298900000Y-151300000D02*
X298900000Y-150940000D01*
X298900000Y-147700000D02*
X298900000Y-148700000D01*
X298900000Y-151300000D02*
X302180000Y-151300000D01*
X304400000Y-149400000D02*
X309400000Y-149400000D01*
X309400000Y-145800000D02*
X300999999Y-145800000D01*
X302183682Y-151278529D02*
G75*
G02X304400000Y-149400000I2151318J-291471D01*
G01*
X298900000Y-147700001D02*
G75*
G02X300999999Y-145800000I2000000J-99999D01*
G01*
X309400000Y-146150000D02*
X309400000Y-145800000D01*
D12*
X301783682Y-150878529D02*
G75*
G02X304000000Y-149000000I2151318J-291471D01*
G01*
D11*
X299100000Y-151100000D02*
X301800000Y-151100000D01*
D10*
X309200000Y-146000000D02*
X307800000Y-146000000D01*
X309200000Y-148500000D02*
X309200000Y-149200000D01*
D17*
G04 #@! TO.C,SW32*
X299000000Y-167649999D02*
X299000000Y-166750000D01*
D16*
X299500000Y-169850000D02*
X299500000Y-168050001D01*
D15*
X300630000Y-166350000D02*
X300630000Y-168590000D01*
D11*
X309100000Y-168150000D02*
X307700000Y-168150000D01*
D12*
X308700000Y-165450000D02*
X308700000Y-167950000D01*
D14*
X307400000Y-166650000D02*
X300700000Y-166650000D01*
D13*
X309400000Y-168450000D02*
X309400000Y-167450000D01*
X309400000Y-167450000D02*
X309200000Y-167450000D01*
X309180000Y-167450000D02*
X309180000Y-165200000D01*
X309200000Y-165200000D02*
X309400000Y-165200000D01*
X298900000Y-167750000D02*
X299100000Y-167750000D01*
X299130000Y-167750000D02*
X299130000Y-169990000D01*
X299100000Y-169990000D02*
X298900000Y-169990000D01*
X298900000Y-170350000D02*
X298900000Y-169990000D01*
X298900000Y-166750000D02*
X298900000Y-167750000D01*
X298900000Y-170350000D02*
X302180000Y-170350000D01*
X304400000Y-168450000D02*
X309400000Y-168450000D01*
X309400000Y-164850000D02*
X300999999Y-164850000D01*
X302183682Y-170328529D02*
G75*
G02X304400000Y-168450000I2151318J-291471D01*
G01*
X298900000Y-166750001D02*
G75*
G02X300999999Y-164850000I2000000J-99999D01*
G01*
X309400000Y-165200000D02*
X309400000Y-164850000D01*
D12*
X301783682Y-169928529D02*
G75*
G02X304000000Y-168050000I2151318J-291471D01*
G01*
D11*
X299100000Y-170150000D02*
X301800000Y-170150000D01*
D10*
X309200000Y-165050000D02*
X307800000Y-165050000D01*
X309200000Y-167550000D02*
X309200000Y-168250000D01*
D17*
G04 #@! TO.C,SW33*
X299000000Y-186699999D02*
X299000000Y-185800000D01*
D16*
X299500000Y-188900000D02*
X299500000Y-187100001D01*
D15*
X300630000Y-185400000D02*
X300630000Y-187640000D01*
D11*
X309100000Y-187200000D02*
X307700000Y-187200000D01*
D12*
X308700000Y-184500000D02*
X308700000Y-187000000D01*
D14*
X307400000Y-185700000D02*
X300700000Y-185700000D01*
D13*
X309400000Y-187500000D02*
X309400000Y-186500000D01*
X309400000Y-186500000D02*
X309200000Y-186500000D01*
X309180000Y-186500000D02*
X309180000Y-184250000D01*
X309200000Y-184250000D02*
X309400000Y-184250000D01*
X298900000Y-186800000D02*
X299100000Y-186800000D01*
X299130000Y-186800000D02*
X299130000Y-189040000D01*
X299100000Y-189040000D02*
X298900000Y-189040000D01*
X298900000Y-189400000D02*
X298900000Y-189040000D01*
X298900000Y-185800000D02*
X298900000Y-186800000D01*
X298900000Y-189400000D02*
X302180000Y-189400000D01*
X304400000Y-187500000D02*
X309400000Y-187500000D01*
X309400000Y-183900000D02*
X300999999Y-183900000D01*
X302183682Y-189378529D02*
G75*
G02X304400000Y-187500000I2151318J-291471D01*
G01*
X298900000Y-185800001D02*
G75*
G02X300999999Y-183900000I2000000J-99999D01*
G01*
X309400000Y-184250000D02*
X309400000Y-183900000D01*
D12*
X301783682Y-188978529D02*
G75*
G02X304000000Y-187100000I2151318J-291471D01*
G01*
D11*
X299100000Y-189200000D02*
X301800000Y-189200000D01*
D10*
X309200000Y-184100000D02*
X307800000Y-184100000D01*
X309200000Y-186600000D02*
X309200000Y-187300000D01*
G04 #@! TO.C,SW35*
X328250000Y-148500000D02*
X328250000Y-149200000D01*
X328250000Y-146000000D02*
X326850000Y-146000000D01*
D11*
X318150000Y-151100000D02*
X320850000Y-151100000D01*
D12*
X320833682Y-150878529D02*
G75*
G02X323050000Y-149000000I2151318J-291471D01*
G01*
D13*
X328450000Y-146150000D02*
X328450000Y-145800000D01*
X317950000Y-147700001D02*
G75*
G02X320049999Y-145800000I2000000J-99999D01*
G01*
X321233682Y-151278529D02*
G75*
G02X323450000Y-149400000I2151318J-291471D01*
G01*
X328450000Y-145800000D02*
X320049999Y-145800000D01*
X323450000Y-149400000D02*
X328450000Y-149400000D01*
X317950000Y-151300000D02*
X321230000Y-151300000D01*
X317950000Y-147700000D02*
X317950000Y-148700000D01*
X317950000Y-151300000D02*
X317950000Y-150940000D01*
X318150000Y-150940000D02*
X317950000Y-150940000D01*
X318180000Y-148700000D02*
X318180000Y-150940000D01*
X317950000Y-148700000D02*
X318150000Y-148700000D01*
X328250000Y-146150000D02*
X328450000Y-146150000D01*
X328230000Y-148400000D02*
X328230000Y-146150000D01*
X328450000Y-148400000D02*
X328250000Y-148400000D01*
X328450000Y-149400000D02*
X328450000Y-148400000D01*
D14*
X326450000Y-147600000D02*
X319750000Y-147600000D01*
D12*
X327750000Y-146400000D02*
X327750000Y-148900000D01*
D11*
X328150000Y-149100000D02*
X326750000Y-149100000D01*
D15*
X319680000Y-147300000D02*
X319680000Y-149540000D01*
D16*
X318550000Y-150800000D02*
X318550000Y-149000001D01*
D17*
X318050000Y-148599999D02*
X318050000Y-147700000D01*
D10*
G04 #@! TO.C,SW36*
X328250000Y-167550000D02*
X328250000Y-168250000D01*
X328250000Y-165050000D02*
X326850000Y-165050000D01*
D11*
X318150000Y-170150000D02*
X320850000Y-170150000D01*
D12*
X320833682Y-169928529D02*
G75*
G02X323050000Y-168050000I2151318J-291471D01*
G01*
D13*
X328450000Y-165200000D02*
X328450000Y-164850000D01*
X317950000Y-166750001D02*
G75*
G02X320049999Y-164850000I2000000J-99999D01*
G01*
X321233682Y-170328529D02*
G75*
G02X323450000Y-168450000I2151318J-291471D01*
G01*
X328450000Y-164850000D02*
X320049999Y-164850000D01*
X323450000Y-168450000D02*
X328450000Y-168450000D01*
X317950000Y-170350000D02*
X321230000Y-170350000D01*
X317950000Y-166750000D02*
X317950000Y-167750000D01*
X317950000Y-170350000D02*
X317950000Y-169990000D01*
X318150000Y-169990000D02*
X317950000Y-169990000D01*
X318180000Y-167750000D02*
X318180000Y-169990000D01*
X317950000Y-167750000D02*
X318150000Y-167750000D01*
X328250000Y-165200000D02*
X328450000Y-165200000D01*
X328230000Y-167450000D02*
X328230000Y-165200000D01*
X328450000Y-167450000D02*
X328250000Y-167450000D01*
X328450000Y-168450000D02*
X328450000Y-167450000D01*
D14*
X326450000Y-166650000D02*
X319750000Y-166650000D01*
D12*
X327750000Y-165450000D02*
X327750000Y-167950000D01*
D11*
X328150000Y-168150000D02*
X326750000Y-168150000D01*
D15*
X319680000Y-166350000D02*
X319680000Y-168590000D01*
D16*
X318550000Y-169850000D02*
X318550000Y-168050001D01*
D17*
X318050000Y-167649999D02*
X318050000Y-166750000D01*
G04 #@! TO.C,SW37*
X337100000Y-129549999D02*
X337100000Y-128650000D01*
D16*
X337600000Y-131750000D02*
X337600000Y-129950001D01*
D15*
X338730000Y-128250000D02*
X338730000Y-130490000D01*
D11*
X347200000Y-130050000D02*
X345800000Y-130050000D01*
D12*
X346800000Y-127350000D02*
X346800000Y-129850000D01*
D14*
X345500000Y-128550000D02*
X338800000Y-128550000D01*
D13*
X347500000Y-130350000D02*
X347500000Y-129350000D01*
X347500000Y-129350000D02*
X347300000Y-129350000D01*
X347280000Y-129350000D02*
X347280000Y-127100000D01*
X347300000Y-127100000D02*
X347500000Y-127100000D01*
X337000000Y-129650000D02*
X337200000Y-129650000D01*
X337230000Y-129650000D02*
X337230000Y-131890000D01*
X337200000Y-131890000D02*
X337000000Y-131890000D01*
X337000000Y-132250000D02*
X337000000Y-131890000D01*
X337000000Y-128650000D02*
X337000000Y-129650000D01*
X337000000Y-132250000D02*
X340280000Y-132250000D01*
X342500000Y-130350000D02*
X347500000Y-130350000D01*
X347500000Y-126750000D02*
X339099999Y-126750000D01*
X340283682Y-132228529D02*
G75*
G02X342500000Y-130350000I2151318J-291471D01*
G01*
X337000000Y-128650001D02*
G75*
G02X339099999Y-126750000I2000000J-99999D01*
G01*
X347500000Y-127100000D02*
X347500000Y-126750000D01*
D12*
X339883682Y-131828529D02*
G75*
G02X342100000Y-129950000I2151318J-291471D01*
G01*
D11*
X337200000Y-132050000D02*
X339900000Y-132050000D01*
D10*
X347300000Y-126950000D02*
X345900000Y-126950000D01*
X347300000Y-129450000D02*
X347300000Y-130150000D01*
D17*
G04 #@! TO.C,SW39*
X337100000Y-167649999D02*
X337100000Y-166750000D01*
D16*
X337600000Y-169850000D02*
X337600000Y-168050001D01*
D15*
X338730000Y-166350000D02*
X338730000Y-168590000D01*
D11*
X347200000Y-168150000D02*
X345800000Y-168150000D01*
D12*
X346800000Y-165450000D02*
X346800000Y-167950000D01*
D14*
X345500000Y-166650000D02*
X338800000Y-166650000D01*
D13*
X347500000Y-168450000D02*
X347500000Y-167450000D01*
X347500000Y-167450000D02*
X347300000Y-167450000D01*
X347280000Y-167450000D02*
X347280000Y-165200000D01*
X347300000Y-165200000D02*
X347500000Y-165200000D01*
X337000000Y-167750000D02*
X337200000Y-167750000D01*
X337230000Y-167750000D02*
X337230000Y-169990000D01*
X337200000Y-169990000D02*
X337000000Y-169990000D01*
X337000000Y-170350000D02*
X337000000Y-169990000D01*
X337000000Y-166750000D02*
X337000000Y-167750000D01*
X337000000Y-170350000D02*
X340280000Y-170350000D01*
X342500000Y-168450000D02*
X347500000Y-168450000D01*
X347500000Y-164850000D02*
X339099999Y-164850000D01*
X340283682Y-170328529D02*
G75*
G02X342500000Y-168450000I2151318J-291471D01*
G01*
X337000000Y-166750001D02*
G75*
G02X339099999Y-164850000I2000000J-99999D01*
G01*
X347500000Y-165200000D02*
X347500000Y-164850000D01*
D12*
X339883682Y-169928529D02*
G75*
G02X342100000Y-168050000I2151318J-291471D01*
G01*
D11*
X337200000Y-170150000D02*
X339900000Y-170150000D01*
D10*
X347300000Y-165050000D02*
X345900000Y-165050000D01*
X347300000Y-167550000D02*
X347300000Y-168250000D01*
D13*
G04 #@! TO.C,SW40*
X154100000Y-159775000D02*
X154100000Y-160025000D01*
X154100000Y-160025000D02*
X148100000Y-160025000D01*
X148100000Y-160025000D02*
X148100000Y-159775000D01*
X148100000Y-156775000D02*
X148100000Y-156525000D01*
X148100000Y-156525000D02*
X154100000Y-156525000D01*
X154100000Y-156525000D02*
X154100000Y-156775000D01*
D19*
G04 #@! TO.C,G\002A\002A\002A*
G36*
X190523045Y-171890350D02*
X190400576Y-172124695D01*
X190375758Y-172608828D01*
X190375667Y-172681333D01*
X190375667Y-173528000D01*
X191899667Y-173528000D01*
X191899667Y-172787167D01*
X191879697Y-172320739D01*
X191775002Y-172085042D01*
X191518406Y-171972592D01*
X191370500Y-171940500D01*
X190820557Y-171848162D01*
X190523045Y-171890350D01*
X190523045Y-171890350D01*
G37*
X190523045Y-171890350D02*
X190400576Y-172124695D01*
X190375758Y-172608828D01*
X190375667Y-172681333D01*
X190375667Y-173528000D01*
X191899667Y-173528000D01*
X191899667Y-172787167D01*
X191879697Y-172320739D01*
X191775002Y-172085042D01*
X191518406Y-171972592D01*
X191370500Y-171940500D01*
X190820557Y-171848162D01*
X190523045Y-171890350D01*
G36*
X192795707Y-174296737D02*
X192749551Y-174580596D01*
X192746334Y-174924524D01*
X192760465Y-175394799D01*
X192859244Y-175632139D01*
X193127252Y-175742275D01*
X193444875Y-175797750D01*
X193973689Y-175889721D01*
X194340156Y-176005510D01*
X194574042Y-176202312D01*
X194705115Y-176537325D01*
X194763142Y-177067744D01*
X194777888Y-177850766D01*
X194778334Y-178359958D01*
X194778334Y-180470667D01*
X196302334Y-180470667D01*
X196302334Y-174408768D01*
X195540334Y-174348164D01*
X195071382Y-174326720D01*
X194848429Y-174387531D01*
X194781540Y-174569917D01*
X194778334Y-174681310D01*
X194778334Y-175075061D01*
X194284585Y-174723481D01*
X193781774Y-174444185D01*
X193268585Y-174267450D01*
X192947647Y-174218866D01*
X192795707Y-174296737D01*
X192795707Y-174296737D01*
G37*
X192795707Y-174296737D02*
X192749551Y-174580596D01*
X192746334Y-174924524D01*
X192760465Y-175394799D01*
X192859244Y-175632139D01*
X193127252Y-175742275D01*
X193444875Y-175797750D01*
X193973689Y-175889721D01*
X194340156Y-176005510D01*
X194574042Y-176202312D01*
X194705115Y-176537325D01*
X194763142Y-177067744D01*
X194777888Y-177850766D01*
X194778334Y-178359958D01*
X194778334Y-180470667D01*
X196302334Y-180470667D01*
X196302334Y-174408768D01*
X195540334Y-174348164D01*
X195071382Y-174326720D01*
X194848429Y-174387531D01*
X194781540Y-174569917D01*
X194778334Y-174681310D01*
X194778334Y-175075061D01*
X194284585Y-174723481D01*
X193781774Y-174444185D01*
X193268585Y-174267450D01*
X192947647Y-174218866D01*
X192795707Y-174296737D01*
G36*
X198421754Y-172768225D02*
X198342311Y-173045303D01*
X198334334Y-173443333D01*
X198321682Y-173911539D01*
X198235935Y-174133250D01*
X198005406Y-174200633D01*
X197741667Y-174205333D01*
X197344443Y-174231546D01*
X197181539Y-174379439D01*
X197149074Y-174752889D01*
X197149000Y-174798000D01*
X197174780Y-175193971D01*
X197321085Y-175357326D01*
X197691366Y-175390554D01*
X197747213Y-175390667D01*
X198345426Y-175390667D01*
X198297546Y-177295667D01*
X198249667Y-179200667D01*
X197689460Y-179254465D01*
X197309895Y-179322180D01*
X197173728Y-179497029D01*
X197181460Y-179847132D01*
X197236316Y-180173693D01*
X197381447Y-180340307D01*
X197712201Y-180412446D01*
X198041601Y-180437758D01*
X198580518Y-180440474D01*
X198947554Y-180324698D01*
X199303582Y-180034943D01*
X199353934Y-179985117D01*
X199565896Y-179763626D01*
X199708190Y-179555221D01*
X199794699Y-179289739D01*
X199839305Y-178897013D01*
X199855889Y-178306880D01*
X199858334Y-177449176D01*
X199858334Y-175390667D01*
X200281667Y-175390667D01*
X200567950Y-175346386D01*
X200685149Y-175147124D01*
X200705000Y-174798000D01*
X200673269Y-174397104D01*
X200530912Y-174233003D01*
X200283668Y-174205333D01*
X199998277Y-174154052D01*
X199843250Y-173938120D01*
X199756808Y-173545394D01*
X199646780Y-173099091D01*
X199446437Y-172878039D01*
X199140973Y-172783394D01*
X198659137Y-172704516D01*
X198421754Y-172768225D01*
X198421754Y-172768225D01*
G37*
X198421754Y-172768225D02*
X198342311Y-173045303D01*
X198334334Y-173443333D01*
X198321682Y-173911539D01*
X198235935Y-174133250D01*
X198005406Y-174200633D01*
X197741667Y-174205333D01*
X197344443Y-174231546D01*
X197181539Y-174379439D01*
X197149074Y-174752889D01*
X197149000Y-174798000D01*
X197174780Y-175193971D01*
X197321085Y-175357326D01*
X197691366Y-175390554D01*
X197747213Y-175390667D01*
X198345426Y-175390667D01*
X198297546Y-177295667D01*
X198249667Y-179200667D01*
X197689460Y-179254465D01*
X197309895Y-179322180D01*
X197173728Y-179497029D01*
X197181460Y-179847132D01*
X197236316Y-180173693D01*
X197381447Y-180340307D01*
X197712201Y-180412446D01*
X198041601Y-180437758D01*
X198580518Y-180440474D01*
X198947554Y-180324698D01*
X199303582Y-180034943D01*
X199353934Y-179985117D01*
X199565896Y-179763626D01*
X199708190Y-179555221D01*
X199794699Y-179289739D01*
X199839305Y-178897013D01*
X199855889Y-178306880D01*
X199858334Y-177449176D01*
X199858334Y-175390667D01*
X200281667Y-175390667D01*
X200567950Y-175346386D01*
X200685149Y-175147124D01*
X200705000Y-174798000D01*
X200673269Y-174397104D01*
X200530912Y-174233003D01*
X200283668Y-174205333D01*
X199998277Y-174154052D01*
X199843250Y-173938120D01*
X199756808Y-173545394D01*
X199646780Y-173099091D01*
X199446437Y-172878039D01*
X199140973Y-172783394D01*
X198659137Y-172704516D01*
X198421754Y-172768225D01*
G36*
X202525969Y-174406703D02*
X202282141Y-174535572D01*
X201839847Y-174881297D01*
X201539033Y-175259940D01*
X201433795Y-175589175D01*
X201493647Y-175735530D01*
X201935460Y-175969751D01*
X202432743Y-175962845D01*
X202812987Y-175738925D01*
X203242416Y-175436414D01*
X203666975Y-175443063D01*
X203888467Y-175593867D01*
X204049370Y-175806679D01*
X204023730Y-175992089D01*
X203772310Y-176193839D01*
X203255874Y-176455672D01*
X203018603Y-176563615D01*
X202129776Y-177047293D01*
X201552968Y-177572654D01*
X201261742Y-178169416D01*
X201213000Y-178593158D01*
X201360811Y-179342352D01*
X201797255Y-179917323D01*
X202330359Y-180234554D01*
X203222782Y-180452110D01*
X204068394Y-180356870D01*
X204546527Y-180140428D01*
X204985394Y-179795213D01*
X205316239Y-179397229D01*
X205446334Y-179059030D01*
X205304992Y-178955350D01*
X204961752Y-178811004D01*
X204931802Y-178800430D01*
X204525245Y-178708125D01*
X204236070Y-178817488D01*
X204085135Y-178953198D01*
X203635111Y-179225262D01*
X203148106Y-179258760D01*
X202751211Y-179047162D01*
X202729947Y-179022835D01*
X202623185Y-178779407D01*
X202752803Y-178544591D01*
X203150735Y-178286906D01*
X203753000Y-178014247D01*
X204565895Y-177598543D01*
X205084956Y-177130071D01*
X205354879Y-176565771D01*
X205381454Y-176445413D01*
X205371679Y-175709848D01*
X205092515Y-175081490D01*
X204606162Y-174598668D01*
X203974821Y-174299711D01*
X203260690Y-174222946D01*
X202525969Y-174406703D01*
X202525969Y-174406703D01*
G37*
X202525969Y-174406703D02*
X202282141Y-174535572D01*
X201839847Y-174881297D01*
X201539033Y-175259940D01*
X201433795Y-175589175D01*
X201493647Y-175735530D01*
X201935460Y-175969751D01*
X202432743Y-175962845D01*
X202812987Y-175738925D01*
X203242416Y-175436414D01*
X203666975Y-175443063D01*
X203888467Y-175593867D01*
X204049370Y-175806679D01*
X204023730Y-175992089D01*
X203772310Y-176193839D01*
X203255874Y-176455672D01*
X203018603Y-176563615D01*
X202129776Y-177047293D01*
X201552968Y-177572654D01*
X201261742Y-178169416D01*
X201213000Y-178593158D01*
X201360811Y-179342352D01*
X201797255Y-179917323D01*
X202330359Y-180234554D01*
X203222782Y-180452110D01*
X204068394Y-180356870D01*
X204546527Y-180140428D01*
X204985394Y-179795213D01*
X205316239Y-179397229D01*
X205446334Y-179059030D01*
X205304992Y-178955350D01*
X204961752Y-178811004D01*
X204931802Y-178800430D01*
X204525245Y-178708125D01*
X204236070Y-178817488D01*
X204085135Y-178953198D01*
X203635111Y-179225262D01*
X203148106Y-179258760D01*
X202751211Y-179047162D01*
X202729947Y-179022835D01*
X202623185Y-178779407D01*
X202752803Y-178544591D01*
X203150735Y-178286906D01*
X203753000Y-178014247D01*
X204565895Y-177598543D01*
X205084956Y-177130071D01*
X205354879Y-176565771D01*
X205381454Y-176445413D01*
X205371679Y-175709848D01*
X205092515Y-175081490D01*
X204606162Y-174598668D01*
X203974821Y-174299711D01*
X203260690Y-174222946D01*
X202525969Y-174406703D01*
G36*
X211968420Y-172768225D02*
X211888978Y-173045303D01*
X211881000Y-173443333D01*
X211868348Y-173911539D01*
X211782601Y-174133250D01*
X211552073Y-174200633D01*
X211288334Y-174205333D01*
X210891110Y-174231546D01*
X210728205Y-174379439D01*
X210695741Y-174752889D01*
X210695667Y-174798000D01*
X210721447Y-175193971D01*
X210867752Y-175357326D01*
X211238033Y-175390554D01*
X211293880Y-175390667D01*
X211892092Y-175390667D01*
X211796334Y-179200667D01*
X211236127Y-179254465D01*
X210856561Y-179322180D01*
X210720395Y-179497029D01*
X210728127Y-179847132D01*
X210782983Y-180173693D01*
X210928114Y-180340307D01*
X211258868Y-180412446D01*
X211588268Y-180437758D01*
X212127185Y-180440474D01*
X212494221Y-180324698D01*
X212850249Y-180034943D01*
X212900601Y-179985117D01*
X213112563Y-179763626D01*
X213254857Y-179555221D01*
X213341366Y-179289739D01*
X213385972Y-178897013D01*
X213402556Y-178306880D01*
X213405000Y-177449176D01*
X213405000Y-175390667D01*
X213828334Y-175390667D01*
X214114617Y-175346386D01*
X214231816Y-175147124D01*
X214251667Y-174798000D01*
X214219936Y-174397104D01*
X214077578Y-174233003D01*
X213830335Y-174205333D01*
X213544944Y-174154052D01*
X213389917Y-173938120D01*
X213303474Y-173545394D01*
X213193447Y-173099091D01*
X212993103Y-172878039D01*
X212687640Y-172783394D01*
X212205804Y-172704516D01*
X211968420Y-172768225D01*
X211968420Y-172768225D01*
G37*
X211968420Y-172768225D02*
X211888978Y-173045303D01*
X211881000Y-173443333D01*
X211868348Y-173911539D01*
X211782601Y-174133250D01*
X211552073Y-174200633D01*
X211288334Y-174205333D01*
X210891110Y-174231546D01*
X210728205Y-174379439D01*
X210695741Y-174752889D01*
X210695667Y-174798000D01*
X210721447Y-175193971D01*
X210867752Y-175357326D01*
X211238033Y-175390554D01*
X211293880Y-175390667D01*
X211892092Y-175390667D01*
X211796334Y-179200667D01*
X211236127Y-179254465D01*
X210856561Y-179322180D01*
X210720395Y-179497029D01*
X210728127Y-179847132D01*
X210782983Y-180173693D01*
X210928114Y-180340307D01*
X211258868Y-180412446D01*
X211588268Y-180437758D01*
X212127185Y-180440474D01*
X212494221Y-180324698D01*
X212850249Y-180034943D01*
X212900601Y-179985117D01*
X213112563Y-179763626D01*
X213254857Y-179555221D01*
X213341366Y-179289739D01*
X213385972Y-178897013D01*
X213402556Y-178306880D01*
X213405000Y-177449176D01*
X213405000Y-175390667D01*
X213828334Y-175390667D01*
X214114617Y-175346386D01*
X214231816Y-175147124D01*
X214251667Y-174798000D01*
X214219936Y-174397104D01*
X214077578Y-174233003D01*
X213830335Y-174205333D01*
X213544944Y-174154052D01*
X213389917Y-173938120D01*
X213303474Y-173545394D01*
X213193447Y-173099091D01*
X212993103Y-172878039D01*
X212687640Y-172783394D01*
X212205804Y-172704516D01*
X211968420Y-172768225D01*
G36*
X230031457Y-174261107D02*
X229256989Y-174478437D01*
X228682063Y-174957537D01*
X228300229Y-175706720D01*
X228105038Y-176734299D01*
X228104066Y-176745333D01*
X228052334Y-177338000D01*
X229554541Y-177387225D01*
X231056747Y-177436451D01*
X230944114Y-178140824D01*
X230831160Y-178637185D01*
X230688701Y-179005126D01*
X230648839Y-179065265D01*
X230298782Y-179281549D01*
X229930607Y-179205973D01*
X229644264Y-178864099D01*
X229618383Y-178801748D01*
X229468321Y-178485051D01*
X229269671Y-178397922D01*
X228890451Y-178485566D01*
X228871092Y-178491493D01*
X228473178Y-178644992D01*
X228333308Y-178839495D01*
X228421134Y-179170482D01*
X228563200Y-179460209D01*
X229019412Y-180001516D01*
X229670197Y-180348202D01*
X230409597Y-180461778D01*
X231015667Y-180351079D01*
X231555771Y-179987589D01*
X232005327Y-179370032D01*
X232330271Y-178578264D01*
X232496540Y-177692140D01*
X232485473Y-176905443D01*
X232330387Y-176191466D01*
X230988979Y-176191466D01*
X230953673Y-176443587D01*
X230624567Y-176558400D01*
X230253667Y-176576000D01*
X229799199Y-176544552D01*
X229526610Y-176464986D01*
X229491667Y-176417690D01*
X229547357Y-176152920D01*
X229656809Y-175825023D01*
X229921558Y-175473746D01*
X230282969Y-175413038D01*
X230656465Y-175647378D01*
X230752065Y-175767011D01*
X230988979Y-176191466D01*
X232330387Y-176191466D01*
X232250996Y-175825974D01*
X231840660Y-175018794D01*
X231263318Y-174493444D01*
X230527825Y-174259466D01*
X230031457Y-174261107D01*
X230031457Y-174261107D01*
G37*
X230031457Y-174261107D02*
X229256989Y-174478437D01*
X228682063Y-174957537D01*
X228300229Y-175706720D01*
X228105038Y-176734299D01*
X228104066Y-176745333D01*
X228052334Y-177338000D01*
X229554541Y-177387225D01*
X231056747Y-177436451D01*
X230944114Y-178140824D01*
X230831160Y-178637185D01*
X230688701Y-179005126D01*
X230648839Y-179065265D01*
X230298782Y-179281549D01*
X229930607Y-179205973D01*
X229644264Y-178864099D01*
X229618383Y-178801748D01*
X229468321Y-178485051D01*
X229269671Y-178397922D01*
X228890451Y-178485566D01*
X228871092Y-178491493D01*
X228473178Y-178644992D01*
X228333308Y-178839495D01*
X228421134Y-179170482D01*
X228563200Y-179460209D01*
X229019412Y-180001516D01*
X229670197Y-180348202D01*
X230409597Y-180461778D01*
X231015667Y-180351079D01*
X231555771Y-179987589D01*
X232005327Y-179370032D01*
X232330271Y-178578264D01*
X232496540Y-177692140D01*
X232485473Y-176905443D01*
X232330387Y-176191466D01*
X230988979Y-176191466D01*
X230953673Y-176443587D01*
X230624567Y-176558400D01*
X230253667Y-176576000D01*
X229799199Y-176544552D01*
X229526610Y-176464986D01*
X229491667Y-176417690D01*
X229547357Y-176152920D01*
X229656809Y-175825023D01*
X229921558Y-175473746D01*
X230282969Y-175413038D01*
X230656465Y-175647378D01*
X230752065Y-175767011D01*
X230988979Y-176191466D01*
X232330387Y-176191466D01*
X232250996Y-175825974D01*
X231840660Y-175018794D01*
X231263318Y-174493444D01*
X230527825Y-174259466D01*
X230031457Y-174261107D01*
G36*
X185026035Y-174465662D02*
X184668056Y-174988733D01*
X184636145Y-175073694D01*
X184567848Y-175436923D01*
X184510716Y-176059566D01*
X184469771Y-176862422D01*
X184450040Y-177766293D01*
X184449000Y-178023551D01*
X184449000Y-180436565D01*
X185206604Y-180496820D01*
X185964208Y-180557074D01*
X186010937Y-178203716D01*
X186035641Y-177242318D01*
X186069933Y-176565469D01*
X186120906Y-176119063D01*
X186195652Y-175848992D01*
X186301265Y-175701148D01*
X186342977Y-175670665D01*
X186685997Y-175586605D01*
X187062643Y-175723433D01*
X187238416Y-175827138D01*
X187358929Y-175956396D01*
X187434611Y-176170577D01*
X187475890Y-176529048D01*
X187493196Y-177091179D01*
X187496955Y-177916339D01*
X187497000Y-178196230D01*
X187497000Y-180436565D01*
X188259000Y-180497169D01*
X189021000Y-180557774D01*
X189021000Y-174374667D01*
X188259000Y-174374667D01*
X187782130Y-174397217D01*
X187556729Y-174489858D01*
X187497172Y-174690069D01*
X187497000Y-174708230D01*
X187476537Y-174900264D01*
X187365072Y-174921720D01*
X187087489Y-174762279D01*
X186880704Y-174623563D01*
X186170793Y-174275370D01*
X185539759Y-174225305D01*
X185026035Y-174465662D01*
X185026035Y-174465662D01*
G37*
X185026035Y-174465662D02*
X184668056Y-174988733D01*
X184636145Y-175073694D01*
X184567848Y-175436923D01*
X184510716Y-176059566D01*
X184469771Y-176862422D01*
X184450040Y-177766293D01*
X184449000Y-178023551D01*
X184449000Y-180436565D01*
X185206604Y-180496820D01*
X185964208Y-180557074D01*
X186010937Y-178203716D01*
X186035641Y-177242318D01*
X186069933Y-176565469D01*
X186120906Y-176119063D01*
X186195652Y-175848992D01*
X186301265Y-175701148D01*
X186342977Y-175670665D01*
X186685997Y-175586605D01*
X187062643Y-175723433D01*
X187238416Y-175827138D01*
X187358929Y-175956396D01*
X187434611Y-176170577D01*
X187475890Y-176529048D01*
X187493196Y-177091179D01*
X187496955Y-177916339D01*
X187497000Y-178196230D01*
X187497000Y-180436565D01*
X188259000Y-180497169D01*
X189021000Y-180557774D01*
X189021000Y-174374667D01*
X188259000Y-174374667D01*
X187782130Y-174397217D01*
X187556729Y-174489858D01*
X187497172Y-174690069D01*
X187497000Y-174708230D01*
X187476537Y-174900264D01*
X187365072Y-174921720D01*
X187087489Y-174762279D01*
X186880704Y-174623563D01*
X186170793Y-174275370D01*
X185539759Y-174225305D01*
X185026035Y-174465662D01*
G36*
X190375667Y-177422667D02*
X190376632Y-178505361D01*
X190383367Y-179295511D01*
X190401634Y-179839237D01*
X190437192Y-180182661D01*
X190495804Y-180371906D01*
X190583229Y-180453092D01*
X190705228Y-180472342D01*
X190756667Y-180472979D01*
X191247070Y-180521048D01*
X191518667Y-180577395D01*
X191899667Y-180679499D01*
X191899667Y-177629866D01*
X191898564Y-176505481D01*
X191885859Y-175675196D01*
X191847453Y-175094454D01*
X191769251Y-174718699D01*
X191637156Y-174503371D01*
X191437071Y-174403915D01*
X191154901Y-174375774D01*
X190869818Y-174374667D01*
X190375667Y-174374667D01*
X190375667Y-177422667D01*
X190375667Y-177422667D01*
G37*
X190375667Y-177422667D02*
X190376632Y-178505361D01*
X190383367Y-179295511D01*
X190401634Y-179839237D01*
X190437192Y-180182661D01*
X190495804Y-180371906D01*
X190583229Y-180453092D01*
X190705228Y-180472342D01*
X190756667Y-180472979D01*
X191247070Y-180521048D01*
X191518667Y-180577395D01*
X191899667Y-180679499D01*
X191899667Y-177629866D01*
X191898564Y-176505481D01*
X191885859Y-175675196D01*
X191847453Y-175094454D01*
X191769251Y-174718699D01*
X191637156Y-174503371D01*
X191437071Y-174403915D01*
X191154901Y-174375774D01*
X190869818Y-174374667D01*
X190375667Y-174374667D01*
X190375667Y-177422667D01*
G36*
X220940388Y-174406765D02*
X220780602Y-174581678D01*
X220677271Y-174793337D01*
X220603661Y-175121008D01*
X220555415Y-175616183D01*
X220528175Y-176330351D01*
X220517585Y-177315004D01*
X220517000Y-177696558D01*
X220517000Y-180435094D01*
X221194334Y-180499689D01*
X221871667Y-180564283D01*
X221871667Y-178329991D01*
X221877894Y-177293908D01*
X221902096Y-176549749D01*
X221952555Y-176050907D01*
X222037554Y-175750780D01*
X222165374Y-175602760D01*
X222344297Y-175560244D01*
X222363917Y-175560000D01*
X222628971Y-175598300D01*
X222817664Y-175744712D01*
X222942398Y-176046500D01*
X223015576Y-176550932D01*
X223049600Y-177305272D01*
X223057000Y-178201482D01*
X223057000Y-180436565D01*
X223819000Y-180497169D01*
X224581000Y-180557774D01*
X224581000Y-178058887D01*
X224584053Y-177088643D01*
X224597293Y-176406843D01*
X224626842Y-175963288D01*
X224678824Y-175707782D01*
X224759362Y-175590124D01*
X224874578Y-175560117D01*
X224885801Y-175560000D01*
X225157441Y-175596588D01*
X225350782Y-175738021D01*
X225478613Y-176031800D01*
X225553725Y-176525428D01*
X225588906Y-177266407D01*
X225597000Y-178201482D01*
X225597000Y-180436565D01*
X226359000Y-180497169D01*
X227121000Y-180557774D01*
X227121000Y-174374667D01*
X226359000Y-174374667D01*
X225864514Y-174405043D01*
X225635804Y-174512285D01*
X225597000Y-174642477D01*
X225555143Y-174789186D01*
X225380830Y-174759268D01*
X225026680Y-174557811D01*
X224363583Y-174272111D01*
X223800482Y-174274665D01*
X223377492Y-174557597D01*
X223185928Y-174919217D01*
X223029404Y-174976044D01*
X222682005Y-174763316D01*
X222565150Y-174668241D01*
X221968092Y-174305171D01*
X221405734Y-174217005D01*
X220940388Y-174406765D01*
X220940388Y-174406765D01*
G37*
X220940388Y-174406765D02*
X220780602Y-174581678D01*
X220677271Y-174793337D01*
X220603661Y-175121008D01*
X220555415Y-175616183D01*
X220528175Y-176330351D01*
X220517585Y-177315004D01*
X220517000Y-177696558D01*
X220517000Y-180435094D01*
X221194334Y-180499689D01*
X221871667Y-180564283D01*
X221871667Y-178329991D01*
X221877894Y-177293908D01*
X221902096Y-176549749D01*
X221952555Y-176050907D01*
X222037554Y-175750780D01*
X222165374Y-175602760D01*
X222344297Y-175560244D01*
X222363917Y-175560000D01*
X222628971Y-175598300D01*
X222817664Y-175744712D01*
X222942398Y-176046500D01*
X223015576Y-176550932D01*
X223049600Y-177305272D01*
X223057000Y-178201482D01*
X223057000Y-180436565D01*
X223819000Y-180497169D01*
X224581000Y-180557774D01*
X224581000Y-178058887D01*
X224584053Y-177088643D01*
X224597293Y-176406843D01*
X224626842Y-175963288D01*
X224678824Y-175707782D01*
X224759362Y-175590124D01*
X224874578Y-175560117D01*
X224885801Y-175560000D01*
X225157441Y-175596588D01*
X225350782Y-175738021D01*
X225478613Y-176031800D01*
X225553725Y-176525428D01*
X225588906Y-177266407D01*
X225597000Y-178201482D01*
X225597000Y-180436565D01*
X226359000Y-180497169D01*
X227121000Y-180557774D01*
X227121000Y-174374667D01*
X226359000Y-174374667D01*
X225864514Y-174405043D01*
X225635804Y-174512285D01*
X225597000Y-174642477D01*
X225555143Y-174789186D01*
X225380830Y-174759268D01*
X225026680Y-174557811D01*
X224363583Y-174272111D01*
X223800482Y-174274665D01*
X223377492Y-174557597D01*
X223185928Y-174919217D01*
X223029404Y-174976044D01*
X222682005Y-174763316D01*
X222565150Y-174668241D01*
X221968092Y-174305171D01*
X221405734Y-174217005D01*
X220940388Y-174406765D01*
G36*
X215496150Y-174453896D02*
X215165460Y-174868803D01*
X214933310Y-175527630D01*
X214798828Y-176350549D01*
X214761140Y-177257734D01*
X214819373Y-178169357D01*
X214972656Y-179005590D01*
X215220115Y-179686607D01*
X215558212Y-180130493D01*
X216173435Y-180425469D01*
X216820923Y-180412975D01*
X217261989Y-180207065D01*
X217471194Y-180073961D01*
X217583593Y-180089038D01*
X217629263Y-180311500D01*
X217638281Y-180800554D01*
X217638334Y-180947898D01*
X217646767Y-181508358D01*
X217700319Y-181819083D01*
X217841372Y-181968997D01*
X218112307Y-182047021D01*
X218167500Y-182058167D01*
X218482991Y-182124040D01*
X218723809Y-182153690D01*
X218899999Y-182108867D01*
X219021604Y-181951323D01*
X219098666Y-181642808D01*
X219141230Y-181145073D01*
X219159337Y-180419867D01*
X219163031Y-179428943D01*
X219162334Y-178269333D01*
X219162334Y-178137793D01*
X217606105Y-178137793D01*
X217554339Y-178749990D01*
X217454847Y-179048388D01*
X217097472Y-179272269D01*
X216726540Y-179203501D01*
X216453889Y-178864028D01*
X216448809Y-178850976D01*
X216363279Y-178457830D01*
X216303602Y-177862194D01*
X216283667Y-177261069D01*
X216310385Y-176549638D01*
X216404462Y-176074642D01*
X216586788Y-175737051D01*
X216611725Y-175705759D01*
X216889365Y-175440560D01*
X217133992Y-175434511D01*
X217246725Y-175493267D01*
X217397790Y-175640300D01*
X217497147Y-175905709D01*
X217558765Y-176358298D01*
X217596614Y-177066870D01*
X217602581Y-177245988D01*
X217606105Y-178137793D01*
X219162334Y-178137793D01*
X219162334Y-174374667D01*
X218400334Y-174374667D01*
X217905106Y-174405325D01*
X217676354Y-174513132D01*
X217638334Y-174640957D01*
X217594908Y-174787784D01*
X217419124Y-174724091D01*
X217192164Y-174556290D01*
X216578070Y-174255692D01*
X215938108Y-174254257D01*
X215496150Y-174453896D01*
X215496150Y-174453896D01*
G37*
X215496150Y-174453896D02*
X215165460Y-174868803D01*
X214933310Y-175527630D01*
X214798828Y-176350549D01*
X214761140Y-177257734D01*
X214819373Y-178169357D01*
X214972656Y-179005590D01*
X215220115Y-179686607D01*
X215558212Y-180130493D01*
X216173435Y-180425469D01*
X216820923Y-180412975D01*
X217261989Y-180207065D01*
X217471194Y-180073961D01*
X217583593Y-180089038D01*
X217629263Y-180311500D01*
X217638281Y-180800554D01*
X217638334Y-180947898D01*
X217646767Y-181508358D01*
X217700319Y-181819083D01*
X217841372Y-181968997D01*
X218112307Y-182047021D01*
X218167500Y-182058167D01*
X218482991Y-182124040D01*
X218723809Y-182153690D01*
X218899999Y-182108867D01*
X219021604Y-181951323D01*
X219098666Y-181642808D01*
X219141230Y-181145073D01*
X219159337Y-180419867D01*
X219163031Y-179428943D01*
X219162334Y-178269333D01*
X219162334Y-178137793D01*
X217606105Y-178137793D01*
X217554339Y-178749990D01*
X217454847Y-179048388D01*
X217097472Y-179272269D01*
X216726540Y-179203501D01*
X216453889Y-178864028D01*
X216448809Y-178850976D01*
X216363279Y-178457830D01*
X216303602Y-177862194D01*
X216283667Y-177261069D01*
X216310385Y-176549638D01*
X216404462Y-176074642D01*
X216586788Y-175737051D01*
X216611725Y-175705759D01*
X216889365Y-175440560D01*
X217133992Y-175434511D01*
X217246725Y-175493267D01*
X217397790Y-175640300D01*
X217497147Y-175905709D01*
X217558765Y-176358298D01*
X217596614Y-177066870D01*
X217602581Y-177245988D01*
X217606105Y-178137793D01*
X219162334Y-178137793D01*
X219162334Y-174374667D01*
X218400334Y-174374667D01*
X217905106Y-174405325D01*
X217676354Y-174513132D01*
X217638334Y-174640957D01*
X217594908Y-174787784D01*
X217419124Y-174724091D01*
X217192164Y-174556290D01*
X216578070Y-174255692D01*
X215938108Y-174254257D01*
X215496150Y-174453896D01*
G36*
X178202388Y-174106255D02*
X178183667Y-174356309D01*
X178259319Y-174747158D01*
X178536042Y-174933242D01*
X178586736Y-174947116D01*
X178818767Y-175038086D01*
X178935701Y-175221472D01*
X178971694Y-175589601D01*
X178967736Y-175977027D01*
X179046610Y-176783604D01*
X179345599Y-177351923D01*
X179891594Y-177710216D01*
X180711483Y-177886713D01*
X180793761Y-177894162D01*
X181467282Y-178005911D01*
X181898382Y-178196897D01*
X182049420Y-178445320D01*
X182002305Y-178594024D01*
X181896854Y-178690062D01*
X181673516Y-178772965D01*
X181273598Y-178855638D01*
X180638406Y-178950986D01*
X179991795Y-179036091D01*
X179245498Y-179219735D01*
X178778172Y-179565192D01*
X178554435Y-180108278D01*
X178522334Y-180523403D01*
X178645079Y-181246951D01*
X179027495Y-181767592D01*
X179690847Y-182111789D01*
X179833565Y-182154792D01*
X180640566Y-182286598D01*
X181573654Y-182304097D01*
X182444728Y-182207986D01*
X182712453Y-182144115D01*
X183250358Y-181863926D01*
X183592872Y-181441652D01*
X183721411Y-180959439D01*
X183648079Y-180635139D01*
X182401223Y-180635139D01*
X182210195Y-180875603D01*
X182172969Y-180903918D01*
X181722496Y-181082022D01*
X181119271Y-181140179D01*
X180525311Y-181077231D01*
X180135852Y-180918487D01*
X179903385Y-180627188D01*
X179984357Y-180357331D01*
X180353778Y-180142961D01*
X180778588Y-180042943D01*
X181479374Y-179974566D01*
X181937789Y-180034077D01*
X182230972Y-180237080D01*
X182314184Y-180353584D01*
X182401223Y-180635139D01*
X183648079Y-180635139D01*
X183617393Y-180499436D01*
X183262235Y-180143788D01*
X183175012Y-180099372D01*
X182888812Y-179949801D01*
X182892278Y-179827400D01*
X183095017Y-179672195D01*
X183387631Y-179288506D01*
X183415387Y-178801223D01*
X183186396Y-178307210D01*
X182961156Y-178073657D01*
X182489311Y-177682889D01*
X182882206Y-177341111D01*
X183242047Y-176831877D01*
X183364773Y-176315125D01*
X181882221Y-176315125D01*
X181731728Y-176753411D01*
X181416401Y-177016219D01*
X180995235Y-177040066D01*
X180732134Y-176923483D01*
X180561004Y-176650963D01*
X180486956Y-176188412D01*
X180486600Y-176152667D01*
X180595707Y-175638080D01*
X180867183Y-175320188D01*
X181217265Y-175223560D01*
X181562188Y-175372764D01*
X181808882Y-175764844D01*
X181882221Y-176315125D01*
X183364773Y-176315125D01*
X183394026Y-176191953D01*
X183316951Y-175561146D01*
X183191424Y-175301195D01*
X182605970Y-174697823D01*
X181839120Y-174325370D01*
X180979684Y-174210581D01*
X180123990Y-174377332D01*
X179735776Y-174455940D01*
X179345827Y-174337305D01*
X179119313Y-174207998D01*
X178621325Y-173939981D01*
X178331014Y-173903636D01*
X178202388Y-174106255D01*
X178202388Y-174106255D01*
G37*
X178202388Y-174106255D02*
X178183667Y-174356309D01*
X178259319Y-174747158D01*
X178536042Y-174933242D01*
X178586736Y-174947116D01*
X178818767Y-175038086D01*
X178935701Y-175221472D01*
X178971694Y-175589601D01*
X178967736Y-175977027D01*
X179046610Y-176783604D01*
X179345599Y-177351923D01*
X179891594Y-177710216D01*
X180711483Y-177886713D01*
X180793761Y-177894162D01*
X181467282Y-178005911D01*
X181898382Y-178196897D01*
X182049420Y-178445320D01*
X182002305Y-178594024D01*
X181896854Y-178690062D01*
X181673516Y-178772965D01*
X181273598Y-178855638D01*
X180638406Y-178950986D01*
X179991795Y-179036091D01*
X179245498Y-179219735D01*
X178778172Y-179565192D01*
X178554435Y-180108278D01*
X178522334Y-180523403D01*
X178645079Y-181246951D01*
X179027495Y-181767592D01*
X179690847Y-182111789D01*
X179833565Y-182154792D01*
X180640566Y-182286598D01*
X181573654Y-182304097D01*
X182444728Y-182207986D01*
X182712453Y-182144115D01*
X183250358Y-181863926D01*
X183592872Y-181441652D01*
X183721411Y-180959439D01*
X183648079Y-180635139D01*
X182401223Y-180635139D01*
X182210195Y-180875603D01*
X182172969Y-180903918D01*
X181722496Y-181082022D01*
X181119271Y-181140179D01*
X180525311Y-181077231D01*
X180135852Y-180918487D01*
X179903385Y-180627188D01*
X179984357Y-180357331D01*
X180353778Y-180142961D01*
X180778588Y-180042943D01*
X181479374Y-179974566D01*
X181937789Y-180034077D01*
X182230972Y-180237080D01*
X182314184Y-180353584D01*
X182401223Y-180635139D01*
X183648079Y-180635139D01*
X183617393Y-180499436D01*
X183262235Y-180143788D01*
X183175012Y-180099372D01*
X182888812Y-179949801D01*
X182892278Y-179827400D01*
X183095017Y-179672195D01*
X183387631Y-179288506D01*
X183415387Y-178801223D01*
X183186396Y-178307210D01*
X182961156Y-178073657D01*
X182489311Y-177682889D01*
X182882206Y-177341111D01*
X183242047Y-176831877D01*
X183364773Y-176315125D01*
X181882221Y-176315125D01*
X181731728Y-176753411D01*
X181416401Y-177016219D01*
X180995235Y-177040066D01*
X180732134Y-176923483D01*
X180561004Y-176650963D01*
X180486956Y-176188412D01*
X180486600Y-176152667D01*
X180595707Y-175638080D01*
X180867183Y-175320188D01*
X181217265Y-175223560D01*
X181562188Y-175372764D01*
X181808882Y-175764844D01*
X181882221Y-176315125D01*
X183364773Y-176315125D01*
X183394026Y-176191953D01*
X183316951Y-175561146D01*
X183191424Y-175301195D01*
X182605970Y-174697823D01*
X181839120Y-174325370D01*
X180979684Y-174210581D01*
X180123990Y-174377332D01*
X179735776Y-174455940D01*
X179345827Y-174337305D01*
X179119313Y-174207998D01*
X178621325Y-173939981D01*
X178331014Y-173903636D01*
X178202388Y-174106255D01*
G36*
X206644917Y-177371547D02*
X206915764Y-178399408D01*
X207176364Y-179347566D01*
X207408850Y-180154066D01*
X207595354Y-180756954D01*
X207718008Y-181094275D01*
X207719448Y-181097378D01*
X208182687Y-181732944D01*
X208876402Y-182133823D01*
X209597444Y-182291765D01*
X210357000Y-182377378D01*
X210357000Y-181678022D01*
X210339881Y-181235059D01*
X210237372Y-181034631D01*
X209972753Y-180980718D01*
X209798200Y-180978667D01*
X209362743Y-180938302D01*
X209062112Y-180794407D01*
X208894564Y-180512778D01*
X208858354Y-180059209D01*
X208951736Y-179399499D01*
X209172967Y-178499441D01*
X209520301Y-177324834D01*
X209598931Y-177072503D01*
X209871702Y-176204021D01*
X210111965Y-175442489D01*
X210299996Y-174850161D01*
X210416072Y-174489290D01*
X210440283Y-174417000D01*
X210375034Y-174279992D01*
X210030463Y-174214500D01*
X209700118Y-174205333D01*
X208884531Y-174205333D01*
X208493892Y-175985348D01*
X208327343Y-176696345D01*
X208176600Y-177253423D01*
X208060041Y-177593707D01*
X208002460Y-177666485D01*
X207926407Y-177468260D01*
X207803169Y-177014583D01*
X207652534Y-176381981D01*
X207553068Y-175928803D01*
X207204470Y-174290000D01*
X206514178Y-174238880D01*
X205823887Y-174187761D01*
X206644917Y-177371547D01*
X206644917Y-177371547D01*
G37*
X206644917Y-177371547D02*
X206915764Y-178399408D01*
X207176364Y-179347566D01*
X207408850Y-180154066D01*
X207595354Y-180756954D01*
X207718008Y-181094275D01*
X207719448Y-181097378D01*
X208182687Y-181732944D01*
X208876402Y-182133823D01*
X209597444Y-182291765D01*
X210357000Y-182377378D01*
X210357000Y-181678022D01*
X210339881Y-181235059D01*
X210237372Y-181034631D01*
X209972753Y-180980718D01*
X209798200Y-180978667D01*
X209362743Y-180938302D01*
X209062112Y-180794407D01*
X208894564Y-180512778D01*
X208858354Y-180059209D01*
X208951736Y-179399499D01*
X209172967Y-178499441D01*
X209520301Y-177324834D01*
X209598931Y-177072503D01*
X209871702Y-176204021D01*
X210111965Y-175442489D01*
X210299996Y-174850161D01*
X210416072Y-174489290D01*
X210440283Y-174417000D01*
X210375034Y-174279992D01*
X210030463Y-174214500D01*
X209700118Y-174205333D01*
X208884531Y-174205333D01*
X208493892Y-175985348D01*
X208327343Y-176696345D01*
X208176600Y-177253423D01*
X208060041Y-177593707D01*
X208002460Y-177666485D01*
X207926407Y-177468260D01*
X207803169Y-177014583D01*
X207652534Y-176381981D01*
X207553068Y-175928803D01*
X207204470Y-174290000D01*
X206514178Y-174238880D01*
X205823887Y-174187761D01*
X206644917Y-177371547D01*
G36*
X164615045Y-190009017D02*
X164492576Y-190243362D01*
X164467758Y-190727495D01*
X164467667Y-190800000D01*
X164467667Y-191646667D01*
X165991667Y-191646667D01*
X165991667Y-190905833D01*
X165971697Y-190439406D01*
X165867002Y-190203708D01*
X165610406Y-190091259D01*
X165462500Y-190059167D01*
X164912557Y-189966828D01*
X164615045Y-190009017D01*
X164615045Y-190009017D01*
G37*
X164615045Y-190009017D02*
X164492576Y-190243362D01*
X164467758Y-190727495D01*
X164467667Y-190800000D01*
X164467667Y-191646667D01*
X165991667Y-191646667D01*
X165991667Y-190905833D01*
X165971697Y-190439406D01*
X165867002Y-190203708D01*
X165610406Y-190091259D01*
X165462500Y-190059167D01*
X164912557Y-189966828D01*
X164615045Y-190009017D01*
G36*
X160602552Y-192431482D02*
X160018157Y-192650512D01*
X159889530Y-192747333D01*
X159367210Y-193421231D01*
X159036340Y-194284834D01*
X158897317Y-195251549D01*
X158950535Y-196234784D01*
X159196390Y-197147944D01*
X159635278Y-197904439D01*
X159864881Y-198143692D01*
X160430433Y-198444867D01*
X161136674Y-198543580D01*
X161848125Y-198433394D01*
X162234190Y-198256239D01*
X162766239Y-197736314D01*
X163139842Y-196995550D01*
X163350875Y-196114571D01*
X163395215Y-195174000D01*
X163378620Y-195053340D01*
X161890566Y-195053340D01*
X161885104Y-195747211D01*
X161823923Y-196407471D01*
X161711020Y-196920977D01*
X161608495Y-197126510D01*
X161234130Y-197380319D01*
X160857878Y-197331699D01*
X160579138Y-196995646D01*
X160568809Y-196969643D01*
X160464167Y-196478314D01*
X160413914Y-195789076D01*
X160417849Y-195038258D01*
X160475771Y-194362191D01*
X160573273Y-193931949D01*
X160830181Y-193600190D01*
X161182007Y-193546143D01*
X161539715Y-193763168D01*
X161718342Y-194017333D01*
X161836311Y-194439000D01*
X161890566Y-195053340D01*
X163378620Y-195053340D01*
X163268740Y-194254460D01*
X162967327Y-193436575D01*
X162511989Y-192824160D01*
X161982030Y-192522190D01*
X161301364Y-192390003D01*
X160602552Y-192431482D01*
X160602552Y-192431482D01*
G37*
X160602552Y-192431482D02*
X160018157Y-192650512D01*
X159889530Y-192747333D01*
X159367210Y-193421231D01*
X159036340Y-194284834D01*
X158897317Y-195251549D01*
X158950535Y-196234784D01*
X159196390Y-197147944D01*
X159635278Y-197904439D01*
X159864881Y-198143692D01*
X160430433Y-198444867D01*
X161136674Y-198543580D01*
X161848125Y-198433394D01*
X162234190Y-198256239D01*
X162766239Y-197736314D01*
X163139842Y-196995550D01*
X163350875Y-196114571D01*
X163395215Y-195174000D01*
X163378620Y-195053340D01*
X161890566Y-195053340D01*
X161885104Y-195747211D01*
X161823923Y-196407471D01*
X161711020Y-196920977D01*
X161608495Y-197126510D01*
X161234130Y-197380319D01*
X160857878Y-197331699D01*
X160579138Y-196995646D01*
X160568809Y-196969643D01*
X160464167Y-196478314D01*
X160413914Y-195789076D01*
X160417849Y-195038258D01*
X160475771Y-194362191D01*
X160573273Y-193931949D01*
X160830181Y-193600190D01*
X161182007Y-193546143D01*
X161539715Y-193763168D01*
X161718342Y-194017333D01*
X161836311Y-194439000D01*
X161890566Y-195053340D01*
X163378620Y-195053340D01*
X163268740Y-194254460D01*
X162967327Y-193436575D01*
X162511989Y-192824160D01*
X161982030Y-192522190D01*
X161301364Y-192390003D01*
X160602552Y-192431482D01*
G36*
X167346334Y-198420000D02*
X167927590Y-198420000D01*
X168371780Y-198359952D01*
X168590720Y-198147244D01*
X168619269Y-198072086D01*
X168707978Y-197855338D01*
X168829659Y-197858275D01*
X169073901Y-198095730D01*
X169130594Y-198156753D01*
X169667706Y-198513442D01*
X170283411Y-198566531D01*
X170865623Y-198325054D01*
X171312593Y-197887934D01*
X171607060Y-197281889D01*
X171767535Y-196452489D01*
X171812343Y-195541333D01*
X171793050Y-195033862D01*
X170348966Y-195033862D01*
X170341249Y-195725099D01*
X170280364Y-196388764D01*
X170170848Y-196912318D01*
X170060758Y-197143865D01*
X169694846Y-197377699D01*
X169305169Y-197334253D01*
X169045625Y-197076465D01*
X168940347Y-196703607D01*
X168880265Y-196130439D01*
X168863351Y-195454462D01*
X168887575Y-194773178D01*
X168950908Y-194184088D01*
X169051320Y-193784693D01*
X169116199Y-193685418D01*
X169519138Y-193532483D01*
X169918432Y-193684404D01*
X170186749Y-194018833D01*
X170298978Y-194427594D01*
X170348966Y-195033862D01*
X171793050Y-195033862D01*
X171768916Y-194399088D01*
X171612767Y-193547575D01*
X171334037Y-192954861D01*
X170922869Y-192589011D01*
X170896639Y-192575055D01*
X170280088Y-192351966D01*
X169756420Y-192409511D01*
X169316503Y-192674957D01*
X168870334Y-193025914D01*
X168870334Y-190495435D01*
X168108334Y-190434830D01*
X167346334Y-190374226D01*
X167346334Y-198420000D01*
X167346334Y-198420000D01*
G37*
X167346334Y-198420000D02*
X167927590Y-198420000D01*
X168371780Y-198359952D01*
X168590720Y-198147244D01*
X168619269Y-198072086D01*
X168707978Y-197855338D01*
X168829659Y-197858275D01*
X169073901Y-198095730D01*
X169130594Y-198156753D01*
X169667706Y-198513442D01*
X170283411Y-198566531D01*
X170865623Y-198325054D01*
X171312593Y-197887934D01*
X171607060Y-197281889D01*
X171767535Y-196452489D01*
X171812343Y-195541333D01*
X171793050Y-195033862D01*
X170348966Y-195033862D01*
X170341249Y-195725099D01*
X170280364Y-196388764D01*
X170170848Y-196912318D01*
X170060758Y-197143865D01*
X169694846Y-197377699D01*
X169305169Y-197334253D01*
X169045625Y-197076465D01*
X168940347Y-196703607D01*
X168880265Y-196130439D01*
X168863351Y-195454462D01*
X168887575Y-194773178D01*
X168950908Y-194184088D01*
X169051320Y-193784693D01*
X169116199Y-193685418D01*
X169519138Y-193532483D01*
X169918432Y-193684404D01*
X170186749Y-194018833D01*
X170298978Y-194427594D01*
X170348966Y-195033862D01*
X171793050Y-195033862D01*
X171768916Y-194399088D01*
X171612767Y-193547575D01*
X171334037Y-192954861D01*
X170922869Y-192589011D01*
X170896639Y-192575055D01*
X170280088Y-192351966D01*
X169756420Y-192409511D01*
X169316503Y-192674957D01*
X168870334Y-193025914D01*
X168870334Y-190495435D01*
X168108334Y-190434830D01*
X167346334Y-190374226D01*
X167346334Y-198420000D01*
G36*
X175775316Y-194737000D02*
X175755120Y-195683852D01*
X175731325Y-196345086D01*
X175694447Y-196773697D01*
X175634999Y-197022682D01*
X175543493Y-197145037D01*
X175410445Y-197193759D01*
X175333370Y-197205940D01*
X174905292Y-197139888D01*
X174613703Y-196968029D01*
X174478346Y-196811169D01*
X174386410Y-196588517D01*
X174329754Y-196238164D01*
X174300236Y-195698201D01*
X174289714Y-194906719D01*
X174289000Y-194499089D01*
X174289000Y-192324000D01*
X172765000Y-192324000D01*
X172765000Y-198420000D01*
X173527000Y-198420000D01*
X174029245Y-198386759D01*
X174258017Y-198273731D01*
X174289000Y-198166000D01*
X174312857Y-197971955D01*
X174432607Y-197940537D01*
X174720523Y-198080234D01*
X175004574Y-198250034D01*
X175724438Y-198546684D01*
X176369696Y-198519320D01*
X176921364Y-198173697D01*
X177076693Y-198006404D01*
X177187536Y-197826983D01*
X177261396Y-197578905D01*
X177305770Y-197205643D01*
X177328160Y-196650670D01*
X177336065Y-195857458D01*
X177337000Y-195041030D01*
X177337000Y-192324000D01*
X175822299Y-192324000D01*
X175775316Y-194737000D01*
X175775316Y-194737000D01*
G37*
X175775316Y-194737000D02*
X175755120Y-195683852D01*
X175731325Y-196345086D01*
X175694447Y-196773697D01*
X175634999Y-197022682D01*
X175543493Y-197145037D01*
X175410445Y-197193759D01*
X175333370Y-197205940D01*
X174905292Y-197139888D01*
X174613703Y-196968029D01*
X174478346Y-196811169D01*
X174386410Y-196588517D01*
X174329754Y-196238164D01*
X174300236Y-195698201D01*
X174289714Y-194906719D01*
X174289000Y-194499089D01*
X174289000Y-192324000D01*
X172765000Y-192324000D01*
X172765000Y-198420000D01*
X173527000Y-198420000D01*
X174029245Y-198386759D01*
X174258017Y-198273731D01*
X174289000Y-198166000D01*
X174312857Y-197971955D01*
X174432607Y-197940537D01*
X174720523Y-198080234D01*
X175004574Y-198250034D01*
X175724438Y-198546684D01*
X176369696Y-198519320D01*
X176921364Y-198173697D01*
X177076693Y-198006404D01*
X177187536Y-197826983D01*
X177261396Y-197578905D01*
X177305770Y-197205643D01*
X177328160Y-196650670D01*
X177336065Y-195857458D01*
X177337000Y-195041030D01*
X177337000Y-192324000D01*
X175822299Y-192324000D01*
X175775316Y-194737000D01*
G36*
X179456420Y-190886892D02*
X179376978Y-191163970D01*
X179369000Y-191562000D01*
X179356348Y-192030206D01*
X179270601Y-192251916D01*
X179040073Y-192319300D01*
X178776334Y-192324000D01*
X178379110Y-192350213D01*
X178216205Y-192498105D01*
X178183741Y-192871556D01*
X178183667Y-192916667D01*
X178209447Y-193312638D01*
X178355752Y-193475993D01*
X178726033Y-193509221D01*
X178781880Y-193509333D01*
X179380092Y-193509333D01*
X179284334Y-197319333D01*
X178724127Y-197373132D01*
X178344561Y-197440846D01*
X178208395Y-197615696D01*
X178216127Y-197965798D01*
X178270983Y-198292359D01*
X178416114Y-198458974D01*
X178746868Y-198531113D01*
X179076268Y-198556425D01*
X179615185Y-198559140D01*
X179982221Y-198443364D01*
X180338249Y-198153610D01*
X180388601Y-198103784D01*
X180600563Y-197882293D01*
X180742857Y-197673888D01*
X180829366Y-197408405D01*
X180873972Y-197015680D01*
X180890556Y-196425547D01*
X180893000Y-195567842D01*
X180893000Y-193509333D01*
X181316334Y-193509333D01*
X181602617Y-193465053D01*
X181719816Y-193265790D01*
X181739667Y-192916667D01*
X181707936Y-192515771D01*
X181565578Y-192351670D01*
X181318335Y-192324000D01*
X181032944Y-192272718D01*
X180877917Y-192056787D01*
X180791474Y-191664061D01*
X180681447Y-191217758D01*
X180481103Y-190996706D01*
X180175640Y-190902061D01*
X179693804Y-190823182D01*
X179456420Y-190886892D01*
X179456420Y-190886892D01*
G37*
X179456420Y-190886892D02*
X179376978Y-191163970D01*
X179369000Y-191562000D01*
X179356348Y-192030206D01*
X179270601Y-192251916D01*
X179040073Y-192319300D01*
X178776334Y-192324000D01*
X178379110Y-192350213D01*
X178216205Y-192498105D01*
X178183741Y-192871556D01*
X178183667Y-192916667D01*
X178209447Y-193312638D01*
X178355752Y-193475993D01*
X178726033Y-193509221D01*
X178781880Y-193509333D01*
X179380092Y-193509333D01*
X179284334Y-197319333D01*
X178724127Y-197373132D01*
X178344561Y-197440846D01*
X178208395Y-197615696D01*
X178216127Y-197965798D01*
X178270983Y-198292359D01*
X178416114Y-198458974D01*
X178746868Y-198531113D01*
X179076268Y-198556425D01*
X179615185Y-198559140D01*
X179982221Y-198443364D01*
X180338249Y-198153610D01*
X180388601Y-198103784D01*
X180600563Y-197882293D01*
X180742857Y-197673888D01*
X180829366Y-197408405D01*
X180873972Y-197015680D01*
X180890556Y-196425547D01*
X180893000Y-195567842D01*
X180893000Y-193509333D01*
X181316334Y-193509333D01*
X181602617Y-193465053D01*
X181719816Y-193265790D01*
X181739667Y-192916667D01*
X181707936Y-192515771D01*
X181565578Y-192351670D01*
X181318335Y-192324000D01*
X181032944Y-192272718D01*
X180877917Y-192056787D01*
X180791474Y-191664061D01*
X180681447Y-191217758D01*
X180481103Y-190996706D01*
X180175640Y-190902061D01*
X179693804Y-190823182D01*
X179456420Y-190886892D01*
G36*
X183560636Y-192525370D02*
X183316808Y-192654238D01*
X182874514Y-192999963D01*
X182573699Y-193378607D01*
X182468461Y-193707842D01*
X182528313Y-193854197D01*
X182970127Y-194088418D01*
X183467410Y-194081512D01*
X183847654Y-193857591D01*
X184277083Y-193555081D01*
X184701642Y-193561730D01*
X184923134Y-193712533D01*
X185084036Y-193925346D01*
X185058397Y-194110755D01*
X184806977Y-194312506D01*
X184290541Y-194574338D01*
X184053270Y-194682282D01*
X183164443Y-195165959D01*
X182587635Y-195691321D01*
X182296409Y-196288083D01*
X182247667Y-196711825D01*
X182395478Y-197461019D01*
X182831921Y-198035990D01*
X183365026Y-198353220D01*
X184257448Y-198570777D01*
X185103060Y-198475536D01*
X185581193Y-198259095D01*
X186020061Y-197913880D01*
X186350906Y-197515896D01*
X186481000Y-197177697D01*
X186339658Y-197074017D01*
X185996418Y-196929671D01*
X185966469Y-196919097D01*
X185559912Y-196826791D01*
X185270737Y-196936155D01*
X185119802Y-197071865D01*
X184669778Y-197343929D01*
X184182773Y-197377427D01*
X183785877Y-197165829D01*
X183764614Y-197141501D01*
X183657852Y-196898074D01*
X183787470Y-196663258D01*
X184185402Y-196405573D01*
X184787667Y-196132914D01*
X185600561Y-195717210D01*
X186119622Y-195248737D01*
X186389545Y-194684437D01*
X186416121Y-194564080D01*
X186406345Y-193828514D01*
X186127182Y-193200157D01*
X185640829Y-192717335D01*
X185009487Y-192418378D01*
X184295356Y-192341613D01*
X183560636Y-192525370D01*
X183560636Y-192525370D01*
G37*
X183560636Y-192525370D02*
X183316808Y-192654238D01*
X182874514Y-192999963D01*
X182573699Y-193378607D01*
X182468461Y-193707842D01*
X182528313Y-193854197D01*
X182970127Y-194088418D01*
X183467410Y-194081512D01*
X183847654Y-193857591D01*
X184277083Y-193555081D01*
X184701642Y-193561730D01*
X184923134Y-193712533D01*
X185084036Y-193925346D01*
X185058397Y-194110755D01*
X184806977Y-194312506D01*
X184290541Y-194574338D01*
X184053270Y-194682282D01*
X183164443Y-195165959D01*
X182587635Y-195691321D01*
X182296409Y-196288083D01*
X182247667Y-196711825D01*
X182395478Y-197461019D01*
X182831921Y-198035990D01*
X183365026Y-198353220D01*
X184257448Y-198570777D01*
X185103060Y-198475536D01*
X185581193Y-198259095D01*
X186020061Y-197913880D01*
X186350906Y-197515896D01*
X186481000Y-197177697D01*
X186339658Y-197074017D01*
X185996418Y-196929671D01*
X185966469Y-196919097D01*
X185559912Y-196826791D01*
X185270737Y-196936155D01*
X185119802Y-197071865D01*
X184669778Y-197343929D01*
X184182773Y-197377427D01*
X183785877Y-197165829D01*
X183764614Y-197141501D01*
X183657852Y-196898074D01*
X183787470Y-196663258D01*
X184185402Y-196405573D01*
X184787667Y-196132914D01*
X185600561Y-195717210D01*
X186119622Y-195248737D01*
X186389545Y-194684437D01*
X186416121Y-194564080D01*
X186406345Y-193828514D01*
X186127182Y-193200157D01*
X185640829Y-192717335D01*
X185009487Y-192418378D01*
X184295356Y-192341613D01*
X183560636Y-192525370D01*
G36*
X164467667Y-195541333D02*
X164468632Y-196624028D01*
X164475367Y-197414177D01*
X164493634Y-197957903D01*
X164529192Y-198301328D01*
X164587804Y-198490572D01*
X164675229Y-198571759D01*
X164797228Y-198591008D01*
X164848667Y-198591645D01*
X165339070Y-198639714D01*
X165610667Y-198696062D01*
X165991667Y-198798166D01*
X165991667Y-195748533D01*
X165990564Y-194624148D01*
X165977859Y-193793863D01*
X165939453Y-193213121D01*
X165861251Y-192837365D01*
X165729156Y-192622038D01*
X165529071Y-192522582D01*
X165246901Y-192494441D01*
X164961818Y-192493333D01*
X164467667Y-192493333D01*
X164467667Y-195541333D01*
X164467667Y-195541333D01*
G37*
X164467667Y-195541333D02*
X164468632Y-196624028D01*
X164475367Y-197414177D01*
X164493634Y-197957903D01*
X164529192Y-198301328D01*
X164587804Y-198490572D01*
X164675229Y-198571759D01*
X164797228Y-198591008D01*
X164848667Y-198591645D01*
X165339070Y-198639714D01*
X165610667Y-198696062D01*
X165991667Y-198798166D01*
X165991667Y-195748533D01*
X165990564Y-194624148D01*
X165977859Y-193793863D01*
X165939453Y-193213121D01*
X165861251Y-192837365D01*
X165729156Y-192622038D01*
X165529071Y-192522582D01*
X165246901Y-192494441D01*
X164961818Y-192493333D01*
X164467667Y-192493333D01*
X164467667Y-195541333D01*
G04 #@! TO.C,D1*
D13*
X164376630Y-173282404D02*
X163376630Y-173282404D01*
X163376630Y-173520500D01*
X163424250Y-173663357D01*
X163519488Y-173758595D01*
X163614726Y-173806214D01*
X163805202Y-173853833D01*
X163948059Y-173853833D01*
X164138535Y-173806214D01*
X164233773Y-173758595D01*
X164329011Y-173663357D01*
X164376630Y-173520500D01*
X164376630Y-173282404D01*
X164376630Y-174806214D02*
X164376630Y-174234785D01*
X164376630Y-174520500D02*
X163376630Y-174520500D01*
X163519488Y-174425261D01*
X163614726Y-174330023D01*
X163662345Y-174234785D01*
G04 #@! TO.C,D2*
X183426630Y-135182404D02*
X182426630Y-135182404D01*
X182426630Y-135420500D01*
X182474250Y-135563357D01*
X182569488Y-135658595D01*
X182664726Y-135706214D01*
X182855202Y-135753833D01*
X182998059Y-135753833D01*
X183188535Y-135706214D01*
X183283773Y-135658595D01*
X183379011Y-135563357D01*
X183426630Y-135420500D01*
X183426630Y-135182404D01*
X182521869Y-136134785D02*
X182474250Y-136182404D01*
X182426630Y-136277642D01*
X182426630Y-136515738D01*
X182474250Y-136610976D01*
X182521869Y-136658595D01*
X182617107Y-136706214D01*
X182712345Y-136706214D01*
X182855202Y-136658595D01*
X183426630Y-136087166D01*
X183426630Y-136706214D01*
G04 #@! TO.C,D3*
X183426630Y-154232404D02*
X182426630Y-154232404D01*
X182426630Y-154470500D01*
X182474250Y-154613357D01*
X182569488Y-154708595D01*
X182664726Y-154756214D01*
X182855202Y-154803833D01*
X182998059Y-154803833D01*
X183188535Y-154756214D01*
X183283773Y-154708595D01*
X183379011Y-154613357D01*
X183426630Y-154470500D01*
X183426630Y-154232404D01*
X182426630Y-155137166D02*
X182426630Y-155756214D01*
X182807583Y-155422880D01*
X182807583Y-155565738D01*
X182855202Y-155660976D01*
X182902821Y-155708595D01*
X182998059Y-155756214D01*
X183236154Y-155756214D01*
X183331392Y-155708595D01*
X183379011Y-155660976D01*
X183426630Y-155565738D01*
X183426630Y-155280023D01*
X183379011Y-155184785D01*
X183331392Y-155137166D01*
G04 #@! TO.C,D4*
X183426630Y-173282404D02*
X182426630Y-173282404D01*
X182426630Y-173520500D01*
X182474250Y-173663357D01*
X182569488Y-173758595D01*
X182664726Y-173806214D01*
X182855202Y-173853833D01*
X182998059Y-173853833D01*
X183188535Y-173806214D01*
X183283773Y-173758595D01*
X183379011Y-173663357D01*
X183426630Y-173520500D01*
X183426630Y-173282404D01*
X182759964Y-174710976D02*
X183426630Y-174710976D01*
X182379011Y-174472880D02*
X183093297Y-174234785D01*
X183093297Y-174853833D01*
G04 #@! TO.C,D5*
X202476630Y-135182404D02*
X201476630Y-135182404D01*
X201476630Y-135420500D01*
X201524250Y-135563357D01*
X201619488Y-135658595D01*
X201714726Y-135706214D01*
X201905202Y-135753833D01*
X202048059Y-135753833D01*
X202238535Y-135706214D01*
X202333773Y-135658595D01*
X202429011Y-135563357D01*
X202476630Y-135420500D01*
X202476630Y-135182404D01*
X201476630Y-136658595D02*
X201476630Y-136182404D01*
X201952821Y-136134785D01*
X201905202Y-136182404D01*
X201857583Y-136277642D01*
X201857583Y-136515738D01*
X201905202Y-136610976D01*
X201952821Y-136658595D01*
X202048059Y-136706214D01*
X202286154Y-136706214D01*
X202381392Y-136658595D01*
X202429011Y-136610976D01*
X202476630Y-136515738D01*
X202476630Y-136277642D01*
X202429011Y-136182404D01*
X202381392Y-136134785D01*
G04 #@! TO.C,D6*
X202476630Y-154232404D02*
X201476630Y-154232404D01*
X201476630Y-154470500D01*
X201524250Y-154613357D01*
X201619488Y-154708595D01*
X201714726Y-154756214D01*
X201905202Y-154803833D01*
X202048059Y-154803833D01*
X202238535Y-154756214D01*
X202333773Y-154708595D01*
X202429011Y-154613357D01*
X202476630Y-154470500D01*
X202476630Y-154232404D01*
X201476630Y-155660976D02*
X201476630Y-155470500D01*
X201524250Y-155375261D01*
X201571869Y-155327642D01*
X201714726Y-155232404D01*
X201905202Y-155184785D01*
X202286154Y-155184785D01*
X202381392Y-155232404D01*
X202429011Y-155280023D01*
X202476630Y-155375261D01*
X202476630Y-155565738D01*
X202429011Y-155660976D01*
X202381392Y-155708595D01*
X202286154Y-155756214D01*
X202048059Y-155756214D01*
X201952821Y-155708595D01*
X201905202Y-155660976D01*
X201857583Y-155565738D01*
X201857583Y-155375261D01*
X201905202Y-155280023D01*
X201952821Y-155232404D01*
X202048059Y-155184785D01*
G04 #@! TO.C,D7*
X202476630Y-173282404D02*
X201476630Y-173282404D01*
X201476630Y-173520500D01*
X201524250Y-173663357D01*
X201619488Y-173758595D01*
X201714726Y-173806214D01*
X201905202Y-173853833D01*
X202048059Y-173853833D01*
X202238535Y-173806214D01*
X202333773Y-173758595D01*
X202429011Y-173663357D01*
X202476630Y-173520500D01*
X202476630Y-173282404D01*
X201476630Y-174187166D02*
X201476630Y-174853833D01*
X202476630Y-174425261D01*
G04 #@! TO.C,D8*
X221526630Y-135182404D02*
X220526630Y-135182404D01*
X220526630Y-135420500D01*
X220574250Y-135563357D01*
X220669488Y-135658595D01*
X220764726Y-135706214D01*
X220955202Y-135753833D01*
X221098059Y-135753833D01*
X221288535Y-135706214D01*
X221383773Y-135658595D01*
X221479011Y-135563357D01*
X221526630Y-135420500D01*
X221526630Y-135182404D01*
X220955202Y-136325261D02*
X220907583Y-136230023D01*
X220859964Y-136182404D01*
X220764726Y-136134785D01*
X220717107Y-136134785D01*
X220621869Y-136182404D01*
X220574250Y-136230023D01*
X220526630Y-136325261D01*
X220526630Y-136515738D01*
X220574250Y-136610976D01*
X220621869Y-136658595D01*
X220717107Y-136706214D01*
X220764726Y-136706214D01*
X220859964Y-136658595D01*
X220907583Y-136610976D01*
X220955202Y-136515738D01*
X220955202Y-136325261D01*
X221002821Y-136230023D01*
X221050440Y-136182404D01*
X221145678Y-136134785D01*
X221336154Y-136134785D01*
X221431392Y-136182404D01*
X221479011Y-136230023D01*
X221526630Y-136325261D01*
X221526630Y-136515738D01*
X221479011Y-136610976D01*
X221431392Y-136658595D01*
X221336154Y-136706214D01*
X221145678Y-136706214D01*
X221050440Y-136658595D01*
X221002821Y-136610976D01*
X220955202Y-136515738D01*
G04 #@! TO.C,D9*
X221526630Y-154232404D02*
X220526630Y-154232404D01*
X220526630Y-154470500D01*
X220574250Y-154613357D01*
X220669488Y-154708595D01*
X220764726Y-154756214D01*
X220955202Y-154803833D01*
X221098059Y-154803833D01*
X221288535Y-154756214D01*
X221383773Y-154708595D01*
X221479011Y-154613357D01*
X221526630Y-154470500D01*
X221526630Y-154232404D01*
X221526630Y-155280023D02*
X221526630Y-155470500D01*
X221479011Y-155565738D01*
X221431392Y-155613357D01*
X221288535Y-155708595D01*
X221098059Y-155756214D01*
X220717107Y-155756214D01*
X220621869Y-155708595D01*
X220574250Y-155660976D01*
X220526630Y-155565738D01*
X220526630Y-155375261D01*
X220574250Y-155280023D01*
X220621869Y-155232404D01*
X220717107Y-155184785D01*
X220955202Y-155184785D01*
X221050440Y-155232404D01*
X221098059Y-155280023D01*
X221145678Y-155375261D01*
X221145678Y-155565738D01*
X221098059Y-155660976D01*
X221050440Y-155708595D01*
X220955202Y-155756214D01*
G04 #@! TO.C,D10*
X221526630Y-172806214D02*
X220526630Y-172806214D01*
X220526630Y-173044309D01*
X220574250Y-173187166D01*
X220669488Y-173282404D01*
X220764726Y-173330023D01*
X220955202Y-173377642D01*
X221098059Y-173377642D01*
X221288535Y-173330023D01*
X221383773Y-173282404D01*
X221479011Y-173187166D01*
X221526630Y-173044309D01*
X221526630Y-172806214D01*
X221526630Y-174330023D02*
X221526630Y-173758595D01*
X221526630Y-174044309D02*
X220526630Y-174044309D01*
X220669488Y-173949071D01*
X220764726Y-173853833D01*
X220812345Y-173758595D01*
X220526630Y-174949071D02*
X220526630Y-175044309D01*
X220574250Y-175139547D01*
X220621869Y-175187166D01*
X220717107Y-175234785D01*
X220907583Y-175282404D01*
X221145678Y-175282404D01*
X221336154Y-175234785D01*
X221431392Y-175187166D01*
X221479011Y-175139547D01*
X221526630Y-175044309D01*
X221526630Y-174949071D01*
X221479011Y-174853833D01*
X221431392Y-174806214D01*
X221336154Y-174758595D01*
X221145678Y-174710976D01*
X220907583Y-174710976D01*
X220717107Y-174758595D01*
X220621869Y-174806214D01*
X220574250Y-174853833D01*
X220526630Y-174949071D01*
G04 #@! TO.C,D11*
X221526630Y-191856214D02*
X220526630Y-191856214D01*
X220526630Y-192094309D01*
X220574250Y-192237166D01*
X220669488Y-192332404D01*
X220764726Y-192380023D01*
X220955202Y-192427642D01*
X221098059Y-192427642D01*
X221288535Y-192380023D01*
X221383773Y-192332404D01*
X221479011Y-192237166D01*
X221526630Y-192094309D01*
X221526630Y-191856214D01*
X221526630Y-193380023D02*
X221526630Y-192808595D01*
X221526630Y-193094309D02*
X220526630Y-193094309D01*
X220669488Y-192999071D01*
X220764726Y-192903833D01*
X220812345Y-192808595D01*
X221526630Y-194332404D02*
X221526630Y-193760976D01*
X221526630Y-194046690D02*
X220526630Y-194046690D01*
X220669488Y-193951452D01*
X220764726Y-193856214D01*
X220812345Y-193760976D01*
G04 #@! TO.C,D12*
X240576630Y-134706214D02*
X239576630Y-134706214D01*
X239576630Y-134944309D01*
X239624250Y-135087166D01*
X239719488Y-135182404D01*
X239814726Y-135230023D01*
X240005202Y-135277642D01*
X240148059Y-135277642D01*
X240338535Y-135230023D01*
X240433773Y-135182404D01*
X240529011Y-135087166D01*
X240576630Y-134944309D01*
X240576630Y-134706214D01*
X240576630Y-136230023D02*
X240576630Y-135658595D01*
X240576630Y-135944309D02*
X239576630Y-135944309D01*
X239719488Y-135849071D01*
X239814726Y-135753833D01*
X239862345Y-135658595D01*
X239671869Y-136610976D02*
X239624250Y-136658595D01*
X239576630Y-136753833D01*
X239576630Y-136991928D01*
X239624250Y-137087166D01*
X239671869Y-137134785D01*
X239767107Y-137182404D01*
X239862345Y-137182404D01*
X240005202Y-137134785D01*
X240576630Y-136563357D01*
X240576630Y-137182404D01*
G04 #@! TO.C,D13*
X240576630Y-153756214D02*
X239576630Y-153756214D01*
X239576630Y-153994309D01*
X239624250Y-154137166D01*
X239719488Y-154232404D01*
X239814726Y-154280023D01*
X240005202Y-154327642D01*
X240148059Y-154327642D01*
X240338535Y-154280023D01*
X240433773Y-154232404D01*
X240529011Y-154137166D01*
X240576630Y-153994309D01*
X240576630Y-153756214D01*
X240576630Y-155280023D02*
X240576630Y-154708595D01*
X240576630Y-154994309D02*
X239576630Y-154994309D01*
X239719488Y-154899071D01*
X239814726Y-154803833D01*
X239862345Y-154708595D01*
X239576630Y-155613357D02*
X239576630Y-156232404D01*
X239957583Y-155899071D01*
X239957583Y-156041928D01*
X240005202Y-156137166D01*
X240052821Y-156184785D01*
X240148059Y-156232404D01*
X240386154Y-156232404D01*
X240481392Y-156184785D01*
X240529011Y-156137166D01*
X240576630Y-156041928D01*
X240576630Y-155756214D01*
X240529011Y-155660976D01*
X240481392Y-155613357D01*
G04 #@! TO.C,D14*
X240576630Y-172806214D02*
X239576630Y-172806214D01*
X239576630Y-173044309D01*
X239624250Y-173187166D01*
X239719488Y-173282404D01*
X239814726Y-173330023D01*
X240005202Y-173377642D01*
X240148059Y-173377642D01*
X240338535Y-173330023D01*
X240433773Y-173282404D01*
X240529011Y-173187166D01*
X240576630Y-173044309D01*
X240576630Y-172806214D01*
X240576630Y-174330023D02*
X240576630Y-173758595D01*
X240576630Y-174044309D02*
X239576630Y-174044309D01*
X239719488Y-173949071D01*
X239814726Y-173853833D01*
X239862345Y-173758595D01*
X239909964Y-175187166D02*
X240576630Y-175187166D01*
X239529011Y-174949071D02*
X240243297Y-174710976D01*
X240243297Y-175330023D01*
G04 #@! TO.C,D15*
X259626630Y-134706214D02*
X258626630Y-134706214D01*
X258626630Y-134944309D01*
X258674250Y-135087166D01*
X258769488Y-135182404D01*
X258864726Y-135230023D01*
X259055202Y-135277642D01*
X259198059Y-135277642D01*
X259388535Y-135230023D01*
X259483773Y-135182404D01*
X259579011Y-135087166D01*
X259626630Y-134944309D01*
X259626630Y-134706214D01*
X259626630Y-136230023D02*
X259626630Y-135658595D01*
X259626630Y-135944309D02*
X258626630Y-135944309D01*
X258769488Y-135849071D01*
X258864726Y-135753833D01*
X258912345Y-135658595D01*
X258626630Y-137134785D02*
X258626630Y-136658595D01*
X259102821Y-136610976D01*
X259055202Y-136658595D01*
X259007583Y-136753833D01*
X259007583Y-136991928D01*
X259055202Y-137087166D01*
X259102821Y-137134785D01*
X259198059Y-137182404D01*
X259436154Y-137182404D01*
X259531392Y-137134785D01*
X259579011Y-137087166D01*
X259626630Y-136991928D01*
X259626630Y-136753833D01*
X259579011Y-136658595D01*
X259531392Y-136610976D01*
G04 #@! TO.C,D16*
X259626630Y-153756214D02*
X258626630Y-153756214D01*
X258626630Y-153994309D01*
X258674250Y-154137166D01*
X258769488Y-154232404D01*
X258864726Y-154280023D01*
X259055202Y-154327642D01*
X259198059Y-154327642D01*
X259388535Y-154280023D01*
X259483773Y-154232404D01*
X259579011Y-154137166D01*
X259626630Y-153994309D01*
X259626630Y-153756214D01*
X259626630Y-155280023D02*
X259626630Y-154708595D01*
X259626630Y-154994309D02*
X258626630Y-154994309D01*
X258769488Y-154899071D01*
X258864726Y-154803833D01*
X258912345Y-154708595D01*
X258626630Y-156137166D02*
X258626630Y-155946690D01*
X258674250Y-155851452D01*
X258721869Y-155803833D01*
X258864726Y-155708595D01*
X259055202Y-155660976D01*
X259436154Y-155660976D01*
X259531392Y-155708595D01*
X259579011Y-155756214D01*
X259626630Y-155851452D01*
X259626630Y-156041928D01*
X259579011Y-156137166D01*
X259531392Y-156184785D01*
X259436154Y-156232404D01*
X259198059Y-156232404D01*
X259102821Y-156184785D01*
X259055202Y-156137166D01*
X259007583Y-156041928D01*
X259007583Y-155851452D01*
X259055202Y-155756214D01*
X259102821Y-155708595D01*
X259198059Y-155660976D01*
G04 #@! TO.C,D17*
X259626630Y-172806214D02*
X258626630Y-172806214D01*
X258626630Y-173044309D01*
X258674250Y-173187166D01*
X258769488Y-173282404D01*
X258864726Y-173330023D01*
X259055202Y-173377642D01*
X259198059Y-173377642D01*
X259388535Y-173330023D01*
X259483773Y-173282404D01*
X259579011Y-173187166D01*
X259626630Y-173044309D01*
X259626630Y-172806214D01*
X259626630Y-174330023D02*
X259626630Y-173758595D01*
X259626630Y-174044309D02*
X258626630Y-174044309D01*
X258769488Y-173949071D01*
X258864726Y-173853833D01*
X258912345Y-173758595D01*
X258626630Y-174663357D02*
X258626630Y-175330023D01*
X259626630Y-174901452D01*
G04 #@! TO.C,D18*
X259626630Y-191856214D02*
X258626630Y-191856214D01*
X258626630Y-192094309D01*
X258674250Y-192237166D01*
X258769488Y-192332404D01*
X258864726Y-192380023D01*
X259055202Y-192427642D01*
X259198059Y-192427642D01*
X259388535Y-192380023D01*
X259483773Y-192332404D01*
X259579011Y-192237166D01*
X259626630Y-192094309D01*
X259626630Y-191856214D01*
X259626630Y-193380023D02*
X259626630Y-192808595D01*
X259626630Y-193094309D02*
X258626630Y-193094309D01*
X258769488Y-192999071D01*
X258864726Y-192903833D01*
X258912345Y-192808595D01*
X259055202Y-193951452D02*
X259007583Y-193856214D01*
X258959964Y-193808595D01*
X258864726Y-193760976D01*
X258817107Y-193760976D01*
X258721869Y-193808595D01*
X258674250Y-193856214D01*
X258626630Y-193951452D01*
X258626630Y-194141928D01*
X258674250Y-194237166D01*
X258721869Y-194284785D01*
X258817107Y-194332404D01*
X258864726Y-194332404D01*
X258959964Y-194284785D01*
X259007583Y-194237166D01*
X259055202Y-194141928D01*
X259055202Y-193951452D01*
X259102821Y-193856214D01*
X259150440Y-193808595D01*
X259245678Y-193760976D01*
X259436154Y-193760976D01*
X259531392Y-193808595D01*
X259579011Y-193856214D01*
X259626630Y-193951452D01*
X259626630Y-194141928D01*
X259579011Y-194237166D01*
X259531392Y-194284785D01*
X259436154Y-194332404D01*
X259245678Y-194332404D01*
X259150440Y-194284785D01*
X259102821Y-194237166D01*
X259055202Y-194141928D01*
G04 #@! TO.C,D19*
X278676630Y-134706214D02*
X277676630Y-134706214D01*
X277676630Y-134944309D01*
X277724250Y-135087166D01*
X277819488Y-135182404D01*
X277914726Y-135230023D01*
X278105202Y-135277642D01*
X278248059Y-135277642D01*
X278438535Y-135230023D01*
X278533773Y-135182404D01*
X278629011Y-135087166D01*
X278676630Y-134944309D01*
X278676630Y-134706214D01*
X278676630Y-136230023D02*
X278676630Y-135658595D01*
X278676630Y-135944309D02*
X277676630Y-135944309D01*
X277819488Y-135849071D01*
X277914726Y-135753833D01*
X277962345Y-135658595D01*
X278676630Y-136706214D02*
X278676630Y-136896690D01*
X278629011Y-136991928D01*
X278581392Y-137039547D01*
X278438535Y-137134785D01*
X278248059Y-137182404D01*
X277867107Y-137182404D01*
X277771869Y-137134785D01*
X277724250Y-137087166D01*
X277676630Y-136991928D01*
X277676630Y-136801452D01*
X277724250Y-136706214D01*
X277771869Y-136658595D01*
X277867107Y-136610976D01*
X278105202Y-136610976D01*
X278200440Y-136658595D01*
X278248059Y-136706214D01*
X278295678Y-136801452D01*
X278295678Y-136991928D01*
X278248059Y-137087166D01*
X278200440Y-137134785D01*
X278105202Y-137182404D01*
G04 #@! TO.C,D20*
X278676630Y-153756214D02*
X277676630Y-153756214D01*
X277676630Y-153994309D01*
X277724250Y-154137166D01*
X277819488Y-154232404D01*
X277914726Y-154280023D01*
X278105202Y-154327642D01*
X278248059Y-154327642D01*
X278438535Y-154280023D01*
X278533773Y-154232404D01*
X278629011Y-154137166D01*
X278676630Y-153994309D01*
X278676630Y-153756214D01*
X277771869Y-154708595D02*
X277724250Y-154756214D01*
X277676630Y-154851452D01*
X277676630Y-155089547D01*
X277724250Y-155184785D01*
X277771869Y-155232404D01*
X277867107Y-155280023D01*
X277962345Y-155280023D01*
X278105202Y-155232404D01*
X278676630Y-154660976D01*
X278676630Y-155280023D01*
X277676630Y-155899071D02*
X277676630Y-155994309D01*
X277724250Y-156089547D01*
X277771869Y-156137166D01*
X277867107Y-156184785D01*
X278057583Y-156232404D01*
X278295678Y-156232404D01*
X278486154Y-156184785D01*
X278581392Y-156137166D01*
X278629011Y-156089547D01*
X278676630Y-155994309D01*
X278676630Y-155899071D01*
X278629011Y-155803833D01*
X278581392Y-155756214D01*
X278486154Y-155708595D01*
X278295678Y-155660976D01*
X278057583Y-155660976D01*
X277867107Y-155708595D01*
X277771869Y-155756214D01*
X277724250Y-155803833D01*
X277676630Y-155899071D01*
G04 #@! TO.C,D21*
X278676630Y-172806214D02*
X277676630Y-172806214D01*
X277676630Y-173044309D01*
X277724250Y-173187166D01*
X277819488Y-173282404D01*
X277914726Y-173330023D01*
X278105202Y-173377642D01*
X278248059Y-173377642D01*
X278438535Y-173330023D01*
X278533773Y-173282404D01*
X278629011Y-173187166D01*
X278676630Y-173044309D01*
X278676630Y-172806214D01*
X277771869Y-173758595D02*
X277724250Y-173806214D01*
X277676630Y-173901452D01*
X277676630Y-174139547D01*
X277724250Y-174234785D01*
X277771869Y-174282404D01*
X277867107Y-174330023D01*
X277962345Y-174330023D01*
X278105202Y-174282404D01*
X278676630Y-173710976D01*
X278676630Y-174330023D01*
X278676630Y-175282404D02*
X278676630Y-174710976D01*
X278676630Y-174996690D02*
X277676630Y-174996690D01*
X277819488Y-174901452D01*
X277914726Y-174806214D01*
X277962345Y-174710976D01*
G04 #@! TO.C,D22*
X297726630Y-191856214D02*
X296726630Y-191856214D01*
X296726630Y-192094309D01*
X296774250Y-192237166D01*
X296869488Y-192332404D01*
X296964726Y-192380023D01*
X297155202Y-192427642D01*
X297298059Y-192427642D01*
X297488535Y-192380023D01*
X297583773Y-192332404D01*
X297679011Y-192237166D01*
X297726630Y-192094309D01*
X297726630Y-191856214D01*
X296821869Y-192808595D02*
X296774250Y-192856214D01*
X296726630Y-192951452D01*
X296726630Y-193189547D01*
X296774250Y-193284785D01*
X296821869Y-193332404D01*
X296917107Y-193380023D01*
X297012345Y-193380023D01*
X297155202Y-193332404D01*
X297726630Y-192760976D01*
X297726630Y-193380023D01*
X296821869Y-193760976D02*
X296774250Y-193808595D01*
X296726630Y-193903833D01*
X296726630Y-194141928D01*
X296774250Y-194237166D01*
X296821869Y-194284785D01*
X296917107Y-194332404D01*
X297012345Y-194332404D01*
X297155202Y-194284785D01*
X297726630Y-193713357D01*
X297726630Y-194332404D01*
G04 #@! TO.C,D23*
X297726630Y-134706214D02*
X296726630Y-134706214D01*
X296726630Y-134944309D01*
X296774250Y-135087166D01*
X296869488Y-135182404D01*
X296964726Y-135230023D01*
X297155202Y-135277642D01*
X297298059Y-135277642D01*
X297488535Y-135230023D01*
X297583773Y-135182404D01*
X297679011Y-135087166D01*
X297726630Y-134944309D01*
X297726630Y-134706214D01*
X296821869Y-135658595D02*
X296774250Y-135706214D01*
X296726630Y-135801452D01*
X296726630Y-136039547D01*
X296774250Y-136134785D01*
X296821869Y-136182404D01*
X296917107Y-136230023D01*
X297012345Y-136230023D01*
X297155202Y-136182404D01*
X297726630Y-135610976D01*
X297726630Y-136230023D01*
X296726630Y-136563357D02*
X296726630Y-137182404D01*
X297107583Y-136849071D01*
X297107583Y-136991928D01*
X297155202Y-137087166D01*
X297202821Y-137134785D01*
X297298059Y-137182404D01*
X297536154Y-137182404D01*
X297631392Y-137134785D01*
X297679011Y-137087166D01*
X297726630Y-136991928D01*
X297726630Y-136706214D01*
X297679011Y-136610976D01*
X297631392Y-136563357D01*
G04 #@! TO.C,D24*
X297726630Y-153756214D02*
X296726630Y-153756214D01*
X296726630Y-153994309D01*
X296774250Y-154137166D01*
X296869488Y-154232404D01*
X296964726Y-154280023D01*
X297155202Y-154327642D01*
X297298059Y-154327642D01*
X297488535Y-154280023D01*
X297583773Y-154232404D01*
X297679011Y-154137166D01*
X297726630Y-153994309D01*
X297726630Y-153756214D01*
X296821869Y-154708595D02*
X296774250Y-154756214D01*
X296726630Y-154851452D01*
X296726630Y-155089547D01*
X296774250Y-155184785D01*
X296821869Y-155232404D01*
X296917107Y-155280023D01*
X297012345Y-155280023D01*
X297155202Y-155232404D01*
X297726630Y-154660976D01*
X297726630Y-155280023D01*
X297059964Y-156137166D02*
X297726630Y-156137166D01*
X296679011Y-155899071D02*
X297393297Y-155660976D01*
X297393297Y-156280023D01*
G04 #@! TO.C,D25*
X297726630Y-172806214D02*
X296726630Y-172806214D01*
X296726630Y-173044309D01*
X296774250Y-173187166D01*
X296869488Y-173282404D01*
X296964726Y-173330023D01*
X297155202Y-173377642D01*
X297298059Y-173377642D01*
X297488535Y-173330023D01*
X297583773Y-173282404D01*
X297679011Y-173187166D01*
X297726630Y-173044309D01*
X297726630Y-172806214D01*
X296821869Y-173758595D02*
X296774250Y-173806214D01*
X296726630Y-173901452D01*
X296726630Y-174139547D01*
X296774250Y-174234785D01*
X296821869Y-174282404D01*
X296917107Y-174330023D01*
X297012345Y-174330023D01*
X297155202Y-174282404D01*
X297726630Y-173710976D01*
X297726630Y-174330023D01*
X296726630Y-175234785D02*
X296726630Y-174758595D01*
X297202821Y-174710976D01*
X297155202Y-174758595D01*
X297107583Y-174853833D01*
X297107583Y-175091928D01*
X297155202Y-175187166D01*
X297202821Y-175234785D01*
X297298059Y-175282404D01*
X297536154Y-175282404D01*
X297631392Y-175234785D01*
X297679011Y-175187166D01*
X297726630Y-175091928D01*
X297726630Y-174853833D01*
X297679011Y-174758595D01*
X297631392Y-174710976D01*
G04 #@! TO.C,D26*
X316776630Y-134706214D02*
X315776630Y-134706214D01*
X315776630Y-134944309D01*
X315824250Y-135087166D01*
X315919488Y-135182404D01*
X316014726Y-135230023D01*
X316205202Y-135277642D01*
X316348059Y-135277642D01*
X316538535Y-135230023D01*
X316633773Y-135182404D01*
X316729011Y-135087166D01*
X316776630Y-134944309D01*
X316776630Y-134706214D01*
X315871869Y-135658595D02*
X315824250Y-135706214D01*
X315776630Y-135801452D01*
X315776630Y-136039547D01*
X315824250Y-136134785D01*
X315871869Y-136182404D01*
X315967107Y-136230023D01*
X316062345Y-136230023D01*
X316205202Y-136182404D01*
X316776630Y-135610976D01*
X316776630Y-136230023D01*
X315776630Y-137087166D02*
X315776630Y-136896690D01*
X315824250Y-136801452D01*
X315871869Y-136753833D01*
X316014726Y-136658595D01*
X316205202Y-136610976D01*
X316586154Y-136610976D01*
X316681392Y-136658595D01*
X316729011Y-136706214D01*
X316776630Y-136801452D01*
X316776630Y-136991928D01*
X316729011Y-137087166D01*
X316681392Y-137134785D01*
X316586154Y-137182404D01*
X316348059Y-137182404D01*
X316252821Y-137134785D01*
X316205202Y-137087166D01*
X316157583Y-136991928D01*
X316157583Y-136801452D01*
X316205202Y-136706214D01*
X316252821Y-136658595D01*
X316348059Y-136610976D01*
G04 #@! TO.C,D27*
X316776630Y-153756214D02*
X315776630Y-153756214D01*
X315776630Y-153994309D01*
X315824250Y-154137166D01*
X315919488Y-154232404D01*
X316014726Y-154280023D01*
X316205202Y-154327642D01*
X316348059Y-154327642D01*
X316538535Y-154280023D01*
X316633773Y-154232404D01*
X316729011Y-154137166D01*
X316776630Y-153994309D01*
X316776630Y-153756214D01*
X315871869Y-154708595D02*
X315824250Y-154756214D01*
X315776630Y-154851452D01*
X315776630Y-155089547D01*
X315824250Y-155184785D01*
X315871869Y-155232404D01*
X315967107Y-155280023D01*
X316062345Y-155280023D01*
X316205202Y-155232404D01*
X316776630Y-154660976D01*
X316776630Y-155280023D01*
X315776630Y-155613357D02*
X315776630Y-156280023D01*
X316776630Y-155851452D01*
G04 #@! TO.C,D28*
X316776630Y-172806214D02*
X315776630Y-172806214D01*
X315776630Y-173044309D01*
X315824250Y-173187166D01*
X315919488Y-173282404D01*
X316014726Y-173330023D01*
X316205202Y-173377642D01*
X316348059Y-173377642D01*
X316538535Y-173330023D01*
X316633773Y-173282404D01*
X316729011Y-173187166D01*
X316776630Y-173044309D01*
X316776630Y-172806214D01*
X315871869Y-173758595D02*
X315824250Y-173806214D01*
X315776630Y-173901452D01*
X315776630Y-174139547D01*
X315824250Y-174234785D01*
X315871869Y-174282404D01*
X315967107Y-174330023D01*
X316062345Y-174330023D01*
X316205202Y-174282404D01*
X316776630Y-173710976D01*
X316776630Y-174330023D01*
X316205202Y-174901452D02*
X316157583Y-174806214D01*
X316109964Y-174758595D01*
X316014726Y-174710976D01*
X315967107Y-174710976D01*
X315871869Y-174758595D01*
X315824250Y-174806214D01*
X315776630Y-174901452D01*
X315776630Y-175091928D01*
X315824250Y-175187166D01*
X315871869Y-175234785D01*
X315967107Y-175282404D01*
X316014726Y-175282404D01*
X316109964Y-175234785D01*
X316157583Y-175187166D01*
X316205202Y-175091928D01*
X316205202Y-174901452D01*
X316252821Y-174806214D01*
X316300440Y-174758595D01*
X316395678Y-174710976D01*
X316586154Y-174710976D01*
X316681392Y-174758595D01*
X316729011Y-174806214D01*
X316776630Y-174901452D01*
X316776630Y-175091928D01*
X316729011Y-175187166D01*
X316681392Y-175234785D01*
X316586154Y-175282404D01*
X316395678Y-175282404D01*
X316300440Y-175234785D01*
X316252821Y-175187166D01*
X316205202Y-175091928D01*
G04 #@! TO.C,D29*
X316776630Y-191856214D02*
X315776630Y-191856214D01*
X315776630Y-192094309D01*
X315824250Y-192237166D01*
X315919488Y-192332404D01*
X316014726Y-192380023D01*
X316205202Y-192427642D01*
X316348059Y-192427642D01*
X316538535Y-192380023D01*
X316633773Y-192332404D01*
X316729011Y-192237166D01*
X316776630Y-192094309D01*
X316776630Y-191856214D01*
X315871869Y-192808595D02*
X315824250Y-192856214D01*
X315776630Y-192951452D01*
X315776630Y-193189547D01*
X315824250Y-193284785D01*
X315871869Y-193332404D01*
X315967107Y-193380023D01*
X316062345Y-193380023D01*
X316205202Y-193332404D01*
X316776630Y-192760976D01*
X316776630Y-193380023D01*
X316776630Y-193856214D02*
X316776630Y-194046690D01*
X316729011Y-194141928D01*
X316681392Y-194189547D01*
X316538535Y-194284785D01*
X316348059Y-194332404D01*
X315967107Y-194332404D01*
X315871869Y-194284785D01*
X315824250Y-194237166D01*
X315776630Y-194141928D01*
X315776630Y-193951452D01*
X315824250Y-193856214D01*
X315871869Y-193808595D01*
X315967107Y-193760976D01*
X316205202Y-193760976D01*
X316300440Y-193808595D01*
X316348059Y-193856214D01*
X316395678Y-193951452D01*
X316395678Y-194141928D01*
X316348059Y-194237166D01*
X316300440Y-194284785D01*
X316205202Y-194332404D01*
G04 #@! TO.C,D30*
X335826630Y-134706214D02*
X334826630Y-134706214D01*
X334826630Y-134944309D01*
X334874250Y-135087166D01*
X334969488Y-135182404D01*
X335064726Y-135230023D01*
X335255202Y-135277642D01*
X335398059Y-135277642D01*
X335588535Y-135230023D01*
X335683773Y-135182404D01*
X335779011Y-135087166D01*
X335826630Y-134944309D01*
X335826630Y-134706214D01*
X334826630Y-135610976D02*
X334826630Y-136230023D01*
X335207583Y-135896690D01*
X335207583Y-136039547D01*
X335255202Y-136134785D01*
X335302821Y-136182404D01*
X335398059Y-136230023D01*
X335636154Y-136230023D01*
X335731392Y-136182404D01*
X335779011Y-136134785D01*
X335826630Y-136039547D01*
X335826630Y-135753833D01*
X335779011Y-135658595D01*
X335731392Y-135610976D01*
X334826630Y-136849071D02*
X334826630Y-136944309D01*
X334874250Y-137039547D01*
X334921869Y-137087166D01*
X335017107Y-137134785D01*
X335207583Y-137182404D01*
X335445678Y-137182404D01*
X335636154Y-137134785D01*
X335731392Y-137087166D01*
X335779011Y-137039547D01*
X335826630Y-136944309D01*
X335826630Y-136849071D01*
X335779011Y-136753833D01*
X335731392Y-136706214D01*
X335636154Y-136658595D01*
X335445678Y-136610976D01*
X335207583Y-136610976D01*
X335017107Y-136658595D01*
X334921869Y-136706214D01*
X334874250Y-136753833D01*
X334826630Y-136849071D01*
G04 #@! TO.C,D31*
X335826630Y-153756214D02*
X334826630Y-153756214D01*
X334826630Y-153994309D01*
X334874250Y-154137166D01*
X334969488Y-154232404D01*
X335064726Y-154280023D01*
X335255202Y-154327642D01*
X335398059Y-154327642D01*
X335588535Y-154280023D01*
X335683773Y-154232404D01*
X335779011Y-154137166D01*
X335826630Y-153994309D01*
X335826630Y-153756214D01*
X334826630Y-154660976D02*
X334826630Y-155280023D01*
X335207583Y-154946690D01*
X335207583Y-155089547D01*
X335255202Y-155184785D01*
X335302821Y-155232404D01*
X335398059Y-155280023D01*
X335636154Y-155280023D01*
X335731392Y-155232404D01*
X335779011Y-155184785D01*
X335826630Y-155089547D01*
X335826630Y-154803833D01*
X335779011Y-154708595D01*
X335731392Y-154660976D01*
X335826630Y-156232404D02*
X335826630Y-155660976D01*
X335826630Y-155946690D02*
X334826630Y-155946690D01*
X334969488Y-155851452D01*
X335064726Y-155756214D01*
X335112345Y-155660976D01*
G04 #@! TO.C,D32*
X335826630Y-172806214D02*
X334826630Y-172806214D01*
X334826630Y-173044309D01*
X334874250Y-173187166D01*
X334969488Y-173282404D01*
X335064726Y-173330023D01*
X335255202Y-173377642D01*
X335398059Y-173377642D01*
X335588535Y-173330023D01*
X335683773Y-173282404D01*
X335779011Y-173187166D01*
X335826630Y-173044309D01*
X335826630Y-172806214D01*
X334826630Y-173710976D02*
X334826630Y-174330023D01*
X335207583Y-173996690D01*
X335207583Y-174139547D01*
X335255202Y-174234785D01*
X335302821Y-174282404D01*
X335398059Y-174330023D01*
X335636154Y-174330023D01*
X335731392Y-174282404D01*
X335779011Y-174234785D01*
X335826630Y-174139547D01*
X335826630Y-173853833D01*
X335779011Y-173758595D01*
X335731392Y-173710976D01*
X334921869Y-174710976D02*
X334874250Y-174758595D01*
X334826630Y-174853833D01*
X334826630Y-175091928D01*
X334874250Y-175187166D01*
X334921869Y-175234785D01*
X335017107Y-175282404D01*
X335112345Y-175282404D01*
X335255202Y-175234785D01*
X335826630Y-174663357D01*
X335826630Y-175282404D01*
G04 #@! TO.C,D33*
X354876630Y-134706214D02*
X353876630Y-134706214D01*
X353876630Y-134944309D01*
X353924250Y-135087166D01*
X354019488Y-135182404D01*
X354114726Y-135230023D01*
X354305202Y-135277642D01*
X354448059Y-135277642D01*
X354638535Y-135230023D01*
X354733773Y-135182404D01*
X354829011Y-135087166D01*
X354876630Y-134944309D01*
X354876630Y-134706214D01*
X353876630Y-135610976D02*
X353876630Y-136230023D01*
X354257583Y-135896690D01*
X354257583Y-136039547D01*
X354305202Y-136134785D01*
X354352821Y-136182404D01*
X354448059Y-136230023D01*
X354686154Y-136230023D01*
X354781392Y-136182404D01*
X354829011Y-136134785D01*
X354876630Y-136039547D01*
X354876630Y-135753833D01*
X354829011Y-135658595D01*
X354781392Y-135610976D01*
X353876630Y-136563357D02*
X353876630Y-137182404D01*
X354257583Y-136849071D01*
X354257583Y-136991928D01*
X354305202Y-137087166D01*
X354352821Y-137134785D01*
X354448059Y-137182404D01*
X354686154Y-137182404D01*
X354781392Y-137134785D01*
X354829011Y-137087166D01*
X354876630Y-136991928D01*
X354876630Y-136706214D01*
X354829011Y-136610976D01*
X354781392Y-136563357D01*
G04 #@! TO.C,D34*
X354876630Y-153756214D02*
X353876630Y-153756214D01*
X353876630Y-153994309D01*
X353924250Y-154137166D01*
X354019488Y-154232404D01*
X354114726Y-154280023D01*
X354305202Y-154327642D01*
X354448059Y-154327642D01*
X354638535Y-154280023D01*
X354733773Y-154232404D01*
X354829011Y-154137166D01*
X354876630Y-153994309D01*
X354876630Y-153756214D01*
X353876630Y-154660976D02*
X353876630Y-155280023D01*
X354257583Y-154946690D01*
X354257583Y-155089547D01*
X354305202Y-155184785D01*
X354352821Y-155232404D01*
X354448059Y-155280023D01*
X354686154Y-155280023D01*
X354781392Y-155232404D01*
X354829011Y-155184785D01*
X354876630Y-155089547D01*
X354876630Y-154803833D01*
X354829011Y-154708595D01*
X354781392Y-154660976D01*
X354209964Y-156137166D02*
X354876630Y-156137166D01*
X353829011Y-155899071D02*
X354543297Y-155660976D01*
X354543297Y-156280023D01*
G04 #@! TO.C,D35*
X354876630Y-172806214D02*
X353876630Y-172806214D01*
X353876630Y-173044309D01*
X353924250Y-173187166D01*
X354019488Y-173282404D01*
X354114726Y-173330023D01*
X354305202Y-173377642D01*
X354448059Y-173377642D01*
X354638535Y-173330023D01*
X354733773Y-173282404D01*
X354829011Y-173187166D01*
X354876630Y-173044309D01*
X354876630Y-172806214D01*
X353876630Y-173710976D02*
X353876630Y-174330023D01*
X354257583Y-173996690D01*
X354257583Y-174139547D01*
X354305202Y-174234785D01*
X354352821Y-174282404D01*
X354448059Y-174330023D01*
X354686154Y-174330023D01*
X354781392Y-174282404D01*
X354829011Y-174234785D01*
X354876630Y-174139547D01*
X354876630Y-173853833D01*
X354829011Y-173758595D01*
X354781392Y-173710976D01*
X353876630Y-175234785D02*
X353876630Y-174758595D01*
X354352821Y-174710976D01*
X354305202Y-174758595D01*
X354257583Y-174853833D01*
X354257583Y-175091928D01*
X354305202Y-175187166D01*
X354352821Y-175234785D01*
X354448059Y-175282404D01*
X354686154Y-175282404D01*
X354781392Y-175234785D01*
X354829011Y-175187166D01*
X354876630Y-175091928D01*
X354876630Y-174853833D01*
X354829011Y-174758595D01*
X354781392Y-174710976D01*
G04 #@! TO.C,SW40*
X152679380Y-158727380D02*
X153012714Y-158251190D01*
X153250809Y-158727380D02*
X153250809Y-157727380D01*
X152869857Y-157727380D01*
X152774619Y-157775000D01*
X152727000Y-157822619D01*
X152679380Y-157917857D01*
X152679380Y-158060714D01*
X152727000Y-158155952D01*
X152774619Y-158203571D01*
X152869857Y-158251190D01*
X153250809Y-158251190D01*
X152250809Y-158203571D02*
X151917476Y-158203571D01*
X151774619Y-158727380D02*
X152250809Y-158727380D01*
X152250809Y-157727380D01*
X151774619Y-157727380D01*
X151393666Y-158679761D02*
X151250809Y-158727380D01*
X151012714Y-158727380D01*
X150917476Y-158679761D01*
X150869857Y-158632142D01*
X150822238Y-158536904D01*
X150822238Y-158441666D01*
X150869857Y-158346428D01*
X150917476Y-158298809D01*
X151012714Y-158251190D01*
X151203190Y-158203571D01*
X151298428Y-158155952D01*
X151346047Y-158108333D01*
X151393666Y-158013095D01*
X151393666Y-157917857D01*
X151346047Y-157822619D01*
X151298428Y-157775000D01*
X151203190Y-157727380D01*
X150965095Y-157727380D01*
X150822238Y-157775000D01*
X150393666Y-158203571D02*
X150060333Y-158203571D01*
X149917476Y-158727380D02*
X150393666Y-158727380D01*
X150393666Y-157727380D01*
X149917476Y-157727380D01*
X149631761Y-157727380D02*
X149060333Y-157727380D01*
X149346047Y-158727380D02*
X149346047Y-157727380D01*
G04 #@! TO.C,U1*
X155929371Y-128338180D02*
X155929371Y-127338180D01*
X155691276Y-127338180D01*
X155548419Y-127385800D01*
X155453180Y-127481038D01*
X155405561Y-127576276D01*
X155357942Y-127766752D01*
X155357942Y-127909609D01*
X155405561Y-128100085D01*
X155453180Y-128195323D01*
X155548419Y-128290561D01*
X155691276Y-128338180D01*
X155929371Y-128338180D01*
X154738895Y-127338180D02*
X154548419Y-127338180D01*
X154453180Y-127385800D01*
X154357942Y-127481038D01*
X154310323Y-127671514D01*
X154310323Y-128004847D01*
X154357942Y-128195323D01*
X154453180Y-128290561D01*
X154548419Y-128338180D01*
X154738895Y-128338180D01*
X154834133Y-128290561D01*
X154929371Y-128195323D01*
X154976990Y-128004847D01*
X154976990Y-127671514D01*
X154929371Y-127481038D01*
X154834133Y-127385800D01*
X154738895Y-127338180D01*
X153119847Y-128338180D02*
X153119847Y-127338180D01*
X152548419Y-128338180D01*
X152548419Y-127338180D01*
X151881752Y-127338180D02*
X151691276Y-127338180D01*
X151596038Y-127385800D01*
X151500800Y-127481038D01*
X151453180Y-127671514D01*
X151453180Y-128004847D01*
X151500800Y-128195323D01*
X151596038Y-128290561D01*
X151691276Y-128338180D01*
X151881752Y-128338180D01*
X151976990Y-128290561D01*
X152072228Y-128195323D01*
X152119847Y-128004847D01*
X152119847Y-127671514D01*
X152072228Y-127481038D01*
X151976990Y-127385800D01*
X151881752Y-127338180D01*
X151167466Y-127338180D02*
X150596038Y-127338180D01*
X150881752Y-128338180D02*
X150881752Y-127338180D01*
X149500800Y-127338180D02*
X149500800Y-128147704D01*
X149453180Y-128242942D01*
X149405561Y-128290561D01*
X149310323Y-128338180D01*
X149119847Y-128338180D01*
X149024609Y-128290561D01*
X148976990Y-128242942D01*
X148929371Y-128147704D01*
X148929371Y-127338180D01*
X148500800Y-128290561D02*
X148357942Y-128338180D01*
X148119847Y-128338180D01*
X148024609Y-128290561D01*
X147976990Y-128242942D01*
X147929371Y-128147704D01*
X147929371Y-128052466D01*
X147976990Y-127957228D01*
X148024609Y-127909609D01*
X148119847Y-127861990D01*
X148310323Y-127814371D01*
X148405561Y-127766752D01*
X148453180Y-127719133D01*
X148500800Y-127623895D01*
X148500800Y-127528657D01*
X148453180Y-127433419D01*
X148405561Y-127385800D01*
X148310323Y-127338180D01*
X148072228Y-127338180D01*
X147929371Y-127385800D01*
X147500800Y-127814371D02*
X147167466Y-127814371D01*
X147024609Y-128338180D02*
X147500800Y-128338180D01*
X147500800Y-127338180D01*
X147024609Y-127338180D01*
X155072228Y-131859380D02*
X154500800Y-131859380D01*
X154786514Y-132859380D02*
X154786514Y-131859380D01*
X154167466Y-132859380D02*
X154167466Y-131859380D01*
X154167466Y-132335571D02*
X153596038Y-132335571D01*
X153596038Y-132859380D02*
X153596038Y-131859380D01*
X153119847Y-132859380D02*
X153119847Y-131859380D01*
X152691276Y-132811761D02*
X152548419Y-132859380D01*
X152310323Y-132859380D01*
X152215085Y-132811761D01*
X152167466Y-132764142D01*
X152119847Y-132668904D01*
X152119847Y-132573666D01*
X152167466Y-132478428D01*
X152215085Y-132430809D01*
X152310323Y-132383190D01*
X152500800Y-132335571D01*
X152596038Y-132287952D01*
X152643657Y-132240333D01*
X152691276Y-132145095D01*
X152691276Y-132049857D01*
X152643657Y-131954619D01*
X152596038Y-131907000D01*
X152500800Y-131859380D01*
X152262704Y-131859380D01*
X152119847Y-131907000D01*
X150976990Y-132811761D02*
X150834133Y-132859380D01*
X150596038Y-132859380D01*
X150500800Y-132811761D01*
X150453180Y-132764142D01*
X150405561Y-132668904D01*
X150405561Y-132573666D01*
X150453180Y-132478428D01*
X150500800Y-132430809D01*
X150596038Y-132383190D01*
X150786514Y-132335571D01*
X150881752Y-132287952D01*
X150929371Y-132240333D01*
X150976990Y-132145095D01*
X150976990Y-132049857D01*
X150929371Y-131954619D01*
X150881752Y-131907000D01*
X150786514Y-131859380D01*
X150548419Y-131859380D01*
X150405561Y-131907000D01*
X149976990Y-132859380D02*
X149976990Y-131859380D01*
X149500800Y-132859380D02*
X149500800Y-131859380D01*
X149262704Y-131859380D01*
X149119847Y-131907000D01*
X149024609Y-132002238D01*
X148976990Y-132097476D01*
X148929371Y-132287952D01*
X148929371Y-132430809D01*
X148976990Y-132621285D01*
X149024609Y-132716523D01*
X149119847Y-132811761D01*
X149262704Y-132859380D01*
X149500800Y-132859380D01*
X148500800Y-132335571D02*
X148167466Y-132335571D01*
X148024609Y-132859380D02*
X148500800Y-132859380D01*
X148500800Y-131859380D01*
X148024609Y-131859380D01*
G04 #@! TD*
M02*
