M48
;DRILL file {KiCad (5.0.0)} date 03/21/19 00:23:02
;FORMAT={-:-/ absolute / inch / decimal}
FMAT,2
INCH,TZ
T1C0.0157
T2C0.0320
T3C0.0512
%
G90
G05
M72
T1
X6.0782Y-6.4219
X6.4688Y-6.8438
X6.4688Y-6.9844
X6.5659Y-6.3622
X6.7032Y-5.5781
X6.8438Y-6.9844
X7.2244Y-5.503
X7.2244Y-6.2707
X7.2244Y-6.4705
X7.2264Y-5.7175
X7.8278Y-5.0098
X7.9219Y-5.4844
X7.9744Y-6.2726
X7.9754Y-7.2215
X7.9764Y-6.4715
X7.9764Y-7.0256
X8.1094Y-5.4375
X8.1563Y-5.5313
X8.1563Y-5.6719
X8.6055Y-4.9803
X8.7244Y-6.2687
X8.7244Y-6.4724
X8.7254Y-5.5246
X8.7264Y-5.7244
X9.372Y-4.9505
X9.4724Y-7.686
X9.4744Y-5.5236
X9.4744Y-6.2785
X9.4744Y-7.0266
X9.4754Y-5.7215
X9.4754Y-6.4734
X10.0925Y-4.922
X10.1719Y-6.8907
X10.2244Y-6.2677
X10.2244Y-6.4715
X10.2254Y-5.5226
X10.2264Y-5.7234
X10.4063Y-6.8907
X10.7175Y-4.8935
X10.9744Y-5.5187
X10.9744Y-6.2746
X10.9744Y-6.4724
X10.9754Y-5.7303
X11.2598Y-4.8649
X11.6719Y-5.4844
X11.7244Y-6.2697
X11.7244Y-6.4724
X11.7244Y-7.0187
X11.7254Y-7.2234
X11.7264Y-5.5226
X11.7274Y-5.7195
X11.9063Y-5.4375
X12.0906Y-4.8364
X12.4754Y-6.2726
X12.4754Y-6.4744
X12.4764Y-5.5315
X12.4774Y-5.7244
X12.8435Y-4.8078
X13.2244Y-5.5246
X13.2244Y-5.7215
X13.2254Y-6.2746
X13.2254Y-6.4774
T2
X5.6648Y-4.9379
X5.6648Y-5.0379
X5.6648Y-5.1379
X5.6648Y-5.2379
X5.6648Y-5.3379
X5.6648Y-5.4379
X5.6648Y-5.5379
X5.6648Y-5.6379
X5.6648Y-5.7379
X5.6648Y-5.8379
X5.6648Y-5.9379
X5.6648Y-6.0379
X6.264Y-4.9379
X6.264Y-5.0379
X6.264Y-5.1379
X6.264Y-5.2379
X6.264Y-5.3379
X6.264Y-5.4379
X6.264Y-5.5379
X6.264Y-5.6379
X6.264Y-5.7379
X6.264Y-5.8379
X6.264Y-5.9379
X6.264Y-6.0379
T3
X5.8209Y-6.2313
X6.0768Y-6.2313
T0
M30
