G04 #@! TF.GenerationSoftware,KiCad,Pcbnew,(5.0.0)*
G04 #@! TF.CreationDate,2019-03-21T01:05:28+08:00*
G04 #@! TF.ProjectId,TopPlate,546F70506C6174652E6B696361645F70,rev?*
G04 #@! TF.SameCoordinates,Original*
G04 #@! TF.FileFunction,Copper,L1,Top,Signal*
G04 #@! TF.FilePolarity,Positive*
%FSLAX46Y46*%
G04 Gerber Fmt 4.6, Leading zero omitted, Abs format (unit mm)*
G04 Created by KiCad (PCBNEW (5.0.0)) date 03/21/19 01:05:28*
%MOMM*%
%LPD*%
G01*
G04 APERTURE LIST*
G04 #@! TA.AperFunction,ComponentPad*
%ADD10C,2.600000*%
G04 #@! TD*
G04 #@! TA.AperFunction,NonConductor*
%ADD11C,0.254000*%
G04 #@! TD*
G04 APERTURE END LIST*
D10*
G04 #@! TO.P,,1*
G04 #@! TO.N,N/C*
X241480000Y-118090000D03*
G04 #@! TD*
G04 #@! TO.P,,1*
G04 #@! TO.N,N/C*
X241480000Y-44270000D03*
G04 #@! TD*
G04 #@! TO.P,,1*
G04 #@! TO.N,N/C*
X146230000Y-100230000D03*
G04 #@! TD*
G04 #@! TO.P,,1*
G04 #@! TO.N,N/C*
X33120000Y-118100000D03*
G04 #@! TD*
G04 #@! TO.P,,1*
G04 #@! TO.N,N/C*
X89080000Y-62130000D03*
G04 #@! TD*
D11*
G36*
X29498851Y-121303021D02*
X29564441Y-121378208D01*
X29629078Y-121454157D01*
X29635844Y-121460060D01*
X30065429Y-121830215D01*
X30149492Y-121883976D01*
X30232841Y-121938726D01*
X30240988Y-121942490D01*
X30240991Y-121942492D01*
X30240994Y-121942493D01*
X30742545Y-122170534D01*
X29346909Y-122172794D01*
X29346115Y-121067378D01*
X29498851Y-121303021D01*
X29498851Y-121303021D01*
G37*
X29498851Y-121303021D02*
X29564441Y-121378208D01*
X29629078Y-121454157D01*
X29635844Y-121460060D01*
X30065429Y-121830215D01*
X30149492Y-121883976D01*
X30232841Y-121938726D01*
X30240988Y-121942490D01*
X30240991Y-121942492D01*
X30240994Y-121942493D01*
X30742545Y-122170534D01*
X29346909Y-122172794D01*
X29346115Y-121067378D01*
X29498851Y-121303021D01*
G36*
X245255031Y-121823202D02*
X244518483Y-121824395D01*
X244691271Y-121712399D01*
X244766458Y-121646809D01*
X244842407Y-121582172D01*
X244848310Y-121575406D01*
X245218465Y-121145821D01*
X245267196Y-121069623D01*
X245255031Y-121823202D01*
X245255031Y-121823202D01*
G37*
X245255031Y-121823202D02*
X244518483Y-121824395D01*
X244691271Y-121712399D01*
X244766458Y-121646809D01*
X244842407Y-121582172D01*
X244848310Y-121575406D01*
X245218465Y-121145821D01*
X245267196Y-121069623D01*
X245255031Y-121823202D01*
G36*
X243329690Y-41568544D02*
X243654254Y-41716114D01*
X243924357Y-41948850D01*
X244118282Y-42248039D01*
X244227720Y-42613979D01*
X244241751Y-42802786D01*
X244241750Y-119536136D01*
X244183706Y-119941438D01*
X244036135Y-120266004D01*
X243803400Y-120536106D01*
X243504209Y-120730032D01*
X243138275Y-120839470D01*
X242949477Y-120853500D01*
X31675114Y-120853500D01*
X31269812Y-120795456D01*
X30945246Y-120647885D01*
X30675144Y-120415150D01*
X30481218Y-120115959D01*
X30371780Y-119750025D01*
X30357750Y-119561227D01*
X30357750Y-117763880D01*
X31175934Y-117763880D01*
X31185000Y-118124322D01*
X31185000Y-118484895D01*
X31194656Y-118508206D01*
X31195290Y-118533427D01*
X31452545Y-119154496D01*
X31464631Y-119159986D01*
X31479586Y-119196090D01*
X32023910Y-119740414D01*
X32060014Y-119755369D01*
X32065504Y-119767455D01*
X32401974Y-119897013D01*
X32735105Y-120035000D01*
X32760335Y-120035000D01*
X32783880Y-120044066D01*
X33144322Y-120035000D01*
X33504895Y-120035000D01*
X33528206Y-120025344D01*
X33553427Y-120024710D01*
X34174496Y-119767455D01*
X34179986Y-119755369D01*
X34216090Y-119740414D01*
X34760414Y-119196090D01*
X34775369Y-119159986D01*
X34787455Y-119154496D01*
X34917013Y-118818026D01*
X35055000Y-118484895D01*
X35055000Y-118459665D01*
X35064066Y-118436120D01*
X35055000Y-118075678D01*
X35055000Y-117753880D01*
X239535934Y-117753880D01*
X239545000Y-118114322D01*
X239545000Y-118474895D01*
X239554656Y-118498206D01*
X239555290Y-118523427D01*
X239812545Y-119144496D01*
X239824631Y-119149986D01*
X239839586Y-119186090D01*
X240383910Y-119730414D01*
X240420014Y-119745369D01*
X240425504Y-119757455D01*
X240761974Y-119887013D01*
X241095105Y-120025000D01*
X241120335Y-120025000D01*
X241143880Y-120034066D01*
X241504322Y-120025000D01*
X241864895Y-120025000D01*
X241888206Y-120015344D01*
X241913427Y-120014710D01*
X242534496Y-119757455D01*
X242539986Y-119745369D01*
X242576090Y-119730414D01*
X243120414Y-119186090D01*
X243135369Y-119149986D01*
X243147455Y-119144496D01*
X243277013Y-118808026D01*
X243415000Y-118474895D01*
X243415000Y-118449665D01*
X243424066Y-118426120D01*
X243415000Y-118065678D01*
X243415000Y-117705105D01*
X243405344Y-117681794D01*
X243404710Y-117656573D01*
X243147455Y-117035504D01*
X243135369Y-117030014D01*
X243120414Y-116993910D01*
X242576090Y-116449586D01*
X242539986Y-116434631D01*
X242534496Y-116422545D01*
X242198026Y-116292987D01*
X241864895Y-116155000D01*
X241839665Y-116155000D01*
X241816120Y-116145934D01*
X241455678Y-116155000D01*
X241095105Y-116155000D01*
X241071794Y-116164656D01*
X241046573Y-116165290D01*
X240425504Y-116422545D01*
X240420014Y-116434631D01*
X240383910Y-116449586D01*
X239839586Y-116993910D01*
X239824631Y-117030014D01*
X239812545Y-117035504D01*
X239682987Y-117371974D01*
X239545000Y-117705105D01*
X239545000Y-117730335D01*
X239535934Y-117753880D01*
X35055000Y-117753880D01*
X35055000Y-117715105D01*
X35045344Y-117691794D01*
X35044710Y-117666573D01*
X34787455Y-117045504D01*
X34775369Y-117040014D01*
X34760414Y-117003910D01*
X34216090Y-116459586D01*
X34179986Y-116444631D01*
X34174496Y-116432545D01*
X33838026Y-116302987D01*
X33504895Y-116165000D01*
X33479665Y-116165000D01*
X33456120Y-116155934D01*
X33095678Y-116165000D01*
X32735105Y-116165000D01*
X32711794Y-116174656D01*
X32686573Y-116175290D01*
X32065504Y-116432545D01*
X32060014Y-116444631D01*
X32023910Y-116459586D01*
X31479586Y-117003910D01*
X31464631Y-117040014D01*
X31452545Y-117045504D01*
X31322987Y-117381974D01*
X31185000Y-117715105D01*
X31185000Y-117740335D01*
X31175934Y-117763880D01*
X30357750Y-117763880D01*
X30357750Y-102831500D01*
X90929351Y-102831500D01*
X90943750Y-102903888D01*
X90943751Y-116609107D01*
X90929351Y-116681500D01*
X90986396Y-116968283D01*
X91148845Y-117211405D01*
X91391967Y-117373854D01*
X91606362Y-117416500D01*
X91678750Y-117430899D01*
X91751138Y-117416500D01*
X105456362Y-117416500D01*
X105528750Y-117430899D01*
X105601138Y-117416500D01*
X105815533Y-117373854D01*
X106058655Y-117211405D01*
X106221104Y-116968283D01*
X106278149Y-116681500D01*
X106263750Y-116609112D01*
X106263750Y-102903888D01*
X106278149Y-102831500D01*
X109979351Y-102831500D01*
X109993751Y-102903893D01*
X109993750Y-116609112D01*
X109979351Y-116681500D01*
X110036396Y-116968283D01*
X110198845Y-117211405D01*
X110441967Y-117373854D01*
X110728750Y-117430899D01*
X110801138Y-117416500D01*
X143556362Y-117416500D01*
X143628750Y-117430899D01*
X143701138Y-117416500D01*
X143915533Y-117373854D01*
X144158655Y-117211405D01*
X144321104Y-116968283D01*
X144378149Y-116681500D01*
X144363750Y-116609112D01*
X144363750Y-102903888D01*
X144378149Y-102831500D01*
X148079351Y-102831500D01*
X148093750Y-102903888D01*
X148093751Y-116609107D01*
X148079351Y-116681500D01*
X148136396Y-116968283D01*
X148298845Y-117211405D01*
X148541967Y-117373854D01*
X148756362Y-117416500D01*
X148828750Y-117430899D01*
X148901138Y-117416500D01*
X181656362Y-117416500D01*
X181728750Y-117430899D01*
X181801138Y-117416500D01*
X182015533Y-117373854D01*
X182258655Y-117211405D01*
X182421104Y-116968283D01*
X182478149Y-116681500D01*
X182463750Y-116609112D01*
X182463750Y-102903888D01*
X182478149Y-102831500D01*
X186179351Y-102831500D01*
X186193751Y-102903893D01*
X186193750Y-116609112D01*
X186179351Y-116681500D01*
X186236396Y-116968283D01*
X186398845Y-117211405D01*
X186641967Y-117373854D01*
X186928750Y-117430899D01*
X187001138Y-117416500D01*
X200706362Y-117416500D01*
X200778750Y-117430899D01*
X200851138Y-117416500D01*
X201065533Y-117373854D01*
X201308655Y-117211405D01*
X201471104Y-116968283D01*
X201528149Y-116681500D01*
X201513750Y-116609112D01*
X201513750Y-102903888D01*
X201528149Y-102831500D01*
X201471104Y-102544717D01*
X201308655Y-102301595D01*
X201065533Y-102139146D01*
X200851138Y-102096500D01*
X200778750Y-102082101D01*
X200706362Y-102096500D01*
X187001138Y-102096500D01*
X186928750Y-102082101D01*
X186856362Y-102096500D01*
X186641967Y-102139146D01*
X186398845Y-102301595D01*
X186236396Y-102544717D01*
X186179351Y-102831500D01*
X182478149Y-102831500D01*
X182421104Y-102544717D01*
X182258655Y-102301595D01*
X182015533Y-102139146D01*
X181801138Y-102096500D01*
X181728750Y-102082101D01*
X181656362Y-102096500D01*
X148901138Y-102096500D01*
X148828750Y-102082101D01*
X148756362Y-102096500D01*
X148541967Y-102139146D01*
X148298845Y-102301595D01*
X148136396Y-102544717D01*
X148079351Y-102831500D01*
X144378149Y-102831500D01*
X144321104Y-102544717D01*
X144158655Y-102301595D01*
X143915533Y-102139146D01*
X143701138Y-102096500D01*
X143628750Y-102082101D01*
X143556362Y-102096500D01*
X110801138Y-102096500D01*
X110728750Y-102082101D01*
X110656362Y-102096500D01*
X110441967Y-102139146D01*
X110198845Y-102301595D01*
X110036396Y-102544717D01*
X109979351Y-102831500D01*
X106278149Y-102831500D01*
X106221104Y-102544717D01*
X106058655Y-102301595D01*
X105815533Y-102139146D01*
X105601138Y-102096500D01*
X105528750Y-102082101D01*
X105456362Y-102096500D01*
X91751138Y-102096500D01*
X91678750Y-102082101D01*
X91606362Y-102096500D01*
X91391967Y-102139146D01*
X91148845Y-102301595D01*
X90986396Y-102544717D01*
X90929351Y-102831500D01*
X30357750Y-102831500D01*
X30357750Y-99893880D01*
X144285934Y-99893880D01*
X144295000Y-100254322D01*
X144295000Y-100614895D01*
X144304656Y-100638206D01*
X144305290Y-100663427D01*
X144562545Y-101284496D01*
X144574631Y-101289986D01*
X144589586Y-101326090D01*
X145133910Y-101870414D01*
X145170014Y-101885369D01*
X145175504Y-101897455D01*
X145511974Y-102027013D01*
X145845105Y-102165000D01*
X145870335Y-102165000D01*
X145893880Y-102174066D01*
X146254322Y-102165000D01*
X146614895Y-102165000D01*
X146638206Y-102155344D01*
X146663427Y-102154710D01*
X147284496Y-101897455D01*
X147289986Y-101885369D01*
X147326090Y-101870414D01*
X147870414Y-101326090D01*
X147885369Y-101289986D01*
X147897455Y-101284496D01*
X148027013Y-100948026D01*
X148165000Y-100614895D01*
X148165000Y-100589665D01*
X148174066Y-100566120D01*
X148165000Y-100205678D01*
X148165000Y-99845105D01*
X148155344Y-99821794D01*
X148154710Y-99796573D01*
X147897455Y-99175504D01*
X147885369Y-99170014D01*
X147870414Y-99133910D01*
X147326090Y-98589586D01*
X147289986Y-98574631D01*
X147284496Y-98562545D01*
X146948026Y-98432987D01*
X146614895Y-98295000D01*
X146589665Y-98295000D01*
X146566120Y-98285934D01*
X146205678Y-98295000D01*
X145845105Y-98295000D01*
X145821794Y-98304656D01*
X145796573Y-98305290D01*
X145175504Y-98562545D01*
X145170014Y-98574631D01*
X145133910Y-98589586D01*
X144589586Y-99133910D01*
X144574631Y-99170014D01*
X144562545Y-99175504D01*
X144432987Y-99511974D01*
X144295000Y-99845105D01*
X144295000Y-99870335D01*
X144285934Y-99893880D01*
X30357750Y-99893880D01*
X30357750Y-83781500D01*
X33779351Y-83781500D01*
X33793751Y-83853893D01*
X33793750Y-97559112D01*
X33779351Y-97631500D01*
X33836396Y-97918283D01*
X33998845Y-98161405D01*
X34241967Y-98323854D01*
X34528750Y-98380899D01*
X34601138Y-98366500D01*
X48306362Y-98366500D01*
X48378750Y-98380899D01*
X48451138Y-98366500D01*
X48665533Y-98323854D01*
X48908655Y-98161405D01*
X49071104Y-97918283D01*
X49128149Y-97631500D01*
X49113750Y-97559112D01*
X49113750Y-83853888D01*
X49128149Y-83781500D01*
X52829351Y-83781500D01*
X52843750Y-83853888D01*
X52843751Y-97559107D01*
X52829351Y-97631500D01*
X52886396Y-97918283D01*
X53048845Y-98161405D01*
X53291967Y-98323854D01*
X53506362Y-98366500D01*
X53578750Y-98380899D01*
X53651138Y-98366500D01*
X67356362Y-98366500D01*
X67428750Y-98380899D01*
X67501138Y-98366500D01*
X67715533Y-98323854D01*
X67958655Y-98161405D01*
X68121104Y-97918283D01*
X68178149Y-97631500D01*
X68163750Y-97559112D01*
X68163750Y-83853888D01*
X68178149Y-83781500D01*
X71879351Y-83781500D01*
X71893751Y-83853893D01*
X71893750Y-97559112D01*
X71879351Y-97631500D01*
X71936396Y-97918283D01*
X72098845Y-98161405D01*
X72341967Y-98323854D01*
X72628750Y-98380899D01*
X72701138Y-98366500D01*
X86406362Y-98366500D01*
X86478750Y-98380899D01*
X86551138Y-98366500D01*
X86765533Y-98323854D01*
X87008655Y-98161405D01*
X87171104Y-97918283D01*
X87228149Y-97631500D01*
X87213750Y-97559112D01*
X87213750Y-83853888D01*
X87228149Y-83781500D01*
X90929351Y-83781500D01*
X90943750Y-83853888D01*
X90943751Y-97559107D01*
X90929351Y-97631500D01*
X90986396Y-97918283D01*
X91148845Y-98161405D01*
X91391967Y-98323854D01*
X91606362Y-98366500D01*
X91678750Y-98380899D01*
X91751138Y-98366500D01*
X105456362Y-98366500D01*
X105528750Y-98380899D01*
X105601138Y-98366500D01*
X105815533Y-98323854D01*
X106058655Y-98161405D01*
X106221104Y-97918283D01*
X106278149Y-97631500D01*
X106263750Y-97559112D01*
X106263750Y-83853888D01*
X106278149Y-83781500D01*
X109979351Y-83781500D01*
X109993750Y-83853888D01*
X109993751Y-97559107D01*
X109979351Y-97631500D01*
X110036396Y-97918283D01*
X110198845Y-98161405D01*
X110441967Y-98323854D01*
X110656362Y-98366500D01*
X110728750Y-98380899D01*
X110801138Y-98366500D01*
X124506362Y-98366500D01*
X124578750Y-98380899D01*
X124651138Y-98366500D01*
X124865533Y-98323854D01*
X125108655Y-98161405D01*
X125271104Y-97918283D01*
X125328149Y-97631500D01*
X125313750Y-97559112D01*
X125313750Y-83853888D01*
X125328149Y-83781500D01*
X129029351Y-83781500D01*
X129043751Y-83853893D01*
X129043750Y-97559112D01*
X129029351Y-97631500D01*
X129086396Y-97918283D01*
X129248845Y-98161405D01*
X129491967Y-98323854D01*
X129778750Y-98380899D01*
X129851138Y-98366500D01*
X143556362Y-98366500D01*
X143628750Y-98380899D01*
X143701138Y-98366500D01*
X143915533Y-98323854D01*
X144158655Y-98161405D01*
X144321104Y-97918283D01*
X144378149Y-97631500D01*
X144363750Y-97559112D01*
X144363750Y-83853888D01*
X144378149Y-83781500D01*
X148079351Y-83781500D01*
X148093751Y-83853893D01*
X148093750Y-97559112D01*
X148079351Y-97631500D01*
X148136396Y-97918283D01*
X148298845Y-98161405D01*
X148541967Y-98323854D01*
X148828750Y-98380899D01*
X148901138Y-98366500D01*
X162606362Y-98366500D01*
X162678750Y-98380899D01*
X162751138Y-98366500D01*
X162965533Y-98323854D01*
X163208655Y-98161405D01*
X163371104Y-97918283D01*
X163428149Y-97631500D01*
X163413750Y-97559112D01*
X163413750Y-83853888D01*
X163428149Y-83781500D01*
X167129351Y-83781500D01*
X167143751Y-83853893D01*
X167143750Y-97559112D01*
X167129351Y-97631500D01*
X167186396Y-97918283D01*
X167348845Y-98161405D01*
X167591967Y-98323854D01*
X167878750Y-98380899D01*
X167951138Y-98366500D01*
X181656362Y-98366500D01*
X181728750Y-98380899D01*
X181801138Y-98366500D01*
X182015533Y-98323854D01*
X182258655Y-98161405D01*
X182421104Y-97918283D01*
X182478149Y-97631500D01*
X182463750Y-97559112D01*
X182463750Y-83853888D01*
X182478149Y-83781500D01*
X186179351Y-83781500D01*
X186193751Y-83853893D01*
X186193750Y-97559112D01*
X186179351Y-97631500D01*
X186236396Y-97918283D01*
X186398845Y-98161405D01*
X186641967Y-98323854D01*
X186928750Y-98380899D01*
X187001138Y-98366500D01*
X200706362Y-98366500D01*
X200778750Y-98380899D01*
X200851138Y-98366500D01*
X201065533Y-98323854D01*
X201308655Y-98161405D01*
X201471104Y-97918283D01*
X201528149Y-97631500D01*
X201513750Y-97559112D01*
X201513750Y-83853888D01*
X201528149Y-83781500D01*
X205229351Y-83781500D01*
X205243750Y-83853888D01*
X205243751Y-97559107D01*
X205229351Y-97631500D01*
X205286396Y-97918283D01*
X205448845Y-98161405D01*
X205691967Y-98323854D01*
X205906362Y-98366500D01*
X205978750Y-98380899D01*
X206051138Y-98366500D01*
X219756362Y-98366500D01*
X219828750Y-98380899D01*
X219901138Y-98366500D01*
X220115533Y-98323854D01*
X220358655Y-98161405D01*
X220521104Y-97918283D01*
X220578149Y-97631500D01*
X220563750Y-97559112D01*
X220563750Y-83853888D01*
X220578149Y-83781500D01*
X224279351Y-83781500D01*
X224293751Y-83853893D01*
X224293750Y-97559112D01*
X224279351Y-97631500D01*
X224336396Y-97918283D01*
X224498845Y-98161405D01*
X224741967Y-98323854D01*
X225028750Y-98380899D01*
X225101138Y-98366500D01*
X238806362Y-98366500D01*
X238878750Y-98380899D01*
X238951138Y-98366500D01*
X239165533Y-98323854D01*
X239408655Y-98161405D01*
X239571104Y-97918283D01*
X239628149Y-97631500D01*
X239613750Y-97559112D01*
X239613750Y-83853888D01*
X239628149Y-83781500D01*
X239571104Y-83494717D01*
X239408655Y-83251595D01*
X239165533Y-83089146D01*
X238951138Y-83046500D01*
X238878750Y-83032101D01*
X238806362Y-83046500D01*
X225101138Y-83046500D01*
X225028750Y-83032101D01*
X224956362Y-83046500D01*
X224741967Y-83089146D01*
X224498845Y-83251595D01*
X224336396Y-83494717D01*
X224279351Y-83781500D01*
X220578149Y-83781500D01*
X220521104Y-83494717D01*
X220358655Y-83251595D01*
X220115533Y-83089146D01*
X219901138Y-83046500D01*
X219828750Y-83032101D01*
X219756362Y-83046500D01*
X206051138Y-83046500D01*
X205978750Y-83032101D01*
X205906362Y-83046500D01*
X205691967Y-83089146D01*
X205448845Y-83251595D01*
X205286396Y-83494717D01*
X205229351Y-83781500D01*
X201528149Y-83781500D01*
X201471104Y-83494717D01*
X201308655Y-83251595D01*
X201065533Y-83089146D01*
X200851138Y-83046500D01*
X200778750Y-83032101D01*
X200706362Y-83046500D01*
X187001138Y-83046500D01*
X186928750Y-83032101D01*
X186856362Y-83046500D01*
X186641967Y-83089146D01*
X186398845Y-83251595D01*
X186236396Y-83494717D01*
X186179351Y-83781500D01*
X182478149Y-83781500D01*
X182421104Y-83494717D01*
X182258655Y-83251595D01*
X182015533Y-83089146D01*
X181801138Y-83046500D01*
X181728750Y-83032101D01*
X181656362Y-83046500D01*
X167951138Y-83046500D01*
X167878750Y-83032101D01*
X167806362Y-83046500D01*
X167591967Y-83089146D01*
X167348845Y-83251595D01*
X167186396Y-83494717D01*
X167129351Y-83781500D01*
X163428149Y-83781500D01*
X163371104Y-83494717D01*
X163208655Y-83251595D01*
X162965533Y-83089146D01*
X162751138Y-83046500D01*
X162678750Y-83032101D01*
X162606362Y-83046500D01*
X148901138Y-83046500D01*
X148828750Y-83032101D01*
X148756362Y-83046500D01*
X148541967Y-83089146D01*
X148298845Y-83251595D01*
X148136396Y-83494717D01*
X148079351Y-83781500D01*
X144378149Y-83781500D01*
X144321104Y-83494717D01*
X144158655Y-83251595D01*
X143915533Y-83089146D01*
X143701138Y-83046500D01*
X143628750Y-83032101D01*
X143556362Y-83046500D01*
X129851138Y-83046500D01*
X129778750Y-83032101D01*
X129706362Y-83046500D01*
X129491967Y-83089146D01*
X129248845Y-83251595D01*
X129086396Y-83494717D01*
X129029351Y-83781500D01*
X125328149Y-83781500D01*
X125271104Y-83494717D01*
X125108655Y-83251595D01*
X124865533Y-83089146D01*
X124651138Y-83046500D01*
X124578750Y-83032101D01*
X124506362Y-83046500D01*
X110801138Y-83046500D01*
X110728750Y-83032101D01*
X110656362Y-83046500D01*
X110441967Y-83089146D01*
X110198845Y-83251595D01*
X110036396Y-83494717D01*
X109979351Y-83781500D01*
X106278149Y-83781500D01*
X106221104Y-83494717D01*
X106058655Y-83251595D01*
X105815533Y-83089146D01*
X105601138Y-83046500D01*
X105528750Y-83032101D01*
X105456362Y-83046500D01*
X91751138Y-83046500D01*
X91678750Y-83032101D01*
X91606362Y-83046500D01*
X91391967Y-83089146D01*
X91148845Y-83251595D01*
X90986396Y-83494717D01*
X90929351Y-83781500D01*
X87228149Y-83781500D01*
X87171104Y-83494717D01*
X87008655Y-83251595D01*
X86765533Y-83089146D01*
X86551138Y-83046500D01*
X86478750Y-83032101D01*
X86406362Y-83046500D01*
X72701138Y-83046500D01*
X72628750Y-83032101D01*
X72556362Y-83046500D01*
X72341967Y-83089146D01*
X72098845Y-83251595D01*
X71936396Y-83494717D01*
X71879351Y-83781500D01*
X68178149Y-83781500D01*
X68121104Y-83494717D01*
X67958655Y-83251595D01*
X67715533Y-83089146D01*
X67501138Y-83046500D01*
X67428750Y-83032101D01*
X67356362Y-83046500D01*
X53651138Y-83046500D01*
X53578750Y-83032101D01*
X53506362Y-83046500D01*
X53291967Y-83089146D01*
X53048845Y-83251595D01*
X52886396Y-83494717D01*
X52829351Y-83781500D01*
X49128149Y-83781500D01*
X49071104Y-83494717D01*
X48908655Y-83251595D01*
X48665533Y-83089146D01*
X48451138Y-83046500D01*
X48378750Y-83032101D01*
X48306362Y-83046500D01*
X34601138Y-83046500D01*
X34528750Y-83032101D01*
X34456362Y-83046500D01*
X34241967Y-83089146D01*
X33998845Y-83251595D01*
X33836396Y-83494717D01*
X33779351Y-83781500D01*
X30357750Y-83781500D01*
X30357750Y-82827864D01*
X30415794Y-82422560D01*
X30563364Y-82097996D01*
X30796100Y-81827893D01*
X31095289Y-81633968D01*
X31461229Y-81524530D01*
X31650023Y-81510500D01*
X49695138Y-81510500D01*
X49722045Y-81505148D01*
X49972838Y-81486511D01*
X50046073Y-81470409D01*
X50120347Y-81460235D01*
X50128965Y-81457715D01*
X50672250Y-81295239D01*
X50762818Y-81253390D01*
X50853861Y-81212665D01*
X50861426Y-81207827D01*
X51337271Y-80899399D01*
X51412458Y-80833809D01*
X51488407Y-80769172D01*
X51494310Y-80762406D01*
X51864465Y-80332821D01*
X51918226Y-80248758D01*
X51972976Y-80165409D01*
X51976742Y-80157258D01*
X52211448Y-79641049D01*
X52239456Y-79545269D01*
X52268610Y-79449910D01*
X52269938Y-79441030D01*
X52347510Y-78899369D01*
X52357750Y-78847888D01*
X52357750Y-64731500D01*
X52829351Y-64731500D01*
X52843751Y-64803893D01*
X52843750Y-78509112D01*
X52829351Y-78581500D01*
X52886396Y-78868283D01*
X52894023Y-78879697D01*
X53048845Y-79111405D01*
X53291967Y-79273854D01*
X53578750Y-79330899D01*
X53651138Y-79316500D01*
X67356362Y-79316500D01*
X67428750Y-79330899D01*
X67501138Y-79316500D01*
X67715533Y-79273854D01*
X67958655Y-79111405D01*
X68121104Y-78868283D01*
X68178149Y-78581500D01*
X68163750Y-78509112D01*
X68163750Y-64803888D01*
X68178149Y-64731500D01*
X71879351Y-64731500D01*
X71893750Y-64803888D01*
X71893751Y-78509107D01*
X71879351Y-78581500D01*
X71936396Y-78868283D01*
X72098845Y-79111405D01*
X72341967Y-79273854D01*
X72556362Y-79316500D01*
X72628750Y-79330899D01*
X72701138Y-79316500D01*
X86406362Y-79316500D01*
X86478750Y-79330899D01*
X86551138Y-79316500D01*
X86765533Y-79273854D01*
X87008655Y-79111405D01*
X87171104Y-78868283D01*
X87228149Y-78581500D01*
X87213750Y-78509112D01*
X87213750Y-64803888D01*
X87228149Y-64731500D01*
X90929351Y-64731500D01*
X90943750Y-64803888D01*
X90943751Y-78509107D01*
X90929351Y-78581500D01*
X90986396Y-78868283D01*
X91148845Y-79111405D01*
X91391967Y-79273854D01*
X91606362Y-79316500D01*
X91678750Y-79330899D01*
X91751138Y-79316500D01*
X105456362Y-79316500D01*
X105528750Y-79330899D01*
X105601138Y-79316500D01*
X105815533Y-79273854D01*
X106058655Y-79111405D01*
X106221104Y-78868283D01*
X106278149Y-78581500D01*
X106263750Y-78509112D01*
X106263750Y-64803888D01*
X106278149Y-64731500D01*
X109979351Y-64731500D01*
X109993750Y-64803888D01*
X109993751Y-78509107D01*
X109979351Y-78581500D01*
X110036396Y-78868283D01*
X110198845Y-79111405D01*
X110441967Y-79273854D01*
X110656362Y-79316500D01*
X110728750Y-79330899D01*
X110801138Y-79316500D01*
X124506362Y-79316500D01*
X124578750Y-79330899D01*
X124651138Y-79316500D01*
X124865533Y-79273854D01*
X125108655Y-79111405D01*
X125271104Y-78868283D01*
X125328149Y-78581500D01*
X125313750Y-78509112D01*
X125313750Y-64803888D01*
X125328149Y-64731500D01*
X129029351Y-64731500D01*
X129043751Y-64803893D01*
X129043750Y-78509112D01*
X129029351Y-78581500D01*
X129086396Y-78868283D01*
X129094023Y-78879697D01*
X129248845Y-79111405D01*
X129491967Y-79273854D01*
X129778750Y-79330899D01*
X129851138Y-79316500D01*
X143556362Y-79316500D01*
X143628750Y-79330899D01*
X143701138Y-79316500D01*
X143915533Y-79273854D01*
X144158655Y-79111405D01*
X144321104Y-78868283D01*
X144378149Y-78581500D01*
X144363750Y-78509112D01*
X144363750Y-64803888D01*
X144378149Y-64731500D01*
X148079351Y-64731500D01*
X148093751Y-64803893D01*
X148093750Y-78509112D01*
X148079351Y-78581500D01*
X148136396Y-78868283D01*
X148144023Y-78879697D01*
X148298845Y-79111405D01*
X148541967Y-79273854D01*
X148828750Y-79330899D01*
X148901138Y-79316500D01*
X162606362Y-79316500D01*
X162678750Y-79330899D01*
X162751138Y-79316500D01*
X162965533Y-79273854D01*
X163208655Y-79111405D01*
X163371104Y-78868283D01*
X163428149Y-78581500D01*
X163413750Y-78509112D01*
X163413750Y-64803888D01*
X163428149Y-64731500D01*
X167129351Y-64731500D01*
X167143751Y-64803893D01*
X167143750Y-78509112D01*
X167129351Y-78581500D01*
X167186396Y-78868283D01*
X167194023Y-78879697D01*
X167348845Y-79111405D01*
X167591967Y-79273854D01*
X167878750Y-79330899D01*
X167951138Y-79316500D01*
X181656362Y-79316500D01*
X181728750Y-79330899D01*
X181801138Y-79316500D01*
X182015533Y-79273854D01*
X182258655Y-79111405D01*
X182421104Y-78868283D01*
X182478149Y-78581500D01*
X182463750Y-78509112D01*
X182463750Y-64803888D01*
X182478149Y-64731500D01*
X186179351Y-64731500D01*
X186193750Y-64803888D01*
X186193751Y-78509107D01*
X186179351Y-78581500D01*
X186236396Y-78868283D01*
X186398845Y-79111405D01*
X186641967Y-79273854D01*
X186856362Y-79316500D01*
X186928750Y-79330899D01*
X187001138Y-79316500D01*
X200706362Y-79316500D01*
X200778750Y-79330899D01*
X200851138Y-79316500D01*
X201065533Y-79273854D01*
X201308655Y-79111405D01*
X201471104Y-78868283D01*
X201528149Y-78581500D01*
X201513750Y-78509112D01*
X201513750Y-64803888D01*
X201528149Y-64731500D01*
X205229351Y-64731500D01*
X205243750Y-64803888D01*
X205243751Y-78509107D01*
X205229351Y-78581500D01*
X205286396Y-78868283D01*
X205448845Y-79111405D01*
X205691967Y-79273854D01*
X205906362Y-79316500D01*
X205978750Y-79330899D01*
X206051138Y-79316500D01*
X219756362Y-79316500D01*
X219828750Y-79330899D01*
X219901138Y-79316500D01*
X220115533Y-79273854D01*
X220358655Y-79111405D01*
X220521104Y-78868283D01*
X220578149Y-78581500D01*
X220563750Y-78509112D01*
X220563750Y-64803888D01*
X220578149Y-64731500D01*
X224279351Y-64731500D01*
X224293751Y-64803893D01*
X224293750Y-78509112D01*
X224279351Y-78581500D01*
X224336396Y-78868283D01*
X224344023Y-78879697D01*
X224498845Y-79111405D01*
X224741967Y-79273854D01*
X225028750Y-79330899D01*
X225101138Y-79316500D01*
X238806362Y-79316500D01*
X238878750Y-79330899D01*
X238951138Y-79316500D01*
X239165533Y-79273854D01*
X239408655Y-79111405D01*
X239571104Y-78868283D01*
X239628149Y-78581500D01*
X239613750Y-78509112D01*
X239613750Y-64803888D01*
X239628149Y-64731500D01*
X239571104Y-64444717D01*
X239408655Y-64201595D01*
X239165533Y-64039146D01*
X238951138Y-63996500D01*
X238878750Y-63982101D01*
X238806362Y-63996500D01*
X225101138Y-63996500D01*
X225028750Y-63982101D01*
X224956362Y-63996500D01*
X224741967Y-64039146D01*
X224498845Y-64201595D01*
X224336396Y-64444717D01*
X224279351Y-64731500D01*
X220578149Y-64731500D01*
X220521104Y-64444717D01*
X220358655Y-64201595D01*
X220115533Y-64039146D01*
X219901138Y-63996500D01*
X219828750Y-63982101D01*
X219756362Y-63996500D01*
X206051138Y-63996500D01*
X205978750Y-63982101D01*
X205906362Y-63996500D01*
X205691967Y-64039146D01*
X205448845Y-64201595D01*
X205286396Y-64444717D01*
X205229351Y-64731500D01*
X201528149Y-64731500D01*
X201471104Y-64444717D01*
X201308655Y-64201595D01*
X201065533Y-64039146D01*
X200851138Y-63996500D01*
X200778750Y-63982101D01*
X200706362Y-63996500D01*
X187001138Y-63996500D01*
X186928750Y-63982101D01*
X186856362Y-63996500D01*
X186641967Y-64039146D01*
X186398845Y-64201595D01*
X186236396Y-64444717D01*
X186179351Y-64731500D01*
X182478149Y-64731500D01*
X182421104Y-64444717D01*
X182258655Y-64201595D01*
X182015533Y-64039146D01*
X181801138Y-63996500D01*
X181728750Y-63982101D01*
X181656362Y-63996500D01*
X167951138Y-63996500D01*
X167878750Y-63982101D01*
X167806362Y-63996500D01*
X167591967Y-64039146D01*
X167348845Y-64201595D01*
X167186396Y-64444717D01*
X167129351Y-64731500D01*
X163428149Y-64731500D01*
X163371104Y-64444717D01*
X163208655Y-64201595D01*
X162965533Y-64039146D01*
X162751138Y-63996500D01*
X162678750Y-63982101D01*
X162606362Y-63996500D01*
X148901138Y-63996500D01*
X148828750Y-63982101D01*
X148756362Y-63996500D01*
X148541967Y-64039146D01*
X148298845Y-64201595D01*
X148136396Y-64444717D01*
X148079351Y-64731500D01*
X144378149Y-64731500D01*
X144321104Y-64444717D01*
X144158655Y-64201595D01*
X143915533Y-64039146D01*
X143701138Y-63996500D01*
X143628750Y-63982101D01*
X143556362Y-63996500D01*
X129851138Y-63996500D01*
X129778750Y-63982101D01*
X129706362Y-63996500D01*
X129491967Y-64039146D01*
X129248845Y-64201595D01*
X129086396Y-64444717D01*
X129029351Y-64731500D01*
X125328149Y-64731500D01*
X125271104Y-64444717D01*
X125108655Y-64201595D01*
X124865533Y-64039146D01*
X124651138Y-63996500D01*
X124578750Y-63982101D01*
X124506362Y-63996500D01*
X110801138Y-63996500D01*
X110728750Y-63982101D01*
X110656362Y-63996500D01*
X110441967Y-64039146D01*
X110198845Y-64201595D01*
X110036396Y-64444717D01*
X109979351Y-64731500D01*
X106278149Y-64731500D01*
X106221104Y-64444717D01*
X106058655Y-64201595D01*
X105815533Y-64039146D01*
X105601138Y-63996500D01*
X105528750Y-63982101D01*
X105456362Y-63996500D01*
X91751138Y-63996500D01*
X91678750Y-63982101D01*
X91606362Y-63996500D01*
X91391967Y-64039146D01*
X91148845Y-64201595D01*
X90986396Y-64444717D01*
X90929351Y-64731500D01*
X87228149Y-64731500D01*
X87171104Y-64444717D01*
X87008655Y-64201595D01*
X86765533Y-64039146D01*
X86551138Y-63996500D01*
X86478750Y-63982101D01*
X86406362Y-63996500D01*
X72701138Y-63996500D01*
X72628750Y-63982101D01*
X72556362Y-63996500D01*
X72341967Y-64039146D01*
X72098845Y-64201595D01*
X71936396Y-64444717D01*
X71879351Y-64731500D01*
X68178149Y-64731500D01*
X68121104Y-64444717D01*
X67958655Y-64201595D01*
X67715533Y-64039146D01*
X67501138Y-63996500D01*
X67428750Y-63982101D01*
X67356362Y-63996500D01*
X53651138Y-63996500D01*
X53578750Y-63982101D01*
X53506362Y-63996500D01*
X53291967Y-64039146D01*
X53048845Y-64201595D01*
X52886396Y-64444717D01*
X52829351Y-64731500D01*
X52357750Y-64731500D01*
X52357750Y-61793880D01*
X87135934Y-61793880D01*
X87145000Y-62154322D01*
X87145000Y-62514895D01*
X87154656Y-62538206D01*
X87155290Y-62563427D01*
X87412545Y-63184496D01*
X87424631Y-63189986D01*
X87439586Y-63226090D01*
X87983910Y-63770414D01*
X88020014Y-63785369D01*
X88025504Y-63797455D01*
X88361974Y-63927013D01*
X88695105Y-64065000D01*
X88720335Y-64065000D01*
X88743880Y-64074066D01*
X89104322Y-64065000D01*
X89464895Y-64065000D01*
X89488206Y-64055344D01*
X89513427Y-64054710D01*
X90134496Y-63797455D01*
X90139986Y-63785369D01*
X90176090Y-63770414D01*
X90720414Y-63226090D01*
X90735369Y-63189986D01*
X90747455Y-63184496D01*
X90877013Y-62848026D01*
X91015000Y-62514895D01*
X91015000Y-62489665D01*
X91024066Y-62466120D01*
X91015000Y-62105678D01*
X91015000Y-61745105D01*
X91005344Y-61721794D01*
X91004710Y-61696573D01*
X90747455Y-61075504D01*
X90735369Y-61070014D01*
X90720414Y-61033910D01*
X90176090Y-60489586D01*
X90139986Y-60474631D01*
X90134496Y-60462545D01*
X89798026Y-60332987D01*
X89464895Y-60195000D01*
X89439665Y-60195000D01*
X89416120Y-60185934D01*
X89055678Y-60195000D01*
X88695105Y-60195000D01*
X88671794Y-60204656D01*
X88646573Y-60205290D01*
X88025504Y-60462545D01*
X88020014Y-60474631D01*
X87983910Y-60489586D01*
X87439586Y-61033910D01*
X87424631Y-61070014D01*
X87412545Y-61075504D01*
X87282987Y-61411974D01*
X87145000Y-61745105D01*
X87145000Y-61770335D01*
X87135934Y-61793880D01*
X52357750Y-61793880D01*
X52357750Y-45681500D01*
X52829351Y-45681500D01*
X52843751Y-45753893D01*
X52843750Y-59459112D01*
X52829351Y-59531500D01*
X52886396Y-59818283D01*
X53048845Y-60061405D01*
X53291967Y-60223854D01*
X53578750Y-60280899D01*
X53651138Y-60266500D01*
X67356362Y-60266500D01*
X67428750Y-60280899D01*
X67501138Y-60266500D01*
X67715533Y-60223854D01*
X67958655Y-60061405D01*
X68121104Y-59818283D01*
X68178149Y-59531500D01*
X68163750Y-59459112D01*
X68163750Y-45753888D01*
X68178149Y-45681500D01*
X71879351Y-45681500D01*
X71893750Y-45753888D01*
X71893751Y-59459107D01*
X71879351Y-59531500D01*
X71936396Y-59818283D01*
X72098845Y-60061405D01*
X72341967Y-60223854D01*
X72556362Y-60266500D01*
X72628750Y-60280899D01*
X72701138Y-60266500D01*
X86406362Y-60266500D01*
X86478750Y-60280899D01*
X86551138Y-60266500D01*
X86765533Y-60223854D01*
X87008655Y-60061405D01*
X87171104Y-59818283D01*
X87228149Y-59531500D01*
X87213750Y-59459112D01*
X87213750Y-45753888D01*
X87228149Y-45681500D01*
X90929351Y-45681500D01*
X90943751Y-45753893D01*
X90943750Y-59459112D01*
X90929351Y-59531500D01*
X90986396Y-59818283D01*
X91148845Y-60061405D01*
X91391967Y-60223854D01*
X91678750Y-60280899D01*
X91751138Y-60266500D01*
X105456362Y-60266500D01*
X105528750Y-60280899D01*
X105601138Y-60266500D01*
X105815533Y-60223854D01*
X106058655Y-60061405D01*
X106221104Y-59818283D01*
X106278149Y-59531500D01*
X106263750Y-59459112D01*
X106263750Y-45753888D01*
X106278149Y-45681500D01*
X109979351Y-45681500D01*
X109993750Y-45753888D01*
X109993751Y-59459107D01*
X109979351Y-59531500D01*
X110036396Y-59818283D01*
X110198845Y-60061405D01*
X110441967Y-60223854D01*
X110656362Y-60266500D01*
X110728750Y-60280899D01*
X110801138Y-60266500D01*
X124506362Y-60266500D01*
X124578750Y-60280899D01*
X124651138Y-60266500D01*
X124865533Y-60223854D01*
X125108655Y-60061405D01*
X125271104Y-59818283D01*
X125328149Y-59531500D01*
X125313750Y-59459112D01*
X125313750Y-45753888D01*
X125328149Y-45681500D01*
X129029351Y-45681500D01*
X129043751Y-45753893D01*
X129043750Y-59459112D01*
X129029351Y-59531500D01*
X129086396Y-59818283D01*
X129248845Y-60061405D01*
X129491967Y-60223854D01*
X129778750Y-60280899D01*
X129851138Y-60266500D01*
X143556362Y-60266500D01*
X143628750Y-60280899D01*
X143701138Y-60266500D01*
X143915533Y-60223854D01*
X144158655Y-60061405D01*
X144321104Y-59818283D01*
X144378149Y-59531500D01*
X144363750Y-59459112D01*
X144363750Y-45753888D01*
X144378149Y-45681500D01*
X148079351Y-45681500D01*
X148093750Y-45753888D01*
X148093751Y-59459107D01*
X148079351Y-59531500D01*
X148136396Y-59818283D01*
X148298845Y-60061405D01*
X148541967Y-60223854D01*
X148756362Y-60266500D01*
X148828750Y-60280899D01*
X148901138Y-60266500D01*
X162606362Y-60266500D01*
X162678750Y-60280899D01*
X162751138Y-60266500D01*
X162965533Y-60223854D01*
X163208655Y-60061405D01*
X163371104Y-59818283D01*
X163428149Y-59531500D01*
X163413750Y-59459112D01*
X163413750Y-45753888D01*
X163428149Y-45681500D01*
X167129351Y-45681500D01*
X167143750Y-45753888D01*
X167143751Y-59459107D01*
X167129351Y-59531500D01*
X167186396Y-59818283D01*
X167348845Y-60061405D01*
X167591967Y-60223854D01*
X167806362Y-60266500D01*
X167878750Y-60280899D01*
X167951138Y-60266500D01*
X181656362Y-60266500D01*
X181728750Y-60280899D01*
X181801138Y-60266500D01*
X182015533Y-60223854D01*
X182258655Y-60061405D01*
X182421104Y-59818283D01*
X182478149Y-59531500D01*
X182463750Y-59459112D01*
X182463750Y-45753888D01*
X182478149Y-45681500D01*
X186179351Y-45681500D01*
X186193750Y-45753888D01*
X186193751Y-59459107D01*
X186179351Y-59531500D01*
X186236396Y-59818283D01*
X186398845Y-60061405D01*
X186641967Y-60223854D01*
X186856362Y-60266500D01*
X186928750Y-60280899D01*
X187001138Y-60266500D01*
X200706362Y-60266500D01*
X200778750Y-60280899D01*
X200851138Y-60266500D01*
X201065533Y-60223854D01*
X201308655Y-60061405D01*
X201471104Y-59818283D01*
X201528149Y-59531500D01*
X201513750Y-59459112D01*
X201513750Y-45753888D01*
X201528149Y-45681500D01*
X205229351Y-45681500D01*
X205243750Y-45753888D01*
X205243751Y-59459107D01*
X205229351Y-59531500D01*
X205286396Y-59818283D01*
X205448845Y-60061405D01*
X205691967Y-60223854D01*
X205906362Y-60266500D01*
X205978750Y-60280899D01*
X206051138Y-60266500D01*
X219756362Y-60266500D01*
X219828750Y-60280899D01*
X219901138Y-60266500D01*
X220115533Y-60223854D01*
X220358655Y-60061405D01*
X220521104Y-59818283D01*
X220578149Y-59531500D01*
X220563750Y-59459112D01*
X220563750Y-45753888D01*
X220578149Y-45681500D01*
X224279351Y-45681500D01*
X224293751Y-45753893D01*
X224293750Y-59459112D01*
X224279351Y-59531500D01*
X224336396Y-59818283D01*
X224498845Y-60061405D01*
X224741967Y-60223854D01*
X225028750Y-60280899D01*
X225101138Y-60266500D01*
X238806362Y-60266500D01*
X238878750Y-60280899D01*
X238951138Y-60266500D01*
X239165533Y-60223854D01*
X239408655Y-60061405D01*
X239571104Y-59818283D01*
X239628149Y-59531500D01*
X239613750Y-59459112D01*
X239613750Y-45753888D01*
X239628149Y-45681500D01*
X239571104Y-45394717D01*
X239408655Y-45151595D01*
X239165533Y-44989146D01*
X238951138Y-44946500D01*
X238878750Y-44932101D01*
X238806362Y-44946500D01*
X225101138Y-44946500D01*
X225028750Y-44932101D01*
X224956362Y-44946500D01*
X224741967Y-44989146D01*
X224498845Y-45151595D01*
X224336396Y-45394717D01*
X224279351Y-45681500D01*
X220578149Y-45681500D01*
X220521104Y-45394717D01*
X220358655Y-45151595D01*
X220115533Y-44989146D01*
X219901138Y-44946500D01*
X219828750Y-44932101D01*
X219756362Y-44946500D01*
X206051138Y-44946500D01*
X205978750Y-44932101D01*
X205906362Y-44946500D01*
X205691967Y-44989146D01*
X205448845Y-45151595D01*
X205286396Y-45394717D01*
X205229351Y-45681500D01*
X201528149Y-45681500D01*
X201471104Y-45394717D01*
X201308655Y-45151595D01*
X201065533Y-44989146D01*
X200851138Y-44946500D01*
X200778750Y-44932101D01*
X200706362Y-44946500D01*
X187001138Y-44946500D01*
X186928750Y-44932101D01*
X186856362Y-44946500D01*
X186641967Y-44989146D01*
X186398845Y-45151595D01*
X186236396Y-45394717D01*
X186179351Y-45681500D01*
X182478149Y-45681500D01*
X182421104Y-45394717D01*
X182258655Y-45151595D01*
X182015533Y-44989146D01*
X181801138Y-44946500D01*
X181728750Y-44932101D01*
X181656362Y-44946500D01*
X167951138Y-44946500D01*
X167878750Y-44932101D01*
X167806362Y-44946500D01*
X167591967Y-44989146D01*
X167348845Y-45151595D01*
X167186396Y-45394717D01*
X167129351Y-45681500D01*
X163428149Y-45681500D01*
X163371104Y-45394717D01*
X163208655Y-45151595D01*
X162965533Y-44989146D01*
X162751138Y-44946500D01*
X162678750Y-44932101D01*
X162606362Y-44946500D01*
X148901138Y-44946500D01*
X148828750Y-44932101D01*
X148756362Y-44946500D01*
X148541967Y-44989146D01*
X148298845Y-45151595D01*
X148136396Y-45394717D01*
X148079351Y-45681500D01*
X144378149Y-45681500D01*
X144321104Y-45394717D01*
X144158655Y-45151595D01*
X143915533Y-44989146D01*
X143701138Y-44946500D01*
X143628750Y-44932101D01*
X143556362Y-44946500D01*
X129851138Y-44946500D01*
X129778750Y-44932101D01*
X129706362Y-44946500D01*
X129491967Y-44989146D01*
X129248845Y-45151595D01*
X129086396Y-45394717D01*
X129029351Y-45681500D01*
X125328149Y-45681500D01*
X125271104Y-45394717D01*
X125108655Y-45151595D01*
X124865533Y-44989146D01*
X124651138Y-44946500D01*
X124578750Y-44932101D01*
X124506362Y-44946500D01*
X110801138Y-44946500D01*
X110728750Y-44932101D01*
X110656362Y-44946500D01*
X110441967Y-44989146D01*
X110198845Y-45151595D01*
X110036396Y-45394717D01*
X109979351Y-45681500D01*
X106278149Y-45681500D01*
X106221104Y-45394717D01*
X106058655Y-45151595D01*
X105815533Y-44989146D01*
X105601138Y-44946500D01*
X105528750Y-44932101D01*
X105456362Y-44946500D01*
X91751138Y-44946500D01*
X91678750Y-44932101D01*
X91606362Y-44946500D01*
X91391967Y-44989146D01*
X91148845Y-45151595D01*
X90986396Y-45394717D01*
X90929351Y-45681500D01*
X87228149Y-45681500D01*
X87171104Y-45394717D01*
X87008655Y-45151595D01*
X86765533Y-44989146D01*
X86551138Y-44946500D01*
X86478750Y-44932101D01*
X86406362Y-44946500D01*
X72701138Y-44946500D01*
X72628750Y-44932101D01*
X72556362Y-44946500D01*
X72341967Y-44989146D01*
X72098845Y-45151595D01*
X71936396Y-45394717D01*
X71879351Y-45681500D01*
X68178149Y-45681500D01*
X68121104Y-45394717D01*
X67958655Y-45151595D01*
X67715533Y-44989146D01*
X67501138Y-44946500D01*
X67428750Y-44932101D01*
X67356362Y-44946500D01*
X53651138Y-44946500D01*
X53578750Y-44932101D01*
X53506362Y-44946500D01*
X53291967Y-44989146D01*
X53048845Y-45151595D01*
X52886396Y-45394717D01*
X52829351Y-45681500D01*
X52357750Y-45681500D01*
X52357750Y-43933880D01*
X239535934Y-43933880D01*
X239545000Y-44294322D01*
X239545000Y-44654895D01*
X239554656Y-44678206D01*
X239555290Y-44703427D01*
X239812545Y-45324496D01*
X239824631Y-45329986D01*
X239839586Y-45366090D01*
X240383910Y-45910414D01*
X240420014Y-45925369D01*
X240425504Y-45937455D01*
X240761974Y-46067013D01*
X241095105Y-46205000D01*
X241120335Y-46205000D01*
X241143880Y-46214066D01*
X241504322Y-46205000D01*
X241864895Y-46205000D01*
X241888206Y-46195344D01*
X241913427Y-46194710D01*
X242534496Y-45937455D01*
X242539986Y-45925369D01*
X242576090Y-45910414D01*
X243120414Y-45366090D01*
X243135369Y-45329986D01*
X243147455Y-45324496D01*
X243277013Y-44988026D01*
X243415000Y-44654895D01*
X243415000Y-44629665D01*
X243424066Y-44606120D01*
X243415000Y-44245678D01*
X243415000Y-43885105D01*
X243405344Y-43861794D01*
X243404710Y-43836573D01*
X243147455Y-43215504D01*
X243135369Y-43210014D01*
X243120414Y-43173910D01*
X242576090Y-42629586D01*
X242539986Y-42614631D01*
X242534496Y-42602545D01*
X242198026Y-42472987D01*
X241864895Y-42335000D01*
X241839665Y-42335000D01*
X241816120Y-42325934D01*
X241455678Y-42335000D01*
X241095105Y-42335000D01*
X241071794Y-42344656D01*
X241046573Y-42345290D01*
X240425504Y-42602545D01*
X240420014Y-42614631D01*
X240383910Y-42629586D01*
X239839586Y-43173910D01*
X239824631Y-43210014D01*
X239812545Y-43215504D01*
X239682987Y-43551974D01*
X239545000Y-43885105D01*
X239545000Y-43910335D01*
X239535934Y-43933880D01*
X52357750Y-43933880D01*
X52357750Y-42827864D01*
X52415794Y-42422560D01*
X52563364Y-42097996D01*
X52796100Y-41827893D01*
X53095289Y-41633968D01*
X53461229Y-41524530D01*
X53650023Y-41510500D01*
X242924386Y-41510500D01*
X243329690Y-41568544D01*
X243329690Y-41568544D01*
G37*
X243329690Y-41568544D02*
X243654254Y-41716114D01*
X243924357Y-41948850D01*
X244118282Y-42248039D01*
X244227720Y-42613979D01*
X244241751Y-42802786D01*
X244241750Y-119536136D01*
X244183706Y-119941438D01*
X244036135Y-120266004D01*
X243803400Y-120536106D01*
X243504209Y-120730032D01*
X243138275Y-120839470D01*
X242949477Y-120853500D01*
X31675114Y-120853500D01*
X31269812Y-120795456D01*
X30945246Y-120647885D01*
X30675144Y-120415150D01*
X30481218Y-120115959D01*
X30371780Y-119750025D01*
X30357750Y-119561227D01*
X30357750Y-117763880D01*
X31175934Y-117763880D01*
X31185000Y-118124322D01*
X31185000Y-118484895D01*
X31194656Y-118508206D01*
X31195290Y-118533427D01*
X31452545Y-119154496D01*
X31464631Y-119159986D01*
X31479586Y-119196090D01*
X32023910Y-119740414D01*
X32060014Y-119755369D01*
X32065504Y-119767455D01*
X32401974Y-119897013D01*
X32735105Y-120035000D01*
X32760335Y-120035000D01*
X32783880Y-120044066D01*
X33144322Y-120035000D01*
X33504895Y-120035000D01*
X33528206Y-120025344D01*
X33553427Y-120024710D01*
X34174496Y-119767455D01*
X34179986Y-119755369D01*
X34216090Y-119740414D01*
X34760414Y-119196090D01*
X34775369Y-119159986D01*
X34787455Y-119154496D01*
X34917013Y-118818026D01*
X35055000Y-118484895D01*
X35055000Y-118459665D01*
X35064066Y-118436120D01*
X35055000Y-118075678D01*
X35055000Y-117753880D01*
X239535934Y-117753880D01*
X239545000Y-118114322D01*
X239545000Y-118474895D01*
X239554656Y-118498206D01*
X239555290Y-118523427D01*
X239812545Y-119144496D01*
X239824631Y-119149986D01*
X239839586Y-119186090D01*
X240383910Y-119730414D01*
X240420014Y-119745369D01*
X240425504Y-119757455D01*
X240761974Y-119887013D01*
X241095105Y-120025000D01*
X241120335Y-120025000D01*
X241143880Y-120034066D01*
X241504322Y-120025000D01*
X241864895Y-120025000D01*
X241888206Y-120015344D01*
X241913427Y-120014710D01*
X242534496Y-119757455D01*
X242539986Y-119745369D01*
X242576090Y-119730414D01*
X243120414Y-119186090D01*
X243135369Y-119149986D01*
X243147455Y-119144496D01*
X243277013Y-118808026D01*
X243415000Y-118474895D01*
X243415000Y-118449665D01*
X243424066Y-118426120D01*
X243415000Y-118065678D01*
X243415000Y-117705105D01*
X243405344Y-117681794D01*
X243404710Y-117656573D01*
X243147455Y-117035504D01*
X243135369Y-117030014D01*
X243120414Y-116993910D01*
X242576090Y-116449586D01*
X242539986Y-116434631D01*
X242534496Y-116422545D01*
X242198026Y-116292987D01*
X241864895Y-116155000D01*
X241839665Y-116155000D01*
X241816120Y-116145934D01*
X241455678Y-116155000D01*
X241095105Y-116155000D01*
X241071794Y-116164656D01*
X241046573Y-116165290D01*
X240425504Y-116422545D01*
X240420014Y-116434631D01*
X240383910Y-116449586D01*
X239839586Y-116993910D01*
X239824631Y-117030014D01*
X239812545Y-117035504D01*
X239682987Y-117371974D01*
X239545000Y-117705105D01*
X239545000Y-117730335D01*
X239535934Y-117753880D01*
X35055000Y-117753880D01*
X35055000Y-117715105D01*
X35045344Y-117691794D01*
X35044710Y-117666573D01*
X34787455Y-117045504D01*
X34775369Y-117040014D01*
X34760414Y-117003910D01*
X34216090Y-116459586D01*
X34179986Y-116444631D01*
X34174496Y-116432545D01*
X33838026Y-116302987D01*
X33504895Y-116165000D01*
X33479665Y-116165000D01*
X33456120Y-116155934D01*
X33095678Y-116165000D01*
X32735105Y-116165000D01*
X32711794Y-116174656D01*
X32686573Y-116175290D01*
X32065504Y-116432545D01*
X32060014Y-116444631D01*
X32023910Y-116459586D01*
X31479586Y-117003910D01*
X31464631Y-117040014D01*
X31452545Y-117045504D01*
X31322987Y-117381974D01*
X31185000Y-117715105D01*
X31185000Y-117740335D01*
X31175934Y-117763880D01*
X30357750Y-117763880D01*
X30357750Y-102831500D01*
X90929351Y-102831500D01*
X90943750Y-102903888D01*
X90943751Y-116609107D01*
X90929351Y-116681500D01*
X90986396Y-116968283D01*
X91148845Y-117211405D01*
X91391967Y-117373854D01*
X91606362Y-117416500D01*
X91678750Y-117430899D01*
X91751138Y-117416500D01*
X105456362Y-117416500D01*
X105528750Y-117430899D01*
X105601138Y-117416500D01*
X105815533Y-117373854D01*
X106058655Y-117211405D01*
X106221104Y-116968283D01*
X106278149Y-116681500D01*
X106263750Y-116609112D01*
X106263750Y-102903888D01*
X106278149Y-102831500D01*
X109979351Y-102831500D01*
X109993751Y-102903893D01*
X109993750Y-116609112D01*
X109979351Y-116681500D01*
X110036396Y-116968283D01*
X110198845Y-117211405D01*
X110441967Y-117373854D01*
X110728750Y-117430899D01*
X110801138Y-117416500D01*
X143556362Y-117416500D01*
X143628750Y-117430899D01*
X143701138Y-117416500D01*
X143915533Y-117373854D01*
X144158655Y-117211405D01*
X144321104Y-116968283D01*
X144378149Y-116681500D01*
X144363750Y-116609112D01*
X144363750Y-102903888D01*
X144378149Y-102831500D01*
X148079351Y-102831500D01*
X148093750Y-102903888D01*
X148093751Y-116609107D01*
X148079351Y-116681500D01*
X148136396Y-116968283D01*
X148298845Y-117211405D01*
X148541967Y-117373854D01*
X148756362Y-117416500D01*
X148828750Y-117430899D01*
X148901138Y-117416500D01*
X181656362Y-117416500D01*
X181728750Y-117430899D01*
X181801138Y-117416500D01*
X182015533Y-117373854D01*
X182258655Y-117211405D01*
X182421104Y-116968283D01*
X182478149Y-116681500D01*
X182463750Y-116609112D01*
X182463750Y-102903888D01*
X182478149Y-102831500D01*
X186179351Y-102831500D01*
X186193751Y-102903893D01*
X186193750Y-116609112D01*
X186179351Y-116681500D01*
X186236396Y-116968283D01*
X186398845Y-117211405D01*
X186641967Y-117373854D01*
X186928750Y-117430899D01*
X187001138Y-117416500D01*
X200706362Y-117416500D01*
X200778750Y-117430899D01*
X200851138Y-117416500D01*
X201065533Y-117373854D01*
X201308655Y-117211405D01*
X201471104Y-116968283D01*
X201528149Y-116681500D01*
X201513750Y-116609112D01*
X201513750Y-102903888D01*
X201528149Y-102831500D01*
X201471104Y-102544717D01*
X201308655Y-102301595D01*
X201065533Y-102139146D01*
X200851138Y-102096500D01*
X200778750Y-102082101D01*
X200706362Y-102096500D01*
X187001138Y-102096500D01*
X186928750Y-102082101D01*
X186856362Y-102096500D01*
X186641967Y-102139146D01*
X186398845Y-102301595D01*
X186236396Y-102544717D01*
X186179351Y-102831500D01*
X182478149Y-102831500D01*
X182421104Y-102544717D01*
X182258655Y-102301595D01*
X182015533Y-102139146D01*
X181801138Y-102096500D01*
X181728750Y-102082101D01*
X181656362Y-102096500D01*
X148901138Y-102096500D01*
X148828750Y-102082101D01*
X148756362Y-102096500D01*
X148541967Y-102139146D01*
X148298845Y-102301595D01*
X148136396Y-102544717D01*
X148079351Y-102831500D01*
X144378149Y-102831500D01*
X144321104Y-102544717D01*
X144158655Y-102301595D01*
X143915533Y-102139146D01*
X143701138Y-102096500D01*
X143628750Y-102082101D01*
X143556362Y-102096500D01*
X110801138Y-102096500D01*
X110728750Y-102082101D01*
X110656362Y-102096500D01*
X110441967Y-102139146D01*
X110198845Y-102301595D01*
X110036396Y-102544717D01*
X109979351Y-102831500D01*
X106278149Y-102831500D01*
X106221104Y-102544717D01*
X106058655Y-102301595D01*
X105815533Y-102139146D01*
X105601138Y-102096500D01*
X105528750Y-102082101D01*
X105456362Y-102096500D01*
X91751138Y-102096500D01*
X91678750Y-102082101D01*
X91606362Y-102096500D01*
X91391967Y-102139146D01*
X91148845Y-102301595D01*
X90986396Y-102544717D01*
X90929351Y-102831500D01*
X30357750Y-102831500D01*
X30357750Y-99893880D01*
X144285934Y-99893880D01*
X144295000Y-100254322D01*
X144295000Y-100614895D01*
X144304656Y-100638206D01*
X144305290Y-100663427D01*
X144562545Y-101284496D01*
X144574631Y-101289986D01*
X144589586Y-101326090D01*
X145133910Y-101870414D01*
X145170014Y-101885369D01*
X145175504Y-101897455D01*
X145511974Y-102027013D01*
X145845105Y-102165000D01*
X145870335Y-102165000D01*
X145893880Y-102174066D01*
X146254322Y-102165000D01*
X146614895Y-102165000D01*
X146638206Y-102155344D01*
X146663427Y-102154710D01*
X147284496Y-101897455D01*
X147289986Y-101885369D01*
X147326090Y-101870414D01*
X147870414Y-101326090D01*
X147885369Y-101289986D01*
X147897455Y-101284496D01*
X148027013Y-100948026D01*
X148165000Y-100614895D01*
X148165000Y-100589665D01*
X148174066Y-100566120D01*
X148165000Y-100205678D01*
X148165000Y-99845105D01*
X148155344Y-99821794D01*
X148154710Y-99796573D01*
X147897455Y-99175504D01*
X147885369Y-99170014D01*
X147870414Y-99133910D01*
X147326090Y-98589586D01*
X147289986Y-98574631D01*
X147284496Y-98562545D01*
X146948026Y-98432987D01*
X146614895Y-98295000D01*
X146589665Y-98295000D01*
X146566120Y-98285934D01*
X146205678Y-98295000D01*
X145845105Y-98295000D01*
X145821794Y-98304656D01*
X145796573Y-98305290D01*
X145175504Y-98562545D01*
X145170014Y-98574631D01*
X145133910Y-98589586D01*
X144589586Y-99133910D01*
X144574631Y-99170014D01*
X144562545Y-99175504D01*
X144432987Y-99511974D01*
X144295000Y-99845105D01*
X144295000Y-99870335D01*
X144285934Y-99893880D01*
X30357750Y-99893880D01*
X30357750Y-83781500D01*
X33779351Y-83781500D01*
X33793751Y-83853893D01*
X33793750Y-97559112D01*
X33779351Y-97631500D01*
X33836396Y-97918283D01*
X33998845Y-98161405D01*
X34241967Y-98323854D01*
X34528750Y-98380899D01*
X34601138Y-98366500D01*
X48306362Y-98366500D01*
X48378750Y-98380899D01*
X48451138Y-98366500D01*
X48665533Y-98323854D01*
X48908655Y-98161405D01*
X49071104Y-97918283D01*
X49128149Y-97631500D01*
X49113750Y-97559112D01*
X49113750Y-83853888D01*
X49128149Y-83781500D01*
X52829351Y-83781500D01*
X52843750Y-83853888D01*
X52843751Y-97559107D01*
X52829351Y-97631500D01*
X52886396Y-97918283D01*
X53048845Y-98161405D01*
X53291967Y-98323854D01*
X53506362Y-98366500D01*
X53578750Y-98380899D01*
X53651138Y-98366500D01*
X67356362Y-98366500D01*
X67428750Y-98380899D01*
X67501138Y-98366500D01*
X67715533Y-98323854D01*
X67958655Y-98161405D01*
X68121104Y-97918283D01*
X68178149Y-97631500D01*
X68163750Y-97559112D01*
X68163750Y-83853888D01*
X68178149Y-83781500D01*
X71879351Y-83781500D01*
X71893751Y-83853893D01*
X71893750Y-97559112D01*
X71879351Y-97631500D01*
X71936396Y-97918283D01*
X72098845Y-98161405D01*
X72341967Y-98323854D01*
X72628750Y-98380899D01*
X72701138Y-98366500D01*
X86406362Y-98366500D01*
X86478750Y-98380899D01*
X86551138Y-98366500D01*
X86765533Y-98323854D01*
X87008655Y-98161405D01*
X87171104Y-97918283D01*
X87228149Y-97631500D01*
X87213750Y-97559112D01*
X87213750Y-83853888D01*
X87228149Y-83781500D01*
X90929351Y-83781500D01*
X90943750Y-83853888D01*
X90943751Y-97559107D01*
X90929351Y-97631500D01*
X90986396Y-97918283D01*
X91148845Y-98161405D01*
X91391967Y-98323854D01*
X91606362Y-98366500D01*
X91678750Y-98380899D01*
X91751138Y-98366500D01*
X105456362Y-98366500D01*
X105528750Y-98380899D01*
X105601138Y-98366500D01*
X105815533Y-98323854D01*
X106058655Y-98161405D01*
X106221104Y-97918283D01*
X106278149Y-97631500D01*
X106263750Y-97559112D01*
X106263750Y-83853888D01*
X106278149Y-83781500D01*
X109979351Y-83781500D01*
X109993750Y-83853888D01*
X109993751Y-97559107D01*
X109979351Y-97631500D01*
X110036396Y-97918283D01*
X110198845Y-98161405D01*
X110441967Y-98323854D01*
X110656362Y-98366500D01*
X110728750Y-98380899D01*
X110801138Y-98366500D01*
X124506362Y-98366500D01*
X124578750Y-98380899D01*
X124651138Y-98366500D01*
X124865533Y-98323854D01*
X125108655Y-98161405D01*
X125271104Y-97918283D01*
X125328149Y-97631500D01*
X125313750Y-97559112D01*
X125313750Y-83853888D01*
X125328149Y-83781500D01*
X129029351Y-83781500D01*
X129043751Y-83853893D01*
X129043750Y-97559112D01*
X129029351Y-97631500D01*
X129086396Y-97918283D01*
X129248845Y-98161405D01*
X129491967Y-98323854D01*
X129778750Y-98380899D01*
X129851138Y-98366500D01*
X143556362Y-98366500D01*
X143628750Y-98380899D01*
X143701138Y-98366500D01*
X143915533Y-98323854D01*
X144158655Y-98161405D01*
X144321104Y-97918283D01*
X144378149Y-97631500D01*
X144363750Y-97559112D01*
X144363750Y-83853888D01*
X144378149Y-83781500D01*
X148079351Y-83781500D01*
X148093751Y-83853893D01*
X148093750Y-97559112D01*
X148079351Y-97631500D01*
X148136396Y-97918283D01*
X148298845Y-98161405D01*
X148541967Y-98323854D01*
X148828750Y-98380899D01*
X148901138Y-98366500D01*
X162606362Y-98366500D01*
X162678750Y-98380899D01*
X162751138Y-98366500D01*
X162965533Y-98323854D01*
X163208655Y-98161405D01*
X163371104Y-97918283D01*
X163428149Y-97631500D01*
X163413750Y-97559112D01*
X163413750Y-83853888D01*
X163428149Y-83781500D01*
X167129351Y-83781500D01*
X167143751Y-83853893D01*
X167143750Y-97559112D01*
X167129351Y-97631500D01*
X167186396Y-97918283D01*
X167348845Y-98161405D01*
X167591967Y-98323854D01*
X167878750Y-98380899D01*
X167951138Y-98366500D01*
X181656362Y-98366500D01*
X181728750Y-98380899D01*
X181801138Y-98366500D01*
X182015533Y-98323854D01*
X182258655Y-98161405D01*
X182421104Y-97918283D01*
X182478149Y-97631500D01*
X182463750Y-97559112D01*
X182463750Y-83853888D01*
X182478149Y-83781500D01*
X186179351Y-83781500D01*
X186193751Y-83853893D01*
X186193750Y-97559112D01*
X186179351Y-97631500D01*
X186236396Y-97918283D01*
X186398845Y-98161405D01*
X186641967Y-98323854D01*
X186928750Y-98380899D01*
X187001138Y-98366500D01*
X200706362Y-98366500D01*
X200778750Y-98380899D01*
X200851138Y-98366500D01*
X201065533Y-98323854D01*
X201308655Y-98161405D01*
X201471104Y-97918283D01*
X201528149Y-97631500D01*
X201513750Y-97559112D01*
X201513750Y-83853888D01*
X201528149Y-83781500D01*
X205229351Y-83781500D01*
X205243750Y-83853888D01*
X205243751Y-97559107D01*
X205229351Y-97631500D01*
X205286396Y-97918283D01*
X205448845Y-98161405D01*
X205691967Y-98323854D01*
X205906362Y-98366500D01*
X205978750Y-98380899D01*
X206051138Y-98366500D01*
X219756362Y-98366500D01*
X219828750Y-98380899D01*
X219901138Y-98366500D01*
X220115533Y-98323854D01*
X220358655Y-98161405D01*
X220521104Y-97918283D01*
X220578149Y-97631500D01*
X220563750Y-97559112D01*
X220563750Y-83853888D01*
X220578149Y-83781500D01*
X224279351Y-83781500D01*
X224293751Y-83853893D01*
X224293750Y-97559112D01*
X224279351Y-97631500D01*
X224336396Y-97918283D01*
X224498845Y-98161405D01*
X224741967Y-98323854D01*
X225028750Y-98380899D01*
X225101138Y-98366500D01*
X238806362Y-98366500D01*
X238878750Y-98380899D01*
X238951138Y-98366500D01*
X239165533Y-98323854D01*
X239408655Y-98161405D01*
X239571104Y-97918283D01*
X239628149Y-97631500D01*
X239613750Y-97559112D01*
X239613750Y-83853888D01*
X239628149Y-83781500D01*
X239571104Y-83494717D01*
X239408655Y-83251595D01*
X239165533Y-83089146D01*
X238951138Y-83046500D01*
X238878750Y-83032101D01*
X238806362Y-83046500D01*
X225101138Y-83046500D01*
X225028750Y-83032101D01*
X224956362Y-83046500D01*
X224741967Y-83089146D01*
X224498845Y-83251595D01*
X224336396Y-83494717D01*
X224279351Y-83781500D01*
X220578149Y-83781500D01*
X220521104Y-83494717D01*
X220358655Y-83251595D01*
X220115533Y-83089146D01*
X219901138Y-83046500D01*
X219828750Y-83032101D01*
X219756362Y-83046500D01*
X206051138Y-83046500D01*
X205978750Y-83032101D01*
X205906362Y-83046500D01*
X205691967Y-83089146D01*
X205448845Y-83251595D01*
X205286396Y-83494717D01*
X205229351Y-83781500D01*
X201528149Y-83781500D01*
X201471104Y-83494717D01*
X201308655Y-83251595D01*
X201065533Y-83089146D01*
X200851138Y-83046500D01*
X200778750Y-83032101D01*
X200706362Y-83046500D01*
X187001138Y-83046500D01*
X186928750Y-83032101D01*
X186856362Y-83046500D01*
X186641967Y-83089146D01*
X186398845Y-83251595D01*
X186236396Y-83494717D01*
X186179351Y-83781500D01*
X182478149Y-83781500D01*
X182421104Y-83494717D01*
X182258655Y-83251595D01*
X182015533Y-83089146D01*
X181801138Y-83046500D01*
X181728750Y-83032101D01*
X181656362Y-83046500D01*
X167951138Y-83046500D01*
X167878750Y-83032101D01*
X167806362Y-83046500D01*
X167591967Y-83089146D01*
X167348845Y-83251595D01*
X167186396Y-83494717D01*
X167129351Y-83781500D01*
X163428149Y-83781500D01*
X163371104Y-83494717D01*
X163208655Y-83251595D01*
X162965533Y-83089146D01*
X162751138Y-83046500D01*
X162678750Y-83032101D01*
X162606362Y-83046500D01*
X148901138Y-83046500D01*
X148828750Y-83032101D01*
X148756362Y-83046500D01*
X148541967Y-83089146D01*
X148298845Y-83251595D01*
X148136396Y-83494717D01*
X148079351Y-83781500D01*
X144378149Y-83781500D01*
X144321104Y-83494717D01*
X144158655Y-83251595D01*
X143915533Y-83089146D01*
X143701138Y-83046500D01*
X143628750Y-83032101D01*
X143556362Y-83046500D01*
X129851138Y-83046500D01*
X129778750Y-83032101D01*
X129706362Y-83046500D01*
X129491967Y-83089146D01*
X129248845Y-83251595D01*
X129086396Y-83494717D01*
X129029351Y-83781500D01*
X125328149Y-83781500D01*
X125271104Y-83494717D01*
X125108655Y-83251595D01*
X124865533Y-83089146D01*
X124651138Y-83046500D01*
X124578750Y-83032101D01*
X124506362Y-83046500D01*
X110801138Y-83046500D01*
X110728750Y-83032101D01*
X110656362Y-83046500D01*
X110441967Y-83089146D01*
X110198845Y-83251595D01*
X110036396Y-83494717D01*
X109979351Y-83781500D01*
X106278149Y-83781500D01*
X106221104Y-83494717D01*
X106058655Y-83251595D01*
X105815533Y-83089146D01*
X105601138Y-83046500D01*
X105528750Y-83032101D01*
X105456362Y-83046500D01*
X91751138Y-83046500D01*
X91678750Y-83032101D01*
X91606362Y-83046500D01*
X91391967Y-83089146D01*
X91148845Y-83251595D01*
X90986396Y-83494717D01*
X90929351Y-83781500D01*
X87228149Y-83781500D01*
X87171104Y-83494717D01*
X87008655Y-83251595D01*
X86765533Y-83089146D01*
X86551138Y-83046500D01*
X86478750Y-83032101D01*
X86406362Y-83046500D01*
X72701138Y-83046500D01*
X72628750Y-83032101D01*
X72556362Y-83046500D01*
X72341967Y-83089146D01*
X72098845Y-83251595D01*
X71936396Y-83494717D01*
X71879351Y-83781500D01*
X68178149Y-83781500D01*
X68121104Y-83494717D01*
X67958655Y-83251595D01*
X67715533Y-83089146D01*
X67501138Y-83046500D01*
X67428750Y-83032101D01*
X67356362Y-83046500D01*
X53651138Y-83046500D01*
X53578750Y-83032101D01*
X53506362Y-83046500D01*
X53291967Y-83089146D01*
X53048845Y-83251595D01*
X52886396Y-83494717D01*
X52829351Y-83781500D01*
X49128149Y-83781500D01*
X49071104Y-83494717D01*
X48908655Y-83251595D01*
X48665533Y-83089146D01*
X48451138Y-83046500D01*
X48378750Y-83032101D01*
X48306362Y-83046500D01*
X34601138Y-83046500D01*
X34528750Y-83032101D01*
X34456362Y-83046500D01*
X34241967Y-83089146D01*
X33998845Y-83251595D01*
X33836396Y-83494717D01*
X33779351Y-83781500D01*
X30357750Y-83781500D01*
X30357750Y-82827864D01*
X30415794Y-82422560D01*
X30563364Y-82097996D01*
X30796100Y-81827893D01*
X31095289Y-81633968D01*
X31461229Y-81524530D01*
X31650023Y-81510500D01*
X49695138Y-81510500D01*
X49722045Y-81505148D01*
X49972838Y-81486511D01*
X50046073Y-81470409D01*
X50120347Y-81460235D01*
X50128965Y-81457715D01*
X50672250Y-81295239D01*
X50762818Y-81253390D01*
X50853861Y-81212665D01*
X50861426Y-81207827D01*
X51337271Y-80899399D01*
X51412458Y-80833809D01*
X51488407Y-80769172D01*
X51494310Y-80762406D01*
X51864465Y-80332821D01*
X51918226Y-80248758D01*
X51972976Y-80165409D01*
X51976742Y-80157258D01*
X52211448Y-79641049D01*
X52239456Y-79545269D01*
X52268610Y-79449910D01*
X52269938Y-79441030D01*
X52347510Y-78899369D01*
X52357750Y-78847888D01*
X52357750Y-64731500D01*
X52829351Y-64731500D01*
X52843751Y-64803893D01*
X52843750Y-78509112D01*
X52829351Y-78581500D01*
X52886396Y-78868283D01*
X52894023Y-78879697D01*
X53048845Y-79111405D01*
X53291967Y-79273854D01*
X53578750Y-79330899D01*
X53651138Y-79316500D01*
X67356362Y-79316500D01*
X67428750Y-79330899D01*
X67501138Y-79316500D01*
X67715533Y-79273854D01*
X67958655Y-79111405D01*
X68121104Y-78868283D01*
X68178149Y-78581500D01*
X68163750Y-78509112D01*
X68163750Y-64803888D01*
X68178149Y-64731500D01*
X71879351Y-64731500D01*
X71893750Y-64803888D01*
X71893751Y-78509107D01*
X71879351Y-78581500D01*
X71936396Y-78868283D01*
X72098845Y-79111405D01*
X72341967Y-79273854D01*
X72556362Y-79316500D01*
X72628750Y-79330899D01*
X72701138Y-79316500D01*
X86406362Y-79316500D01*
X86478750Y-79330899D01*
X86551138Y-79316500D01*
X86765533Y-79273854D01*
X87008655Y-79111405D01*
X87171104Y-78868283D01*
X87228149Y-78581500D01*
X87213750Y-78509112D01*
X87213750Y-64803888D01*
X87228149Y-64731500D01*
X90929351Y-64731500D01*
X90943750Y-64803888D01*
X90943751Y-78509107D01*
X90929351Y-78581500D01*
X90986396Y-78868283D01*
X91148845Y-79111405D01*
X91391967Y-79273854D01*
X91606362Y-79316500D01*
X91678750Y-79330899D01*
X91751138Y-79316500D01*
X105456362Y-79316500D01*
X105528750Y-79330899D01*
X105601138Y-79316500D01*
X105815533Y-79273854D01*
X106058655Y-79111405D01*
X106221104Y-78868283D01*
X106278149Y-78581500D01*
X106263750Y-78509112D01*
X106263750Y-64803888D01*
X106278149Y-64731500D01*
X109979351Y-64731500D01*
X109993750Y-64803888D01*
X109993751Y-78509107D01*
X109979351Y-78581500D01*
X110036396Y-78868283D01*
X110198845Y-79111405D01*
X110441967Y-79273854D01*
X110656362Y-79316500D01*
X110728750Y-79330899D01*
X110801138Y-79316500D01*
X124506362Y-79316500D01*
X124578750Y-79330899D01*
X124651138Y-79316500D01*
X124865533Y-79273854D01*
X125108655Y-79111405D01*
X125271104Y-78868283D01*
X125328149Y-78581500D01*
X125313750Y-78509112D01*
X125313750Y-64803888D01*
X125328149Y-64731500D01*
X129029351Y-64731500D01*
X129043751Y-64803893D01*
X129043750Y-78509112D01*
X129029351Y-78581500D01*
X129086396Y-78868283D01*
X129094023Y-78879697D01*
X129248845Y-79111405D01*
X129491967Y-79273854D01*
X129778750Y-79330899D01*
X129851138Y-79316500D01*
X143556362Y-79316500D01*
X143628750Y-79330899D01*
X143701138Y-79316500D01*
X143915533Y-79273854D01*
X144158655Y-79111405D01*
X144321104Y-78868283D01*
X144378149Y-78581500D01*
X144363750Y-78509112D01*
X144363750Y-64803888D01*
X144378149Y-64731500D01*
X148079351Y-64731500D01*
X148093751Y-64803893D01*
X148093750Y-78509112D01*
X148079351Y-78581500D01*
X148136396Y-78868283D01*
X148144023Y-78879697D01*
X148298845Y-79111405D01*
X148541967Y-79273854D01*
X148828750Y-79330899D01*
X148901138Y-79316500D01*
X162606362Y-79316500D01*
X162678750Y-79330899D01*
X162751138Y-79316500D01*
X162965533Y-79273854D01*
X163208655Y-79111405D01*
X163371104Y-78868283D01*
X163428149Y-78581500D01*
X163413750Y-78509112D01*
X163413750Y-64803888D01*
X163428149Y-64731500D01*
X167129351Y-64731500D01*
X167143751Y-64803893D01*
X167143750Y-78509112D01*
X167129351Y-78581500D01*
X167186396Y-78868283D01*
X167194023Y-78879697D01*
X167348845Y-79111405D01*
X167591967Y-79273854D01*
X167878750Y-79330899D01*
X167951138Y-79316500D01*
X181656362Y-79316500D01*
X181728750Y-79330899D01*
X181801138Y-79316500D01*
X182015533Y-79273854D01*
X182258655Y-79111405D01*
X182421104Y-78868283D01*
X182478149Y-78581500D01*
X182463750Y-78509112D01*
X182463750Y-64803888D01*
X182478149Y-64731500D01*
X186179351Y-64731500D01*
X186193750Y-64803888D01*
X186193751Y-78509107D01*
X186179351Y-78581500D01*
X186236396Y-78868283D01*
X186398845Y-79111405D01*
X186641967Y-79273854D01*
X186856362Y-79316500D01*
X186928750Y-79330899D01*
X187001138Y-79316500D01*
X200706362Y-79316500D01*
X200778750Y-79330899D01*
X200851138Y-79316500D01*
X201065533Y-79273854D01*
X201308655Y-79111405D01*
X201471104Y-78868283D01*
X201528149Y-78581500D01*
X201513750Y-78509112D01*
X201513750Y-64803888D01*
X201528149Y-64731500D01*
X205229351Y-64731500D01*
X205243750Y-64803888D01*
X205243751Y-78509107D01*
X205229351Y-78581500D01*
X205286396Y-78868283D01*
X205448845Y-79111405D01*
X205691967Y-79273854D01*
X205906362Y-79316500D01*
X205978750Y-79330899D01*
X206051138Y-79316500D01*
X219756362Y-79316500D01*
X219828750Y-79330899D01*
X219901138Y-79316500D01*
X220115533Y-79273854D01*
X220358655Y-79111405D01*
X220521104Y-78868283D01*
X220578149Y-78581500D01*
X220563750Y-78509112D01*
X220563750Y-64803888D01*
X220578149Y-64731500D01*
X224279351Y-64731500D01*
X224293751Y-64803893D01*
X224293750Y-78509112D01*
X224279351Y-78581500D01*
X224336396Y-78868283D01*
X224344023Y-78879697D01*
X224498845Y-79111405D01*
X224741967Y-79273854D01*
X225028750Y-79330899D01*
X225101138Y-79316500D01*
X238806362Y-79316500D01*
X238878750Y-79330899D01*
X238951138Y-79316500D01*
X239165533Y-79273854D01*
X239408655Y-79111405D01*
X239571104Y-78868283D01*
X239628149Y-78581500D01*
X239613750Y-78509112D01*
X239613750Y-64803888D01*
X239628149Y-64731500D01*
X239571104Y-64444717D01*
X239408655Y-64201595D01*
X239165533Y-64039146D01*
X238951138Y-63996500D01*
X238878750Y-63982101D01*
X238806362Y-63996500D01*
X225101138Y-63996500D01*
X225028750Y-63982101D01*
X224956362Y-63996500D01*
X224741967Y-64039146D01*
X224498845Y-64201595D01*
X224336396Y-64444717D01*
X224279351Y-64731500D01*
X220578149Y-64731500D01*
X220521104Y-64444717D01*
X220358655Y-64201595D01*
X220115533Y-64039146D01*
X219901138Y-63996500D01*
X219828750Y-63982101D01*
X219756362Y-63996500D01*
X206051138Y-63996500D01*
X205978750Y-63982101D01*
X205906362Y-63996500D01*
X205691967Y-64039146D01*
X205448845Y-64201595D01*
X205286396Y-64444717D01*
X205229351Y-64731500D01*
X201528149Y-64731500D01*
X201471104Y-64444717D01*
X201308655Y-64201595D01*
X201065533Y-64039146D01*
X200851138Y-63996500D01*
X200778750Y-63982101D01*
X200706362Y-63996500D01*
X187001138Y-63996500D01*
X186928750Y-63982101D01*
X186856362Y-63996500D01*
X186641967Y-64039146D01*
X186398845Y-64201595D01*
X186236396Y-64444717D01*
X186179351Y-64731500D01*
X182478149Y-64731500D01*
X182421104Y-64444717D01*
X182258655Y-64201595D01*
X182015533Y-64039146D01*
X181801138Y-63996500D01*
X181728750Y-63982101D01*
X181656362Y-63996500D01*
X167951138Y-63996500D01*
X167878750Y-63982101D01*
X167806362Y-63996500D01*
X167591967Y-64039146D01*
X167348845Y-64201595D01*
X167186396Y-64444717D01*
X167129351Y-64731500D01*
X163428149Y-64731500D01*
X163371104Y-64444717D01*
X163208655Y-64201595D01*
X162965533Y-64039146D01*
X162751138Y-63996500D01*
X162678750Y-63982101D01*
X162606362Y-63996500D01*
X148901138Y-63996500D01*
X148828750Y-63982101D01*
X148756362Y-63996500D01*
X148541967Y-64039146D01*
X148298845Y-64201595D01*
X148136396Y-64444717D01*
X148079351Y-64731500D01*
X144378149Y-64731500D01*
X144321104Y-64444717D01*
X144158655Y-64201595D01*
X143915533Y-64039146D01*
X143701138Y-63996500D01*
X143628750Y-63982101D01*
X143556362Y-63996500D01*
X129851138Y-63996500D01*
X129778750Y-63982101D01*
X129706362Y-63996500D01*
X129491967Y-64039146D01*
X129248845Y-64201595D01*
X129086396Y-64444717D01*
X129029351Y-64731500D01*
X125328149Y-64731500D01*
X125271104Y-64444717D01*
X125108655Y-64201595D01*
X124865533Y-64039146D01*
X124651138Y-63996500D01*
X124578750Y-63982101D01*
X124506362Y-63996500D01*
X110801138Y-63996500D01*
X110728750Y-63982101D01*
X110656362Y-63996500D01*
X110441967Y-64039146D01*
X110198845Y-64201595D01*
X110036396Y-64444717D01*
X109979351Y-64731500D01*
X106278149Y-64731500D01*
X106221104Y-64444717D01*
X106058655Y-64201595D01*
X105815533Y-64039146D01*
X105601138Y-63996500D01*
X105528750Y-63982101D01*
X105456362Y-63996500D01*
X91751138Y-63996500D01*
X91678750Y-63982101D01*
X91606362Y-63996500D01*
X91391967Y-64039146D01*
X91148845Y-64201595D01*
X90986396Y-64444717D01*
X90929351Y-64731500D01*
X87228149Y-64731500D01*
X87171104Y-64444717D01*
X87008655Y-64201595D01*
X86765533Y-64039146D01*
X86551138Y-63996500D01*
X86478750Y-63982101D01*
X86406362Y-63996500D01*
X72701138Y-63996500D01*
X72628750Y-63982101D01*
X72556362Y-63996500D01*
X72341967Y-64039146D01*
X72098845Y-64201595D01*
X71936396Y-64444717D01*
X71879351Y-64731500D01*
X68178149Y-64731500D01*
X68121104Y-64444717D01*
X67958655Y-64201595D01*
X67715533Y-64039146D01*
X67501138Y-63996500D01*
X67428750Y-63982101D01*
X67356362Y-63996500D01*
X53651138Y-63996500D01*
X53578750Y-63982101D01*
X53506362Y-63996500D01*
X53291967Y-64039146D01*
X53048845Y-64201595D01*
X52886396Y-64444717D01*
X52829351Y-64731500D01*
X52357750Y-64731500D01*
X52357750Y-61793880D01*
X87135934Y-61793880D01*
X87145000Y-62154322D01*
X87145000Y-62514895D01*
X87154656Y-62538206D01*
X87155290Y-62563427D01*
X87412545Y-63184496D01*
X87424631Y-63189986D01*
X87439586Y-63226090D01*
X87983910Y-63770414D01*
X88020014Y-63785369D01*
X88025504Y-63797455D01*
X88361974Y-63927013D01*
X88695105Y-64065000D01*
X88720335Y-64065000D01*
X88743880Y-64074066D01*
X89104322Y-64065000D01*
X89464895Y-64065000D01*
X89488206Y-64055344D01*
X89513427Y-64054710D01*
X90134496Y-63797455D01*
X90139986Y-63785369D01*
X90176090Y-63770414D01*
X90720414Y-63226090D01*
X90735369Y-63189986D01*
X90747455Y-63184496D01*
X90877013Y-62848026D01*
X91015000Y-62514895D01*
X91015000Y-62489665D01*
X91024066Y-62466120D01*
X91015000Y-62105678D01*
X91015000Y-61745105D01*
X91005344Y-61721794D01*
X91004710Y-61696573D01*
X90747455Y-61075504D01*
X90735369Y-61070014D01*
X90720414Y-61033910D01*
X90176090Y-60489586D01*
X90139986Y-60474631D01*
X90134496Y-60462545D01*
X89798026Y-60332987D01*
X89464895Y-60195000D01*
X89439665Y-60195000D01*
X89416120Y-60185934D01*
X89055678Y-60195000D01*
X88695105Y-60195000D01*
X88671794Y-60204656D01*
X88646573Y-60205290D01*
X88025504Y-60462545D01*
X88020014Y-60474631D01*
X87983910Y-60489586D01*
X87439586Y-61033910D01*
X87424631Y-61070014D01*
X87412545Y-61075504D01*
X87282987Y-61411974D01*
X87145000Y-61745105D01*
X87145000Y-61770335D01*
X87135934Y-61793880D01*
X52357750Y-61793880D01*
X52357750Y-45681500D01*
X52829351Y-45681500D01*
X52843751Y-45753893D01*
X52843750Y-59459112D01*
X52829351Y-59531500D01*
X52886396Y-59818283D01*
X53048845Y-60061405D01*
X53291967Y-60223854D01*
X53578750Y-60280899D01*
X53651138Y-60266500D01*
X67356362Y-60266500D01*
X67428750Y-60280899D01*
X67501138Y-60266500D01*
X67715533Y-60223854D01*
X67958655Y-60061405D01*
X68121104Y-59818283D01*
X68178149Y-59531500D01*
X68163750Y-59459112D01*
X68163750Y-45753888D01*
X68178149Y-45681500D01*
X71879351Y-45681500D01*
X71893750Y-45753888D01*
X71893751Y-59459107D01*
X71879351Y-59531500D01*
X71936396Y-59818283D01*
X72098845Y-60061405D01*
X72341967Y-60223854D01*
X72556362Y-60266500D01*
X72628750Y-60280899D01*
X72701138Y-60266500D01*
X86406362Y-60266500D01*
X86478750Y-60280899D01*
X86551138Y-60266500D01*
X86765533Y-60223854D01*
X87008655Y-60061405D01*
X87171104Y-59818283D01*
X87228149Y-59531500D01*
X87213750Y-59459112D01*
X87213750Y-45753888D01*
X87228149Y-45681500D01*
X90929351Y-45681500D01*
X90943751Y-45753893D01*
X90943750Y-59459112D01*
X90929351Y-59531500D01*
X90986396Y-59818283D01*
X91148845Y-60061405D01*
X91391967Y-60223854D01*
X91678750Y-60280899D01*
X91751138Y-60266500D01*
X105456362Y-60266500D01*
X105528750Y-60280899D01*
X105601138Y-60266500D01*
X105815533Y-60223854D01*
X106058655Y-60061405D01*
X106221104Y-59818283D01*
X106278149Y-59531500D01*
X106263750Y-59459112D01*
X106263750Y-45753888D01*
X106278149Y-45681500D01*
X109979351Y-45681500D01*
X109993750Y-45753888D01*
X109993751Y-59459107D01*
X109979351Y-59531500D01*
X110036396Y-59818283D01*
X110198845Y-60061405D01*
X110441967Y-60223854D01*
X110656362Y-60266500D01*
X110728750Y-60280899D01*
X110801138Y-60266500D01*
X124506362Y-60266500D01*
X124578750Y-60280899D01*
X124651138Y-60266500D01*
X124865533Y-60223854D01*
X125108655Y-60061405D01*
X125271104Y-59818283D01*
X125328149Y-59531500D01*
X125313750Y-59459112D01*
X125313750Y-45753888D01*
X125328149Y-45681500D01*
X129029351Y-45681500D01*
X129043751Y-45753893D01*
X129043750Y-59459112D01*
X129029351Y-59531500D01*
X129086396Y-59818283D01*
X129248845Y-60061405D01*
X129491967Y-60223854D01*
X129778750Y-60280899D01*
X129851138Y-60266500D01*
X143556362Y-60266500D01*
X143628750Y-60280899D01*
X143701138Y-60266500D01*
X143915533Y-60223854D01*
X144158655Y-60061405D01*
X144321104Y-59818283D01*
X144378149Y-59531500D01*
X144363750Y-59459112D01*
X144363750Y-45753888D01*
X144378149Y-45681500D01*
X148079351Y-45681500D01*
X148093750Y-45753888D01*
X148093751Y-59459107D01*
X148079351Y-59531500D01*
X148136396Y-59818283D01*
X148298845Y-60061405D01*
X148541967Y-60223854D01*
X148756362Y-60266500D01*
X148828750Y-60280899D01*
X148901138Y-60266500D01*
X162606362Y-60266500D01*
X162678750Y-60280899D01*
X162751138Y-60266500D01*
X162965533Y-60223854D01*
X163208655Y-60061405D01*
X163371104Y-59818283D01*
X163428149Y-59531500D01*
X163413750Y-59459112D01*
X163413750Y-45753888D01*
X163428149Y-45681500D01*
X167129351Y-45681500D01*
X167143750Y-45753888D01*
X167143751Y-59459107D01*
X167129351Y-59531500D01*
X167186396Y-59818283D01*
X167348845Y-60061405D01*
X167591967Y-60223854D01*
X167806362Y-60266500D01*
X167878750Y-60280899D01*
X167951138Y-60266500D01*
X181656362Y-60266500D01*
X181728750Y-60280899D01*
X181801138Y-60266500D01*
X182015533Y-60223854D01*
X182258655Y-60061405D01*
X182421104Y-59818283D01*
X182478149Y-59531500D01*
X182463750Y-59459112D01*
X182463750Y-45753888D01*
X182478149Y-45681500D01*
X186179351Y-45681500D01*
X186193750Y-45753888D01*
X186193751Y-59459107D01*
X186179351Y-59531500D01*
X186236396Y-59818283D01*
X186398845Y-60061405D01*
X186641967Y-60223854D01*
X186856362Y-60266500D01*
X186928750Y-60280899D01*
X187001138Y-60266500D01*
X200706362Y-60266500D01*
X200778750Y-60280899D01*
X200851138Y-60266500D01*
X201065533Y-60223854D01*
X201308655Y-60061405D01*
X201471104Y-59818283D01*
X201528149Y-59531500D01*
X201513750Y-59459112D01*
X201513750Y-45753888D01*
X201528149Y-45681500D01*
X205229351Y-45681500D01*
X205243750Y-45753888D01*
X205243751Y-59459107D01*
X205229351Y-59531500D01*
X205286396Y-59818283D01*
X205448845Y-60061405D01*
X205691967Y-60223854D01*
X205906362Y-60266500D01*
X205978750Y-60280899D01*
X206051138Y-60266500D01*
X219756362Y-60266500D01*
X219828750Y-60280899D01*
X219901138Y-60266500D01*
X220115533Y-60223854D01*
X220358655Y-60061405D01*
X220521104Y-59818283D01*
X220578149Y-59531500D01*
X220563750Y-59459112D01*
X220563750Y-45753888D01*
X220578149Y-45681500D01*
X224279351Y-45681500D01*
X224293751Y-45753893D01*
X224293750Y-59459112D01*
X224279351Y-59531500D01*
X224336396Y-59818283D01*
X224498845Y-60061405D01*
X224741967Y-60223854D01*
X225028750Y-60280899D01*
X225101138Y-60266500D01*
X238806362Y-60266500D01*
X238878750Y-60280899D01*
X238951138Y-60266500D01*
X239165533Y-60223854D01*
X239408655Y-60061405D01*
X239571104Y-59818283D01*
X239628149Y-59531500D01*
X239613750Y-59459112D01*
X239613750Y-45753888D01*
X239628149Y-45681500D01*
X239571104Y-45394717D01*
X239408655Y-45151595D01*
X239165533Y-44989146D01*
X238951138Y-44946500D01*
X238878750Y-44932101D01*
X238806362Y-44946500D01*
X225101138Y-44946500D01*
X225028750Y-44932101D01*
X224956362Y-44946500D01*
X224741967Y-44989146D01*
X224498845Y-45151595D01*
X224336396Y-45394717D01*
X224279351Y-45681500D01*
X220578149Y-45681500D01*
X220521104Y-45394717D01*
X220358655Y-45151595D01*
X220115533Y-44989146D01*
X219901138Y-44946500D01*
X219828750Y-44932101D01*
X219756362Y-44946500D01*
X206051138Y-44946500D01*
X205978750Y-44932101D01*
X205906362Y-44946500D01*
X205691967Y-44989146D01*
X205448845Y-45151595D01*
X205286396Y-45394717D01*
X205229351Y-45681500D01*
X201528149Y-45681500D01*
X201471104Y-45394717D01*
X201308655Y-45151595D01*
X201065533Y-44989146D01*
X200851138Y-44946500D01*
X200778750Y-44932101D01*
X200706362Y-44946500D01*
X187001138Y-44946500D01*
X186928750Y-44932101D01*
X186856362Y-44946500D01*
X186641967Y-44989146D01*
X186398845Y-45151595D01*
X186236396Y-45394717D01*
X186179351Y-45681500D01*
X182478149Y-45681500D01*
X182421104Y-45394717D01*
X182258655Y-45151595D01*
X182015533Y-44989146D01*
X181801138Y-44946500D01*
X181728750Y-44932101D01*
X181656362Y-44946500D01*
X167951138Y-44946500D01*
X167878750Y-44932101D01*
X167806362Y-44946500D01*
X167591967Y-44989146D01*
X167348845Y-45151595D01*
X167186396Y-45394717D01*
X167129351Y-45681500D01*
X163428149Y-45681500D01*
X163371104Y-45394717D01*
X163208655Y-45151595D01*
X162965533Y-44989146D01*
X162751138Y-44946500D01*
X162678750Y-44932101D01*
X162606362Y-44946500D01*
X148901138Y-44946500D01*
X148828750Y-44932101D01*
X148756362Y-44946500D01*
X148541967Y-44989146D01*
X148298845Y-45151595D01*
X148136396Y-45394717D01*
X148079351Y-45681500D01*
X144378149Y-45681500D01*
X144321104Y-45394717D01*
X144158655Y-45151595D01*
X143915533Y-44989146D01*
X143701138Y-44946500D01*
X143628750Y-44932101D01*
X143556362Y-44946500D01*
X129851138Y-44946500D01*
X129778750Y-44932101D01*
X129706362Y-44946500D01*
X129491967Y-44989146D01*
X129248845Y-45151595D01*
X129086396Y-45394717D01*
X129029351Y-45681500D01*
X125328149Y-45681500D01*
X125271104Y-45394717D01*
X125108655Y-45151595D01*
X124865533Y-44989146D01*
X124651138Y-44946500D01*
X124578750Y-44932101D01*
X124506362Y-44946500D01*
X110801138Y-44946500D01*
X110728750Y-44932101D01*
X110656362Y-44946500D01*
X110441967Y-44989146D01*
X110198845Y-45151595D01*
X110036396Y-45394717D01*
X109979351Y-45681500D01*
X106278149Y-45681500D01*
X106221104Y-45394717D01*
X106058655Y-45151595D01*
X105815533Y-44989146D01*
X105601138Y-44946500D01*
X105528750Y-44932101D01*
X105456362Y-44946500D01*
X91751138Y-44946500D01*
X91678750Y-44932101D01*
X91606362Y-44946500D01*
X91391967Y-44989146D01*
X91148845Y-45151595D01*
X90986396Y-45394717D01*
X90929351Y-45681500D01*
X87228149Y-45681500D01*
X87171104Y-45394717D01*
X87008655Y-45151595D01*
X86765533Y-44989146D01*
X86551138Y-44946500D01*
X86478750Y-44932101D01*
X86406362Y-44946500D01*
X72701138Y-44946500D01*
X72628750Y-44932101D01*
X72556362Y-44946500D01*
X72341967Y-44989146D01*
X72098845Y-45151595D01*
X71936396Y-45394717D01*
X71879351Y-45681500D01*
X68178149Y-45681500D01*
X68121104Y-45394717D01*
X67958655Y-45151595D01*
X67715533Y-44989146D01*
X67501138Y-44946500D01*
X67428750Y-44932101D01*
X67356362Y-44946500D01*
X53651138Y-44946500D01*
X53578750Y-44932101D01*
X53506362Y-44946500D01*
X53291967Y-44989146D01*
X53048845Y-45151595D01*
X52886396Y-45394717D01*
X52829351Y-45681500D01*
X52357750Y-45681500D01*
X52357750Y-43933880D01*
X239535934Y-43933880D01*
X239545000Y-44294322D01*
X239545000Y-44654895D01*
X239554656Y-44678206D01*
X239555290Y-44703427D01*
X239812545Y-45324496D01*
X239824631Y-45329986D01*
X239839586Y-45366090D01*
X240383910Y-45910414D01*
X240420014Y-45925369D01*
X240425504Y-45937455D01*
X240761974Y-46067013D01*
X241095105Y-46205000D01*
X241120335Y-46205000D01*
X241143880Y-46214066D01*
X241504322Y-46205000D01*
X241864895Y-46205000D01*
X241888206Y-46195344D01*
X241913427Y-46194710D01*
X242534496Y-45937455D01*
X242539986Y-45925369D01*
X242576090Y-45910414D01*
X243120414Y-45366090D01*
X243135369Y-45329986D01*
X243147455Y-45324496D01*
X243277013Y-44988026D01*
X243415000Y-44654895D01*
X243415000Y-44629665D01*
X243424066Y-44606120D01*
X243415000Y-44245678D01*
X243415000Y-43885105D01*
X243405344Y-43861794D01*
X243404710Y-43836573D01*
X243147455Y-43215504D01*
X243135369Y-43210014D01*
X243120414Y-43173910D01*
X242576090Y-42629586D01*
X242539986Y-42614631D01*
X242534496Y-42602545D01*
X242198026Y-42472987D01*
X241864895Y-42335000D01*
X241839665Y-42335000D01*
X241816120Y-42325934D01*
X241455678Y-42335000D01*
X241095105Y-42335000D01*
X241071794Y-42344656D01*
X241046573Y-42345290D01*
X240425504Y-42602545D01*
X240420014Y-42614631D01*
X240383910Y-42629586D01*
X239839586Y-43173910D01*
X239824631Y-43210014D01*
X239812545Y-43215504D01*
X239682987Y-43551974D01*
X239545000Y-43885105D01*
X239545000Y-43910335D01*
X239535934Y-43933880D01*
X52357750Y-43933880D01*
X52357750Y-42827864D01*
X52415794Y-42422560D01*
X52563364Y-42097996D01*
X52796100Y-41827893D01*
X53095289Y-41633968D01*
X53461229Y-41524530D01*
X53650023Y-41510500D01*
X242924386Y-41510500D01*
X243329690Y-41568544D01*
G36*
X245711750Y-93530649D02*
X245711750Y-42703112D01*
X245706398Y-42676205D01*
X245687761Y-42425412D01*
X245671659Y-42352177D01*
X245661485Y-42277903D01*
X245658965Y-42269285D01*
X245496488Y-41726000D01*
X245454640Y-41635432D01*
X245413914Y-41544389D01*
X245409077Y-41536824D01*
X245100649Y-41060978D01*
X245035060Y-40985793D01*
X244970422Y-40909843D01*
X244963656Y-40903940D01*
X244534071Y-40533785D01*
X244449998Y-40480018D01*
X244366658Y-40425274D01*
X244358507Y-40421507D01*
X243842299Y-40186802D01*
X243746529Y-40158797D01*
X243651160Y-40129640D01*
X243642280Y-40128312D01*
X243100619Y-40050740D01*
X243049138Y-40040500D01*
X129385162Y-40040500D01*
X246582060Y-39617210D01*
X245711750Y-93530649D01*
X245711750Y-93530649D01*
G37*
X245711750Y-93530649D02*
X245711750Y-42703112D01*
X245706398Y-42676205D01*
X245687761Y-42425412D01*
X245671659Y-42352177D01*
X245661485Y-42277903D01*
X245658965Y-42269285D01*
X245496488Y-41726000D01*
X245454640Y-41635432D01*
X245413914Y-41544389D01*
X245409077Y-41536824D01*
X245100649Y-41060978D01*
X245035060Y-40985793D01*
X244970422Y-40909843D01*
X244963656Y-40903940D01*
X244534071Y-40533785D01*
X244449998Y-40480018D01*
X244366658Y-40425274D01*
X244358507Y-40421507D01*
X243842299Y-40186802D01*
X243746529Y-40158797D01*
X243651160Y-40129640D01*
X243642280Y-40128312D01*
X243100619Y-40050740D01*
X243049138Y-40040500D01*
X129385162Y-40040500D01*
X246582060Y-39617210D01*
X245711750Y-93530649D01*
G36*
X29833043Y-80717190D02*
X29757093Y-80781828D01*
X29751190Y-80788594D01*
X29381035Y-81218179D01*
X29327268Y-81302252D01*
X29317552Y-81317044D01*
X29317091Y-80676008D01*
X29885352Y-80671558D01*
X29833043Y-80717190D01*
X29833043Y-80717190D01*
G37*
X29833043Y-80717190D02*
X29757093Y-80781828D01*
X29751190Y-80788594D01*
X29381035Y-81218179D01*
X29327268Y-81302252D01*
X29317552Y-81317044D01*
X29317091Y-80676008D01*
X29885352Y-80671558D01*
X29833043Y-80717190D01*
M02*
