0
SECTION
2
HEADER
9
$INSUNITS
70
4
9
$ACADVER
1
AC1014
9
$HANDSEED
5
FFFF
0
ENDSEC
0
SECTION
2
TABLES
0
TABLE
2
VPORT
5
8
100
AcDbSymbolTable
0
ENDTAB
0
TABLE
2
LTYPE
5
5
100
AcDbSymbolTable
0
LTYPE
5
14
100
AcDbSymbolTableRecord
100
AcDbLinetypeTableRecord
2
BYBLOCK
70
0
0
LTYPE
5
15
100
AcDbSymbolTableRecord
100
AcDbLinetypeTableRecord
2
BYLAYER
70
0
0
ENDTAB
0
TABLE
2
LAYER
5
2
100
AcDbSymbolTable
70
2
0
LAYER
5
50
100
AcDbSymbolTableRecord
100
AcDbLayerTableRecord
2
0
70
0
6
CONTINUOUS
0
ENDTAB
0
TABLE
2
STYLE
5
3
100
AcDbSymbolTable
70
1
0
STYLE
5
11
100
AcDbSymbolTableRecord
100
AcDbTextStyleTableRecord
2
STANDARD
70
0
0
ENDTAB
0
TABLE
2
VIEW
5
6
100
AcDbSymbolTable
70
0
0
ENDTAB
0
TABLE
2
UCS
5
7
100
AcDbSymbolTable
70
0
0
ENDTAB
0
TABLE
2
APPID
5
9
100
AcDbSymbolTable
70
2
0
APPID
5
12
100
AcDbSymbolTableRecord
100
AcDbRegAppTableRecord
2
ACAD
70
0
0
ENDTAB
0
TABLE
2
DIMSTYLE
5
A
100
AcDbSymbolTable
70
1
0
ENDTAB
0
TABLE
2
BLOCK_RECORD
5
1
100
AcDbSymbolTable
70
1
0
BLOCK_RECORD
5
1F
100
AcDbSymbolTableRecord
100
AcDbBlockTableRecord
2
*MODEL_SPACE
0
BLOCK_RECORD
5
1B
100
AcDbSymbolTableRecord
100
AcDbBlockTableRecord
2
*PAPER_SPACE
0
ENDTAB
0
ENDSEC
0
SECTION
2
BLOCKS
0
BLOCK
5
20
100
AcDbEntity
100
AcDbBlockBegin
2
*MODEL_SPACE
0
ENDBLK
5
21
100
AcDbEntity
100
AcDbBlockEnd
0
BLOCK
5
1C
100
AcDbEntity
100
AcDbBlockBegin
2
*PAPER_SPACE
0
ENDBLK
5
1D
100
AcDbEntity
100
AcDbBlockEnd
0
ENDSEC
0
SECTION
2
ENTITIES
0
LWPOLYLINE
5
100
100
AcDbEntity
8
0
100
AcDbPolyline
90
12
70
1
43
0.0
10
142.56899999999999
20
-202.33199999999999
10
353.923
20
-202.33199999999999
42
0.41421356237307422
10
355.92299999999994
20
-200.33199999999999
10
355.923
20
-123.51899999999999
42
0.41421356237306639
10
353.923
20
-121.51899999999999
10
164.56899999999996
20
-121.51899999999998
42
0.41421356237309764
10
162.56899999999999
20
-123.51899999999999
10
162.56899999999996
20
-159.51899999999998
42
-0.41421356237309764
10
160.56899999999999
20
-161.51899999999998
10
142.56899999999999
20
-161.51899999999998
42
0.41421356237309503
10
140.56899999999999
20
-163.51899999999998
10
140.56899999999996
20
-200.33199999999999
42
0.41421356237309764
0
LWPOLYLINE
5
101
100
AcDbEntity
8
0
100
AcDbPolyline
90
4
70
1
43
0.0
10
164.52500000000001
20
-126.425
10
178.37500000000003
20
-126.425
10
178.37500000000003
20
-140.27500000000001
10
164.52500000000001
20
-140.27500000000001
0
LWPOLYLINE
5
102
100
AcDbEntity
8
0
100
AcDbPolyline
90
4
70
1
43
0.0
10
197.42500000000004
20
-126.425
10
183.57499999999999
20
-126.425
10
183.57499999999999
20
-140.27500000000001
10
197.42500000000004
20
-140.27500000000001
0
LWPOLYLINE
5
103
100
AcDbEntity
8
0
100
AcDbPolyline
90
4
70
1
43
0.0
10
202.62500000000003
20
-126.425
10
216.47500000000002
20
-126.425
10
216.47500000000002
20
-140.27500000000001
10
202.62500000000003
20
-140.27500000000001
0
LWPOLYLINE
5
104
100
AcDbEntity
8
0
100
AcDbPolyline
90
4
70
1
43
0.0
10
235.52500000000003
20
-126.425
10
221.67500000000004
20
-126.425
10
221.67500000000004
20
-140.27500000000001
10
235.52500000000003
20
-140.27500000000001
0
LWPOLYLINE
5
105
100
AcDbEntity
8
0
100
AcDbPolyline
90
4
70
1
43
0.0
10
240.72500000000002
20
-126.425
10
254.57499999999999
20
-126.425
10
254.57499999999999
20
-140.27500000000001
10
240.72500000000002
20
-140.27500000000001
0
LWPOLYLINE
5
106
100
AcDbEntity
8
0
100
AcDbPolyline
90
4
70
1
43
0.0
10
273.625
20
-126.425
10
259.77499999999998
20
-126.425
10
259.77499999999998
20
-140.27500000000001
10
273.625
20
-140.27500000000001
0
LWPOLYLINE
5
107
100
AcDbEntity
8
0
100
AcDbPolyline
90
4
70
1
43
0.0
10
292.67500000000001
20
-126.425
10
278.82499999999999
20
-126.425
10
278.82499999999999
20
-140.27500000000001
10
292.67500000000001
20
-140.27500000000001
0
LWPOLYLINE
5
108
100
AcDbEntity
8
0
100
AcDbPolyline
90
4
70
1
43
0.0
10
311.72500000000002
20
-126.425
10
297.875
20
-126.425
10
297.875
20
-140.27500000000001
10
311.72500000000002
20
-140.27500000000001
0
LWPOLYLINE
5
109
100
AcDbEntity
8
0
100
AcDbPolyline
90
4
70
1
43
0.0
10
330.77499999999998
20
-126.425
10
316.92500000000001
20
-126.425
10
316.92500000000001
20
-140.27500000000001
10
330.77499999999998
20
-140.27500000000001
0
LWPOLYLINE
5
110
100
AcDbEntity
8
0
100
AcDbPolyline
90
4
70
1
43
0.0
10
349.82500000000005
20
-140.27500000000001
10
335.97500000000002
20
-140.27500000000001
10
335.97500000000002
20
-126.425
10
349.82500000000005
20
-126.425
0
LWPOLYLINE
5
111
100
AcDbEntity
8
0
100
AcDbPolyline
90
4
70
1
43
0.0
10
335.97500000000002
20
-145.47499999999999
10
349.82500000000005
20
-145.47499999999999
10
349.82500000000005
20
-159.32499999999999
10
335.97500000000002
20
-159.32499999999999
0
LWPOLYLINE
5
112
100
AcDbEntity
8
0
100
AcDbPolyline
90
4
70
1
43
0.0
10
335.97500000000002
20
-164.52500000000001
10
349.82500000000005
20
-164.52500000000001
10
349.82500000000005
20
-178.37500000000003
10
335.97500000000002
20
-178.37500000000003
0
LWPOLYLINE
5
113
100
AcDbEntity
8
0
100
AcDbPolyline
90
4
70
1
43
0.0
10
330.77499999999998
20
-145.47499999999999
10
316.92500000000001
20
-145.47499999999999
10
316.92500000000001
20
-159.32499999999999
10
330.77499999999998
20
-159.32499999999999
0
LWPOLYLINE
5
114
100
AcDbEntity
8
0
100
AcDbPolyline
90
4
70
1
43
0.0
10
297.875
20
-159.32499999999999
10
311.72500000000002
20
-159.32499999999999
10
311.72500000000002
20
-145.47499999999999
10
297.875
20
-145.47499999999999
0
LWPOLYLINE
5
115
100
AcDbEntity
8
0
100
AcDbPolyline
90
4
70
1
43
0.0
10
278.82499999999999
20
-145.47499999999999
10
292.67500000000001
20
-145.47499999999999
10
292.67500000000001
20
-159.32499999999999
10
278.82499999999999
20
-159.32499999999999
0
LWPOLYLINE
5
116
100
AcDbEntity
8
0
100
AcDbPolyline
90
4
70
1
43
0.0
10
330.77499999999998
20
-164.52500000000001
10
316.92500000000001
20
-164.52500000000001
10
316.92500000000001
20
-178.37500000000003
10
330.77499999999998
20
-178.37500000000003
0
LWPOLYLINE
5
117
100
AcDbEntity
8
0
100
AcDbPolyline
90
4
70
1
43
0.0
10
297.875
20
-183.57499999999999
10
311.72500000000002
20
-183.57499999999999
10
311.72500000000002
20
-197.42500000000004
10
297.875
20
-197.42500000000004
0
LWPOLYLINE
5
118
100
AcDbEntity
8
0
100
AcDbPolyline
90
4
70
1
43
0.0
10
297.875
20
-164.52500000000001
10
311.72500000000002
20
-164.52500000000001
10
311.72500000000002
20
-178.37500000000003
10
297.875
20
-178.37500000000003
0
LWPOLYLINE
5
119
100
AcDbEntity
8
0
100
AcDbPolyline
90
4
70
1
43
0.0
10
278.82499999999999
20
-164.52500000000001
10
292.67500000000001
20
-164.52500000000001
10
292.67500000000001
20
-178.37500000000003
10
278.82499999999999
20
-178.37500000000003
0
LWPOLYLINE
5
120
100
AcDbEntity
8
0
100
AcDbPolyline
90
4
70
1
43
0.0
10
259.77499999999998
20
-197.42500000000004
10
292.67500000000001
20
-197.42500000000004
10
292.67500000000001
20
-183.57499999999999
10
259.77499999999998
20
-183.57499999999999
0
LWPOLYLINE
5
121
100
AcDbEntity
8
0
100
AcDbPolyline
90
4
70
1
43
0.0
10
259.77499999999998
20
-164.52500000000001
10
273.625
20
-164.52500000000001
10
273.625
20
-178.37500000000003
10
259.77499999999998
20
-178.37500000000003
0
LWPOLYLINE
5
122
100
AcDbEntity
8
0
100
AcDbPolyline
90
4
70
1
43
0.0
10
221.67500000000004
20
-183.57499999999999
10
254.57499999999999
20
-183.57499999999999
10
254.57499999999999
20
-197.42500000000004
10
221.67500000000004
20
-197.42500000000004
0
LWPOLYLINE
5
123
100
AcDbEntity
8
0
100
AcDbPolyline
90
4
70
1
43
0.0
10
202.62500000000003
20
-197.42500000000004
10
216.47500000000002
20
-197.42500000000004
10
216.47500000000002
20
-183.57499999999999
10
202.62500000000003
20
-183.57499999999999
0
LWPOLYLINE
5
124
100
AcDbEntity
8
0
100
AcDbPolyline
90
4
70
1
43
0.0
10
240.72500000000002
20
-164.52500000000001
10
254.57499999999999
20
-164.52500000000001
10
254.57499999999999
20
-178.37500000000003
10
240.72500000000002
20
-178.37500000000003
0
LWPOLYLINE
5
125
100
AcDbEntity
8
0
100
AcDbPolyline
90
4
70
1
43
0.0
10
259.77499999999998
20
-145.47499999999999
10
273.625
20
-145.47499999999999
10
273.625
20
-159.32499999999999
10
259.77499999999998
20
-159.32499999999999
0
LWPOLYLINE
5
126
100
AcDbEntity
8
0
100
AcDbPolyline
90
4
70
1
43
0.0
10
240.72500000000002
20
-145.47499999999999
10
254.57499999999999
20
-145.47499999999999
10
254.57499999999999
20
-159.32499999999999
10
240.72500000000002
20
-159.32499999999999
0
LWPOLYLINE
5
127
100
AcDbEntity
8
0
100
AcDbPolyline
90
4
70
1
43
0.0
10
235.52500000000003
20
-145.47499999999999
10
221.67500000000004
20
-145.47499999999999
10
221.67500000000004
20
-159.32499999999999
10
235.52500000000003
20
-159.32499999999999
0
LWPOLYLINE
5
128
100
AcDbEntity
8
0
100
AcDbPolyline
90
4
70
1
43
0.0
10
235.52500000000003
20
-164.52500000000001
10
221.67500000000004
20
-164.52500000000001
10
221.67500000000004
20
-178.37500000000003
10
235.52500000000003
20
-178.37500000000003
0
LWPOLYLINE
5
129
100
AcDbEntity
8
0
100
AcDbPolyline
90
4
70
1
43
0.0
10
216.47500000000002
20
-164.52500000000001
10
202.62500000000003
20
-164.52500000000001
10
202.62500000000003
20
-178.37500000000003
10
216.47500000000002
20
-178.37500000000003
0
LWPOLYLINE
5
130
100
AcDbEntity
8
0
100
AcDbPolyline
90
4
70
1
43
0.0
10
216.47500000000002
20
-145.47499999999999
10
202.62500000000003
20
-145.47499999999999
10
202.62500000000003
20
-159.32499999999999
10
216.47500000000002
20
-159.32499999999999
0
LWPOLYLINE
5
131
100
AcDbEntity
8
0
100
AcDbPolyline
90
4
70
1
43
0.0
10
197.42500000000004
20
-145.47499999999999
10
183.57499999999999
20
-145.47499999999999
10
183.57499999999999
20
-159.32499999999999
10
197.42500000000004
20
-159.32499999999999
0
LWPOLYLINE
5
132
100
AcDbEntity
8
0
100
AcDbPolyline
90
4
70
1
43
0.0
10
183.57499999999999
20
-164.52500000000001
10
197.42500000000004
20
-164.52500000000001
10
197.42500000000004
20
-178.37500000000003
10
183.57499999999999
20
-178.37500000000003
0
LWPOLYLINE
5
133
100
AcDbEntity
8
0
100
AcDbPolyline
90
4
70
1
43
0.0
10
178.37500000000003
20
-164.52500000000001
10
164.52500000000001
20
-164.52500000000001
10
164.52500000000001
20
-178.37500000000003
10
178.37500000000003
20
-178.37500000000003
0
LWPOLYLINE
5
134
100
AcDbEntity
8
0
100
AcDbPolyline
90
4
70
1
43
0.0
10
145.47499999999999
20
-164.52500000000001
10
159.32499999999999
20
-164.52500000000001
10
159.32499999999999
20
-178.37500000000003
10
145.47499999999999
20
-178.37500000000003
0
LWPOLYLINE
5
135
100
AcDbEntity
8
0
100
AcDbPolyline
90
4
70
1
43
0.0
10
164.52500000000001
20
-145.47499999999999
10
178.37500000000003
20
-145.47499999999999
10
178.37500000000003
20
-159.32499999999999
10
164.52500000000001
20
-159.32499999999999
0
CIRCLE
5
136
100
AcDbEntity
8
0
100
AcDbCircle
10
144.06577921674668
20
-198.83532274160231
30
0
40
1.1000000000000001
0
CIRCLE
5
137
100
AcDbEntity
8
0
100
AcDbCircle
10
200.02574372469635
20
-142.87550000000002
30
0
40
1.1000000000000001
0
CIRCLE
5
138
100
AcDbEntity
8
0
100
AcDbCircle
10
257.17580139788521
20
-180.9753774072492
30
0
40
1.1000000000000001
0
CIRCLE
5
139
100
AcDbEntity
8
0
100
AcDbCircle
10
352.42663983387797
20
-198.83524612813784
30
0
40
1.1000000000000001
0
CIRCLE
5
140
100
AcDbEntity
8
0
100
AcDbCircle
10
352.42620077794862
20
-125.01606870118609
30
0
40
1.1000000000000001
0
ENDSEC
0
SECTION
2
OBJECTS
0
DICTIONARY
5
C
100
AcDbDictionary
3
ACAD_GROUP
350
D
3
ACAD_MLINESTYLE
350
17
0
DICTIONARY
5
D
100
AcDbDictionary
0
DICTIONARY
5
1A
330
C
100
AcDbDictionary
0
DICTIONARY
5
17
100
AcDbDictionary
0
ENDSEC
0
EOF
