  0
SECTION
  2
HEADER
  9
$ANGBASE
  50
0.0
  9
$ANGDIR
  70
  1
  9
$MEASUREMENT
  70
0
  0
ENDSEC
  0
SECTION
  2
TABLES
  0
TABLE
  2
LTYPE
  70
4
  0
LTYPE
  5
40F
  2
CONTINUOUS
  70
0
  3
Solid line
  72
65
  73
0
  40
0.0
  0
LTYPE
  5
410
  2
DASHDOT
 70
0
  3
Dash Dot ____ _ ____ _
 72
65
 73
4
 40
2.0
 49
1.25
 49
-0.25
 49
0.25
 49
-0.25
  0
LTYPE
  5
411
  2
DASHED
 70
0
  3
Dashed __ __ __ __ __
 72
65
 73
2
 40
0.75
 49
0.5
 49
-0.25
  0
LTYPE
  5
43B
  2
DOTTED
 70
0
  3
Dotted .  .  .  .
 72
65
 73
2
 40
0.2
 49
0.0
 49
-0.2
  0
ENDTAB
  0
TABLE
  2
STYLE
  70
4
  0
STYLE
  2
KICAD
  70
0
  40
0
  41
1
  42
1
  50
0
  71
0
  3
isocp.shx
  0
STYLE
  2
KICADB
  70
0
  40
0
  41
1
  42
1
  50
0
  71
0
  3
isocp.shx
  0
STYLE
  2
KICADI
  70
0
  40
0
  41
1
  42
1
  50
15
  71
0
  3
isocp.shx
  0
STYLE
  2
KICADBI
  70
0
  40
0
  41
1
  42
1
  50
15
  71
0
  3
isocp.shx
  0
ENDTAB
  0
TABLE
  2
LAYER
  70
30
  0
LAYER
  2
BLACK
  70
0
  62
7
  6
CONTINUOUS
  0
LAYER
  2
GRAY1
  70
0
  62
251
  6
CONTINUOUS
  0
LAYER
  2
GRAY2
  70
0
  62
8
  6
CONTINUOUS
  0
LAYER
  2
GRAY3
  70
0
  62
9
  6
CONTINUOUS
  0
LAYER
  2
WHITE
  70
0
  62
7
  6
CONTINUOUS
  0
LAYER
  2
LYELLOW
  70
0
  62
51
  6
CONTINUOUS
  0
LAYER
  2
BLUE1
  70
0
  62
178
  6
CONTINUOUS
  0
LAYER
  2
GREEN1
  70
0
  62
98
  6
CONTINUOUS
  0
LAYER
  2
CYAN1
  70
0
  62
138
  6
CONTINUOUS
  0
LAYER
  2
RED1
  70
0
  62
18
  6
CONTINUOUS
  0
LAYER
  2
MAGENTA1
  70
0
  62
228
  6
CONTINUOUS
  0
LAYER
  2
BROWN1
  70
0
  62
58
  6
CONTINUOUS
  0
LAYER
  2
BLUE2
  70
0
  62
5
  6
CONTINUOUS
  0
LAYER
  2
GREEN2
  70
0
  62
3
  6
CONTINUOUS
  0
LAYER
  2
CYAN2
  70
0
  62
4
  6
CONTINUOUS
  0
LAYER
  2
RED2
  70
0
  62
1
  6
CONTINUOUS
  0
LAYER
  2
MAGENTA2
  70
0
  62
6
  6
CONTINUOUS
  0
LAYER
  2
BROWN2
  70
0
  62
54
  6
CONTINUOUS
  0
LAYER
  2
BLUE3
  70
0
  62
171
  6
CONTINUOUS
  0
LAYER
  2
GREEN3
  70
0
  62
91
  6
CONTINUOUS
  0
LAYER
  2
CYAN3
  70
0
  62
131
  6
CONTINUOUS
  0
LAYER
  2
RED3
  70
0
  62
11
  6
CONTINUOUS
  0
LAYER
  2
MAGENTA3
  70
0
  62
221
  6
CONTINUOUS
  0
LAYER
  2
YELLOW3
  70
0
  62
2
  6
CONTINUOUS
  0
LAYER
  2
BLUE4
  70
0
  62
5
  6
CONTINUOUS
  0
LAYER
  2
GREEN4
  70
0
  62
3
  6
CONTINUOUS
  0
LAYER
  2
CYAN4
  70
0
  62
4
  6
CONTINUOUS
  0
LAYER
  2
RED4
  70
0
  62
1
  6
CONTINUOUS
  0
LAYER
  2
MAGENTA4
  70
0
  62
6
  6
CONTINUOUS
  0
LAYER
  2
YELLOW4
  70
0
  62
2
  6
CONTINUOUS
  0
ENDTAB
  0
ENDSEC
  0
SECTION
  2
ENTITIES
0
LINE
8
BLACK
6
CONTINUOUS
10
354.881
20
-202.413
11
354.881
21
-202.419
0
LINE
8
BLACK
6
CONTINUOUS
10
354.881
20
-202.419
11
354.879
21
-202.426
0
LINE
8
BLACK
6
CONTINUOUS
10
354.879
20
-202.426
11
354.878
21
-202.432
0
LINE
8
BLACK
6
CONTINUOUS
10
354.878
20
-202.432
11
354.874
21
-202.438
0
LINE
8
BLACK
6
CONTINUOUS
10
354.874
20
-202.438
11
354.872
21
-202.444
0
LINE
8
BLACK
6
CONTINUOUS
10
354.872
20
-202.444
11
354.868
21
-202.449
0
LINE
8
BLACK
6
CONTINUOUS
10
354.868
20
-202.449
11
354.865
21
-202.455
0
LINE
8
BLACK
6
CONTINUOUS
10
354.865
20
-202.455
11
354.859
21
-202.459
0
LINE
8
BLACK
6
CONTINUOUS
10
354.859
20
-202.459
11
354.855
21
-202.465
0
LINE
8
BLACK
6
CONTINUOUS
10
354.855
20
-202.465
11
354.849
21
-202.468
0
LINE
8
BLACK
6
CONTINUOUS
10
354.849
20
-202.468
11
354.844
21
-202.472
0
LINE
8
BLACK
6
CONTINUOUS
10
354.844
20
-202.472
11
354.838
21
-202.474
0
LINE
8
BLACK
6
CONTINUOUS
10
354.838
20
-202.474
11
354.832
21
-202.478
0
LINE
8
BLACK
6
CONTINUOUS
10
354.832
20
-202.478
11
354.826
21
-202.479
0
LINE
8
BLACK
6
CONTINUOUS
10
354.826
20
-202.479
11
354.819
21
-202.481
0
LINE
8
BLACK
6
CONTINUOUS
10
354.819
20
-202.481
11
354.813
21
-202.481
0
LINE
8
BLACK
6
CONTINUOUS
10
354.813
20
-202.481
11
354.813
21
-202.481
0
LINE
8
BLACK
6
CONTINUOUS
10
354.813
20
-202.481
11
140.487
21
-202.481
0
LINE
8
BLACK
6
CONTINUOUS
10
140.487
20
-202.481
11
140.487
21
-202.481
0
LINE
8
BLACK
6
CONTINUOUS
10
140.487
20
-202.481
11
140.481
21
-202.481
0
LINE
8
BLACK
6
CONTINUOUS
10
140.481
20
-202.481
11
140.474
21
-202.479
0
LINE
8
BLACK
6
CONTINUOUS
10
140.474
20
-202.479
11
140.468
21
-202.478
0
LINE
8
BLACK
6
CONTINUOUS
10
140.468
20
-202.478
11
140.462
21
-202.474
0
LINE
8
BLACK
6
CONTINUOUS
10
140.462
20
-202.474
11
140.456
21
-202.472
0
LINE
8
BLACK
6
CONTINUOUS
10
140.456
20
-202.472
11
140.451
21
-202.468
0
LINE
8
BLACK
6
CONTINUOUS
10
140.451
20
-202.468
11
140.445
21
-202.465
0
LINE
8
BLACK
6
CONTINUOUS
10
140.445
20
-202.465
11
140.441
21
-202.459
0
LINE
8
BLACK
6
CONTINUOUS
10
140.441
20
-202.459
11
140.435
21
-202.455
0
LINE
8
BLACK
6
CONTINUOUS
10
140.435
20
-202.455
11
140.432
21
-202.449
0
LINE
8
BLACK
6
CONTINUOUS
10
140.432
20
-202.449
11
140.428
21
-202.444
0
LINE
8
BLACK
6
CONTINUOUS
10
140.428
20
-202.444
11
140.426
21
-202.438
0
LINE
8
BLACK
6
CONTINUOUS
10
140.426
20
-202.438
11
140.422
21
-202.432
0
LINE
8
BLACK
6
CONTINUOUS
10
140.422
20
-202.432
11
140.421
21
-202.426
0
LINE
8
BLACK
6
CONTINUOUS
10
140.421
20
-202.426
11
140.419
21
-202.419
0
LINE
8
BLACK
6
CONTINUOUS
10
140.419
20
-202.419
11
140.419
21
-202.413
0
LINE
8
BLACK
6
CONTINUOUS
10
140.419
20
-202.413
11
140.419
21
-202.413
0
LINE
8
BLACK
6
CONTINUOUS
10
140.419
20
-202.413
11
140.419
21
-121.437
0
LINE
8
BLACK
6
CONTINUOUS
10
140.419
20
-121.437
11
140.419
21
-121.431
0
LINE
8
BLACK
6
CONTINUOUS
10
140.419
20
-121.431
11
140.421
21
-121.424
0
LINE
8
BLACK
6
CONTINUOUS
10
140.421
20
-121.424
11
140.422
21
-121.418
0
LINE
8
BLACK
6
CONTINUOUS
10
140.422
20
-121.418
11
140.426
21
-121.412
0
LINE
8
BLACK
6
CONTINUOUS
10
140.426
20
-121.412
11
140.428
21
-121.406
0
LINE
8
BLACK
6
CONTINUOUS
10
140.428
20
-121.406
11
140.432
21
-121.401
0
LINE
8
BLACK
6
CONTINUOUS
10
140.432
20
-121.401
11
140.435
21
-121.395
0
LINE
8
BLACK
6
CONTINUOUS
10
140.435
20
-121.395
11
140.441
21
-121.391
0
LINE
8
BLACK
6
CONTINUOUS
10
140.441
20
-121.391
11
140.445
21
-121.385
0
LINE
8
BLACK
6
CONTINUOUS
10
140.445
20
-121.385
11
140.451
21
-121.382
0
LINE
8
BLACK
6
CONTINUOUS
10
140.451
20
-121.382
11
140.456
21
-121.378
0
LINE
8
BLACK
6
CONTINUOUS
10
140.456
20
-121.378
11
140.462
21
-121.376
0
LINE
8
BLACK
6
CONTINUOUS
10
140.462
20
-121.376
11
140.468
21
-121.372
0
LINE
8
BLACK
6
CONTINUOUS
10
140.468
20
-121.372
11
140.474
21
-121.371
0
LINE
8
BLACK
6
CONTINUOUS
10
140.474
20
-121.371
11
140.481
21
-121.369
0
LINE
8
BLACK
6
CONTINUOUS
10
140.481
20
-121.369
11
140.487
21
-121.369
0
LINE
8
BLACK
6
CONTINUOUS
10
140.487
20
-121.369
11
140.487
21
-121.369
0
LINE
8
BLACK
6
CONTINUOUS
10
140.487
20
-121.369
11
354.813
21
-121.369
0
LINE
8
BLACK
6
CONTINUOUS
10
354.813
20
-121.369
11
354.813
21
-121.369
0
LINE
8
BLACK
6
CONTINUOUS
10
354.813
20
-121.369
11
354.819
21
-121.369
0
LINE
8
BLACK
6
CONTINUOUS
10
354.819
20
-121.369
11
354.826
21
-121.371
0
LINE
8
BLACK
6
CONTINUOUS
10
354.826
20
-121.371
11
354.832
21
-121.372
0
LINE
8
BLACK
6
CONTINUOUS
10
354.832
20
-121.372
11
354.838
21
-121.376
0
LINE
8
BLACK
6
CONTINUOUS
10
354.838
20
-121.376
11
354.844
21
-121.378
0
LINE
8
BLACK
6
CONTINUOUS
10
354.844
20
-121.378
11
354.849
21
-121.382
0
LINE
8
BLACK
6
CONTINUOUS
10
354.849
20
-121.382
11
354.855
21
-121.385
0
LINE
8
BLACK
6
CONTINUOUS
10
354.855
20
-121.385
11
354.859
21
-121.391
0
LINE
8
BLACK
6
CONTINUOUS
10
354.859
20
-121.391
11
354.865
21
-121.395
0
LINE
8
BLACK
6
CONTINUOUS
10
354.865
20
-121.395
11
354.868
21
-121.401
0
LINE
8
BLACK
6
CONTINUOUS
10
354.868
20
-121.401
11
354.872
21
-121.406
0
LINE
8
BLACK
6
CONTINUOUS
10
354.872
20
-121.406
11
354.874
21
-121.412
0
LINE
8
BLACK
6
CONTINUOUS
10
354.874
20
-121.412
11
354.878
21
-121.418
0
LINE
8
BLACK
6
CONTINUOUS
10
354.878
20
-121.418
11
354.879
21
-121.424
0
LINE
8
BLACK
6
CONTINUOUS
10
354.879
20
-121.424
11
354.881
21
-121.431
0
LINE
8
BLACK
6
CONTINUOUS
10
354.881
20
-121.431
11
354.881
21
-121.437
0
LINE
8
BLACK
6
CONTINUOUS
10
354.881
20
-121.437
11
354.881
21
-121.437
0
LINE
8
BLACK
6
CONTINUOUS
10
354.881
20
-121.437
11
354.881
21
-202.413
0
LINE
8
BLACK
6
CONTINUOUS
10
354.881
20
-202.413
11
354.881
21
-202.413
0
LINE
8
BLACK
6
CONTINUOUS
10
140.569
20
-121.519
11
140.569
21
-202.331
0
LINE
8
BLACK
6
CONTINUOUS
10
140.569
20
-202.331
11
354.731
21
-202.331
0
LINE
8
BLACK
6
CONTINUOUS
10
354.731
20
-202.331
11
354.731
21
-183.35
0
LINE
8
BLACK
6
CONTINUOUS
10
354.731
20
-183.35
11
354.731
21
-183.35
0
LINE
8
BLACK
6
CONTINUOUS
10
354.731
20
-183.35
11
354.731
21
-121.519
0
LINE
8
BLACK
6
CONTINUOUS
10
354.731
20
-121.519
11
140.569
21
-121.519
  0
ENDSEC
  0
EOF
