M48
;DRILL file {KiCad (5.0.2)-1} date 18/03/2019 17:42:14
;FORMAT={-:-/ absolute / metric / decimal}
FMAT,2
METRIC,TZ
T1C1.900
T2C3.000
T3C4.100
%
G90
G05
T1
X318.77Y-133.35
X328.93Y-133.35
X185.42Y-152.4
X195.58Y-152.4
X280.67Y-133.35
X290.83Y-133.35
X266.7Y-185.42
X266.7Y-195.58
X242.57Y-171.45
X252.73Y-171.45
X204.47Y-171.45
X214.63Y-171.45
X318.77Y-171.45
X328.93Y-171.45
X280.67Y-171.45
X290.83Y-171.45
X147.32Y-171.45
X157.48Y-171.45
X238.125Y-185.42
X238.125Y-195.58
X223.52Y-133.35
X233.68Y-133.35
X337.82Y-171.45
X347.98Y-171.45
X299.72Y-152.4
X309.88Y-152.4
X166.37Y-152.4
X176.53Y-152.4
X261.62Y-133.35
X271.78Y-133.35
X223.52Y-171.45
X233.68Y-171.45
X337.82Y-152.4
X347.98Y-152.4
X299.72Y-190.5
X309.88Y-190.5
X185.42Y-133.35
X195.58Y-133.35
X285.75Y-185.42
X285.75Y-195.58
X261.62Y-171.45
X271.78Y-171.45
X242.57Y-152.4
X252.73Y-152.4
X204.47Y-152.4
X214.63Y-152.4
X318.77Y-152.4
X328.93Y-152.4
X185.42Y-171.45
X195.58Y-171.45
X280.67Y-152.4
X290.83Y-152.4
X228.6Y-185.42
X228.6Y-195.58
X204.47Y-190.5
X214.63Y-190.5
X337.82Y-133.35
X347.98Y-133.35
X299.72Y-133.35
X309.88Y-133.35
X166.37Y-133.35
X176.53Y-133.35
X247.65Y-185.42
X247.65Y-195.58
X223.52Y-152.4
X233.68Y-152.4
X299.72Y-171.45
X309.88Y-171.45
X166.37Y-171.45
X176.53Y-171.45
X276.225Y-185.42
X276.225Y-195.58
X261.62Y-152.4
X271.78Y-152.4
X242.57Y-133.35
X252.73Y-133.35
X204.47Y-133.35
X214.63Y-133.35
T2
X242.57Y-187.96
X245.11Y-194.31
X224.79Y-149.86
X231.14Y-147.32
X300.99Y-168.91
X307.34Y-166.37
X167.64Y-168.91
X173.99Y-166.37
X271.145Y-187.96
X273.685Y-194.31
X262.89Y-149.86
X269.24Y-147.32
X243.84Y-130.81
X250.19Y-128.27
X205.74Y-130.81
X212.09Y-128.27
X320.04Y-130.81
X326.39Y-128.27
X186.69Y-149.86
X193.04Y-147.32
X281.94Y-130.81
X288.29Y-128.27
X261.62Y-187.96
X264.16Y-194.31
X243.84Y-168.91
X250.19Y-166.37
X205.74Y-168.91
X212.09Y-166.37
X320.04Y-168.91
X326.39Y-166.37
X281.94Y-168.91
X288.29Y-166.37
X148.59Y-168.91
X154.94Y-166.37
X233.045Y-187.96
X235.585Y-194.31
X224.79Y-130.81
X231.14Y-128.27
X339.09Y-168.91
X345.44Y-166.37
X300.99Y-149.86
X307.34Y-147.32
X167.64Y-149.86
X173.99Y-147.32
X262.89Y-130.81
X269.24Y-128.27
X224.79Y-168.91
X231.14Y-166.37
X339.09Y-149.86
X345.44Y-147.32
X300.99Y-187.96
X307.34Y-185.42
X186.69Y-130.81
X193.04Y-128.27
X280.67Y-187.96
X283.21Y-194.31
X262.89Y-168.91
X269.24Y-166.37
X243.84Y-149.86
X250.19Y-147.32
X205.74Y-149.86
X212.09Y-147.32
X320.04Y-149.86
X326.39Y-147.32
X186.69Y-168.91
X193.04Y-166.37
X281.94Y-149.86
X288.29Y-147.32
X223.52Y-187.96
X226.06Y-194.31
X205.74Y-187.96
X212.09Y-185.42
X339.09Y-130.81
X345.44Y-128.27
X300.99Y-130.81
X307.34Y-128.27
X167.64Y-130.81
X173.99Y-128.27
T3
X171.45Y-171.45
X276.225Y-190.5
X266.7Y-152.4
X247.65Y-133.35
X209.55Y-133.35
X323.85Y-133.35
X190.5Y-152.4
X285.75Y-133.35
X266.7Y-190.5
X247.65Y-171.45
X209.55Y-171.45
X323.85Y-171.45
X285.75Y-171.45
X152.4Y-171.45
X238.125Y-190.5
X228.6Y-133.35
X342.9Y-171.45
X304.8Y-152.4
X171.45Y-152.4
X266.7Y-133.35
X228.6Y-171.45
X342.9Y-152.4
X304.8Y-190.5
X190.5Y-133.35
X285.75Y-190.5
X266.7Y-171.45
X247.65Y-152.4
X209.55Y-152.4
X323.85Y-152.4
X190.5Y-171.45
X285.75Y-152.4
X228.6Y-190.5
X209.55Y-190.5
X342.9Y-133.35
X304.8Y-133.35
X171.45Y-133.35
X247.65Y-190.5
X228.6Y-152.4
X304.8Y-171.45
T0
M30
