M48
;DRILL file {KiCad (5.0.0)} date 03/21/19 00:23:02
;FORMAT={-:-/ absolute / inch / decimal}
FMAT,2
INCH,TZ
T1C0.0748
T2C0.1181
T3C0.1614
T4C0.1890
%
G90
G05
M72
T1
X5.8Y-6.75
X6.2Y-6.75
X8.8Y-6.
X9.2Y-6.
X11.8Y-5.25
X12.2Y-5.25
X11.8Y-6.
X12.2Y-6.
X10.3Y-5.25
X10.7Y-5.25
X11.8Y-7.5
X12.2Y-7.5
X7.3Y-6.75
X7.7Y-6.75
X8.05Y-5.25
X8.45Y-5.25
X10.3Y-6.75
X10.7Y-6.75
X8.8Y-6.75
X9.2Y-6.75
X12.55Y-6.
X12.95Y-6.
X9.55Y-6.75
X9.95Y-6.75
X11.8Y-6.75
X12.2Y-6.75
X7.3Y-6.
X7.7Y-6.
X12.55Y-5.25
X12.95Y-5.25
X9.75Y-7.3
X9.75Y-7.7
X11.05Y-6.75
X11.45Y-6.75
X9.55Y-6.
X9.95Y-6.
X8.8Y-5.25
X9.2Y-5.25
X8.05Y-6.75
X8.45Y-6.75
X6.55Y-6.75
X6.95Y-6.75
X9.55Y-5.25
X9.95Y-5.25
X11.05Y-6.
X11.45Y-6.
X13.3Y-6.
X13.7Y-6.
X8.05Y-7.5
X8.45Y-7.5
X7.3Y-5.25
X7.7Y-5.25
X10.3Y-6.
X10.7Y-6.
X11.05Y-5.25
X11.45Y-5.25
X13.3Y-5.25
X13.7Y-5.25
X8.05Y-6.
X8.45Y-6.
X6.55Y-5.25
X6.95Y-5.25
X9.Y-7.3
X9.Y-7.7
X11.25Y-7.3
X11.25Y-7.7
X6.55Y-6.
X6.95Y-6.
X10.875Y-7.3
X10.875Y-7.7
X9.375Y-7.3
X9.375Y-7.7
X10.5Y-7.3
X10.5Y-7.7
X12.55Y-6.75
X12.95Y-6.75
X13.3Y-6.75
X13.7Y-6.75
T2
X8.1Y-7.4
X8.35Y-7.3
X7.35Y-5.15
X7.6Y-5.05
X10.35Y-5.9
X10.6Y-5.8
X11.1Y-5.15
X11.35Y-5.05
X13.35Y-5.15
X13.6Y-5.05
X8.1Y-5.9
X8.35Y-5.8
X6.6Y-5.15
X6.85Y-5.05
X8.8Y-7.4
X8.9Y-7.65
X11.05Y-7.4
X11.15Y-7.65
X6.6Y-5.9
X6.85Y-5.8
X10.675Y-7.4
X10.775Y-7.65
X9.175Y-7.4
X9.275Y-7.65
X10.3Y-7.4
X10.4Y-7.65
X12.6Y-6.65
X12.85Y-6.55
X13.35Y-6.65
X13.6Y-6.55
X5.85Y-6.65
X6.1Y-6.55
X8.85Y-5.9
X9.1Y-5.8
X11.85Y-5.15
X12.1Y-5.05
X11.85Y-5.9
X12.1Y-5.8
X10.35Y-5.15
X10.6Y-5.05
X11.85Y-7.4
X12.1Y-7.3
X7.35Y-6.65
X7.6Y-6.55
X8.1Y-5.15
X8.35Y-5.05
X10.35Y-6.65
X10.6Y-6.55
X8.85Y-6.65
X9.1Y-6.55
X12.6Y-5.9
X12.85Y-5.8
X9.6Y-6.65
X9.85Y-6.55
X11.85Y-6.65
X12.1Y-6.55
X7.35Y-5.9
X7.6Y-5.8
X12.6Y-5.15
X12.85Y-5.05
X9.55Y-7.4
X9.65Y-7.65
X11.1Y-6.65
X11.35Y-6.55
X9.6Y-5.9
X9.85Y-5.8
X8.85Y-5.15
X9.1Y-5.05
X8.1Y-6.65
X8.35Y-6.55
X6.6Y-6.65
X6.85Y-6.55
X9.6Y-5.15
X9.85Y-5.05
X11.1Y-5.9
X11.35Y-5.8
X13.35Y-5.9
X13.6Y-5.8
T3
X6.75Y-6.
X10.875Y-7.5
X9.375Y-7.5
X10.5Y-7.5
X12.75Y-6.75
X13.5Y-6.75
X6.Y-6.75
X9.Y-6.
X12.Y-5.25
X12.Y-6.
X10.5Y-5.25
X12.Y-7.5
X7.5Y-6.75
X8.25Y-5.25
X10.5Y-6.75
X9.Y-6.75
X12.75Y-6.
X9.75Y-6.75
X12.Y-6.75
X7.5Y-6.
X12.75Y-5.25
X9.75Y-7.5
X11.25Y-6.75
X9.75Y-6.
X9.Y-5.25
X8.25Y-6.75
X6.75Y-6.75
X9.75Y-5.25
X11.25Y-6.
X13.5Y-6.
X8.25Y-7.5
X7.5Y-5.25
X10.5Y-6.
X11.25Y-5.25
X13.5Y-5.25
X8.25Y-6.
X6.75Y-5.25
X9.Y-7.5
X11.25Y-7.5
T4
X5.6719Y-7.8282
X13.8751Y-7.8282
X13.8751Y-4.9219
X7.875Y-5.625
X10.125Y-7.125
T0
M30
