G04 #@! TF.GenerationSoftware,KiCad,Pcbnew,(5.0.0)*
G04 #@! TF.CreationDate,2019-03-21T00:22:58+08:00*
G04 #@! TF.ProjectId,nqg,6E71672E6B696361645F706362000000,rev?*
G04 #@! TF.SameCoordinates,Original*
G04 #@! TF.FileFunction,Legend,Top*
G04 #@! TF.FilePolarity,Positive*
%FSLAX46Y46*%
G04 Gerber Fmt 4.6, Leading zero omitted, Abs format (unit mm)*
G04 Created by KiCad (PCBNEW (5.0.0)) date 03/21/19 00:22:58*
%MOMM*%
%LPD*%
G01*
G04 APERTURE LIST*
%ADD10C,0.300000*%
%ADD11C,0.150000*%
%ADD12C,0.010000*%
%ADD13C,0.125000*%
G04 APERTURE END LIST*
D10*
X365420721Y-155997108D02*
X365492150Y-155854251D01*
X365563578Y-155782822D01*
X365706435Y-155711394D01*
X365777864Y-155711394D01*
X365920721Y-155782822D01*
X365992150Y-155854251D01*
X366063578Y-155997108D01*
X366063578Y-156282822D01*
X365992150Y-156425680D01*
X365920721Y-156497108D01*
X365777864Y-156568537D01*
X365706435Y-156568537D01*
X365563578Y-156497108D01*
X365492150Y-156425680D01*
X365420721Y-156282822D01*
X365420721Y-155997108D01*
X365349292Y-155854251D01*
X365277864Y-155782822D01*
X365135007Y-155711394D01*
X364849292Y-155711394D01*
X364706435Y-155782822D01*
X364635007Y-155854251D01*
X364563578Y-155997108D01*
X364563578Y-156282822D01*
X364635007Y-156425680D01*
X364706435Y-156497108D01*
X364849292Y-156568537D01*
X365135007Y-156568537D01*
X365277864Y-156497108D01*
X365349292Y-156425680D01*
X365420721Y-156282822D01*
X366063578Y-157497108D02*
X366063578Y-157639965D01*
X365992150Y-157782822D01*
X365920721Y-157854251D01*
X365777864Y-157925680D01*
X365492150Y-157997108D01*
X365135007Y-157997108D01*
X364849292Y-157925680D01*
X364706435Y-157854251D01*
X364635007Y-157782822D01*
X364563578Y-157639965D01*
X364563578Y-157497108D01*
X364635007Y-157354251D01*
X364706435Y-157282822D01*
X364849292Y-157211394D01*
X365135007Y-157139965D01*
X365492150Y-157139965D01*
X365777864Y-157211394D01*
X365920721Y-157282822D01*
X365992150Y-157354251D01*
X366063578Y-157497108D01*
X364706435Y-158639965D02*
X364635007Y-158711394D01*
X364563578Y-158639965D01*
X364635007Y-158568537D01*
X364706435Y-158639965D01*
X364563578Y-158639965D01*
X364563578Y-159425680D02*
X364563578Y-159711394D01*
X364635007Y-159854251D01*
X364706435Y-159925680D01*
X364920721Y-160068537D01*
X365206435Y-160139965D01*
X365777864Y-160139965D01*
X365920721Y-160068537D01*
X365992150Y-159997108D01*
X366063578Y-159854251D01*
X366063578Y-159568537D01*
X365992150Y-159425680D01*
X365920721Y-159354251D01*
X365777864Y-159282822D01*
X365420721Y-159282822D01*
X365277864Y-159354251D01*
X365206435Y-159425680D01*
X365135007Y-159568537D01*
X365135007Y-159854251D01*
X365206435Y-159997108D01*
X365277864Y-160068537D01*
X365420721Y-160139965D01*
X366063578Y-161425680D02*
X366063578Y-161139965D01*
X365992150Y-160997108D01*
X365920721Y-160925680D01*
X365706435Y-160782822D01*
X365420721Y-160711394D01*
X364849292Y-160711394D01*
X364706435Y-160782822D01*
X364635007Y-160854251D01*
X364563578Y-160997108D01*
X364563578Y-161282822D01*
X364635007Y-161425680D01*
X364706435Y-161497108D01*
X364849292Y-161568537D01*
X365206435Y-161568537D01*
X365349292Y-161497108D01*
X365420721Y-161425680D01*
X365492150Y-161282822D01*
X365492150Y-160997108D01*
X365420721Y-160854251D01*
X365349292Y-160782822D01*
X365206435Y-160711394D01*
X366063578Y-162068537D02*
X366063578Y-162997108D01*
X365492150Y-162497108D01*
X365492150Y-162711394D01*
X365420721Y-162854251D01*
X365349292Y-162925680D01*
X365206435Y-162997108D01*
X364849292Y-162997108D01*
X364706435Y-162925680D01*
X364635007Y-162854251D01*
X364563578Y-162711394D01*
X364563578Y-162282822D01*
X364635007Y-162139965D01*
X364706435Y-162068537D01*
X364563578Y-164782822D02*
X365563578Y-164782822D01*
X365420721Y-164782822D02*
X365492150Y-164854251D01*
X365563578Y-164997108D01*
X365563578Y-165211394D01*
X365492150Y-165354251D01*
X365349292Y-165425680D01*
X364563578Y-165425680D01*
X365349292Y-165425680D02*
X365492150Y-165497108D01*
X365563578Y-165639965D01*
X365563578Y-165854251D01*
X365492150Y-165997108D01*
X365349292Y-166068537D01*
X364563578Y-166068537D01*
X364563578Y-166782822D02*
X365563578Y-166782822D01*
X365420721Y-166782822D02*
X365492150Y-166854251D01*
X365563578Y-166997108D01*
X365563578Y-167211394D01*
X365492150Y-167354251D01*
X365349292Y-167425680D01*
X364563578Y-167425680D01*
X365349292Y-167425680D02*
X365492150Y-167497108D01*
X365563578Y-167639965D01*
X365563578Y-167854251D01*
X365492150Y-167997108D01*
X365349292Y-168068537D01*
X364563578Y-168068537D01*
X363142150Y-121444260D02*
X363142150Y-202407100D01*
X358379630Y-121444260D02*
X363728571Y-121444260D01*
X358379630Y-202407100D02*
X363728571Y-202407100D01*
X363142150Y-202407100D02*
X362555729Y-201280596D01*
X363142150Y-202407100D02*
X363728571Y-201280596D01*
X363142150Y-121444260D02*
X362555729Y-122570764D01*
X363142150Y-121444260D02*
X363728571Y-122570764D01*
X241317783Y-112712538D02*
X241389212Y-112641110D01*
X241532069Y-112569681D01*
X241889212Y-112569681D01*
X242032069Y-112641110D01*
X242103497Y-112712538D01*
X242174926Y-112855395D01*
X242174926Y-112998252D01*
X242103497Y-113212538D01*
X241246355Y-114069681D01*
X242174926Y-114069681D01*
X243603497Y-114069681D02*
X242746355Y-114069681D01*
X243174926Y-114069681D02*
X243174926Y-112569681D01*
X243032069Y-112783967D01*
X242889212Y-112926824D01*
X242746355Y-112998252D01*
X244960640Y-112569681D02*
X244246355Y-112569681D01*
X244174926Y-113283967D01*
X244246355Y-113212538D01*
X244389212Y-113141110D01*
X244746355Y-113141110D01*
X244889212Y-113212538D01*
X244960640Y-113283967D01*
X245032069Y-113426824D01*
X245032069Y-113783967D01*
X244960640Y-113926824D01*
X244889212Y-113998252D01*
X244746355Y-114069681D01*
X244389212Y-114069681D01*
X244246355Y-113998252D01*
X244174926Y-113926824D01*
X245674926Y-113926824D02*
X245746355Y-113998252D01*
X245674926Y-114069681D01*
X245603497Y-113998252D01*
X245674926Y-113926824D01*
X245674926Y-114069681D01*
X247103497Y-112569681D02*
X246389212Y-112569681D01*
X246317783Y-113283967D01*
X246389212Y-113212538D01*
X246532069Y-113141110D01*
X246889212Y-113141110D01*
X247032069Y-113212538D01*
X247103497Y-113283967D01*
X247174926Y-113426824D01*
X247174926Y-113783967D01*
X247103497Y-113926824D01*
X247032069Y-113998252D01*
X246889212Y-114069681D01*
X246532069Y-114069681D01*
X246389212Y-113998252D01*
X246317783Y-113926824D01*
X248103497Y-112569681D02*
X248246355Y-112569681D01*
X248389212Y-112641110D01*
X248460640Y-112712538D01*
X248532069Y-112855395D01*
X248603497Y-113141110D01*
X248603497Y-113498252D01*
X248532069Y-113783967D01*
X248460640Y-113926824D01*
X248389212Y-113998252D01*
X248246355Y-114069681D01*
X248103497Y-114069681D01*
X247960640Y-113998252D01*
X247889212Y-113926824D01*
X247817783Y-113783967D01*
X247746355Y-113498252D01*
X247746355Y-113141110D01*
X247817783Y-112855395D01*
X247889212Y-112712538D01*
X247960640Y-112641110D01*
X248103497Y-112569681D01*
X249889212Y-113069681D02*
X249889212Y-114069681D01*
X249532069Y-112498252D02*
X249174926Y-113569681D01*
X250103497Y-113569681D01*
X251817783Y-114069681D02*
X251817783Y-113069681D01*
X251817783Y-113212538D02*
X251889212Y-113141110D01*
X252032069Y-113069681D01*
X252246355Y-113069681D01*
X252389212Y-113141110D01*
X252460640Y-113283967D01*
X252460640Y-114069681D01*
X252460640Y-113283967D02*
X252532069Y-113141110D01*
X252674926Y-113069681D01*
X252889212Y-113069681D01*
X253032069Y-113141110D01*
X253103497Y-113283967D01*
X253103497Y-114069681D01*
X253817783Y-114069681D02*
X253817783Y-113069681D01*
X253817783Y-113212538D02*
X253889212Y-113141110D01*
X254032069Y-113069681D01*
X254246355Y-113069681D01*
X254389212Y-113141110D01*
X254460640Y-113283967D01*
X254460640Y-114069681D01*
X254460640Y-113283967D02*
X254532069Y-113141110D01*
X254674926Y-113069681D01*
X254889212Y-113069681D01*
X255032069Y-113141110D01*
X255103497Y-113283967D01*
X255103497Y-114069681D01*
X355998370Y-115491110D02*
X140494340Y-115491110D01*
X355998370Y-119063000D02*
X355998370Y-114904689D01*
X140494340Y-119063000D02*
X140494340Y-114904689D01*
X140494340Y-115491110D02*
X141620844Y-114904689D01*
X140494340Y-115491110D02*
X141620844Y-116077531D01*
X355998370Y-115491110D02*
X354871866Y-114904689D01*
X355998370Y-115491110D02*
X354871866Y-116077531D01*
X322557142Y-190928571D02*
X322557142Y-189428571D01*
X323414285Y-190928571D01*
X323414285Y-189428571D01*
X325128571Y-191071428D02*
X324985714Y-191000000D01*
X324842857Y-190857142D01*
X324628571Y-190642857D01*
X324485714Y-190571428D01*
X324342857Y-190571428D01*
X324414285Y-190928571D02*
X324271428Y-190857142D01*
X324128571Y-190714285D01*
X324057142Y-190428571D01*
X324057142Y-189928571D01*
X324128571Y-189642857D01*
X324271428Y-189500000D01*
X324414285Y-189428571D01*
X324700000Y-189428571D01*
X324842857Y-189500000D01*
X324985714Y-189642857D01*
X325057142Y-189928571D01*
X325057142Y-190428571D01*
X324985714Y-190714285D01*
X324842857Y-190857142D01*
X324700000Y-190928571D01*
X324414285Y-190928571D01*
X326485714Y-189500000D02*
X326342857Y-189428571D01*
X326128571Y-189428571D01*
X325914285Y-189500000D01*
X325771428Y-189642857D01*
X325700000Y-189785714D01*
X325628571Y-190071428D01*
X325628571Y-190285714D01*
X325700000Y-190571428D01*
X325771428Y-190714285D01*
X325914285Y-190857142D01*
X326128571Y-190928571D01*
X326271428Y-190928571D01*
X326485714Y-190857142D01*
X326557142Y-190785714D01*
X326557142Y-190285714D01*
X326271428Y-190285714D01*
X328342857Y-190928571D02*
X328342857Y-189428571D01*
X328342857Y-190000000D02*
X328485714Y-189928571D01*
X328771428Y-189928571D01*
X328914285Y-190000000D01*
X328985714Y-190071428D01*
X329057142Y-190214285D01*
X329057142Y-190642857D01*
X328985714Y-190785714D01*
X328914285Y-190857142D01*
X328771428Y-190928571D01*
X328485714Y-190928571D01*
X328342857Y-190857142D01*
X329557142Y-189928571D02*
X329914285Y-190928571D01*
X330271428Y-189928571D02*
X329914285Y-190928571D01*
X329771428Y-191285714D01*
X329700000Y-191357142D01*
X329557142Y-191428571D01*
X332557142Y-190857142D02*
X332414285Y-190928571D01*
X332128571Y-190928571D01*
X331985714Y-190857142D01*
X331914285Y-190714285D01*
X331914285Y-190142857D01*
X331985714Y-190000000D01*
X332128571Y-189928571D01*
X332414285Y-189928571D01*
X332557142Y-190000000D01*
X332628571Y-190142857D01*
X332628571Y-190285714D01*
X331914285Y-190428571D01*
X333271428Y-190928571D02*
X333271428Y-189928571D01*
X333271428Y-190071428D02*
X333342857Y-190000000D01*
X333485714Y-189928571D01*
X333700000Y-189928571D01*
X333842857Y-190000000D01*
X333914285Y-190142857D01*
X333914285Y-190928571D01*
X333914285Y-190142857D02*
X333985714Y-190000000D01*
X334128571Y-189928571D01*
X334342857Y-189928571D01*
X334485714Y-190000000D01*
X334557142Y-190142857D01*
X334557142Y-190928571D01*
X335271428Y-189928571D02*
X335271428Y-191428571D01*
X335271428Y-190000000D02*
X335414285Y-189928571D01*
X335700000Y-189928571D01*
X335842857Y-190000000D01*
X335914285Y-190071428D01*
X335985714Y-190214285D01*
X335985714Y-190642857D01*
X335914285Y-190785714D01*
X335842857Y-190857142D01*
X335700000Y-190928571D01*
X335414285Y-190928571D01*
X335271428Y-190857142D01*
X336414285Y-189928571D02*
X336985714Y-189928571D01*
X336628571Y-189428571D02*
X336628571Y-190714285D01*
X336700000Y-190857142D01*
X336842857Y-190928571D01*
X336985714Y-190928571D01*
X337342857Y-189928571D02*
X337700000Y-190928571D01*
X338057142Y-189928571D02*
X337700000Y-190928571D01*
X337557142Y-191285714D01*
X337485714Y-191357142D01*
X337342857Y-191428571D01*
X338557142Y-190857142D02*
X338700000Y-190928571D01*
X338985714Y-190928571D01*
X339128571Y-190857142D01*
X339200000Y-190714285D01*
X339200000Y-190642857D01*
X339128571Y-190500000D01*
X338985714Y-190428571D01*
X338771428Y-190428571D01*
X338628571Y-190357142D01*
X338557142Y-190214285D01*
X338557142Y-190142857D01*
X338628571Y-190000000D01*
X338771428Y-189928571D01*
X338985714Y-189928571D01*
X339128571Y-190000000D01*
X339628571Y-189928571D02*
X340200000Y-189928571D01*
X339842857Y-189428571D02*
X339842857Y-190714285D01*
X339914285Y-190857142D01*
X340057142Y-190928571D01*
X340200000Y-190928571D01*
X340700000Y-190928571D02*
X340700000Y-189928571D01*
X340700000Y-190214285D02*
X340771428Y-190071428D01*
X340842857Y-190000000D01*
X340985714Y-189928571D01*
X341128571Y-189928571D01*
X341628571Y-190928571D02*
X341628571Y-189928571D01*
X341628571Y-189428571D02*
X341557142Y-189500000D01*
X341628571Y-189571428D01*
X341700000Y-189500000D01*
X341628571Y-189428571D01*
X341628571Y-189571428D01*
X342342857Y-189928571D02*
X342342857Y-190928571D01*
X342342857Y-190071428D02*
X342414285Y-190000000D01*
X342557142Y-189928571D01*
X342771428Y-189928571D01*
X342914285Y-190000000D01*
X342985714Y-190142857D01*
X342985714Y-190928571D01*
X344342857Y-189928571D02*
X344342857Y-191142857D01*
X344271428Y-191285714D01*
X344200000Y-191357142D01*
X344057142Y-191428571D01*
X343842857Y-191428571D01*
X343700000Y-191357142D01*
X344342857Y-190857142D02*
X344200000Y-190928571D01*
X343914285Y-190928571D01*
X343771428Y-190857142D01*
X343700000Y-190785714D01*
X343628571Y-190642857D01*
X343628571Y-190214285D01*
X343700000Y-190071428D01*
X343771428Y-190000000D01*
X343914285Y-189928571D01*
X344200000Y-189928571D01*
X344342857Y-190000000D01*
X324485714Y-192764285D02*
X324414285Y-192692857D01*
X324271428Y-192621428D01*
X324128571Y-192621428D01*
X323985714Y-192692857D01*
X323914285Y-192764285D01*
X323842857Y-192907142D01*
X323842857Y-193050000D01*
X323914285Y-193192857D01*
X323985714Y-193264285D01*
X324128571Y-193335714D01*
X324271428Y-193335714D01*
X324414285Y-193264285D01*
X324485714Y-193192857D01*
X324485714Y-192621428D02*
X324485714Y-193192857D01*
X324557142Y-193264285D01*
X324628571Y-193264285D01*
X324771428Y-193192857D01*
X324842857Y-193050000D01*
X324842857Y-192692857D01*
X324700000Y-192478571D01*
X324485714Y-192335714D01*
X324200000Y-192264285D01*
X323914285Y-192335714D01*
X323700000Y-192478571D01*
X323557142Y-192692857D01*
X323485714Y-192978571D01*
X323557142Y-193264285D01*
X323700000Y-193478571D01*
X323914285Y-193621428D01*
X324200000Y-193692857D01*
X324485714Y-193621428D01*
X324700000Y-193478571D01*
X325414285Y-193407142D02*
X325628571Y-193478571D01*
X325985714Y-193478571D01*
X326128571Y-193407142D01*
X326200000Y-193335714D01*
X326271428Y-193192857D01*
X326271428Y-193050000D01*
X326200000Y-192907142D01*
X326128571Y-192835714D01*
X325985714Y-192764285D01*
X325700000Y-192692857D01*
X325557142Y-192621428D01*
X325485714Y-192550000D01*
X325414285Y-192407142D01*
X325414285Y-192264285D01*
X325485714Y-192121428D01*
X325557142Y-192050000D01*
X325700000Y-191978571D01*
X326057142Y-191978571D01*
X326271428Y-192050000D01*
X326842857Y-193050000D02*
X327557142Y-193050000D01*
X326700000Y-193478571D02*
X327200000Y-191978571D01*
X327700000Y-193478571D01*
X327842857Y-193621428D02*
X328985714Y-193621428D01*
X329342857Y-192692857D02*
X329842857Y-192692857D01*
X330057142Y-193478571D02*
X329342857Y-193478571D01*
X329342857Y-191978571D01*
X330057142Y-191978571D01*
X330700000Y-192478571D02*
X330700000Y-193478571D01*
X330700000Y-192621428D02*
X330771428Y-192550000D01*
X330914285Y-192478571D01*
X331128571Y-192478571D01*
X331271428Y-192550000D01*
X331342857Y-192692857D01*
X331342857Y-193478571D01*
X332700000Y-193478571D02*
X332700000Y-191978571D01*
X332700000Y-193407142D02*
X332557142Y-193478571D01*
X332271428Y-193478571D01*
X332128571Y-193407142D01*
X332057142Y-193335714D01*
X331985714Y-193192857D01*
X331985714Y-192764285D01*
X332057142Y-192621428D01*
X332128571Y-192550000D01*
X332271428Y-192478571D01*
X332557142Y-192478571D01*
X332700000Y-192550000D01*
X333628571Y-193478571D02*
X333485714Y-193407142D01*
X333414285Y-193264285D01*
X333414285Y-191978571D01*
X334771428Y-193407142D02*
X334628571Y-193478571D01*
X334342857Y-193478571D01*
X334200000Y-193407142D01*
X334128571Y-193264285D01*
X334128571Y-192692857D01*
X334200000Y-192550000D01*
X334342857Y-192478571D01*
X334628571Y-192478571D01*
X334771428Y-192550000D01*
X334842857Y-192692857D01*
X334842857Y-192835714D01*
X334128571Y-192978571D01*
X335414285Y-193407142D02*
X335557142Y-193478571D01*
X335842857Y-193478571D01*
X335985714Y-193407142D01*
X336057142Y-193264285D01*
X336057142Y-193192857D01*
X335985714Y-193050000D01*
X335842857Y-192978571D01*
X335628571Y-192978571D01*
X335485714Y-192907142D01*
X335414285Y-192764285D01*
X335414285Y-192692857D01*
X335485714Y-192550000D01*
X335628571Y-192478571D01*
X335842857Y-192478571D01*
X335985714Y-192550000D01*
X336628571Y-193407142D02*
X336771428Y-193478571D01*
X337057142Y-193478571D01*
X337200000Y-193407142D01*
X337271428Y-193264285D01*
X337271428Y-193192857D01*
X337200000Y-193050000D01*
X337057142Y-192978571D01*
X336842857Y-192978571D01*
X336700000Y-192907142D01*
X336628571Y-192764285D01*
X336628571Y-192692857D01*
X336700000Y-192550000D01*
X336842857Y-192478571D01*
X337057142Y-192478571D01*
X337200000Y-192550000D01*
X338700000Y-192050000D02*
X338557142Y-191978571D01*
X338342857Y-191978571D01*
X338128571Y-192050000D01*
X337985714Y-192192857D01*
X337914285Y-192335714D01*
X337842857Y-192621428D01*
X337842857Y-192835714D01*
X337914285Y-193121428D01*
X337985714Y-193264285D01*
X338128571Y-193407142D01*
X338342857Y-193478571D01*
X338485714Y-193478571D01*
X338700000Y-193407142D01*
X338771428Y-193335714D01*
X338771428Y-192835714D01*
X338485714Y-192835714D01*
X340057142Y-193478571D02*
X340057142Y-192692857D01*
X339985714Y-192550000D01*
X339842857Y-192478571D01*
X339557142Y-192478571D01*
X339414285Y-192550000D01*
X340057142Y-193407142D02*
X339914285Y-193478571D01*
X339557142Y-193478571D01*
X339414285Y-193407142D01*
X339342857Y-193264285D01*
X339342857Y-193121428D01*
X339414285Y-192978571D01*
X339557142Y-192907142D01*
X339914285Y-192907142D01*
X340057142Y-192835714D01*
X340771428Y-193478571D02*
X340771428Y-192478571D01*
X340771428Y-192621428D02*
X340842857Y-192550000D01*
X340985714Y-192478571D01*
X341200000Y-192478571D01*
X341342857Y-192550000D01*
X341414285Y-192692857D01*
X341414285Y-193478571D01*
X341414285Y-192692857D02*
X341485714Y-192550000D01*
X341628571Y-192478571D01*
X341842857Y-192478571D01*
X341985714Y-192550000D01*
X342057142Y-192692857D01*
X342057142Y-193478571D01*
X343342857Y-193407142D02*
X343200000Y-193478571D01*
X342914285Y-193478571D01*
X342771428Y-193407142D01*
X342700000Y-193264285D01*
X342700000Y-192692857D01*
X342771428Y-192550000D01*
X342914285Y-192478571D01*
X343200000Y-192478571D01*
X343342857Y-192550000D01*
X343414285Y-192692857D01*
X343414285Y-192835714D01*
X342700000Y-192978571D01*
D11*
G04 #@! TO.C,SW40*
X148100000Y-160025000D02*
X154100000Y-160025000D01*
X154100000Y-160025000D02*
X154100000Y-159775000D01*
X148100000Y-160025000D02*
X148100000Y-159775000D01*
X148100000Y-156525000D02*
X148100000Y-156775000D01*
X148100000Y-156525000D02*
X154100000Y-156525000D01*
X154100000Y-156525000D02*
X154100000Y-156775000D01*
G04 #@! TO.C,U1*
X157836400Y-154632000D02*
X157836400Y-124152000D01*
X160376400Y-154632000D02*
X157836400Y-154632000D01*
X160376400Y-124152000D02*
X160376400Y-154632000D01*
X157836400Y-124152000D02*
X160376400Y-124152000D01*
X142616400Y-154632000D02*
X142616400Y-124152000D01*
X145156400Y-154632000D02*
X142616400Y-154632000D01*
X145156400Y-124152000D02*
X145156400Y-154632000D01*
X142616400Y-124152000D02*
X145156400Y-124152000D01*
D12*
G04 #@! TO.C,G\002A\002A\002A*
G36*
X185064930Y-183139782D02*
X185533666Y-183262951D01*
X186211000Y-183484784D01*
X186247379Y-184533501D01*
X186283758Y-185582219D01*
X185715596Y-185246995D01*
X184776389Y-184868042D01*
X183807919Y-184780763D01*
X182862438Y-184953812D01*
X181992197Y-185355847D01*
X181249448Y-185955523D01*
X180686440Y-186721497D01*
X180355427Y-187622425D01*
X180297208Y-188497302D01*
X180354472Y-189150758D01*
X180437723Y-189588803D01*
X180579625Y-189934626D01*
X180755122Y-190224308D01*
X181507407Y-191100729D01*
X182415569Y-191677517D01*
X183470836Y-191950122D01*
X184117511Y-191968454D01*
X184693462Y-191911170D01*
X185150330Y-191809115D01*
X185330944Y-191724377D01*
X185468056Y-191463661D01*
X185550648Y-191029495D01*
X185575519Y-190537258D01*
X185539465Y-190102331D01*
X185439284Y-189840094D01*
X185384088Y-189809769D01*
X185095905Y-189783533D01*
X184647648Y-189752137D01*
X184602333Y-189749333D01*
X184121327Y-189717690D01*
X183761158Y-189690206D01*
X183746689Y-189688897D01*
X183564238Y-189561145D01*
X183494605Y-189183846D01*
X183492689Y-188995091D01*
X183510909Y-188658737D01*
X183591232Y-188430047D01*
X183788113Y-188289497D01*
X184156003Y-188217566D01*
X184749356Y-188194731D01*
X185622623Y-188201469D01*
X185703000Y-188202653D01*
X187227000Y-188225333D01*
X187276142Y-190172667D01*
X187288374Y-190984055D01*
X187284020Y-191697552D01*
X187264520Y-192229065D01*
X187236714Y-192476571D01*
X186995530Y-192794416D01*
X186423106Y-193150233D01*
X186116312Y-193296201D01*
X185582734Y-193517843D01*
X185179555Y-193652103D01*
X184995329Y-193670107D01*
X184784104Y-193646298D01*
X184542588Y-193701058D01*
X184119527Y-193771387D01*
X183601128Y-193775012D01*
X183586333Y-193773877D01*
X182259909Y-193511143D01*
X181063041Y-192962723D01*
X180043500Y-192159116D01*
X179249060Y-191130822D01*
X179139193Y-190934667D01*
X178871516Y-190378861D01*
X178707415Y-189864920D01*
X178623830Y-189277489D01*
X178597703Y-188501217D01*
X178597576Y-188225333D01*
X178760337Y-186931953D01*
X179218203Y-185749288D01*
X179941069Y-184725499D01*
X180898834Y-183908744D01*
X181508627Y-183568133D01*
X182654496Y-183183639D01*
X183880472Y-183037782D01*
X185064930Y-183139782D01*
X185064930Y-183139782D01*
G37*
X185064930Y-183139782D02*
X185533666Y-183262951D01*
X186211000Y-183484784D01*
X186247379Y-184533501D01*
X186283758Y-185582219D01*
X185715596Y-185246995D01*
X184776389Y-184868042D01*
X183807919Y-184780763D01*
X182862438Y-184953812D01*
X181992197Y-185355847D01*
X181249448Y-185955523D01*
X180686440Y-186721497D01*
X180355427Y-187622425D01*
X180297208Y-188497302D01*
X180354472Y-189150758D01*
X180437723Y-189588803D01*
X180579625Y-189934626D01*
X180755122Y-190224308D01*
X181507407Y-191100729D01*
X182415569Y-191677517D01*
X183470836Y-191950122D01*
X184117511Y-191968454D01*
X184693462Y-191911170D01*
X185150330Y-191809115D01*
X185330944Y-191724377D01*
X185468056Y-191463661D01*
X185550648Y-191029495D01*
X185575519Y-190537258D01*
X185539465Y-190102331D01*
X185439284Y-189840094D01*
X185384088Y-189809769D01*
X185095905Y-189783533D01*
X184647648Y-189752137D01*
X184602333Y-189749333D01*
X184121327Y-189717690D01*
X183761158Y-189690206D01*
X183746689Y-189688897D01*
X183564238Y-189561145D01*
X183494605Y-189183846D01*
X183492689Y-188995091D01*
X183510909Y-188658737D01*
X183591232Y-188430047D01*
X183788113Y-188289497D01*
X184156003Y-188217566D01*
X184749356Y-188194731D01*
X185622623Y-188201469D01*
X185703000Y-188202653D01*
X187227000Y-188225333D01*
X187276142Y-190172667D01*
X187288374Y-190984055D01*
X187284020Y-191697552D01*
X187264520Y-192229065D01*
X187236714Y-192476571D01*
X186995530Y-192794416D01*
X186423106Y-193150233D01*
X186116312Y-193296201D01*
X185582734Y-193517843D01*
X185179555Y-193652103D01*
X184995329Y-193670107D01*
X184784104Y-193646298D01*
X184542588Y-193701058D01*
X184119527Y-193771387D01*
X183601128Y-193775012D01*
X183586333Y-193773877D01*
X182259909Y-193511143D01*
X181063041Y-192962723D01*
X180043500Y-192159116D01*
X179249060Y-191130822D01*
X179139193Y-190934667D01*
X178871516Y-190378861D01*
X178707415Y-189864920D01*
X178623830Y-189277489D01*
X178597703Y-188501217D01*
X178597576Y-188225333D01*
X178760337Y-186931953D01*
X179218203Y-185749288D01*
X179941069Y-184725499D01*
X180898834Y-183908744D01*
X181508627Y-183568133D01*
X182654496Y-183183639D01*
X183880472Y-183037782D01*
X185064930Y-183139782D01*
G36*
X155988369Y-182560971D02*
X156046482Y-182606648D01*
X156163240Y-182720907D01*
X156368150Y-182934942D01*
X156690720Y-183279946D01*
X157160455Y-183787115D01*
X157806864Y-184487643D01*
X158459657Y-185195911D01*
X159540952Y-186370317D01*
X160412146Y-187318936D01*
X161093626Y-188064115D01*
X161605778Y-188628202D01*
X161968988Y-189033545D01*
X162171057Y-189264399D01*
X162438284Y-189544331D01*
X162605844Y-189664581D01*
X162607842Y-189664667D01*
X162636392Y-189504189D01*
X162659529Y-189058132D01*
X162675951Y-188379557D01*
X162684355Y-187521525D01*
X162683652Y-186574333D01*
X162684410Y-185571085D01*
X162696862Y-184674700D01*
X162719244Y-183944342D01*
X162749794Y-183439179D01*
X162783492Y-183224413D01*
X163001472Y-183046282D01*
X163469674Y-182998961D01*
X163611343Y-183004577D01*
X164066263Y-183043682D01*
X164352088Y-183093925D01*
X164389399Y-183111288D01*
X164404208Y-183290557D01*
X164415199Y-183768153D01*
X164422208Y-184503754D01*
X164425077Y-185457040D01*
X164423645Y-186587690D01*
X164417750Y-187855383D01*
X164411680Y-188705438D01*
X164367000Y-194232626D01*
X163155232Y-192922313D01*
X162504649Y-192217153D01*
X161803405Y-191454425D01*
X161168110Y-190761045D01*
X160953899Y-190526407D01*
X160356646Y-189876980D01*
X159654743Y-189122312D01*
X158977876Y-188401671D01*
X158825168Y-188240407D01*
X157686003Y-187040000D01*
X157662635Y-190172667D01*
X157654015Y-191182043D01*
X157644254Y-192083940D01*
X157634151Y-192819874D01*
X157624504Y-193331359D01*
X157616467Y-193556345D01*
X157499486Y-193719149D01*
X157147082Y-193782654D01*
X156831666Y-193781712D01*
X156355071Y-193763466D01*
X156040238Y-193747303D01*
X155985000Y-193742376D01*
X155966015Y-193578059D01*
X155949214Y-193123657D01*
X155934707Y-192427272D01*
X155922604Y-191537008D01*
X155913014Y-190500967D01*
X155906048Y-189367250D01*
X155901816Y-188183961D01*
X155900428Y-186999203D01*
X155901994Y-185861077D01*
X155906625Y-184817686D01*
X155914429Y-183917133D01*
X155925518Y-183207520D01*
X155940001Y-182736949D01*
X155957988Y-182553524D01*
X155959395Y-182552681D01*
X155988369Y-182560971D01*
X155988369Y-182560971D01*
G37*
X155988369Y-182560971D02*
X156046482Y-182606648D01*
X156163240Y-182720907D01*
X156368150Y-182934942D01*
X156690720Y-183279946D01*
X157160455Y-183787115D01*
X157806864Y-184487643D01*
X158459657Y-185195911D01*
X159540952Y-186370317D01*
X160412146Y-187318936D01*
X161093626Y-188064115D01*
X161605778Y-188628202D01*
X161968988Y-189033545D01*
X162171057Y-189264399D01*
X162438284Y-189544331D01*
X162605844Y-189664581D01*
X162607842Y-189664667D01*
X162636392Y-189504189D01*
X162659529Y-189058132D01*
X162675951Y-188379557D01*
X162684355Y-187521525D01*
X162683652Y-186574333D01*
X162684410Y-185571085D01*
X162696862Y-184674700D01*
X162719244Y-183944342D01*
X162749794Y-183439179D01*
X162783492Y-183224413D01*
X163001472Y-183046282D01*
X163469674Y-182998961D01*
X163611343Y-183004577D01*
X164066263Y-183043682D01*
X164352088Y-183093925D01*
X164389399Y-183111288D01*
X164404208Y-183290557D01*
X164415199Y-183768153D01*
X164422208Y-184503754D01*
X164425077Y-185457040D01*
X164423645Y-186587690D01*
X164417750Y-187855383D01*
X164411680Y-188705438D01*
X164367000Y-194232626D01*
X163155232Y-192922313D01*
X162504649Y-192217153D01*
X161803405Y-191454425D01*
X161168110Y-190761045D01*
X160953899Y-190526407D01*
X160356646Y-189876980D01*
X159654743Y-189122312D01*
X158977876Y-188401671D01*
X158825168Y-188240407D01*
X157686003Y-187040000D01*
X157662635Y-190172667D01*
X157654015Y-191182043D01*
X157644254Y-192083940D01*
X157634151Y-192819874D01*
X157624504Y-193331359D01*
X157616467Y-193556345D01*
X157499486Y-193719149D01*
X157147082Y-193782654D01*
X156831666Y-193781712D01*
X156355071Y-193763466D01*
X156040238Y-193747303D01*
X155985000Y-193742376D01*
X155966015Y-193578059D01*
X155949214Y-193123657D01*
X155934707Y-192427272D01*
X155922604Y-191537008D01*
X155913014Y-190500967D01*
X155906048Y-189367250D01*
X155901816Y-188183961D01*
X155900428Y-186999203D01*
X155901994Y-185861077D01*
X155906625Y-184817686D01*
X155914429Y-183917133D01*
X155925518Y-183207520D01*
X155940001Y-182736949D01*
X155957988Y-182553524D01*
X155959395Y-182552681D01*
X155988369Y-182560971D01*
G36*
X172965995Y-183192954D02*
X173087666Y-183224796D01*
X174244857Y-183656129D01*
X175170851Y-184278930D01*
X175945839Y-185151503D01*
X176147170Y-185449260D01*
X176743897Y-186668519D01*
X177009843Y-187936410D01*
X176945704Y-189232164D01*
X176552179Y-190535014D01*
X175938319Y-191664313D01*
X175456321Y-192393959D01*
X175904274Y-192981255D01*
X176161489Y-193346107D01*
X176286802Y-193580066D01*
X176286280Y-193617100D01*
X176120186Y-193742021D01*
X175797036Y-193986426D01*
X175731830Y-194035825D01*
X175377996Y-194280854D01*
X175141981Y-194402932D01*
X175122381Y-194406000D01*
X174952356Y-194286701D01*
X174656838Y-193983557D01*
X174481886Y-193780978D01*
X174130807Y-193405028D01*
X173891405Y-193282025D01*
X173736669Y-193341798D01*
X173398796Y-193493575D01*
X172835979Y-193627616D01*
X172161938Y-193725192D01*
X171490393Y-193767574D01*
X171185717Y-193761915D01*
X170010854Y-193533317D01*
X168894235Y-193011464D01*
X167899655Y-192241723D01*
X167090908Y-191269461D01*
X166707206Y-190577043D01*
X166312301Y-189352078D01*
X166240485Y-188355134D01*
X167985667Y-188355134D01*
X168085063Y-189308932D01*
X168464664Y-190233358D01*
X168833607Y-190748623D01*
X169139815Y-191031815D01*
X169598817Y-191378258D01*
X169827436Y-191531575D01*
X170308334Y-191799727D01*
X170769406Y-191934969D01*
X171361340Y-191974011D01*
X171633770Y-191971618D01*
X172215275Y-191942426D01*
X172655970Y-191887022D01*
X172846851Y-191824705D01*
X172844422Y-191621744D01*
X172691517Y-191388038D01*
X172447700Y-190997465D01*
X172503020Y-190646992D01*
X172870775Y-190279124D01*
X172963592Y-190211935D01*
X173511000Y-189827869D01*
X173934333Y-190339783D01*
X174357666Y-190851696D01*
X174753844Y-190267886D01*
X175096558Y-189492968D01*
X175233029Y-188700705D01*
X175165176Y-187639289D01*
X174805184Y-186677969D01*
X174195723Y-185865856D01*
X173379461Y-185252060D01*
X172399067Y-184885693D01*
X171852816Y-184810140D01*
X170803779Y-184892192D01*
X169882717Y-185244295D01*
X169115004Y-185816544D01*
X168526010Y-186559036D01*
X168141107Y-187421867D01*
X167985667Y-188355134D01*
X166240485Y-188355134D01*
X166225132Y-188142019D01*
X166415365Y-186981823D01*
X166852662Y-185906447D01*
X167506688Y-184950847D01*
X168347107Y-184149979D01*
X169343583Y-183538800D01*
X170465781Y-183152265D01*
X171683363Y-183025331D01*
X172965995Y-183192954D01*
X172965995Y-183192954D01*
G37*
X172965995Y-183192954D02*
X173087666Y-183224796D01*
X174244857Y-183656129D01*
X175170851Y-184278930D01*
X175945839Y-185151503D01*
X176147170Y-185449260D01*
X176743897Y-186668519D01*
X177009843Y-187936410D01*
X176945704Y-189232164D01*
X176552179Y-190535014D01*
X175938319Y-191664313D01*
X175456321Y-192393959D01*
X175904274Y-192981255D01*
X176161489Y-193346107D01*
X176286802Y-193580066D01*
X176286280Y-193617100D01*
X176120186Y-193742021D01*
X175797036Y-193986426D01*
X175731830Y-194035825D01*
X175377996Y-194280854D01*
X175141981Y-194402932D01*
X175122381Y-194406000D01*
X174952356Y-194286701D01*
X174656838Y-193983557D01*
X174481886Y-193780978D01*
X174130807Y-193405028D01*
X173891405Y-193282025D01*
X173736669Y-193341798D01*
X173398796Y-193493575D01*
X172835979Y-193627616D01*
X172161938Y-193725192D01*
X171490393Y-193767574D01*
X171185717Y-193761915D01*
X170010854Y-193533317D01*
X168894235Y-193011464D01*
X167899655Y-192241723D01*
X167090908Y-191269461D01*
X166707206Y-190577043D01*
X166312301Y-189352078D01*
X166240485Y-188355134D01*
X167985667Y-188355134D01*
X168085063Y-189308932D01*
X168464664Y-190233358D01*
X168833607Y-190748623D01*
X169139815Y-191031815D01*
X169598817Y-191378258D01*
X169827436Y-191531575D01*
X170308334Y-191799727D01*
X170769406Y-191934969D01*
X171361340Y-191974011D01*
X171633770Y-191971618D01*
X172215275Y-191942426D01*
X172655970Y-191887022D01*
X172846851Y-191824705D01*
X172844422Y-191621744D01*
X172691517Y-191388038D01*
X172447700Y-190997465D01*
X172503020Y-190646992D01*
X172870775Y-190279124D01*
X172963592Y-190211935D01*
X173511000Y-189827869D01*
X173934333Y-190339783D01*
X174357666Y-190851696D01*
X174753844Y-190267886D01*
X175096558Y-189492968D01*
X175233029Y-188700705D01*
X175165176Y-187639289D01*
X174805184Y-186677969D01*
X174195723Y-185865856D01*
X173379461Y-185252060D01*
X172399067Y-184885693D01*
X171852816Y-184810140D01*
X170803779Y-184892192D01*
X169882717Y-185244295D01*
X169115004Y-185816544D01*
X168526010Y-186559036D01*
X168141107Y-187421867D01*
X167985667Y-188355134D01*
X166240485Y-188355134D01*
X166225132Y-188142019D01*
X166415365Y-186981823D01*
X166852662Y-185906447D01*
X167506688Y-184950847D01*
X168347107Y-184149979D01*
X169343583Y-183538800D01*
X170465781Y-183152265D01*
X171683363Y-183025331D01*
X172965995Y-183192954D01*
G36*
X186285466Y-196670646D02*
X186361387Y-197085430D01*
X186399932Y-197628688D01*
X186400289Y-198203008D01*
X186361647Y-198710977D01*
X186283194Y-199055183D01*
X186195195Y-199147333D01*
X186079129Y-199028950D01*
X186008186Y-198650694D01*
X185976774Y-197977903D01*
X185974567Y-197779994D01*
X185984817Y-197063296D01*
X186031125Y-196643947D01*
X186119605Y-196481959D01*
X186172982Y-196481748D01*
X186285466Y-196670646D01*
X186285466Y-196670646D01*
G37*
X186285466Y-196670646D02*
X186361387Y-197085430D01*
X186399932Y-197628688D01*
X186400289Y-198203008D01*
X186361647Y-198710977D01*
X186283194Y-199055183D01*
X186195195Y-199147333D01*
X186079129Y-199028950D01*
X186008186Y-198650694D01*
X185976774Y-197977903D01*
X185974567Y-197779994D01*
X185984817Y-197063296D01*
X186031125Y-196643947D01*
X186119605Y-196481959D01*
X186172982Y-196481748D01*
X186285466Y-196670646D01*
G36*
X185231313Y-196472859D02*
X185239946Y-196615988D01*
X185049515Y-196925218D01*
X184850989Y-197191955D01*
X184422311Y-197753980D01*
X184890597Y-198323657D01*
X185218923Y-198704584D01*
X185476735Y-198971936D01*
X185530941Y-199017740D01*
X185530483Y-199113288D01*
X185330582Y-199144740D01*
X184989500Y-199027941D01*
X184580388Y-198731996D01*
X184442366Y-198597000D01*
X183926567Y-198046667D01*
X183925783Y-198597000D01*
X183868433Y-198979962D01*
X183733704Y-199159208D01*
X183575593Y-199074588D01*
X183545738Y-199020333D01*
X183489459Y-198722854D01*
X183476284Y-198236137D01*
X183499119Y-197664399D01*
X183550869Y-197111858D01*
X183624439Y-196682733D01*
X183712734Y-196481241D01*
X183718783Y-196478516D01*
X183878504Y-196564282D01*
X183925000Y-196847222D01*
X183961977Y-197194208D01*
X184093702Y-197244628D01*
X184351364Y-196999300D01*
X184463253Y-196861333D01*
X184767754Y-196563592D01*
X185035805Y-196438016D01*
X185037956Y-196438000D01*
X185231313Y-196472859D01*
X185231313Y-196472859D01*
G37*
X185231313Y-196472859D02*
X185239946Y-196615988D01*
X185049515Y-196925218D01*
X184850989Y-197191955D01*
X184422311Y-197753980D01*
X184890597Y-198323657D01*
X185218923Y-198704584D01*
X185476735Y-198971936D01*
X185530941Y-199017740D01*
X185530483Y-199113288D01*
X185330582Y-199144740D01*
X184989500Y-199027941D01*
X184580388Y-198731996D01*
X184442366Y-198597000D01*
X183926567Y-198046667D01*
X183925783Y-198597000D01*
X183868433Y-198979962D01*
X183733704Y-199159208D01*
X183575593Y-199074588D01*
X183545738Y-199020333D01*
X183489459Y-198722854D01*
X183476284Y-198236137D01*
X183499119Y-197664399D01*
X183550869Y-197111858D01*
X183624439Y-196682733D01*
X183712734Y-196481241D01*
X183718783Y-196478516D01*
X183878504Y-196564282D01*
X183925000Y-196847222D01*
X183961977Y-197194208D01*
X184093702Y-197244628D01*
X184351364Y-196999300D01*
X184463253Y-196861333D01*
X184767754Y-196563592D01*
X185035805Y-196438016D01*
X185037956Y-196438000D01*
X185231313Y-196472859D01*
G36*
X182393292Y-196482080D02*
X182689255Y-196662636D01*
X182847440Y-196872834D01*
X183037742Y-197217033D01*
X183029850Y-197488638D01*
X182869773Y-197806367D01*
X182697785Y-198161254D01*
X182724961Y-198416559D01*
X182933421Y-198716586D01*
X183153557Y-199011998D01*
X183164077Y-199127319D01*
X182966425Y-199147313D01*
X182940765Y-199147333D01*
X182614124Y-199015189D01*
X182331904Y-198724000D01*
X182083786Y-198421571D01*
X181889096Y-198300667D01*
X181764730Y-198445602D01*
X181723666Y-198724000D01*
X181647330Y-199045226D01*
X181501250Y-199147333D01*
X181382900Y-199052550D01*
X181316369Y-198736081D01*
X181294116Y-198149745D01*
X181295843Y-197835000D01*
X181302518Y-197319926D01*
X181723666Y-197319926D01*
X181765359Y-197669102D01*
X181941642Y-197773717D01*
X182104666Y-197762110D01*
X182446090Y-197572106D01*
X182536965Y-197348454D01*
X182486196Y-197053471D01*
X182174977Y-196910012D01*
X182155965Y-196906269D01*
X181849506Y-196888966D01*
X181736763Y-197061851D01*
X181723666Y-197319926D01*
X181302518Y-197319926D01*
X181312852Y-196522667D01*
X181931389Y-196470720D01*
X182393292Y-196482080D01*
X182393292Y-196482080D01*
G37*
X182393292Y-196482080D02*
X182689255Y-196662636D01*
X182847440Y-196872834D01*
X183037742Y-197217033D01*
X183029850Y-197488638D01*
X182869773Y-197806367D01*
X182697785Y-198161254D01*
X182724961Y-198416559D01*
X182933421Y-198716586D01*
X183153557Y-199011998D01*
X183164077Y-199127319D01*
X182966425Y-199147313D01*
X182940765Y-199147333D01*
X182614124Y-199015189D01*
X182331904Y-198724000D01*
X182083786Y-198421571D01*
X181889096Y-198300667D01*
X181764730Y-198445602D01*
X181723666Y-198724000D01*
X181647330Y-199045226D01*
X181501250Y-199147333D01*
X181382900Y-199052550D01*
X181316369Y-198736081D01*
X181294116Y-198149745D01*
X181295843Y-197835000D01*
X181302518Y-197319926D01*
X181723666Y-197319926D01*
X181765359Y-197669102D01*
X181941642Y-197773717D01*
X182104666Y-197762110D01*
X182446090Y-197572106D01*
X182536965Y-197348454D01*
X182486196Y-197053471D01*
X182174977Y-196910012D01*
X182155965Y-196906269D01*
X181849506Y-196888966D01*
X181736763Y-197061851D01*
X181723666Y-197319926D01*
X181302518Y-197319926D01*
X181312852Y-196522667D01*
X181931389Y-196470720D01*
X182393292Y-196482080D01*
G36*
X177098205Y-196572304D02*
X177151640Y-196978328D01*
X177151666Y-196990786D01*
X177183007Y-197385518D01*
X177336079Y-197549041D01*
X177649803Y-197585958D01*
X178004641Y-197550751D01*
X178156882Y-197348329D01*
X178200136Y-197074435D01*
X178297973Y-196685484D01*
X178461063Y-196480275D01*
X178464000Y-196479263D01*
X178575012Y-196536173D01*
X178642118Y-196824188D01*
X178672272Y-197386001D01*
X178675666Y-197778555D01*
X178663903Y-198477755D01*
X178621198Y-198898813D01*
X178536427Y-199101676D01*
X178421666Y-199147333D01*
X178235437Y-199021359D01*
X178168484Y-198616864D01*
X178167666Y-198543419D01*
X178143382Y-198144127D01*
X178018666Y-197990808D01*
X177715725Y-197991522D01*
X177702000Y-197993086D01*
X177366916Y-198091144D01*
X177218782Y-198354141D01*
X177183271Y-198597000D01*
X177088024Y-198975733D01*
X176927156Y-199146304D01*
X176913523Y-199147333D01*
X176797237Y-199044549D01*
X176733632Y-198706712D01*
X176716084Y-198089596D01*
X176718749Y-197847056D01*
X176759148Y-197073521D01*
X176847678Y-196612094D01*
X176946163Y-196478279D01*
X177098205Y-196572304D01*
X177098205Y-196572304D01*
G37*
X177098205Y-196572304D02*
X177151640Y-196978328D01*
X177151666Y-196990786D01*
X177183007Y-197385518D01*
X177336079Y-197549041D01*
X177649803Y-197585958D01*
X178004641Y-197550751D01*
X178156882Y-197348329D01*
X178200136Y-197074435D01*
X178297973Y-196685484D01*
X178461063Y-196480275D01*
X178464000Y-196479263D01*
X178575012Y-196536173D01*
X178642118Y-196824188D01*
X178672272Y-197386001D01*
X178675666Y-197778555D01*
X178663903Y-198477755D01*
X178621198Y-198898813D01*
X178536427Y-199101676D01*
X178421666Y-199147333D01*
X178235437Y-199021359D01*
X178168484Y-198616864D01*
X178167666Y-198543419D01*
X178143382Y-198144127D01*
X178018666Y-197990808D01*
X177715725Y-197991522D01*
X177702000Y-197993086D01*
X177366916Y-198091144D01*
X177218782Y-198354141D01*
X177183271Y-198597000D01*
X177088024Y-198975733D01*
X176927156Y-199146304D01*
X176913523Y-199147333D01*
X176797237Y-199044549D01*
X176733632Y-198706712D01*
X176716084Y-198089596D01*
X176718749Y-197847056D01*
X176759148Y-197073521D01*
X176847678Y-196612094D01*
X176946163Y-196478279D01*
X177098205Y-196572304D01*
G36*
X175797058Y-196489467D02*
X175963595Y-196695615D01*
X175966333Y-196735970D01*
X175871381Y-196953170D01*
X175538603Y-197030259D01*
X175423293Y-197032303D01*
X174946721Y-197158262D01*
X174641030Y-197474639D01*
X174532160Y-197884180D01*
X174646051Y-198289630D01*
X175007018Y-198593011D01*
X175380282Y-198694538D01*
X175585333Y-198684208D01*
X175759778Y-198517116D01*
X175783747Y-198292947D01*
X175654128Y-198169758D01*
X175595390Y-198173667D01*
X175389133Y-198076343D01*
X175336004Y-197956172D01*
X175392162Y-197764249D01*
X175714919Y-197715573D01*
X175749280Y-197716816D01*
X176092848Y-197787614D01*
X176223878Y-198031330D01*
X176241821Y-198230643D01*
X176202696Y-198662406D01*
X176094087Y-198935667D01*
X175750420Y-199125057D01*
X175264144Y-199132961D01*
X174768622Y-198974196D01*
X174471850Y-198755419D01*
X174155969Y-198210107D01*
X174103287Y-197603938D01*
X174309400Y-197047921D01*
X174549836Y-196788957D01*
X174993590Y-196539751D01*
X175441527Y-196438717D01*
X175797058Y-196489467D01*
X175797058Y-196489467D01*
G37*
X175797058Y-196489467D02*
X175963595Y-196695615D01*
X175966333Y-196735970D01*
X175871381Y-196953170D01*
X175538603Y-197030259D01*
X175423293Y-197032303D01*
X174946721Y-197158262D01*
X174641030Y-197474639D01*
X174532160Y-197884180D01*
X174646051Y-198289630D01*
X175007018Y-198593011D01*
X175380282Y-198694538D01*
X175585333Y-198684208D01*
X175759778Y-198517116D01*
X175783747Y-198292947D01*
X175654128Y-198169758D01*
X175595390Y-198173667D01*
X175389133Y-198076343D01*
X175336004Y-197956172D01*
X175392162Y-197764249D01*
X175714919Y-197715573D01*
X175749280Y-197716816D01*
X176092848Y-197787614D01*
X176223878Y-198031330D01*
X176241821Y-198230643D01*
X176202696Y-198662406D01*
X176094087Y-198935667D01*
X175750420Y-199125057D01*
X175264144Y-199132961D01*
X174768622Y-198974196D01*
X174471850Y-198755419D01*
X174155969Y-198210107D01*
X174103287Y-197603938D01*
X174309400Y-197047921D01*
X174549836Y-196788957D01*
X174993590Y-196539751D01*
X175441527Y-196438717D01*
X175797058Y-196489467D01*
G36*
X172295926Y-196466625D02*
X172525754Y-196559036D01*
X172534854Y-196649667D01*
X172330016Y-196790625D01*
X171931437Y-196829555D01*
X171928076Y-196829358D01*
X171555587Y-196843502D01*
X171412706Y-196998534D01*
X171394333Y-197220351D01*
X171449577Y-197503163D01*
X171565181Y-197537730D01*
X171827100Y-197491594D01*
X172124694Y-197563218D01*
X172316618Y-197702457D01*
X172318131Y-197804858D01*
X172091148Y-197926342D01*
X171807673Y-197962000D01*
X171480800Y-198045473D01*
X171394333Y-198300667D01*
X171481208Y-198546443D01*
X171780367Y-198667115D01*
X172349609Y-198685485D01*
X172368000Y-198684824D01*
X172558975Y-198811798D01*
X172579666Y-198912148D01*
X172461627Y-199067133D01*
X172077942Y-199138764D01*
X171766454Y-199147333D01*
X170953242Y-199147333D01*
X170939989Y-197792667D01*
X170926736Y-196438000D01*
X171767312Y-196438000D01*
X172295926Y-196466625D01*
X172295926Y-196466625D01*
G37*
X172295926Y-196466625D02*
X172525754Y-196559036D01*
X172534854Y-196649667D01*
X172330016Y-196790625D01*
X171931437Y-196829555D01*
X171928076Y-196829358D01*
X171555587Y-196843502D01*
X171412706Y-196998534D01*
X171394333Y-197220351D01*
X171449577Y-197503163D01*
X171565181Y-197537730D01*
X171827100Y-197491594D01*
X172124694Y-197563218D01*
X172316618Y-197702457D01*
X172318131Y-197804858D01*
X172091148Y-197926342D01*
X171807673Y-197962000D01*
X171480800Y-198045473D01*
X171394333Y-198300667D01*
X171481208Y-198546443D01*
X171780367Y-198667115D01*
X172349609Y-198685485D01*
X172368000Y-198684824D01*
X172558975Y-198811798D01*
X172579666Y-198912148D01*
X172461627Y-199067133D01*
X172077942Y-199138764D01*
X171766454Y-199147333D01*
X170953242Y-199147333D01*
X170939989Y-197792667D01*
X170926736Y-196438000D01*
X171767312Y-196438000D01*
X172295926Y-196466625D01*
G36*
X170200562Y-196462317D02*
X170473899Y-196541529D01*
X170505333Y-196649667D01*
X170323213Y-196846640D01*
X170251333Y-196861333D01*
X170025777Y-196925194D01*
X169894692Y-197157950D01*
X169837540Y-197621364D01*
X169830597Y-198126581D01*
X169813284Y-198728175D01*
X169742170Y-199049708D01*
X169604584Y-199147278D01*
X169600067Y-199147333D01*
X169468170Y-199061733D01*
X169393206Y-198767784D01*
X169363906Y-198209761D01*
X169362333Y-197971723D01*
X169354389Y-197356111D01*
X169316589Y-197010355D01*
X169227983Y-196865760D01*
X169067617Y-196853634D01*
X169023666Y-196861333D01*
X168741009Y-196821446D01*
X168685000Y-196682277D01*
X168777527Y-196534227D01*
X169094062Y-196457883D01*
X169630444Y-196438000D01*
X170200562Y-196462317D01*
X170200562Y-196462317D01*
G37*
X170200562Y-196462317D02*
X170473899Y-196541529D01*
X170505333Y-196649667D01*
X170323213Y-196846640D01*
X170251333Y-196861333D01*
X170025777Y-196925194D01*
X169894692Y-197157950D01*
X169837540Y-197621364D01*
X169830597Y-198126581D01*
X169813284Y-198728175D01*
X169742170Y-199049708D01*
X169604584Y-199147278D01*
X169600067Y-199147333D01*
X169468170Y-199061733D01*
X169393206Y-198767784D01*
X169363906Y-198209761D01*
X169362333Y-197971723D01*
X169354389Y-197356111D01*
X169316589Y-197010355D01*
X169227983Y-196865760D01*
X169067617Y-196853634D01*
X169023666Y-196861333D01*
X168741009Y-196821446D01*
X168685000Y-196682277D01*
X168777527Y-196534227D01*
X169094062Y-196457883D01*
X169630444Y-196438000D01*
X170200562Y-196462317D01*
G36*
X168198095Y-196695752D02*
X168256305Y-197221438D01*
X168269865Y-197791117D01*
X168253274Y-198513746D01*
X168199865Y-198945071D01*
X168102043Y-199131192D01*
X168046429Y-199147333D01*
X167930850Y-199059871D01*
X167871977Y-198763046D01*
X167862934Y-198205206D01*
X167873543Y-197848590D01*
X167929999Y-197077617D01*
X168015723Y-196626629D01*
X168111494Y-196498411D01*
X168198095Y-196695752D01*
X168198095Y-196695752D01*
G37*
X168198095Y-196695752D02*
X168256305Y-197221438D01*
X168269865Y-197791117D01*
X168253274Y-198513746D01*
X168199865Y-198945071D01*
X168102043Y-199131192D01*
X168046429Y-199147333D01*
X167930850Y-199059871D01*
X167871977Y-198763046D01*
X167862934Y-198205206D01*
X167873543Y-197848590D01*
X167929999Y-197077617D01*
X168015723Y-196626629D01*
X168111494Y-196498411D01*
X168198095Y-196695752D01*
G36*
X160273026Y-196443090D02*
X160643750Y-196502162D01*
X160800033Y-196589590D01*
X160759091Y-196754906D01*
X160529960Y-196873177D01*
X160262596Y-196878515D01*
X160203052Y-196851889D01*
X160126112Y-196957034D01*
X160071547Y-197330916D01*
X160049114Y-197903838D01*
X160049000Y-197952006D01*
X160029531Y-198625833D01*
X159965470Y-199008404D01*
X159848333Y-199145200D01*
X159826034Y-199147333D01*
X159699342Y-199043446D01*
X159631488Y-198700670D01*
X159613831Y-198072331D01*
X159614367Y-198004333D01*
X159610181Y-197393851D01*
X159569085Y-197048488D01*
X159471037Y-196895119D01*
X159300871Y-196860615D01*
X158997556Y-196764510D01*
X158905760Y-196648948D01*
X159013305Y-196537959D01*
X159349340Y-196464387D01*
X159805401Y-196431631D01*
X160273026Y-196443090D01*
X160273026Y-196443090D01*
G37*
X160273026Y-196443090D02*
X160643750Y-196502162D01*
X160800033Y-196589590D01*
X160759091Y-196754906D01*
X160529960Y-196873177D01*
X160262596Y-196878515D01*
X160203052Y-196851889D01*
X160126112Y-196957034D01*
X160071547Y-197330916D01*
X160049114Y-197903838D01*
X160049000Y-197952006D01*
X160029531Y-198625833D01*
X159965470Y-199008404D01*
X159848333Y-199145200D01*
X159826034Y-199147333D01*
X159699342Y-199043446D01*
X159631488Y-198700670D01*
X159613831Y-198072331D01*
X159614367Y-198004333D01*
X159610181Y-197393851D01*
X159569085Y-197048488D01*
X159471037Y-196895119D01*
X159300871Y-196860615D01*
X158997556Y-196764510D01*
X158905760Y-196648948D01*
X159013305Y-196537959D01*
X159349340Y-196464387D01*
X159805401Y-196431631D01*
X160273026Y-196443090D01*
G36*
X158179455Y-196695777D02*
X158584562Y-197098800D01*
X158780055Y-197669155D01*
X158783692Y-197911010D01*
X158599104Y-198509042D01*
X158193806Y-198931564D01*
X157654948Y-199144197D01*
X157069680Y-199112562D01*
X156525152Y-198802278D01*
X156524929Y-198802070D01*
X156231903Y-198329386D01*
X156165890Y-197874584D01*
X156588360Y-197874584D01*
X156661368Y-198129530D01*
X157019981Y-198526271D01*
X157465058Y-198665804D01*
X157898172Y-198556074D01*
X158220894Y-198205021D01*
X158297357Y-197997510D01*
X158257981Y-197548355D01*
X157974669Y-197165803D01*
X157539584Y-196958089D01*
X157401992Y-196946000D01*
X156977513Y-197088891D01*
X156681449Y-197438134D01*
X156588360Y-197874584D01*
X156165890Y-197874584D01*
X156146614Y-197741788D01*
X156270935Y-197177402D01*
X156498567Y-196856295D01*
X157057246Y-196537964D01*
X157643946Y-196496644D01*
X158179455Y-196695777D01*
X158179455Y-196695777D01*
G37*
X158179455Y-196695777D02*
X158584562Y-197098800D01*
X158780055Y-197669155D01*
X158783692Y-197911010D01*
X158599104Y-198509042D01*
X158193806Y-198931564D01*
X157654948Y-199144197D01*
X157069680Y-199112562D01*
X156525152Y-198802278D01*
X156524929Y-198802070D01*
X156231903Y-198329386D01*
X156165890Y-197874584D01*
X156588360Y-197874584D01*
X156661368Y-198129530D01*
X157019981Y-198526271D01*
X157465058Y-198665804D01*
X157898172Y-198556074D01*
X158220894Y-198205021D01*
X158297357Y-197997510D01*
X158257981Y-197548355D01*
X157974669Y-197165803D01*
X157539584Y-196958089D01*
X157401992Y-196946000D01*
X156977513Y-197088891D01*
X156681449Y-197438134D01*
X156588360Y-197874584D01*
X156165890Y-197874584D01*
X156146614Y-197741788D01*
X156270935Y-197177402D01*
X156498567Y-196856295D01*
X157057246Y-196537964D01*
X157643946Y-196496644D01*
X158179455Y-196695777D01*
G36*
X153799954Y-196554243D02*
X154101581Y-196851394D01*
X154313611Y-197082897D01*
X154767663Y-197575817D01*
X155049301Y-197809918D01*
X155196097Y-197792086D01*
X155245622Y-197529209D01*
X155244181Y-197253496D01*
X155278938Y-196754525D01*
X155405961Y-196494897D01*
X155434666Y-196480464D01*
X155591286Y-196569895D01*
X155662289Y-196978026D01*
X155665533Y-197058889D01*
X155675760Y-197589631D01*
X155679144Y-198176432D01*
X155675985Y-198705680D01*
X155666583Y-199063765D01*
X155660033Y-199140968D01*
X155543729Y-199071474D01*
X155250270Y-198815173D01*
X154840876Y-198425822D01*
X154801044Y-198386690D01*
X153955755Y-197554112D01*
X153976043Y-198139056D01*
X153983789Y-198706619D01*
X153945057Y-199012587D01*
X153842194Y-199132804D01*
X153741333Y-199147326D01*
X153625943Y-199031109D01*
X153557534Y-198658442D01*
X153530472Y-197993288D01*
X153529504Y-197792659D01*
X153541720Y-197163543D01*
X153574329Y-196689809D01*
X153621023Y-196451591D01*
X153636115Y-196438000D01*
X153799954Y-196554243D01*
X153799954Y-196554243D01*
G37*
X153799954Y-196554243D02*
X154101581Y-196851394D01*
X154313611Y-197082897D01*
X154767663Y-197575817D01*
X155049301Y-197809918D01*
X155196097Y-197792086D01*
X155245622Y-197529209D01*
X155244181Y-197253496D01*
X155278938Y-196754525D01*
X155405961Y-196494897D01*
X155434666Y-196480464D01*
X155591286Y-196569895D01*
X155662289Y-196978026D01*
X155665533Y-197058889D01*
X155675760Y-197589631D01*
X155679144Y-198176432D01*
X155675985Y-198705680D01*
X155666583Y-199063765D01*
X155660033Y-199140968D01*
X155543729Y-199071474D01*
X155250270Y-198815173D01*
X154840876Y-198425822D01*
X154801044Y-198386690D01*
X153955755Y-197554112D01*
X153976043Y-198139056D01*
X153983789Y-198706619D01*
X153945057Y-199012587D01*
X153842194Y-199132804D01*
X153741333Y-199147326D01*
X153625943Y-199031109D01*
X153557534Y-198658442D01*
X153530472Y-197993288D01*
X153529504Y-197792659D01*
X153541720Y-197163543D01*
X153574329Y-196689809D01*
X153621023Y-196451591D01*
X153636115Y-196438000D01*
X153799954Y-196554243D01*
G36*
X187692666Y-197096601D02*
X188079425Y-197528965D01*
X188386145Y-197836695D01*
X188539333Y-197949533D01*
X188614974Y-197806050D01*
X188660430Y-197428575D01*
X188666333Y-197200000D01*
X188707185Y-196716598D01*
X188810269Y-196457035D01*
X188946376Y-196463678D01*
X189045752Y-196649667D01*
X189079067Y-196922496D01*
X189085041Y-197402811D01*
X189068543Y-197984299D01*
X189034445Y-198560649D01*
X188987615Y-199025549D01*
X188932926Y-199272686D01*
X188925081Y-199283696D01*
X188836890Y-199253639D01*
X188833555Y-199217889D01*
X188728568Y-199034207D01*
X188467580Y-198700843D01*
X188128307Y-198306018D01*
X187788469Y-197937949D01*
X187525783Y-197684857D01*
X187428808Y-197623333D01*
X187397383Y-197774500D01*
X187393545Y-198157019D01*
X187402268Y-198385333D01*
X187395392Y-198891067D01*
X187297572Y-199120051D01*
X187207254Y-199147333D01*
X187088125Y-199068480D01*
X187015195Y-198796719D01*
X186979909Y-198279246D01*
X186973000Y-197701735D01*
X186973000Y-196256137D01*
X187692666Y-197096601D01*
X187692666Y-197096601D01*
G37*
X187692666Y-197096601D02*
X188079425Y-197528965D01*
X188386145Y-197836695D01*
X188539333Y-197949533D01*
X188614974Y-197806050D01*
X188660430Y-197428575D01*
X188666333Y-197200000D01*
X188707185Y-196716598D01*
X188810269Y-196457035D01*
X188946376Y-196463678D01*
X189045752Y-196649667D01*
X189079067Y-196922496D01*
X189085041Y-197402811D01*
X189068543Y-197984299D01*
X189034445Y-198560649D01*
X188987615Y-199025549D01*
X188932926Y-199272686D01*
X188925081Y-199283696D01*
X188836890Y-199253639D01*
X188833555Y-199217889D01*
X188728568Y-199034207D01*
X188467580Y-198700843D01*
X188128307Y-198306018D01*
X187788469Y-197937949D01*
X187525783Y-197684857D01*
X187428808Y-197623333D01*
X187397383Y-197774500D01*
X187393545Y-198157019D01*
X187402268Y-198385333D01*
X187395392Y-198891067D01*
X187297572Y-199120051D01*
X187207254Y-199147333D01*
X187088125Y-199068480D01*
X187015195Y-198796719D01*
X186979909Y-198279246D01*
X186973000Y-197701735D01*
X186973000Y-196256137D01*
X187692666Y-197096601D01*
G36*
X180589424Y-196468002D02*
X180827079Y-196562577D01*
X180836647Y-196643724D01*
X180635979Y-196799397D01*
X180272203Y-196875700D01*
X179832077Y-196906313D01*
X179633773Y-196965414D01*
X179580854Y-197098104D01*
X179578777Y-197200000D01*
X179716920Y-197432014D01*
X179846888Y-197473532D01*
X180290362Y-197517310D01*
X180490242Y-197583022D01*
X180541450Y-197702703D01*
X180541705Y-197708000D01*
X180401736Y-197851668D01*
X180110089Y-197931896D01*
X179786641Y-198038741D01*
X179717153Y-198297827D01*
X179723825Y-198355229D01*
X179833759Y-198617157D01*
X180127502Y-198710776D01*
X180326666Y-198714662D01*
X180738552Y-198769381D01*
X180877000Y-198926329D01*
X180729443Y-199094166D01*
X180411333Y-199161444D01*
X179903127Y-199188463D01*
X179564666Y-199217812D01*
X179378681Y-199221003D01*
X179265815Y-199136221D01*
X179207844Y-198898001D01*
X179186546Y-198440876D01*
X179183666Y-197849034D01*
X179183666Y-196438000D01*
X180044444Y-196438000D01*
X180589424Y-196468002D01*
X180589424Y-196468002D01*
G37*
X180589424Y-196468002D02*
X180827079Y-196562577D01*
X180836647Y-196643724D01*
X180635979Y-196799397D01*
X180272203Y-196875700D01*
X179832077Y-196906313D01*
X179633773Y-196965414D01*
X179580854Y-197098104D01*
X179578777Y-197200000D01*
X179716920Y-197432014D01*
X179846888Y-197473532D01*
X180290362Y-197517310D01*
X180490242Y-197583022D01*
X180541450Y-197702703D01*
X180541705Y-197708000D01*
X180401736Y-197851668D01*
X180110089Y-197931896D01*
X179786641Y-198038741D01*
X179717153Y-198297827D01*
X179723825Y-198355229D01*
X179833759Y-198617157D01*
X180127502Y-198710776D01*
X180326666Y-198714662D01*
X180738552Y-198769381D01*
X180877000Y-198926329D01*
X180729443Y-199094166D01*
X180411333Y-199161444D01*
X179903127Y-199188463D01*
X179564666Y-199217812D01*
X179378681Y-199221003D01*
X179265815Y-199136221D01*
X179207844Y-198898001D01*
X179186546Y-198440876D01*
X179183666Y-197849034D01*
X179183666Y-196438000D01*
X180044444Y-196438000D01*
X180589424Y-196468002D01*
G36*
X165701144Y-196517286D02*
X165780285Y-196797716D01*
X165806053Y-197343146D01*
X165806333Y-197433266D01*
X165859388Y-198177061D01*
X166019496Y-198601171D01*
X166288073Y-198707678D01*
X166577845Y-198568651D01*
X166785966Y-198313094D01*
X166886369Y-197880717D01*
X166906959Y-197441184D01*
X166950926Y-196865072D01*
X167059869Y-196531499D01*
X167123007Y-196478886D01*
X167247234Y-196550466D01*
X167313620Y-196892519D01*
X167330333Y-197426039D01*
X167304323Y-198205858D01*
X167218290Y-198694029D01*
X167060229Y-198934150D01*
X166902994Y-198978000D01*
X166659971Y-199069018D01*
X166624777Y-199120101D01*
X166442074Y-199180796D01*
X166080619Y-199128873D01*
X166074766Y-199127284D01*
X165691196Y-198980287D01*
X165458905Y-198745866D01*
X165341516Y-198347350D01*
X165302650Y-197708070D01*
X165300926Y-197496333D01*
X165317470Y-196892970D01*
X165380930Y-196563035D01*
X165506446Y-196442787D01*
X165552333Y-196438000D01*
X165701144Y-196517286D01*
X165701144Y-196517286D01*
G37*
X165701144Y-196517286D02*
X165780285Y-196797716D01*
X165806053Y-197343146D01*
X165806333Y-197433266D01*
X165859388Y-198177061D01*
X166019496Y-198601171D01*
X166288073Y-198707678D01*
X166577845Y-198568651D01*
X166785966Y-198313094D01*
X166886369Y-197880717D01*
X166906959Y-197441184D01*
X166950926Y-196865072D01*
X167059869Y-196531499D01*
X167123007Y-196478886D01*
X167247234Y-196550466D01*
X167313620Y-196892519D01*
X167330333Y-197426039D01*
X167304323Y-198205858D01*
X167218290Y-198694029D01*
X167060229Y-198934150D01*
X166902994Y-198978000D01*
X166659971Y-199069018D01*
X166624777Y-199120101D01*
X166442074Y-199180796D01*
X166080619Y-199128873D01*
X166074766Y-199127284D01*
X165691196Y-198980287D01*
X165458905Y-198745866D01*
X165341516Y-198347350D01*
X165302650Y-197708070D01*
X165300926Y-197496333D01*
X165317470Y-196892970D01*
X165380930Y-196563035D01*
X165506446Y-196442787D01*
X165552333Y-196438000D01*
X165701144Y-196517286D01*
G36*
X164087571Y-196571168D02*
X164553571Y-196915376D01*
X164825578Y-197387677D01*
X164854865Y-197752519D01*
X164730969Y-198536154D01*
X164610225Y-199059115D01*
X164501030Y-199287338D01*
X164474780Y-199294041D01*
X164256292Y-199259091D01*
X163824173Y-199196082D01*
X163564405Y-199159450D01*
X162904732Y-198972008D01*
X162434666Y-198647101D01*
X162243135Y-198300667D01*
X162164409Y-197757064D01*
X162187462Y-197634951D01*
X162620903Y-197634951D01*
X162679542Y-198063801D01*
X162869244Y-198329666D01*
X163130086Y-198520977D01*
X163428911Y-198627311D01*
X163658295Y-198630295D01*
X163710811Y-198511552D01*
X163689666Y-198470000D01*
X163723369Y-198316995D01*
X164003851Y-198264821D01*
X164145014Y-198277174D01*
X164317994Y-198170574D01*
X164379127Y-197873401D01*
X164322980Y-197516593D01*
X164186684Y-197272531D01*
X163734203Y-196985031D01*
X163234451Y-197015291D01*
X162898666Y-197226244D01*
X162620903Y-197634951D01*
X162187462Y-197634951D01*
X162236948Y-197372822D01*
X162493490Y-196990051D01*
X162521963Y-196955929D01*
X162954415Y-196569358D01*
X163435437Y-196439675D01*
X163512295Y-196438000D01*
X164087571Y-196571168D01*
X164087571Y-196571168D01*
G37*
X164087571Y-196571168D02*
X164553571Y-196915376D01*
X164825578Y-197387677D01*
X164854865Y-197752519D01*
X164730969Y-198536154D01*
X164610225Y-199059115D01*
X164501030Y-199287338D01*
X164474780Y-199294041D01*
X164256292Y-199259091D01*
X163824173Y-199196082D01*
X163564405Y-199159450D01*
X162904732Y-198972008D01*
X162434666Y-198647101D01*
X162243135Y-198300667D01*
X162164409Y-197757064D01*
X162187462Y-197634951D01*
X162620903Y-197634951D01*
X162679542Y-198063801D01*
X162869244Y-198329666D01*
X163130086Y-198520977D01*
X163428911Y-198627311D01*
X163658295Y-198630295D01*
X163710811Y-198511552D01*
X163689666Y-198470000D01*
X163723369Y-198316995D01*
X164003851Y-198264821D01*
X164145014Y-198277174D01*
X164317994Y-198170574D01*
X164379127Y-197873401D01*
X164322980Y-197516593D01*
X164186684Y-197272531D01*
X163734203Y-196985031D01*
X163234451Y-197015291D01*
X162898666Y-197226244D01*
X162620903Y-197634951D01*
X162187462Y-197634951D01*
X162236948Y-197372822D01*
X162493490Y-196990051D01*
X162521963Y-196955929D01*
X162954415Y-196569358D01*
X163435437Y-196439675D01*
X163512295Y-196438000D01*
X164087571Y-196571168D01*
G04 #@! TO.C,SW40*
D11*
X149647619Y-158727380D02*
X149314285Y-158251190D01*
X149076190Y-158727380D02*
X149076190Y-157727380D01*
X149457142Y-157727380D01*
X149552380Y-157775000D01*
X149600000Y-157822619D01*
X149647619Y-157917857D01*
X149647619Y-158060714D01*
X149600000Y-158155952D01*
X149552380Y-158203571D01*
X149457142Y-158251190D01*
X149076190Y-158251190D01*
X150076190Y-158203571D02*
X150409523Y-158203571D01*
X150552380Y-158727380D02*
X150076190Y-158727380D01*
X150076190Y-157727380D01*
X150552380Y-157727380D01*
X150933333Y-158679761D02*
X151076190Y-158727380D01*
X151314285Y-158727380D01*
X151409523Y-158679761D01*
X151457142Y-158632142D01*
X151504761Y-158536904D01*
X151504761Y-158441666D01*
X151457142Y-158346428D01*
X151409523Y-158298809D01*
X151314285Y-158251190D01*
X151123809Y-158203571D01*
X151028571Y-158155952D01*
X150980952Y-158108333D01*
X150933333Y-158013095D01*
X150933333Y-157917857D01*
X150980952Y-157822619D01*
X151028571Y-157775000D01*
X151123809Y-157727380D01*
X151361904Y-157727380D01*
X151504761Y-157775000D01*
X151933333Y-158203571D02*
X152266666Y-158203571D01*
X152409523Y-158727380D02*
X151933333Y-158727380D01*
X151933333Y-157727380D01*
X152409523Y-157727380D01*
X152695238Y-157727380D02*
X153266666Y-157727380D01*
X152980952Y-158727380D02*
X152980952Y-157727380D01*
G04 #@! TO.C,U1*
D13*
X156069047Y-143541285D02*
X155902380Y-143184142D01*
X155783333Y-143541285D02*
X155783333Y-142791285D01*
X155973809Y-142791285D01*
X156021428Y-142827000D01*
X156045238Y-142862714D01*
X156069047Y-142934142D01*
X156069047Y-143041285D01*
X156045238Y-143112714D01*
X156021428Y-143148428D01*
X155973809Y-143184142D01*
X155783333Y-143184142D01*
X156378571Y-142791285D02*
X156473809Y-142791285D01*
X156521428Y-142827000D01*
X156569047Y-142898428D01*
X156592857Y-143041285D01*
X156592857Y-143291285D01*
X156569047Y-143434142D01*
X156521428Y-143505571D01*
X156473809Y-143541285D01*
X156378571Y-143541285D01*
X156330952Y-143505571D01*
X156283333Y-143434142D01*
X156259523Y-143291285D01*
X156259523Y-143041285D01*
X156283333Y-142898428D01*
X156330952Y-142827000D01*
X156378571Y-142791285D01*
X156759523Y-142791285D02*
X156878571Y-143541285D01*
X156973809Y-143005571D01*
X157069047Y-143541285D01*
X157188095Y-142791285D01*
X157640476Y-143541285D02*
X157354761Y-143541285D01*
X157497619Y-143541285D02*
X157497619Y-142791285D01*
X157450000Y-142898428D01*
X157402380Y-142969857D01*
X157354761Y-143005571D01*
X140952380Y-146017857D02*
X140928571Y-146053571D01*
X140857142Y-146089285D01*
X140809523Y-146089285D01*
X140738095Y-146053571D01*
X140690476Y-145982142D01*
X140666666Y-145910714D01*
X140642857Y-145767857D01*
X140642857Y-145660714D01*
X140666666Y-145517857D01*
X140690476Y-145446428D01*
X140738095Y-145375000D01*
X140809523Y-145339285D01*
X140857142Y-145339285D01*
X140928571Y-145375000D01*
X140952380Y-145410714D01*
X141261904Y-145339285D02*
X141357142Y-145339285D01*
X141404761Y-145375000D01*
X141452380Y-145446428D01*
X141476190Y-145589285D01*
X141476190Y-145839285D01*
X141452380Y-145982142D01*
X141404761Y-146053571D01*
X141357142Y-146089285D01*
X141261904Y-146089285D01*
X141214285Y-146053571D01*
X141166666Y-145982142D01*
X141142857Y-145839285D01*
X141142857Y-145589285D01*
X141166666Y-145446428D01*
X141214285Y-145375000D01*
X141261904Y-145339285D01*
X141928571Y-146089285D02*
X141690476Y-146089285D01*
X141690476Y-145339285D01*
X142309523Y-145589285D02*
X142309523Y-146089285D01*
X142190476Y-145303571D02*
X142071428Y-145839285D01*
X142380952Y-145839285D01*
X156019047Y-146089285D02*
X155852380Y-145732142D01*
X155733333Y-146089285D02*
X155733333Y-145339285D01*
X155923809Y-145339285D01*
X155971428Y-145375000D01*
X155995238Y-145410714D01*
X156019047Y-145482142D01*
X156019047Y-145589285D01*
X155995238Y-145660714D01*
X155971428Y-145696428D01*
X155923809Y-145732142D01*
X155733333Y-145732142D01*
X156328571Y-145339285D02*
X156423809Y-145339285D01*
X156471428Y-145375000D01*
X156519047Y-145446428D01*
X156542857Y-145589285D01*
X156542857Y-145839285D01*
X156519047Y-145982142D01*
X156471428Y-146053571D01*
X156423809Y-146089285D01*
X156328571Y-146089285D01*
X156280952Y-146053571D01*
X156233333Y-145982142D01*
X156209523Y-145839285D01*
X156209523Y-145589285D01*
X156233333Y-145446428D01*
X156280952Y-145375000D01*
X156328571Y-145339285D01*
X156709523Y-145339285D02*
X156828571Y-146089285D01*
X156923809Y-145553571D01*
X157019047Y-146089285D01*
X157138095Y-145339285D01*
X157304761Y-145410714D02*
X157328571Y-145375000D01*
X157376190Y-145339285D01*
X157495238Y-145339285D01*
X157542857Y-145375000D01*
X157566666Y-145410714D01*
X157590476Y-145482142D01*
X157590476Y-145553571D01*
X157566666Y-145660714D01*
X157280952Y-146089285D01*
X157590476Y-146089285D01*
X140952380Y-148613357D02*
X140928571Y-148649071D01*
X140857142Y-148684785D01*
X140809523Y-148684785D01*
X140738095Y-148649071D01*
X140690476Y-148577642D01*
X140666666Y-148506214D01*
X140642857Y-148363357D01*
X140642857Y-148256214D01*
X140666666Y-148113357D01*
X140690476Y-148041928D01*
X140738095Y-147970500D01*
X140809523Y-147934785D01*
X140857142Y-147934785D01*
X140928571Y-147970500D01*
X140952380Y-148006214D01*
X141261904Y-147934785D02*
X141357142Y-147934785D01*
X141404761Y-147970500D01*
X141452380Y-148041928D01*
X141476190Y-148184785D01*
X141476190Y-148434785D01*
X141452380Y-148577642D01*
X141404761Y-148649071D01*
X141357142Y-148684785D01*
X141261904Y-148684785D01*
X141214285Y-148649071D01*
X141166666Y-148577642D01*
X141142857Y-148434785D01*
X141142857Y-148184785D01*
X141166666Y-148041928D01*
X141214285Y-147970500D01*
X141261904Y-147934785D01*
X141928571Y-148684785D02*
X141690476Y-148684785D01*
X141690476Y-147934785D01*
X142333333Y-147934785D02*
X142095238Y-147934785D01*
X142071428Y-148291928D01*
X142095238Y-148256214D01*
X142142857Y-148220500D01*
X142261904Y-148220500D01*
X142309523Y-148256214D01*
X142333333Y-148291928D01*
X142357142Y-148363357D01*
X142357142Y-148541928D01*
X142333333Y-148613357D01*
X142309523Y-148649071D01*
X142261904Y-148684785D01*
X142142857Y-148684785D01*
X142095238Y-148649071D01*
X142071428Y-148613357D01*
X156019047Y-148684785D02*
X155852380Y-148327642D01*
X155733333Y-148684785D02*
X155733333Y-147934785D01*
X155923809Y-147934785D01*
X155971428Y-147970500D01*
X155995238Y-148006214D01*
X156019047Y-148077642D01*
X156019047Y-148184785D01*
X155995238Y-148256214D01*
X155971428Y-148291928D01*
X155923809Y-148327642D01*
X155733333Y-148327642D01*
X156328571Y-147934785D02*
X156423809Y-147934785D01*
X156471428Y-147970500D01*
X156519047Y-148041928D01*
X156542857Y-148184785D01*
X156542857Y-148434785D01*
X156519047Y-148577642D01*
X156471428Y-148649071D01*
X156423809Y-148684785D01*
X156328571Y-148684785D01*
X156280952Y-148649071D01*
X156233333Y-148577642D01*
X156209523Y-148434785D01*
X156209523Y-148184785D01*
X156233333Y-148041928D01*
X156280952Y-147970500D01*
X156328571Y-147934785D01*
X156709523Y-147934785D02*
X156828571Y-148684785D01*
X156923809Y-148149071D01*
X157019047Y-148684785D01*
X157138095Y-147934785D01*
X157280952Y-147934785D02*
X157590476Y-147934785D01*
X157423809Y-148220500D01*
X157495238Y-148220500D01*
X157542857Y-148256214D01*
X157566666Y-148291928D01*
X157590476Y-148363357D01*
X157590476Y-148541928D01*
X157566666Y-148613357D01*
X157542857Y-148649071D01*
X157495238Y-148684785D01*
X157352380Y-148684785D01*
X157304761Y-148649071D01*
X157280952Y-148613357D01*
X141297619Y-150796428D02*
X141369047Y-150832142D01*
X141392857Y-150867857D01*
X141416666Y-150939285D01*
X141416666Y-151046428D01*
X141392857Y-151117857D01*
X141369047Y-151153571D01*
X141321428Y-151189285D01*
X141130952Y-151189285D01*
X141130952Y-150439285D01*
X141297619Y-150439285D01*
X141345238Y-150475000D01*
X141369047Y-150510714D01*
X141392857Y-150582142D01*
X141392857Y-150653571D01*
X141369047Y-150725000D01*
X141345238Y-150760714D01*
X141297619Y-150796428D01*
X141130952Y-150796428D01*
X141607142Y-150510714D02*
X141630952Y-150475000D01*
X141678571Y-150439285D01*
X141797619Y-150439285D01*
X141845238Y-150475000D01*
X141869047Y-150510714D01*
X141892857Y-150582142D01*
X141892857Y-150653571D01*
X141869047Y-150760714D01*
X141583333Y-151189285D01*
X141892857Y-151189285D01*
X156447619Y-150768428D02*
X156519047Y-150804142D01*
X156542857Y-150839857D01*
X156566666Y-150911285D01*
X156566666Y-151018428D01*
X156542857Y-151089857D01*
X156519047Y-151125571D01*
X156471428Y-151161285D01*
X156280952Y-151161285D01*
X156280952Y-150411285D01*
X156447619Y-150411285D01*
X156495238Y-150447000D01*
X156519047Y-150482714D01*
X156542857Y-150554142D01*
X156542857Y-150625571D01*
X156519047Y-150697000D01*
X156495238Y-150732714D01*
X156447619Y-150768428D01*
X156280952Y-150768428D01*
X156995238Y-150661285D02*
X156995238Y-151161285D01*
X156876190Y-150375571D02*
X156757142Y-150911285D01*
X157066666Y-150911285D01*
X156447619Y-153371928D02*
X156519047Y-153407642D01*
X156542857Y-153443357D01*
X156566666Y-153514785D01*
X156566666Y-153621928D01*
X156542857Y-153693357D01*
X156519047Y-153729071D01*
X156471428Y-153764785D01*
X156280952Y-153764785D01*
X156280952Y-153014785D01*
X156447619Y-153014785D01*
X156495238Y-153050500D01*
X156519047Y-153086214D01*
X156542857Y-153157642D01*
X156542857Y-153229071D01*
X156519047Y-153300500D01*
X156495238Y-153336214D01*
X156447619Y-153371928D01*
X156280952Y-153371928D01*
X157019047Y-153014785D02*
X156780952Y-153014785D01*
X156757142Y-153371928D01*
X156780952Y-153336214D01*
X156828571Y-153300500D01*
X156947619Y-153300500D01*
X156995238Y-153336214D01*
X157019047Y-153371928D01*
X157042857Y-153443357D01*
X157042857Y-153621928D01*
X157019047Y-153693357D01*
X156995238Y-153729071D01*
X156947619Y-153764785D01*
X156828571Y-153764785D01*
X156780952Y-153729071D01*
X156757142Y-153693357D01*
X141197619Y-153346428D02*
X141269047Y-153382142D01*
X141292857Y-153417857D01*
X141316666Y-153489285D01*
X141316666Y-153596428D01*
X141292857Y-153667857D01*
X141269047Y-153703571D01*
X141221428Y-153739285D01*
X141030952Y-153739285D01*
X141030952Y-152989285D01*
X141197619Y-152989285D01*
X141245238Y-153025000D01*
X141269047Y-153060714D01*
X141292857Y-153132142D01*
X141292857Y-153203571D01*
X141269047Y-153275000D01*
X141245238Y-153310714D01*
X141197619Y-153346428D01*
X141030952Y-153346428D01*
X141745238Y-152989285D02*
X141650000Y-152989285D01*
X141602380Y-153025000D01*
X141578571Y-153060714D01*
X141530952Y-153167857D01*
X141507142Y-153310714D01*
X141507142Y-153596428D01*
X141530952Y-153667857D01*
X141554761Y-153703571D01*
X141602380Y-153739285D01*
X141697619Y-153739285D01*
X141745238Y-153703571D01*
X141769047Y-153667857D01*
X141792857Y-153596428D01*
X141792857Y-153417857D01*
X141769047Y-153346428D01*
X141745238Y-153310714D01*
X141697619Y-153275000D01*
X141602380Y-153275000D01*
X141554761Y-153310714D01*
X141530952Y-153346428D01*
X141507142Y-153417857D01*
X141002380Y-135867857D02*
X140978571Y-135903571D01*
X140907142Y-135939285D01*
X140859523Y-135939285D01*
X140788095Y-135903571D01*
X140740476Y-135832142D01*
X140716666Y-135760714D01*
X140692857Y-135617857D01*
X140692857Y-135510714D01*
X140716666Y-135367857D01*
X140740476Y-135296428D01*
X140788095Y-135225000D01*
X140859523Y-135189285D01*
X140907142Y-135189285D01*
X140978571Y-135225000D01*
X141002380Y-135260714D01*
X141311904Y-135189285D02*
X141407142Y-135189285D01*
X141454761Y-135225000D01*
X141502380Y-135296428D01*
X141526190Y-135439285D01*
X141526190Y-135689285D01*
X141502380Y-135832142D01*
X141454761Y-135903571D01*
X141407142Y-135939285D01*
X141311904Y-135939285D01*
X141264285Y-135903571D01*
X141216666Y-135832142D01*
X141192857Y-135689285D01*
X141192857Y-135439285D01*
X141216666Y-135296428D01*
X141264285Y-135225000D01*
X141311904Y-135189285D01*
X141978571Y-135939285D02*
X141740476Y-135939285D01*
X141740476Y-135189285D01*
X142240476Y-135189285D02*
X142288095Y-135189285D01*
X142335714Y-135225000D01*
X142359523Y-135260714D01*
X142383333Y-135332142D01*
X142407142Y-135475000D01*
X142407142Y-135653571D01*
X142383333Y-135796428D01*
X142359523Y-135867857D01*
X142335714Y-135903571D01*
X142288095Y-135939285D01*
X142240476Y-135939285D01*
X142192857Y-135903571D01*
X142169047Y-135867857D01*
X142145238Y-135796428D01*
X142121428Y-135653571D01*
X142121428Y-135475000D01*
X142145238Y-135332142D01*
X142169047Y-135260714D01*
X142192857Y-135225000D01*
X142240476Y-135189285D01*
X156303857Y-135885571D02*
X156375285Y-135921285D01*
X156494333Y-135921285D01*
X156541952Y-135885571D01*
X156565761Y-135849857D01*
X156589571Y-135778428D01*
X156589571Y-135707000D01*
X156565761Y-135635571D01*
X156541952Y-135599857D01*
X156494333Y-135564142D01*
X156399095Y-135528428D01*
X156351476Y-135492714D01*
X156327666Y-135457000D01*
X156303857Y-135385571D01*
X156303857Y-135314142D01*
X156327666Y-135242714D01*
X156351476Y-135207000D01*
X156399095Y-135171285D01*
X156518142Y-135171285D01*
X156589571Y-135207000D01*
X156803857Y-135921285D02*
X156803857Y-135171285D01*
X156922904Y-135171285D01*
X156994333Y-135207000D01*
X157041952Y-135278428D01*
X157065761Y-135349857D01*
X157089571Y-135492714D01*
X157089571Y-135599857D01*
X157065761Y-135742714D01*
X157041952Y-135814142D01*
X156994333Y-135885571D01*
X156922904Y-135921285D01*
X156803857Y-135921285D01*
X157280047Y-135707000D02*
X157518142Y-135707000D01*
X157232428Y-135921285D02*
X157399095Y-135171285D01*
X157565761Y-135921285D01*
X141052380Y-138389857D02*
X141028571Y-138425571D01*
X140957142Y-138461285D01*
X140909523Y-138461285D01*
X140838095Y-138425571D01*
X140790476Y-138354142D01*
X140766666Y-138282714D01*
X140742857Y-138139857D01*
X140742857Y-138032714D01*
X140766666Y-137889857D01*
X140790476Y-137818428D01*
X140838095Y-137747000D01*
X140909523Y-137711285D01*
X140957142Y-137711285D01*
X141028571Y-137747000D01*
X141052380Y-137782714D01*
X141361904Y-137711285D02*
X141457142Y-137711285D01*
X141504761Y-137747000D01*
X141552380Y-137818428D01*
X141576190Y-137961285D01*
X141576190Y-138211285D01*
X141552380Y-138354142D01*
X141504761Y-138425571D01*
X141457142Y-138461285D01*
X141361904Y-138461285D01*
X141314285Y-138425571D01*
X141266666Y-138354142D01*
X141242857Y-138211285D01*
X141242857Y-137961285D01*
X141266666Y-137818428D01*
X141314285Y-137747000D01*
X141361904Y-137711285D01*
X142028571Y-138461285D02*
X141790476Y-138461285D01*
X141790476Y-137711285D01*
X142457142Y-138461285D02*
X142171428Y-138461285D01*
X142314285Y-138461285D02*
X142314285Y-137711285D01*
X142266666Y-137818428D01*
X142219047Y-137889857D01*
X142171428Y-137925571D01*
X156315761Y-138425571D02*
X156387190Y-138461285D01*
X156506238Y-138461285D01*
X156553857Y-138425571D01*
X156577666Y-138389857D01*
X156601476Y-138318428D01*
X156601476Y-138247000D01*
X156577666Y-138175571D01*
X156553857Y-138139857D01*
X156506238Y-138104142D01*
X156411000Y-138068428D01*
X156363380Y-138032714D01*
X156339571Y-137997000D01*
X156315761Y-137925571D01*
X156315761Y-137854142D01*
X156339571Y-137782714D01*
X156363380Y-137747000D01*
X156411000Y-137711285D01*
X156530047Y-137711285D01*
X156601476Y-137747000D01*
X157101476Y-138389857D02*
X157077666Y-138425571D01*
X157006238Y-138461285D01*
X156958619Y-138461285D01*
X156887190Y-138425571D01*
X156839571Y-138354142D01*
X156815761Y-138282714D01*
X156791952Y-138139857D01*
X156791952Y-138032714D01*
X156815761Y-137889857D01*
X156839571Y-137818428D01*
X156887190Y-137747000D01*
X156958619Y-137711285D01*
X157006238Y-137711285D01*
X157077666Y-137747000D01*
X157101476Y-137782714D01*
X157553857Y-138461285D02*
X157315761Y-138461285D01*
X157315761Y-137711285D01*
X141002380Y-140929857D02*
X140978571Y-140965571D01*
X140907142Y-141001285D01*
X140859523Y-141001285D01*
X140788095Y-140965571D01*
X140740476Y-140894142D01*
X140716666Y-140822714D01*
X140692857Y-140679857D01*
X140692857Y-140572714D01*
X140716666Y-140429857D01*
X140740476Y-140358428D01*
X140788095Y-140287000D01*
X140859523Y-140251285D01*
X140907142Y-140251285D01*
X140978571Y-140287000D01*
X141002380Y-140322714D01*
X141311904Y-140251285D02*
X141407142Y-140251285D01*
X141454761Y-140287000D01*
X141502380Y-140358428D01*
X141526190Y-140501285D01*
X141526190Y-140751285D01*
X141502380Y-140894142D01*
X141454761Y-140965571D01*
X141407142Y-141001285D01*
X141311904Y-141001285D01*
X141264285Y-140965571D01*
X141216666Y-140894142D01*
X141192857Y-140751285D01*
X141192857Y-140501285D01*
X141216666Y-140358428D01*
X141264285Y-140287000D01*
X141311904Y-140251285D01*
X141978571Y-141001285D02*
X141740476Y-141001285D01*
X141740476Y-140251285D01*
X142121428Y-140322714D02*
X142145238Y-140287000D01*
X142192857Y-140251285D01*
X142311904Y-140251285D01*
X142359523Y-140287000D01*
X142383333Y-140322714D01*
X142407142Y-140394142D01*
X142407142Y-140465571D01*
X142383333Y-140572714D01*
X142097619Y-141001285D01*
X142407142Y-141001285D01*
X156019047Y-141039285D02*
X155852380Y-140682142D01*
X155733333Y-141039285D02*
X155733333Y-140289285D01*
X155923809Y-140289285D01*
X155971428Y-140325000D01*
X155995238Y-140360714D01*
X156019047Y-140432142D01*
X156019047Y-140539285D01*
X155995238Y-140610714D01*
X155971428Y-140646428D01*
X155923809Y-140682142D01*
X155733333Y-140682142D01*
X156328571Y-140289285D02*
X156423809Y-140289285D01*
X156471428Y-140325000D01*
X156519047Y-140396428D01*
X156542857Y-140539285D01*
X156542857Y-140789285D01*
X156519047Y-140932142D01*
X156471428Y-141003571D01*
X156423809Y-141039285D01*
X156328571Y-141039285D01*
X156280952Y-141003571D01*
X156233333Y-140932142D01*
X156209523Y-140789285D01*
X156209523Y-140539285D01*
X156233333Y-140396428D01*
X156280952Y-140325000D01*
X156328571Y-140289285D01*
X156709523Y-140289285D02*
X156828571Y-141039285D01*
X156923809Y-140503571D01*
X157019047Y-141039285D01*
X157138095Y-140289285D01*
X157423809Y-140289285D02*
X157471428Y-140289285D01*
X157519047Y-140325000D01*
X157542857Y-140360714D01*
X157566666Y-140432142D01*
X157590476Y-140575000D01*
X157590476Y-140753571D01*
X157566666Y-140896428D01*
X157542857Y-140967857D01*
X157519047Y-141003571D01*
X157471428Y-141039285D01*
X157423809Y-141039285D01*
X157376190Y-141003571D01*
X157352380Y-140967857D01*
X157328571Y-140896428D01*
X157304761Y-140753571D01*
X157304761Y-140575000D01*
X157328571Y-140432142D01*
X157352380Y-140360714D01*
X157376190Y-140325000D01*
X157423809Y-140289285D01*
X140902380Y-143517857D02*
X140878571Y-143553571D01*
X140807142Y-143589285D01*
X140759523Y-143589285D01*
X140688095Y-143553571D01*
X140640476Y-143482142D01*
X140616666Y-143410714D01*
X140592857Y-143267857D01*
X140592857Y-143160714D01*
X140616666Y-143017857D01*
X140640476Y-142946428D01*
X140688095Y-142875000D01*
X140759523Y-142839285D01*
X140807142Y-142839285D01*
X140878571Y-142875000D01*
X140902380Y-142910714D01*
X141211904Y-142839285D02*
X141307142Y-142839285D01*
X141354761Y-142875000D01*
X141402380Y-142946428D01*
X141426190Y-143089285D01*
X141426190Y-143339285D01*
X141402380Y-143482142D01*
X141354761Y-143553571D01*
X141307142Y-143589285D01*
X141211904Y-143589285D01*
X141164285Y-143553571D01*
X141116666Y-143482142D01*
X141092857Y-143339285D01*
X141092857Y-143089285D01*
X141116666Y-142946428D01*
X141164285Y-142875000D01*
X141211904Y-142839285D01*
X141878571Y-143589285D02*
X141640476Y-143589285D01*
X141640476Y-142839285D01*
X141997619Y-142839285D02*
X142307142Y-142839285D01*
X142140476Y-143125000D01*
X142211904Y-143125000D01*
X142259523Y-143160714D01*
X142283333Y-143196428D01*
X142307142Y-143267857D01*
X142307142Y-143446428D01*
X142283333Y-143517857D01*
X142259523Y-143553571D01*
X142211904Y-143589285D01*
X142069047Y-143589285D01*
X142021428Y-143553571D01*
X141997619Y-143517857D01*
X156530047Y-132730500D02*
X156482428Y-132694785D01*
X156411000Y-132694785D01*
X156339571Y-132730500D01*
X156291952Y-132801928D01*
X156268142Y-132873357D01*
X156244333Y-133016214D01*
X156244333Y-133123357D01*
X156268142Y-133266214D01*
X156291952Y-133337642D01*
X156339571Y-133409071D01*
X156411000Y-133444785D01*
X156458619Y-133444785D01*
X156530047Y-133409071D01*
X156553857Y-133373357D01*
X156553857Y-133123357D01*
X156458619Y-133123357D01*
X156768142Y-133444785D02*
X156768142Y-132694785D01*
X157053857Y-133444785D01*
X157053857Y-132694785D01*
X157291952Y-133444785D02*
X157291952Y-132694785D01*
X157411000Y-132694785D01*
X157482428Y-132730500D01*
X157530047Y-132801928D01*
X157553857Y-132873357D01*
X157577666Y-133016214D01*
X157577666Y-133123357D01*
X157553857Y-133266214D01*
X157530047Y-133337642D01*
X157482428Y-133409071D01*
X157411000Y-133444785D01*
X157291952Y-133444785D01*
X141067833Y-132631285D02*
X141234500Y-133381285D01*
X141401166Y-132631285D01*
X141853547Y-133309857D02*
X141829738Y-133345571D01*
X141758309Y-133381285D01*
X141710690Y-133381285D01*
X141639261Y-133345571D01*
X141591642Y-133274142D01*
X141567833Y-133202714D01*
X141544023Y-133059857D01*
X141544023Y-132952714D01*
X141567833Y-132809857D01*
X141591642Y-132738428D01*
X141639261Y-132667000D01*
X141710690Y-132631285D01*
X141758309Y-132631285D01*
X141829738Y-132667000D01*
X141853547Y-132702714D01*
X142353547Y-133309857D02*
X142329738Y-133345571D01*
X142258309Y-133381285D01*
X142210690Y-133381285D01*
X142139261Y-133345571D01*
X142091642Y-133274142D01*
X142067833Y-133202714D01*
X142044023Y-133059857D01*
X142044023Y-132952714D01*
X142067833Y-132809857D01*
X142091642Y-132738428D01*
X142139261Y-132667000D01*
X142210690Y-132631285D01*
X142258309Y-132631285D01*
X142329738Y-132667000D01*
X142353547Y-132702714D01*
X156593547Y-130190500D02*
X156545928Y-130154785D01*
X156474500Y-130154785D01*
X156403071Y-130190500D01*
X156355452Y-130261928D01*
X156331642Y-130333357D01*
X156307833Y-130476214D01*
X156307833Y-130583357D01*
X156331642Y-130726214D01*
X156355452Y-130797642D01*
X156403071Y-130869071D01*
X156474500Y-130904785D01*
X156522119Y-130904785D01*
X156593547Y-130869071D01*
X156617357Y-130833357D01*
X156617357Y-130583357D01*
X156522119Y-130583357D01*
X156831642Y-130904785D02*
X156831642Y-130154785D01*
X157117357Y-130904785D01*
X157117357Y-130154785D01*
X157355452Y-130904785D02*
X157355452Y-130154785D01*
X157474500Y-130154785D01*
X157545928Y-130190500D01*
X157593547Y-130261928D01*
X157617357Y-130333357D01*
X157641166Y-130476214D01*
X157641166Y-130583357D01*
X157617357Y-130726214D01*
X157593547Y-130797642D01*
X157545928Y-130869071D01*
X157474500Y-130904785D01*
X157355452Y-130904785D01*
X141460690Y-130904785D02*
X141294023Y-130547642D01*
X141174976Y-130904785D02*
X141174976Y-130154785D01*
X141365452Y-130154785D01*
X141413071Y-130190500D01*
X141436880Y-130226214D01*
X141460690Y-130297642D01*
X141460690Y-130404785D01*
X141436880Y-130476214D01*
X141413071Y-130511928D01*
X141365452Y-130547642D01*
X141174976Y-130547642D01*
X141651166Y-130869071D02*
X141722595Y-130904785D01*
X141841642Y-130904785D01*
X141889261Y-130869071D01*
X141913071Y-130833357D01*
X141936880Y-130761928D01*
X141936880Y-130690500D01*
X141913071Y-130619071D01*
X141889261Y-130583357D01*
X141841642Y-130547642D01*
X141746404Y-130511928D01*
X141698785Y-130476214D01*
X141674976Y-130440500D01*
X141651166Y-130369071D01*
X141651166Y-130297642D01*
X141674976Y-130226214D01*
X141698785Y-130190500D01*
X141746404Y-130154785D01*
X141865452Y-130154785D01*
X141936880Y-130190500D01*
X142079738Y-130154785D02*
X142365452Y-130154785D01*
X142222595Y-130904785D02*
X142222595Y-130154785D01*
X156050000Y-128289285D02*
X156050000Y-127539285D01*
X156169047Y-127539285D01*
X156240476Y-127575000D01*
X156288095Y-127646428D01*
X156311904Y-127717857D01*
X156335714Y-127860714D01*
X156335714Y-127967857D01*
X156311904Y-128110714D01*
X156288095Y-128182142D01*
X156240476Y-128253571D01*
X156169047Y-128289285D01*
X156050000Y-128289285D01*
X156526190Y-128075000D02*
X156764285Y-128075000D01*
X156478571Y-128289285D02*
X156645238Y-127539285D01*
X156811904Y-128289285D01*
X156907142Y-127539285D02*
X157192857Y-127539285D01*
X157050000Y-128289285D02*
X157050000Y-127539285D01*
X157335714Y-128075000D02*
X157573809Y-128075000D01*
X157288095Y-128289285D02*
X157454761Y-127539285D01*
X157621428Y-128289285D01*
X141353547Y-127587000D02*
X141305928Y-127551285D01*
X141234500Y-127551285D01*
X141163071Y-127587000D01*
X141115452Y-127658428D01*
X141091642Y-127729857D01*
X141067833Y-127872714D01*
X141067833Y-127979857D01*
X141091642Y-128122714D01*
X141115452Y-128194142D01*
X141163071Y-128265571D01*
X141234500Y-128301285D01*
X141282119Y-128301285D01*
X141353547Y-128265571D01*
X141377357Y-128229857D01*
X141377357Y-127979857D01*
X141282119Y-127979857D01*
X141591642Y-128301285D02*
X141591642Y-127551285D01*
X141877357Y-128301285D01*
X141877357Y-127551285D01*
X142115452Y-128301285D02*
X142115452Y-127551285D01*
X142234500Y-127551285D01*
X142305928Y-127587000D01*
X142353547Y-127658428D01*
X142377357Y-127729857D01*
X142401166Y-127872714D01*
X142401166Y-127979857D01*
X142377357Y-128122714D01*
X142353547Y-128194142D01*
X142305928Y-128265571D01*
X142234500Y-128301285D01*
X142115452Y-128301285D01*
X156628571Y-125761285D02*
X156390476Y-125761285D01*
X156390476Y-125011285D01*
X156795238Y-125368428D02*
X156961904Y-125368428D01*
X157033333Y-125761285D02*
X156795238Y-125761285D01*
X156795238Y-125011285D01*
X157033333Y-125011285D01*
X157247619Y-125761285D02*
X157247619Y-125011285D01*
X157366666Y-125011285D01*
X157438095Y-125047000D01*
X157485714Y-125118428D01*
X157509523Y-125189857D01*
X157533333Y-125332714D01*
X157533333Y-125439857D01*
X157509523Y-125582714D01*
X157485714Y-125654142D01*
X157438095Y-125725571D01*
X157366666Y-125761285D01*
X157247619Y-125761285D01*
X141389261Y-125761285D02*
X141222595Y-125404142D01*
X141103547Y-125761285D02*
X141103547Y-125011285D01*
X141294023Y-125011285D01*
X141341642Y-125047000D01*
X141365452Y-125082714D01*
X141389261Y-125154142D01*
X141389261Y-125261285D01*
X141365452Y-125332714D01*
X141341642Y-125368428D01*
X141294023Y-125404142D01*
X141103547Y-125404142D01*
X141579738Y-125547000D02*
X141817833Y-125547000D01*
X141532119Y-125761285D02*
X141698785Y-125011285D01*
X141865452Y-125761285D01*
X141984500Y-125011285D02*
X142103547Y-125761285D01*
X142198785Y-125225571D01*
X142294023Y-125761285D01*
X142413071Y-125011285D01*
D11*
G04 #@! TD*
M02*
