M48
;DRILL file {KiCad (5.0.2)-1} date 18/03/2019 17:42:14
;FORMAT={-:-/ absolute / metric / decimal}
FMAT,2
METRIC,TZ
T1C0.400
T2C0.813
T3C1.300
T4C2.200
%
G90
G05
T1
X141.85Y-171.525
X152.Y-175.55
X163.975Y-171.75
X166.775Y-161.6
X180.15Y-155.9
X183.5Y-139.775
X183.5Y-159.275
X183.5Y-164.35
X183.55Y-145.225
X198.825Y-127.25
X202.525Y-140.175
X202.525Y-145.4
X202.55Y-159.325
X202.575Y-183.425
X202.6Y-164.375
X202.6Y-178.45
X218.58Y-126.5
X221.6Y-159.225
X221.6Y-164.4
X221.625Y-140.325
X221.65Y-145.4
X238.05Y-125.744
X240.6Y-195.225
X240.65Y-140.3
X240.65Y-159.475
X240.65Y-178.475
X240.675Y-145.325
X240.675Y-164.425
X256.35Y-125.019
X259.675Y-178.35
X259.675Y-183.475
X259.7Y-159.2
X259.7Y-164.375
X259.725Y-140.275
X259.75Y-145.375
X272.225Y-124.294
X278.75Y-140.175
X278.75Y-159.375
X278.75Y-164.4
X278.775Y-145.55
X286.Y-123.569
X297.8Y-159.25
X297.8Y-164.4
X297.8Y-178.275
X297.825Y-183.475
X297.85Y-140.275
X297.875Y-145.275
X307.1Y-122.844
X316.875Y-159.325
X316.875Y-164.45
X316.9Y-140.5
X316.925Y-145.4
X326.225Y-122.119
X335.9Y-140.325
X335.9Y-145.325
X335.925Y-159.375
X335.925Y-164.525
T2
X143.886Y-125.422
X143.886Y-127.962
X143.886Y-130.502
X143.886Y-133.042
X143.886Y-135.582
X143.886Y-138.122
X143.886Y-140.662
X143.886Y-143.202
X143.886Y-145.742
X143.886Y-148.282
X143.886Y-150.822
X143.886Y-153.362
X159.106Y-125.422
X159.106Y-127.962
X159.106Y-130.502
X159.106Y-133.042
X159.106Y-135.582
X159.106Y-138.122
X159.106Y-140.662
X159.106Y-143.202
X159.106Y-145.742
X159.106Y-148.282
X159.106Y-150.822
X159.106Y-153.362
T3
X147.85Y-158.275
X154.35Y-158.275
T4
X351.325Y-185.4
X352.4Y-123.825
X143.025Y-185.15
X257.15Y-185.85
X200.025Y-135.1
T0
M30
