M48
; DRILL file {KiCad (5.1.0-0)} date 2019 June 07, Friday 13:20:01
; FORMAT={-:-/ absolute / metric / decimal}
; #@! TF.CreationDate,2019-06-07T13:20:01+08:00
; #@! TF.GenerationSoftware,Kicad,Pcbnew,(5.1.0-0)
; #@! TF.FileFunction,NonPlated,1,2,NPTH
FMAT,2
METRIC
T1C1.900
T2C3.000
T3C4.100
T4C4.800
%
G90
G05
T1
X266.701Y-185.421
X266.701Y-195.581
X242.571Y-171.451
X252.731Y-171.451
X276.226Y-185.421
X276.226Y-195.581
X185.42Y-152.4
X195.58Y-152.4
X318.771Y-171.451
X328.931Y-171.451
X242.571Y-133.351
X252.731Y-133.351
X223.52Y-171.45
X233.68Y-171.45
X185.42Y-171.45
X195.58Y-171.45
X238.126Y-185.421
X238.126Y-195.581
X166.37Y-171.451
X176.53Y-171.451
X261.621Y-133.351
X271.781Y-133.351
X318.771Y-152.401
X328.931Y-152.401
X299.721Y-133.351
X309.881Y-133.351
X176.531Y-152.401
X337.821Y-152.401
X347.981Y-152.401
X299.721Y-190.501
X309.881Y-190.501
X223.52Y-152.4
X233.68Y-152.4
X280.671Y-171.451
X290.831Y-171.451
X247.651Y-185.421
X247.651Y-195.581
X318.771Y-133.351
X242.571Y-152.401
X252.731Y-152.401
X328.931Y-133.351
X204.47Y-152.4
X214.63Y-152.4
X147.321Y-171.451
X157.481Y-171.451
X204.47Y-133.35
X214.63Y-133.35
X166.371Y-152.401
X285.75Y-185.421
X285.75Y-195.581
X185.42Y-133.35
X195.58Y-133.35
X261.62Y-171.451
X271.78Y-171.451
X337.821Y-133.351
X347.981Y-133.351
X261.62Y-152.401
X271.78Y-152.401
X299.72Y-171.451
X309.88Y-171.451
X223.52Y-133.35
X233.68Y-133.35
X280.671Y-152.401
X290.831Y-152.401
X299.721Y-152.401
X309.881Y-152.401
X228.601Y-185.421
X228.601Y-195.581
X204.47Y-171.45
X214.63Y-171.45
X204.47Y-190.5
X214.63Y-190.5
X280.671Y-133.351
X290.831Y-133.351
X337.82Y-171.451
X347.98Y-171.451
X166.371Y-133.351
X176.531Y-133.351
T2
X167.641Y-130.811
X173.991Y-128.271
X261.621Y-187.961
X264.161Y-194.311
X243.841Y-168.911
X250.191Y-166.371
X271.146Y-187.961
X273.686Y-194.311
X320.041Y-168.911
X326.391Y-166.371
X243.841Y-130.811
X250.191Y-128.271
X148.591Y-168.911
X154.941Y-166.371
X224.79Y-168.91
X231.14Y-166.37
X205.74Y-130.81
X212.09Y-128.27
X186.69Y-149.86
X193.04Y-147.32
X240.666Y-186.691
X243.206Y-193.041
X262.891Y-130.811
X269.241Y-128.271
X320.041Y-149.861
X326.391Y-147.321
X300.991Y-130.811
X307.341Y-128.271
X167.641Y-149.861
X173.991Y-147.321
X339.091Y-149.861
X345.441Y-147.321
X300.991Y-187.961
X307.341Y-185.421
X224.79Y-149.86
X231.14Y-147.32
X281.941Y-168.911
X288.291Y-166.371
X186.69Y-168.91
X193.04Y-166.37
X167.64Y-168.911
X173.99Y-166.371
X250.191Y-186.691
X252.731Y-193.041
X320.041Y-130.811
X326.391Y-128.271
X288.29Y-186.691
X290.83Y-193.041
X186.69Y-130.81
X193.04Y-128.27
X262.89Y-168.911
X269.24Y-166.371
X339.091Y-130.811
X300.99Y-168.911
X307.34Y-166.371
X262.89Y-149.861
X269.24Y-147.321
X224.79Y-130.81
X231.14Y-128.27
X281.941Y-149.861
X288.291Y-147.321
X300.991Y-149.861
X223.521Y-187.961
X226.061Y-194.311
X205.74Y-168.91
X212.09Y-166.37
X307.341Y-147.321
X205.74Y-187.96
X212.09Y-185.42
X281.941Y-130.811
X288.291Y-128.271
X339.09Y-168.911
X345.44Y-166.371
X205.74Y-149.86
X212.09Y-147.32
X243.841Y-149.861
X250.191Y-147.321
X345.441Y-128.271
T3
X342.901Y-152.401
X247.651Y-190.501
X285.75Y-190.501
X304.801Y-190.501
X190.5Y-133.35
X304.8Y-171.451
X304.801Y-152.401
X209.55Y-190.5
X171.45Y-171.451
X323.851Y-133.351
X266.7Y-152.401
X285.751Y-133.351
X228.6Y-171.45
X228.6Y-152.4
X285.751Y-171.451
X190.5Y-171.45
X266.7Y-171.451
X342.901Y-133.351
X228.6Y-133.35
X285.751Y-152.401
X342.9Y-171.451
X228.601Y-190.501
X247.651Y-152.401
X171.451Y-133.351
X247.651Y-171.451
X323.851Y-171.451
X247.651Y-133.351
X152.401Y-171.451
X190.5Y-152.4
X266.701Y-133.351
X323.851Y-152.401
X304.801Y-133.351
X209.55Y-171.45
X266.701Y-190.501
X209.55Y-152.4
X276.226Y-190.501
X209.55Y-133.35
X238.126Y-190.501
X171.451Y-152.401
T4
X180.976Y-142.876
X200.026Y-180.976
X257.176Y-180.976
X144.066Y-198.835
X352.426Y-125.016
X352.426Y-198.835
T0
M30
