M48
; DRILL file {KiCad (5.1.0-0)} date 2019 June 07, Friday 13:20:01
; FORMAT={-:-/ absolute / metric / decimal}
; #@! TF.CreationDate,2019-06-07T13:20:01+08:00
; #@! TF.GenerationSoftware,Kicad,Pcbnew,(5.1.0-0)
; #@! TF.FileFunction,Plated,1,2,PTH
FMAT,2
METRIC
T1C0.400
T2C0.813
T3C1.000
T4C1.300
%
G90
G05
T1
X144.066Y-176.213
X161.926Y-178.594
X164.44Y-137.2
X164.44Y-145.29
X164.45Y-174.84
X164.46Y-156.36
X164.46Y-164.39
X183.357Y-136.922
X183.357Y-155.973
X183.357Y-175.023
X183.49Y-145.37
X183.53Y-164.33
X194.205Y-144.066
X202.407Y-136.922
X202.55Y-156.15
X202.55Y-164.41
X202.55Y-174.88
X202.56Y-183.31
X202.59Y-145.61
X221.457Y-136.922
X221.6Y-174.84
X221.61Y-145.17
X221.61Y-156.14
X221.62Y-164.3
X221.66Y-193.81
X240.507Y-136.922
X240.64Y-155.84
X240.64Y-164.71
X240.64Y-178.4
X240.65Y-145.22
X240.65Y-174.82
X259.557Y-136.922
X259.557Y-155.973
X259.69Y-175.06
X259.7Y-145.08
X259.71Y-164.26
X261.939Y-197.645
X278.7Y-174.97
X278.75Y-136.79
X278.76Y-156.09
X278.78Y-145.28
X278.78Y-164.38
X281.34Y-180.92
X297.8Y-136.79
X297.8Y-145.34
X297.8Y-155.89
X297.81Y-175.18
X297.81Y-183.33
X297.82Y-164.44
X316.83Y-156.02
X316.83Y-164.26
X316.84Y-145.4
X316.85Y-137.08
X335.89Y-136.76
X335.89Y-145.23
X335.9Y-156.06
X335.9Y-164.31
T2
X143.886Y-125.422
X143.886Y-127.962
X143.886Y-130.502
X143.886Y-133.042
X143.886Y-135.582
X143.886Y-138.122
X143.886Y-140.662
X143.886Y-143.202
X143.886Y-145.742
X143.886Y-148.282
X143.886Y-150.822
X143.886Y-153.362
X159.106Y-125.422
X159.106Y-127.962
X159.106Y-130.502
X159.106Y-133.042
X159.106Y-135.582
X159.106Y-138.122
X159.106Y-140.662
X159.106Y-143.202
X159.106Y-145.742
X159.106Y-148.282
X159.106Y-150.822
X159.106Y-153.362
T3
X276.226Y-147.31
X276.226Y-155.11
X257.176Y-185.41
X257.176Y-193.21
X257.176Y-128.26
X257.176Y-136.06
X180.976Y-166.36
X180.976Y-174.16
X219.076Y-128.26
X219.076Y-136.06
X314.326Y-185.41
X314.326Y-193.21
X238.126Y-128.26
X238.126Y-136.06
X295.276Y-185.41
X180.976Y-147.31
X180.976Y-155.11
X276.226Y-166.36
X276.226Y-174.16
X295.276Y-193.21
X238.126Y-147.31
X238.126Y-155.11
X352.426Y-147.31
X352.426Y-155.11
X200.026Y-147.31
X200.026Y-155.11
X314.324Y-147.31
X314.324Y-155.11
X257.176Y-147.31
X314.324Y-128.26
X314.324Y-136.06
X280.989Y-185.41
X280.989Y-193.21
X161.926Y-166.569
X161.926Y-174.369
X276.226Y-128.26
X276.226Y-136.06
X333.376Y-166.36
X333.376Y-174.16
X352.426Y-166.36
X233.363Y-185.41
X233.363Y-193.21
X238.124Y-166.36
X180.976Y-128.26
X180.976Y-136.06
X200.024Y-166.36
X200.024Y-174.16
X314.326Y-166.36
X314.326Y-174.16
X352.426Y-174.16
X257.176Y-166.36
X257.176Y-174.16
X219.076Y-185.41
X219.076Y-193.21
X333.376Y-147.31
X333.376Y-155.11
X295.276Y-166.36
X295.276Y-174.16
X295.274Y-147.31
X295.274Y-155.11
X200.026Y-128.26
X200.026Y-136.06
X295.276Y-128.26
X295.276Y-136.06
X219.076Y-166.36
X219.076Y-174.16
X219.076Y-147.31
X219.076Y-155.11
X333.376Y-128.26
X333.376Y-136.06
X352.426Y-129.451
X352.426Y-137.251
X257.176Y-155.11
X238.124Y-174.16
T4
X147.85Y-158.275
X154.35Y-158.275
T0
M30
