G04 #@! TF.GenerationSoftware,KiCad,Pcbnew,(5.1.0-0)*
G04 #@! TF.CreationDate,2019-06-07T13:16:51+08:00*
G04 #@! TF.ProjectId,TopPlate,546f7050-6c61-4746-952e-6b696361645f,rev?*
G04 #@! TF.SameCoordinates,Original*
G04 #@! TF.FileFunction,Copper,L1,Top*
G04 #@! TF.FilePolarity,Positive*
%FSLAX46Y46*%
G04 Gerber Fmt 4.6, Leading zero omitted, Abs format (unit mm)*
G04 Created by KiCad (PCBNEW (5.1.0-0)) date 2019-06-07 13:16:51*
%MOMM*%
%LPD*%
G04 APERTURE LIST*
%ADD10C,2.600000*%
%ADD11C,0.254000*%
G04 APERTURE END LIST*
D10*
X89080000Y-100230000D03*
X70030000Y-62130000D03*
X241480000Y-118090000D03*
X241480000Y-44270000D03*
X146230000Y-100230000D03*
X33120000Y-118100000D03*
D11*
G36*
X29355403Y-121111724D02*
G01*
X29391863Y-121167441D01*
X29398349Y-121175394D01*
X29647155Y-121476148D01*
X29694462Y-121523126D01*
X29741033Y-121570683D01*
X29748940Y-121577225D01*
X30051425Y-121823926D01*
X30106933Y-121860805D01*
X30161878Y-121898427D01*
X30170905Y-121903308D01*
X30515546Y-122086558D01*
X30577176Y-122111960D01*
X30638368Y-122138187D01*
X30648171Y-122141222D01*
X30745244Y-122170530D01*
X29346909Y-122172794D01*
X29346137Y-121097986D01*
X29355403Y-121111724D01*
X29355403Y-121111724D01*
G37*
X29355403Y-121111724D02*
X29391863Y-121167441D01*
X29398349Y-121175394D01*
X29647155Y-121476148D01*
X29694462Y-121523126D01*
X29741033Y-121570683D01*
X29748940Y-121577225D01*
X30051425Y-121823926D01*
X30106933Y-121860805D01*
X30161878Y-121898427D01*
X30170905Y-121903308D01*
X30515546Y-122086558D01*
X30577176Y-122111960D01*
X30638368Y-122138187D01*
X30648171Y-122141222D01*
X30745244Y-122170530D01*
X29346909Y-122172794D01*
X29346137Y-121097986D01*
X29355403Y-121111724D01*
G36*
X245255031Y-121823202D02*
G01*
X244548112Y-121824347D01*
X244555691Y-121819387D01*
X244563644Y-121812901D01*
X244864398Y-121564095D01*
X244911376Y-121516788D01*
X244958933Y-121470217D01*
X244965475Y-121462310D01*
X245212176Y-121159825D01*
X245249055Y-121104317D01*
X245267060Y-121078021D01*
X245255031Y-121823202D01*
X245255031Y-121823202D01*
G37*
X245255031Y-121823202D02*
X244548112Y-121824347D01*
X244555691Y-121819387D01*
X244563644Y-121812901D01*
X244864398Y-121564095D01*
X244911376Y-121516788D01*
X244958933Y-121470217D01*
X244965475Y-121462310D01*
X245212176Y-121159825D01*
X245249055Y-121104317D01*
X245267060Y-121078021D01*
X245255031Y-121823202D01*
G36*
X243221771Y-41538049D02*
G01*
X243457462Y-41609208D01*
X243674839Y-41724791D01*
X243865629Y-41880395D01*
X244022561Y-42070093D01*
X244139656Y-42286657D01*
X244212459Y-42521844D01*
X244241751Y-42800537D01*
X244241750Y-119552553D01*
X244214201Y-119833521D01*
X244143041Y-120069212D01*
X244027461Y-120286588D01*
X243871854Y-120477379D01*
X243682158Y-120634311D01*
X243465593Y-120751406D01*
X243230406Y-120824209D01*
X242951722Y-120853500D01*
X31658697Y-120853500D01*
X31377729Y-120825951D01*
X31142038Y-120754791D01*
X30924662Y-120639211D01*
X30733871Y-120483604D01*
X30576939Y-120293908D01*
X30459844Y-120077343D01*
X30387041Y-119842156D01*
X30357750Y-119563472D01*
X30357750Y-117909419D01*
X31185000Y-117909419D01*
X31185000Y-118290581D01*
X31259361Y-118664419D01*
X31405225Y-119016566D01*
X31616987Y-119333491D01*
X31886509Y-119603013D01*
X32203434Y-119814775D01*
X32555581Y-119960639D01*
X32929419Y-120035000D01*
X33310581Y-120035000D01*
X33684419Y-119960639D01*
X34036566Y-119814775D01*
X34353491Y-119603013D01*
X34623013Y-119333491D01*
X34834775Y-119016566D01*
X34980639Y-118664419D01*
X35055000Y-118290581D01*
X35055000Y-117909419D01*
X35053011Y-117899419D01*
X239545000Y-117899419D01*
X239545000Y-118280581D01*
X239619361Y-118654419D01*
X239765225Y-119006566D01*
X239976987Y-119323491D01*
X240246509Y-119593013D01*
X240563434Y-119804775D01*
X240915581Y-119950639D01*
X241289419Y-120025000D01*
X241670581Y-120025000D01*
X242044419Y-119950639D01*
X242396566Y-119804775D01*
X242713491Y-119593013D01*
X242983013Y-119323491D01*
X243194775Y-119006566D01*
X243340639Y-118654419D01*
X243415000Y-118280581D01*
X243415000Y-117899419D01*
X243340639Y-117525581D01*
X243194775Y-117173434D01*
X242983013Y-116856509D01*
X242713491Y-116586987D01*
X242396566Y-116375225D01*
X242044419Y-116229361D01*
X241670581Y-116155000D01*
X241289419Y-116155000D01*
X240915581Y-116229361D01*
X240563434Y-116375225D01*
X240246509Y-116586987D01*
X239976987Y-116856509D01*
X239765225Y-117173434D01*
X239619361Y-117525581D01*
X239545000Y-117899419D01*
X35053011Y-117899419D01*
X34980639Y-117535581D01*
X34834775Y-117183434D01*
X34623013Y-116866509D01*
X34353491Y-116596987D01*
X34036566Y-116385225D01*
X33684419Y-116239361D01*
X33310581Y-116165000D01*
X32929419Y-116165000D01*
X32555581Y-116239361D01*
X32203434Y-116385225D01*
X31886509Y-116596987D01*
X31616987Y-116866509D01*
X31405225Y-117183434D01*
X31259361Y-117535581D01*
X31185000Y-117909419D01*
X30357750Y-117909419D01*
X30357750Y-102831500D01*
X90940194Y-102831500D01*
X90943750Y-102867605D01*
X90943751Y-116645385D01*
X90940194Y-116681500D01*
X90954385Y-116825585D01*
X90996413Y-116964133D01*
X91064663Y-117091820D01*
X91156512Y-117203738D01*
X91268430Y-117295587D01*
X91396117Y-117363837D01*
X91534665Y-117405865D01*
X91642645Y-117416500D01*
X91678750Y-117420056D01*
X91714855Y-117416500D01*
X105492645Y-117416500D01*
X105528750Y-117420056D01*
X105564855Y-117416500D01*
X105672835Y-117405865D01*
X105811383Y-117363837D01*
X105939070Y-117295587D01*
X106050988Y-117203738D01*
X106142837Y-117091820D01*
X106211087Y-116964133D01*
X106253115Y-116825585D01*
X106267306Y-116681500D01*
X106263750Y-116645395D01*
X106263750Y-102867605D01*
X106267306Y-102831500D01*
X109990194Y-102831500D01*
X109993751Y-102867615D01*
X109993750Y-116645395D01*
X109990194Y-116681500D01*
X110004385Y-116825585D01*
X110046413Y-116964133D01*
X110114663Y-117091820D01*
X110206512Y-117203738D01*
X110318430Y-117295587D01*
X110446117Y-117363837D01*
X110584665Y-117405865D01*
X110728750Y-117420056D01*
X110764855Y-117416500D01*
X143592645Y-117416500D01*
X143628750Y-117420056D01*
X143664855Y-117416500D01*
X143772835Y-117405865D01*
X143911383Y-117363837D01*
X144039070Y-117295587D01*
X144150988Y-117203738D01*
X144242837Y-117091820D01*
X144311087Y-116964133D01*
X144353115Y-116825585D01*
X144367306Y-116681500D01*
X144363750Y-116645395D01*
X144363750Y-102867605D01*
X144367306Y-102831500D01*
X148090194Y-102831500D01*
X148093750Y-102867605D01*
X148093751Y-116645385D01*
X148090194Y-116681500D01*
X148104385Y-116825585D01*
X148146413Y-116964133D01*
X148214663Y-117091820D01*
X148306512Y-117203738D01*
X148418430Y-117295587D01*
X148546117Y-117363837D01*
X148684665Y-117405865D01*
X148792645Y-117416500D01*
X148828750Y-117420056D01*
X148864855Y-117416500D01*
X181692645Y-117416500D01*
X181728750Y-117420056D01*
X181764855Y-117416500D01*
X181872835Y-117405865D01*
X182011383Y-117363837D01*
X182139070Y-117295587D01*
X182250988Y-117203738D01*
X182342837Y-117091820D01*
X182411087Y-116964133D01*
X182453115Y-116825585D01*
X182467306Y-116681500D01*
X182463750Y-116645395D01*
X182463750Y-102867605D01*
X182467306Y-102831500D01*
X186190194Y-102831500D01*
X186193751Y-102867615D01*
X186193750Y-116645395D01*
X186190194Y-116681500D01*
X186204385Y-116825585D01*
X186246413Y-116964133D01*
X186314663Y-117091820D01*
X186406512Y-117203738D01*
X186518430Y-117295587D01*
X186646117Y-117363837D01*
X186784665Y-117405865D01*
X186928750Y-117420056D01*
X186964855Y-117416500D01*
X200742645Y-117416500D01*
X200778750Y-117420056D01*
X200814855Y-117416500D01*
X200922835Y-117405865D01*
X201061383Y-117363837D01*
X201189070Y-117295587D01*
X201300988Y-117203738D01*
X201392837Y-117091820D01*
X201461087Y-116964133D01*
X201503115Y-116825585D01*
X201517306Y-116681500D01*
X201513750Y-116645395D01*
X201513750Y-102867605D01*
X201517306Y-102831500D01*
X201503115Y-102687415D01*
X201461087Y-102548867D01*
X201392837Y-102421180D01*
X201300988Y-102309262D01*
X201189070Y-102217413D01*
X201061383Y-102149163D01*
X200922835Y-102107135D01*
X200814855Y-102096500D01*
X200778750Y-102092944D01*
X200742645Y-102096500D01*
X186964855Y-102096500D01*
X186928750Y-102092944D01*
X186892645Y-102096500D01*
X186784665Y-102107135D01*
X186646117Y-102149163D01*
X186518430Y-102217413D01*
X186406512Y-102309262D01*
X186314663Y-102421180D01*
X186246413Y-102548867D01*
X186204385Y-102687415D01*
X186190194Y-102831500D01*
X182467306Y-102831500D01*
X182453115Y-102687415D01*
X182411087Y-102548867D01*
X182342837Y-102421180D01*
X182250988Y-102309262D01*
X182139070Y-102217413D01*
X182011383Y-102149163D01*
X181872835Y-102107135D01*
X181764855Y-102096500D01*
X181728750Y-102092944D01*
X181692645Y-102096500D01*
X148864855Y-102096500D01*
X148828750Y-102092944D01*
X148792645Y-102096500D01*
X148684665Y-102107135D01*
X148546117Y-102149163D01*
X148418430Y-102217413D01*
X148306512Y-102309262D01*
X148214663Y-102421180D01*
X148146413Y-102548867D01*
X148104385Y-102687415D01*
X148090194Y-102831500D01*
X144367306Y-102831500D01*
X144353115Y-102687415D01*
X144311087Y-102548867D01*
X144242837Y-102421180D01*
X144150988Y-102309262D01*
X144039070Y-102217413D01*
X143911383Y-102149163D01*
X143772835Y-102107135D01*
X143664855Y-102096500D01*
X143628750Y-102092944D01*
X143592645Y-102096500D01*
X110764855Y-102096500D01*
X110728750Y-102092944D01*
X110692645Y-102096500D01*
X110584665Y-102107135D01*
X110446117Y-102149163D01*
X110318430Y-102217413D01*
X110206512Y-102309262D01*
X110114663Y-102421180D01*
X110046413Y-102548867D01*
X110004385Y-102687415D01*
X109990194Y-102831500D01*
X106267306Y-102831500D01*
X106253115Y-102687415D01*
X106211087Y-102548867D01*
X106142837Y-102421180D01*
X106050988Y-102309262D01*
X105939070Y-102217413D01*
X105811383Y-102149163D01*
X105672835Y-102107135D01*
X105564855Y-102096500D01*
X105528750Y-102092944D01*
X105492645Y-102096500D01*
X91714855Y-102096500D01*
X91678750Y-102092944D01*
X91642645Y-102096500D01*
X91534665Y-102107135D01*
X91396117Y-102149163D01*
X91268430Y-102217413D01*
X91156512Y-102309262D01*
X91064663Y-102421180D01*
X90996413Y-102548867D01*
X90954385Y-102687415D01*
X90940194Y-102831500D01*
X30357750Y-102831500D01*
X30357750Y-100039419D01*
X87145000Y-100039419D01*
X87145000Y-100420581D01*
X87219361Y-100794419D01*
X87365225Y-101146566D01*
X87576987Y-101463491D01*
X87846509Y-101733013D01*
X88163434Y-101944775D01*
X88515581Y-102090639D01*
X88889419Y-102165000D01*
X89270581Y-102165000D01*
X89644419Y-102090639D01*
X89996566Y-101944775D01*
X90313491Y-101733013D01*
X90583013Y-101463491D01*
X90794775Y-101146566D01*
X90940639Y-100794419D01*
X91015000Y-100420581D01*
X91015000Y-100039419D01*
X144295000Y-100039419D01*
X144295000Y-100420581D01*
X144369361Y-100794419D01*
X144515225Y-101146566D01*
X144726987Y-101463491D01*
X144996509Y-101733013D01*
X145313434Y-101944775D01*
X145665581Y-102090639D01*
X146039419Y-102165000D01*
X146420581Y-102165000D01*
X146794419Y-102090639D01*
X147146566Y-101944775D01*
X147463491Y-101733013D01*
X147733013Y-101463491D01*
X147944775Y-101146566D01*
X148090639Y-100794419D01*
X148165000Y-100420581D01*
X148165000Y-100039419D01*
X148090639Y-99665581D01*
X147944775Y-99313434D01*
X147733013Y-98996509D01*
X147463491Y-98726987D01*
X147146566Y-98515225D01*
X146794419Y-98369361D01*
X146420581Y-98295000D01*
X146039419Y-98295000D01*
X145665581Y-98369361D01*
X145313434Y-98515225D01*
X144996509Y-98726987D01*
X144726987Y-98996509D01*
X144515225Y-99313434D01*
X144369361Y-99665581D01*
X144295000Y-100039419D01*
X91015000Y-100039419D01*
X90940639Y-99665581D01*
X90794775Y-99313434D01*
X90583013Y-98996509D01*
X90313491Y-98726987D01*
X89996566Y-98515225D01*
X89644419Y-98369361D01*
X89270581Y-98295000D01*
X88889419Y-98295000D01*
X88515581Y-98369361D01*
X88163434Y-98515225D01*
X87846509Y-98726987D01*
X87576987Y-98996509D01*
X87365225Y-99313434D01*
X87219361Y-99665581D01*
X87145000Y-100039419D01*
X30357750Y-100039419D01*
X30357750Y-83781500D01*
X33790194Y-83781500D01*
X33793751Y-83817615D01*
X33793750Y-97595395D01*
X33790194Y-97631500D01*
X33804385Y-97775585D01*
X33846413Y-97914133D01*
X33914663Y-98041820D01*
X34006512Y-98153738D01*
X34118430Y-98245587D01*
X34246117Y-98313837D01*
X34384665Y-98355865D01*
X34528750Y-98370056D01*
X34564855Y-98366500D01*
X48342645Y-98366500D01*
X48378750Y-98370056D01*
X48414855Y-98366500D01*
X48522835Y-98355865D01*
X48661383Y-98313837D01*
X48789070Y-98245587D01*
X48900988Y-98153738D01*
X48992837Y-98041820D01*
X49061087Y-97914133D01*
X49103115Y-97775585D01*
X49117306Y-97631500D01*
X49113750Y-97595395D01*
X49113750Y-83817605D01*
X49117306Y-83781500D01*
X52840194Y-83781500D01*
X52843750Y-83817605D01*
X52843751Y-97595385D01*
X52840194Y-97631500D01*
X52854385Y-97775585D01*
X52896413Y-97914133D01*
X52964663Y-98041820D01*
X53056512Y-98153738D01*
X53168430Y-98245587D01*
X53296117Y-98313837D01*
X53434665Y-98355865D01*
X53542645Y-98366500D01*
X53578750Y-98370056D01*
X53614855Y-98366500D01*
X67392645Y-98366500D01*
X67428750Y-98370056D01*
X67464855Y-98366500D01*
X67572835Y-98355865D01*
X67711383Y-98313837D01*
X67839070Y-98245587D01*
X67950988Y-98153738D01*
X68042837Y-98041820D01*
X68111087Y-97914133D01*
X68153115Y-97775585D01*
X68167306Y-97631500D01*
X68163750Y-97595395D01*
X68163750Y-83817605D01*
X68167306Y-83781500D01*
X71890194Y-83781500D01*
X71893751Y-83817615D01*
X71893750Y-97595395D01*
X71890194Y-97631500D01*
X71904385Y-97775585D01*
X71946413Y-97914133D01*
X72014663Y-98041820D01*
X72106512Y-98153738D01*
X72218430Y-98245587D01*
X72346117Y-98313837D01*
X72484665Y-98355865D01*
X72628750Y-98370056D01*
X72664855Y-98366500D01*
X86442645Y-98366500D01*
X86478750Y-98370056D01*
X86514855Y-98366500D01*
X86622835Y-98355865D01*
X86761383Y-98313837D01*
X86889070Y-98245587D01*
X87000988Y-98153738D01*
X87092837Y-98041820D01*
X87161087Y-97914133D01*
X87203115Y-97775585D01*
X87217306Y-97631500D01*
X87213750Y-97595395D01*
X87213750Y-83817605D01*
X87217306Y-83781500D01*
X90940194Y-83781500D01*
X90943750Y-83817605D01*
X90943751Y-97595385D01*
X90940194Y-97631500D01*
X90954385Y-97775585D01*
X90996413Y-97914133D01*
X91064663Y-98041820D01*
X91156512Y-98153738D01*
X91268430Y-98245587D01*
X91396117Y-98313837D01*
X91534665Y-98355865D01*
X91642645Y-98366500D01*
X91678750Y-98370056D01*
X91714855Y-98366500D01*
X105492645Y-98366500D01*
X105528750Y-98370056D01*
X105564855Y-98366500D01*
X105672835Y-98355865D01*
X105811383Y-98313837D01*
X105939070Y-98245587D01*
X106050988Y-98153738D01*
X106142837Y-98041820D01*
X106211087Y-97914133D01*
X106253115Y-97775585D01*
X106267306Y-97631500D01*
X106263750Y-97595395D01*
X106263750Y-83817605D01*
X106267306Y-83781500D01*
X109990194Y-83781500D01*
X109993750Y-83817605D01*
X109993751Y-97595385D01*
X109990194Y-97631500D01*
X110004385Y-97775585D01*
X110046413Y-97914133D01*
X110114663Y-98041820D01*
X110206512Y-98153738D01*
X110318430Y-98245587D01*
X110446117Y-98313837D01*
X110584665Y-98355865D01*
X110692645Y-98366500D01*
X110728750Y-98370056D01*
X110764855Y-98366500D01*
X124542645Y-98366500D01*
X124578750Y-98370056D01*
X124614855Y-98366500D01*
X124722835Y-98355865D01*
X124861383Y-98313837D01*
X124989070Y-98245587D01*
X125100988Y-98153738D01*
X125192837Y-98041820D01*
X125261087Y-97914133D01*
X125303115Y-97775585D01*
X125317306Y-97631500D01*
X125313750Y-97595395D01*
X125313750Y-83817605D01*
X125317306Y-83781500D01*
X129040194Y-83781500D01*
X129043751Y-83817615D01*
X129043750Y-97595395D01*
X129040194Y-97631500D01*
X129054385Y-97775585D01*
X129096413Y-97914133D01*
X129164663Y-98041820D01*
X129256512Y-98153738D01*
X129368430Y-98245587D01*
X129496117Y-98313837D01*
X129634665Y-98355865D01*
X129778750Y-98370056D01*
X129814855Y-98366500D01*
X143592645Y-98366500D01*
X143628750Y-98370056D01*
X143664855Y-98366500D01*
X143772835Y-98355865D01*
X143911383Y-98313837D01*
X144039070Y-98245587D01*
X144150988Y-98153738D01*
X144242837Y-98041820D01*
X144311087Y-97914133D01*
X144353115Y-97775585D01*
X144367306Y-97631500D01*
X144363750Y-97595395D01*
X144363750Y-83817605D01*
X144367306Y-83781500D01*
X148090194Y-83781500D01*
X148093751Y-83817615D01*
X148093750Y-97595395D01*
X148090194Y-97631500D01*
X148104385Y-97775585D01*
X148146413Y-97914133D01*
X148214663Y-98041820D01*
X148306512Y-98153738D01*
X148418430Y-98245587D01*
X148546117Y-98313837D01*
X148684665Y-98355865D01*
X148828750Y-98370056D01*
X148864855Y-98366500D01*
X162642645Y-98366500D01*
X162678750Y-98370056D01*
X162714855Y-98366500D01*
X162822835Y-98355865D01*
X162961383Y-98313837D01*
X163089070Y-98245587D01*
X163200988Y-98153738D01*
X163292837Y-98041820D01*
X163361087Y-97914133D01*
X163403115Y-97775585D01*
X163417306Y-97631500D01*
X163413750Y-97595395D01*
X163413750Y-83817605D01*
X163417306Y-83781500D01*
X167140194Y-83781500D01*
X167143751Y-83817615D01*
X167143750Y-97595395D01*
X167140194Y-97631500D01*
X167154385Y-97775585D01*
X167196413Y-97914133D01*
X167264663Y-98041820D01*
X167356512Y-98153738D01*
X167468430Y-98245587D01*
X167596117Y-98313837D01*
X167734665Y-98355865D01*
X167878750Y-98370056D01*
X167914855Y-98366500D01*
X181692645Y-98366500D01*
X181728750Y-98370056D01*
X181764855Y-98366500D01*
X181872835Y-98355865D01*
X182011383Y-98313837D01*
X182139070Y-98245587D01*
X182250988Y-98153738D01*
X182342837Y-98041820D01*
X182411087Y-97914133D01*
X182453115Y-97775585D01*
X182467306Y-97631500D01*
X182463750Y-97595395D01*
X182463750Y-83817605D01*
X182467306Y-83781500D01*
X186190194Y-83781500D01*
X186193751Y-83817615D01*
X186193750Y-97595395D01*
X186190194Y-97631500D01*
X186204385Y-97775585D01*
X186246413Y-97914133D01*
X186314663Y-98041820D01*
X186406512Y-98153738D01*
X186518430Y-98245587D01*
X186646117Y-98313837D01*
X186784665Y-98355865D01*
X186928750Y-98370056D01*
X186964855Y-98366500D01*
X200742645Y-98366500D01*
X200778750Y-98370056D01*
X200814855Y-98366500D01*
X200922835Y-98355865D01*
X201061383Y-98313837D01*
X201189070Y-98245587D01*
X201300988Y-98153738D01*
X201392837Y-98041820D01*
X201461087Y-97914133D01*
X201503115Y-97775585D01*
X201517306Y-97631500D01*
X201513750Y-97595395D01*
X201513750Y-83817605D01*
X201517306Y-83781500D01*
X205240194Y-83781500D01*
X205243750Y-83817605D01*
X205243751Y-97595385D01*
X205240194Y-97631500D01*
X205254385Y-97775585D01*
X205296413Y-97914133D01*
X205364663Y-98041820D01*
X205456512Y-98153738D01*
X205568430Y-98245587D01*
X205696117Y-98313837D01*
X205834665Y-98355865D01*
X205942645Y-98366500D01*
X205978750Y-98370056D01*
X206014855Y-98366500D01*
X219792645Y-98366500D01*
X219828750Y-98370056D01*
X219864855Y-98366500D01*
X219972835Y-98355865D01*
X220111383Y-98313837D01*
X220239070Y-98245587D01*
X220350988Y-98153738D01*
X220442837Y-98041820D01*
X220511087Y-97914133D01*
X220553115Y-97775585D01*
X220567306Y-97631500D01*
X220563750Y-97595395D01*
X220563750Y-83817605D01*
X220567306Y-83781500D01*
X224290194Y-83781500D01*
X224293751Y-83817615D01*
X224293750Y-97595395D01*
X224290194Y-97631500D01*
X224304385Y-97775585D01*
X224346413Y-97914133D01*
X224414663Y-98041820D01*
X224506512Y-98153738D01*
X224618430Y-98245587D01*
X224746117Y-98313837D01*
X224884665Y-98355865D01*
X225028750Y-98370056D01*
X225064855Y-98366500D01*
X238842645Y-98366500D01*
X238878750Y-98370056D01*
X238914855Y-98366500D01*
X239022835Y-98355865D01*
X239161383Y-98313837D01*
X239289070Y-98245587D01*
X239400988Y-98153738D01*
X239492837Y-98041820D01*
X239561087Y-97914133D01*
X239603115Y-97775585D01*
X239617306Y-97631500D01*
X239613750Y-97595395D01*
X239613750Y-83817605D01*
X239617306Y-83781500D01*
X239603115Y-83637415D01*
X239561087Y-83498867D01*
X239492837Y-83371180D01*
X239400988Y-83259262D01*
X239289070Y-83167413D01*
X239161383Y-83099163D01*
X239022835Y-83057135D01*
X238914855Y-83046500D01*
X238878750Y-83042944D01*
X238842645Y-83046500D01*
X225064855Y-83046500D01*
X225028750Y-83042944D01*
X224992645Y-83046500D01*
X224884665Y-83057135D01*
X224746117Y-83099163D01*
X224618430Y-83167413D01*
X224506512Y-83259262D01*
X224414663Y-83371180D01*
X224346413Y-83498867D01*
X224304385Y-83637415D01*
X224290194Y-83781500D01*
X220567306Y-83781500D01*
X220553115Y-83637415D01*
X220511087Y-83498867D01*
X220442837Y-83371180D01*
X220350988Y-83259262D01*
X220239070Y-83167413D01*
X220111383Y-83099163D01*
X219972835Y-83057135D01*
X219864855Y-83046500D01*
X219828750Y-83042944D01*
X219792645Y-83046500D01*
X206014855Y-83046500D01*
X205978750Y-83042944D01*
X205942645Y-83046500D01*
X205834665Y-83057135D01*
X205696117Y-83099163D01*
X205568430Y-83167413D01*
X205456512Y-83259262D01*
X205364663Y-83371180D01*
X205296413Y-83498867D01*
X205254385Y-83637415D01*
X205240194Y-83781500D01*
X201517306Y-83781500D01*
X201503115Y-83637415D01*
X201461087Y-83498867D01*
X201392837Y-83371180D01*
X201300988Y-83259262D01*
X201189070Y-83167413D01*
X201061383Y-83099163D01*
X200922835Y-83057135D01*
X200814855Y-83046500D01*
X200778750Y-83042944D01*
X200742645Y-83046500D01*
X186964855Y-83046500D01*
X186928750Y-83042944D01*
X186892645Y-83046500D01*
X186784665Y-83057135D01*
X186646117Y-83099163D01*
X186518430Y-83167413D01*
X186406512Y-83259262D01*
X186314663Y-83371180D01*
X186246413Y-83498867D01*
X186204385Y-83637415D01*
X186190194Y-83781500D01*
X182467306Y-83781500D01*
X182453115Y-83637415D01*
X182411087Y-83498867D01*
X182342837Y-83371180D01*
X182250988Y-83259262D01*
X182139070Y-83167413D01*
X182011383Y-83099163D01*
X181872835Y-83057135D01*
X181764855Y-83046500D01*
X181728750Y-83042944D01*
X181692645Y-83046500D01*
X167914855Y-83046500D01*
X167878750Y-83042944D01*
X167842645Y-83046500D01*
X167734665Y-83057135D01*
X167596117Y-83099163D01*
X167468430Y-83167413D01*
X167356512Y-83259262D01*
X167264663Y-83371180D01*
X167196413Y-83498867D01*
X167154385Y-83637415D01*
X167140194Y-83781500D01*
X163417306Y-83781500D01*
X163403115Y-83637415D01*
X163361087Y-83498867D01*
X163292837Y-83371180D01*
X163200988Y-83259262D01*
X163089070Y-83167413D01*
X162961383Y-83099163D01*
X162822835Y-83057135D01*
X162714855Y-83046500D01*
X162678750Y-83042944D01*
X162642645Y-83046500D01*
X148864855Y-83046500D01*
X148828750Y-83042944D01*
X148792645Y-83046500D01*
X148684665Y-83057135D01*
X148546117Y-83099163D01*
X148418430Y-83167413D01*
X148306512Y-83259262D01*
X148214663Y-83371180D01*
X148146413Y-83498867D01*
X148104385Y-83637415D01*
X148090194Y-83781500D01*
X144367306Y-83781500D01*
X144353115Y-83637415D01*
X144311087Y-83498867D01*
X144242837Y-83371180D01*
X144150988Y-83259262D01*
X144039070Y-83167413D01*
X143911383Y-83099163D01*
X143772835Y-83057135D01*
X143664855Y-83046500D01*
X143628750Y-83042944D01*
X143592645Y-83046500D01*
X129814855Y-83046500D01*
X129778750Y-83042944D01*
X129742645Y-83046500D01*
X129634665Y-83057135D01*
X129496117Y-83099163D01*
X129368430Y-83167413D01*
X129256512Y-83259262D01*
X129164663Y-83371180D01*
X129096413Y-83498867D01*
X129054385Y-83637415D01*
X129040194Y-83781500D01*
X125317306Y-83781500D01*
X125303115Y-83637415D01*
X125261087Y-83498867D01*
X125192837Y-83371180D01*
X125100988Y-83259262D01*
X124989070Y-83167413D01*
X124861383Y-83099163D01*
X124722835Y-83057135D01*
X124614855Y-83046500D01*
X124578750Y-83042944D01*
X124542645Y-83046500D01*
X110764855Y-83046500D01*
X110728750Y-83042944D01*
X110692645Y-83046500D01*
X110584665Y-83057135D01*
X110446117Y-83099163D01*
X110318430Y-83167413D01*
X110206512Y-83259262D01*
X110114663Y-83371180D01*
X110046413Y-83498867D01*
X110004385Y-83637415D01*
X109990194Y-83781500D01*
X106267306Y-83781500D01*
X106253115Y-83637415D01*
X106211087Y-83498867D01*
X106142837Y-83371180D01*
X106050988Y-83259262D01*
X105939070Y-83167413D01*
X105811383Y-83099163D01*
X105672835Y-83057135D01*
X105564855Y-83046500D01*
X105528750Y-83042944D01*
X105492645Y-83046500D01*
X91714855Y-83046500D01*
X91678750Y-83042944D01*
X91642645Y-83046500D01*
X91534665Y-83057135D01*
X91396117Y-83099163D01*
X91268430Y-83167413D01*
X91156512Y-83259262D01*
X91064663Y-83371180D01*
X90996413Y-83498867D01*
X90954385Y-83637415D01*
X90940194Y-83781500D01*
X87217306Y-83781500D01*
X87203115Y-83637415D01*
X87161087Y-83498867D01*
X87092837Y-83371180D01*
X87000988Y-83259262D01*
X86889070Y-83167413D01*
X86761383Y-83099163D01*
X86622835Y-83057135D01*
X86514855Y-83046500D01*
X86478750Y-83042944D01*
X86442645Y-83046500D01*
X72664855Y-83046500D01*
X72628750Y-83042944D01*
X72592645Y-83046500D01*
X72484665Y-83057135D01*
X72346117Y-83099163D01*
X72218430Y-83167413D01*
X72106512Y-83259262D01*
X72014663Y-83371180D01*
X71946413Y-83498867D01*
X71904385Y-83637415D01*
X71890194Y-83781500D01*
X68167306Y-83781500D01*
X68153115Y-83637415D01*
X68111087Y-83498867D01*
X68042837Y-83371180D01*
X67950988Y-83259262D01*
X67839070Y-83167413D01*
X67711383Y-83099163D01*
X67572835Y-83057135D01*
X67464855Y-83046500D01*
X67428750Y-83042944D01*
X67392645Y-83046500D01*
X53614855Y-83046500D01*
X53578750Y-83042944D01*
X53542645Y-83046500D01*
X53434665Y-83057135D01*
X53296117Y-83099163D01*
X53168430Y-83167413D01*
X53056512Y-83259262D01*
X52964663Y-83371180D01*
X52896413Y-83498867D01*
X52854385Y-83637415D01*
X52840194Y-83781500D01*
X49117306Y-83781500D01*
X49103115Y-83637415D01*
X49061087Y-83498867D01*
X48992837Y-83371180D01*
X48900988Y-83259262D01*
X48789070Y-83167413D01*
X48661383Y-83099163D01*
X48522835Y-83057135D01*
X48414855Y-83046500D01*
X48378750Y-83042944D01*
X48342645Y-83046500D01*
X34564855Y-83046500D01*
X34528750Y-83042944D01*
X34492645Y-83046500D01*
X34384665Y-83057135D01*
X34246117Y-83099163D01*
X34118430Y-83167413D01*
X34006512Y-83259262D01*
X33914663Y-83371180D01*
X33846413Y-83498867D01*
X33804385Y-83637415D01*
X33790194Y-83781500D01*
X30357750Y-83781500D01*
X30357750Y-82811447D01*
X30385299Y-82530479D01*
X30456458Y-82294788D01*
X30572041Y-82077411D01*
X30727645Y-81886621D01*
X30917343Y-81729689D01*
X31133907Y-81612594D01*
X31369094Y-81539791D01*
X31647778Y-81510500D01*
X49658855Y-81510500D01*
X49690944Y-81507339D01*
X49703329Y-81507426D01*
X49713542Y-81506425D01*
X50101735Y-81465624D01*
X50167017Y-81452223D01*
X50232427Y-81439745D01*
X50242251Y-81436780D01*
X50615126Y-81321356D01*
X50676606Y-81295512D01*
X50738303Y-81270585D01*
X50747364Y-81265768D01*
X51090719Y-81080117D01*
X51145974Y-81042847D01*
X51201691Y-81006387D01*
X51209644Y-80999901D01*
X51510398Y-80751095D01*
X51557376Y-80703788D01*
X51604933Y-80657217D01*
X51611475Y-80649310D01*
X51858176Y-80346825D01*
X51895055Y-80291317D01*
X51932677Y-80236372D01*
X51937558Y-80227345D01*
X52120808Y-79882704D01*
X52146210Y-79821074D01*
X52172437Y-79759882D01*
X52175472Y-79750079D01*
X52288290Y-79376407D01*
X52301233Y-79311040D01*
X52315079Y-79245899D01*
X52316152Y-79235693D01*
X52354242Y-78847224D01*
X52354242Y-78847223D01*
X52357750Y-78811605D01*
X52357750Y-64731500D01*
X52840194Y-64731500D01*
X52843751Y-64767615D01*
X52843750Y-78545395D01*
X52840194Y-78581500D01*
X52854385Y-78725585D01*
X52896413Y-78864133D01*
X52964663Y-78991820D01*
X53056512Y-79103738D01*
X53156529Y-79185820D01*
X53168430Y-79195587D01*
X53296117Y-79263837D01*
X53434665Y-79305865D01*
X53578750Y-79320056D01*
X53614855Y-79316500D01*
X67392645Y-79316500D01*
X67428750Y-79320056D01*
X67464855Y-79316500D01*
X67572835Y-79305865D01*
X67711383Y-79263837D01*
X67839070Y-79195587D01*
X67950988Y-79103738D01*
X68042837Y-78991820D01*
X68111087Y-78864133D01*
X68153115Y-78725585D01*
X68167306Y-78581500D01*
X68163750Y-78545395D01*
X68163750Y-64767605D01*
X68167306Y-64731500D01*
X71890194Y-64731500D01*
X71893750Y-64767605D01*
X71893751Y-78545385D01*
X71890194Y-78581500D01*
X71904385Y-78725585D01*
X71946413Y-78864133D01*
X72014663Y-78991820D01*
X72106512Y-79103738D01*
X72218430Y-79195587D01*
X72346117Y-79263837D01*
X72484665Y-79305865D01*
X72592645Y-79316500D01*
X72628750Y-79320056D01*
X72664855Y-79316500D01*
X86442645Y-79316500D01*
X86478750Y-79320056D01*
X86514855Y-79316500D01*
X86622835Y-79305865D01*
X86761383Y-79263837D01*
X86889070Y-79195587D01*
X87000988Y-79103738D01*
X87092837Y-78991820D01*
X87161087Y-78864133D01*
X87203115Y-78725585D01*
X87217306Y-78581500D01*
X87213750Y-78545395D01*
X87213750Y-64767605D01*
X87217306Y-64731500D01*
X90940194Y-64731500D01*
X90943750Y-64767605D01*
X90943751Y-78545385D01*
X90940194Y-78581500D01*
X90954385Y-78725585D01*
X90996413Y-78864133D01*
X91064663Y-78991820D01*
X91156512Y-79103738D01*
X91268430Y-79195587D01*
X91396117Y-79263837D01*
X91534665Y-79305865D01*
X91642645Y-79316500D01*
X91678750Y-79320056D01*
X91714855Y-79316500D01*
X105492645Y-79316500D01*
X105528750Y-79320056D01*
X105564855Y-79316500D01*
X105672835Y-79305865D01*
X105811383Y-79263837D01*
X105939070Y-79195587D01*
X106050988Y-79103738D01*
X106142837Y-78991820D01*
X106211087Y-78864133D01*
X106253115Y-78725585D01*
X106267306Y-78581500D01*
X106263750Y-78545395D01*
X106263750Y-64767605D01*
X106267306Y-64731500D01*
X109990194Y-64731500D01*
X109993750Y-64767605D01*
X109993751Y-78545385D01*
X109990194Y-78581500D01*
X110004385Y-78725585D01*
X110046413Y-78864133D01*
X110114663Y-78991820D01*
X110206512Y-79103738D01*
X110318430Y-79195587D01*
X110446117Y-79263837D01*
X110584665Y-79305865D01*
X110692645Y-79316500D01*
X110728750Y-79320056D01*
X110764855Y-79316500D01*
X124542645Y-79316500D01*
X124578750Y-79320056D01*
X124614855Y-79316500D01*
X124722835Y-79305865D01*
X124861383Y-79263837D01*
X124989070Y-79195587D01*
X125100988Y-79103738D01*
X125192837Y-78991820D01*
X125261087Y-78864133D01*
X125303115Y-78725585D01*
X125317306Y-78581500D01*
X125313750Y-78545395D01*
X125313750Y-64767605D01*
X125317306Y-64731500D01*
X129040194Y-64731500D01*
X129043751Y-64767615D01*
X129043750Y-78545395D01*
X129040194Y-78581500D01*
X129054385Y-78725585D01*
X129096413Y-78864133D01*
X129164663Y-78991820D01*
X129256512Y-79103738D01*
X129356529Y-79185820D01*
X129368430Y-79195587D01*
X129496117Y-79263837D01*
X129634665Y-79305865D01*
X129778750Y-79320056D01*
X129814855Y-79316500D01*
X143592645Y-79316500D01*
X143628750Y-79320056D01*
X143664855Y-79316500D01*
X143772835Y-79305865D01*
X143911383Y-79263837D01*
X144039070Y-79195587D01*
X144150988Y-79103738D01*
X144242837Y-78991820D01*
X144311087Y-78864133D01*
X144353115Y-78725585D01*
X144367306Y-78581500D01*
X144363750Y-78545395D01*
X144363750Y-64767605D01*
X144367306Y-64731500D01*
X148090194Y-64731500D01*
X148093751Y-64767615D01*
X148093750Y-78545395D01*
X148090194Y-78581500D01*
X148104385Y-78725585D01*
X148146413Y-78864133D01*
X148214663Y-78991820D01*
X148306512Y-79103738D01*
X148406529Y-79185820D01*
X148418430Y-79195587D01*
X148546117Y-79263837D01*
X148684665Y-79305865D01*
X148828750Y-79320056D01*
X148864855Y-79316500D01*
X162642645Y-79316500D01*
X162678750Y-79320056D01*
X162714855Y-79316500D01*
X162822835Y-79305865D01*
X162961383Y-79263837D01*
X163089070Y-79195587D01*
X163200988Y-79103738D01*
X163292837Y-78991820D01*
X163361087Y-78864133D01*
X163403115Y-78725585D01*
X163417306Y-78581500D01*
X163413750Y-78545395D01*
X163413750Y-64767605D01*
X163417306Y-64731500D01*
X167140194Y-64731500D01*
X167143751Y-64767615D01*
X167143750Y-78545395D01*
X167140194Y-78581500D01*
X167154385Y-78725585D01*
X167196413Y-78864133D01*
X167264663Y-78991820D01*
X167356512Y-79103738D01*
X167456529Y-79185820D01*
X167468430Y-79195587D01*
X167596117Y-79263837D01*
X167734665Y-79305865D01*
X167878750Y-79320056D01*
X167914855Y-79316500D01*
X181692645Y-79316500D01*
X181728750Y-79320056D01*
X181764855Y-79316500D01*
X181872835Y-79305865D01*
X182011383Y-79263837D01*
X182139070Y-79195587D01*
X182250988Y-79103738D01*
X182342837Y-78991820D01*
X182411087Y-78864133D01*
X182453115Y-78725585D01*
X182467306Y-78581500D01*
X182463750Y-78545395D01*
X182463750Y-64767605D01*
X182467306Y-64731500D01*
X186190194Y-64731500D01*
X186193750Y-64767605D01*
X186193751Y-78545385D01*
X186190194Y-78581500D01*
X186204385Y-78725585D01*
X186246413Y-78864133D01*
X186314663Y-78991820D01*
X186406512Y-79103738D01*
X186518430Y-79195587D01*
X186646117Y-79263837D01*
X186784665Y-79305865D01*
X186892645Y-79316500D01*
X186928750Y-79320056D01*
X186964855Y-79316500D01*
X200742645Y-79316500D01*
X200778750Y-79320056D01*
X200814855Y-79316500D01*
X200922835Y-79305865D01*
X201061383Y-79263837D01*
X201189070Y-79195587D01*
X201300988Y-79103738D01*
X201392837Y-78991820D01*
X201461087Y-78864133D01*
X201503115Y-78725585D01*
X201517306Y-78581500D01*
X201513750Y-78545395D01*
X201513750Y-64767605D01*
X201517306Y-64731500D01*
X205240194Y-64731500D01*
X205243750Y-64767605D01*
X205243751Y-78545385D01*
X205240194Y-78581500D01*
X205254385Y-78725585D01*
X205296413Y-78864133D01*
X205364663Y-78991820D01*
X205456512Y-79103738D01*
X205568430Y-79195587D01*
X205696117Y-79263837D01*
X205834665Y-79305865D01*
X205942645Y-79316500D01*
X205978750Y-79320056D01*
X206014855Y-79316500D01*
X219792645Y-79316500D01*
X219828750Y-79320056D01*
X219864855Y-79316500D01*
X219972835Y-79305865D01*
X220111383Y-79263837D01*
X220239070Y-79195587D01*
X220350988Y-79103738D01*
X220442837Y-78991820D01*
X220511087Y-78864133D01*
X220553115Y-78725585D01*
X220567306Y-78581500D01*
X220563750Y-78545395D01*
X220563750Y-64767605D01*
X220567306Y-64731500D01*
X224290194Y-64731500D01*
X224293751Y-64767615D01*
X224293750Y-78545395D01*
X224290194Y-78581500D01*
X224304385Y-78725585D01*
X224346413Y-78864133D01*
X224414663Y-78991820D01*
X224506512Y-79103738D01*
X224606529Y-79185820D01*
X224618430Y-79195587D01*
X224746117Y-79263837D01*
X224884665Y-79305865D01*
X225028750Y-79320056D01*
X225064855Y-79316500D01*
X238842645Y-79316500D01*
X238878750Y-79320056D01*
X238914855Y-79316500D01*
X239022835Y-79305865D01*
X239161383Y-79263837D01*
X239289070Y-79195587D01*
X239400988Y-79103738D01*
X239492837Y-78991820D01*
X239561087Y-78864133D01*
X239603115Y-78725585D01*
X239617306Y-78581500D01*
X239613750Y-78545395D01*
X239613750Y-64767605D01*
X239617306Y-64731500D01*
X239603115Y-64587415D01*
X239561087Y-64448867D01*
X239492837Y-64321180D01*
X239400988Y-64209262D01*
X239289070Y-64117413D01*
X239161383Y-64049163D01*
X239022835Y-64007135D01*
X238914855Y-63996500D01*
X238878750Y-63992944D01*
X238842645Y-63996500D01*
X225064855Y-63996500D01*
X225028750Y-63992944D01*
X224992645Y-63996500D01*
X224884665Y-64007135D01*
X224746117Y-64049163D01*
X224618430Y-64117413D01*
X224506512Y-64209262D01*
X224414663Y-64321180D01*
X224346413Y-64448867D01*
X224304385Y-64587415D01*
X224290194Y-64731500D01*
X220567306Y-64731500D01*
X220553115Y-64587415D01*
X220511087Y-64448867D01*
X220442837Y-64321180D01*
X220350988Y-64209262D01*
X220239070Y-64117413D01*
X220111383Y-64049163D01*
X219972835Y-64007135D01*
X219864855Y-63996500D01*
X219828750Y-63992944D01*
X219792645Y-63996500D01*
X206014855Y-63996500D01*
X205978750Y-63992944D01*
X205942645Y-63996500D01*
X205834665Y-64007135D01*
X205696117Y-64049163D01*
X205568430Y-64117413D01*
X205456512Y-64209262D01*
X205364663Y-64321180D01*
X205296413Y-64448867D01*
X205254385Y-64587415D01*
X205240194Y-64731500D01*
X201517306Y-64731500D01*
X201503115Y-64587415D01*
X201461087Y-64448867D01*
X201392837Y-64321180D01*
X201300988Y-64209262D01*
X201189070Y-64117413D01*
X201061383Y-64049163D01*
X200922835Y-64007135D01*
X200814855Y-63996500D01*
X200778750Y-63992944D01*
X200742645Y-63996500D01*
X186964855Y-63996500D01*
X186928750Y-63992944D01*
X186892645Y-63996500D01*
X186784665Y-64007135D01*
X186646117Y-64049163D01*
X186518430Y-64117413D01*
X186406512Y-64209262D01*
X186314663Y-64321180D01*
X186246413Y-64448867D01*
X186204385Y-64587415D01*
X186190194Y-64731500D01*
X182467306Y-64731500D01*
X182453115Y-64587415D01*
X182411087Y-64448867D01*
X182342837Y-64321180D01*
X182250988Y-64209262D01*
X182139070Y-64117413D01*
X182011383Y-64049163D01*
X181872835Y-64007135D01*
X181764855Y-63996500D01*
X181728750Y-63992944D01*
X181692645Y-63996500D01*
X167914855Y-63996500D01*
X167878750Y-63992944D01*
X167842645Y-63996500D01*
X167734665Y-64007135D01*
X167596117Y-64049163D01*
X167468430Y-64117413D01*
X167356512Y-64209262D01*
X167264663Y-64321180D01*
X167196413Y-64448867D01*
X167154385Y-64587415D01*
X167140194Y-64731500D01*
X163417306Y-64731500D01*
X163403115Y-64587415D01*
X163361087Y-64448867D01*
X163292837Y-64321180D01*
X163200988Y-64209262D01*
X163089070Y-64117413D01*
X162961383Y-64049163D01*
X162822835Y-64007135D01*
X162714855Y-63996500D01*
X162678750Y-63992944D01*
X162642645Y-63996500D01*
X148864855Y-63996500D01*
X148828750Y-63992944D01*
X148792645Y-63996500D01*
X148684665Y-64007135D01*
X148546117Y-64049163D01*
X148418430Y-64117413D01*
X148306512Y-64209262D01*
X148214663Y-64321180D01*
X148146413Y-64448867D01*
X148104385Y-64587415D01*
X148090194Y-64731500D01*
X144367306Y-64731500D01*
X144353115Y-64587415D01*
X144311087Y-64448867D01*
X144242837Y-64321180D01*
X144150988Y-64209262D01*
X144039070Y-64117413D01*
X143911383Y-64049163D01*
X143772835Y-64007135D01*
X143664855Y-63996500D01*
X143628750Y-63992944D01*
X143592645Y-63996500D01*
X129814855Y-63996500D01*
X129778750Y-63992944D01*
X129742645Y-63996500D01*
X129634665Y-64007135D01*
X129496117Y-64049163D01*
X129368430Y-64117413D01*
X129256512Y-64209262D01*
X129164663Y-64321180D01*
X129096413Y-64448867D01*
X129054385Y-64587415D01*
X129040194Y-64731500D01*
X125317306Y-64731500D01*
X125303115Y-64587415D01*
X125261087Y-64448867D01*
X125192837Y-64321180D01*
X125100988Y-64209262D01*
X124989070Y-64117413D01*
X124861383Y-64049163D01*
X124722835Y-64007135D01*
X124614855Y-63996500D01*
X124578750Y-63992944D01*
X124542645Y-63996500D01*
X110764855Y-63996500D01*
X110728750Y-63992944D01*
X110692645Y-63996500D01*
X110584665Y-64007135D01*
X110446117Y-64049163D01*
X110318430Y-64117413D01*
X110206512Y-64209262D01*
X110114663Y-64321180D01*
X110046413Y-64448867D01*
X110004385Y-64587415D01*
X109990194Y-64731500D01*
X106267306Y-64731500D01*
X106253115Y-64587415D01*
X106211087Y-64448867D01*
X106142837Y-64321180D01*
X106050988Y-64209262D01*
X105939070Y-64117413D01*
X105811383Y-64049163D01*
X105672835Y-64007135D01*
X105564855Y-63996500D01*
X105528750Y-63992944D01*
X105492645Y-63996500D01*
X91714855Y-63996500D01*
X91678750Y-63992944D01*
X91642645Y-63996500D01*
X91534665Y-64007135D01*
X91396117Y-64049163D01*
X91268430Y-64117413D01*
X91156512Y-64209262D01*
X91064663Y-64321180D01*
X90996413Y-64448867D01*
X90954385Y-64587415D01*
X90940194Y-64731500D01*
X87217306Y-64731500D01*
X87203115Y-64587415D01*
X87161087Y-64448867D01*
X87092837Y-64321180D01*
X87000988Y-64209262D01*
X86889070Y-64117413D01*
X86761383Y-64049163D01*
X86622835Y-64007135D01*
X86514855Y-63996500D01*
X86478750Y-63992944D01*
X86442645Y-63996500D01*
X72664855Y-63996500D01*
X72628750Y-63992944D01*
X72592645Y-63996500D01*
X72484665Y-64007135D01*
X72346117Y-64049163D01*
X72218430Y-64117413D01*
X72106512Y-64209262D01*
X72014663Y-64321180D01*
X71946413Y-64448867D01*
X71904385Y-64587415D01*
X71890194Y-64731500D01*
X68167306Y-64731500D01*
X68153115Y-64587415D01*
X68111087Y-64448867D01*
X68042837Y-64321180D01*
X67950988Y-64209262D01*
X67839070Y-64117413D01*
X67711383Y-64049163D01*
X67572835Y-64007135D01*
X67464855Y-63996500D01*
X67428750Y-63992944D01*
X67392645Y-63996500D01*
X53614855Y-63996500D01*
X53578750Y-63992944D01*
X53542645Y-63996500D01*
X53434665Y-64007135D01*
X53296117Y-64049163D01*
X53168430Y-64117413D01*
X53056512Y-64209262D01*
X52964663Y-64321180D01*
X52896413Y-64448867D01*
X52854385Y-64587415D01*
X52840194Y-64731500D01*
X52357750Y-64731500D01*
X52357750Y-61939419D01*
X68095000Y-61939419D01*
X68095000Y-62320581D01*
X68169361Y-62694419D01*
X68315225Y-63046566D01*
X68526987Y-63363491D01*
X68796509Y-63633013D01*
X69113434Y-63844775D01*
X69465581Y-63990639D01*
X69839419Y-64065000D01*
X70220581Y-64065000D01*
X70594419Y-63990639D01*
X70946566Y-63844775D01*
X71263491Y-63633013D01*
X71533013Y-63363491D01*
X71744775Y-63046566D01*
X71890639Y-62694419D01*
X71965000Y-62320581D01*
X71965000Y-61939419D01*
X71890639Y-61565581D01*
X71744775Y-61213434D01*
X71533013Y-60896509D01*
X71263491Y-60626987D01*
X70946566Y-60415225D01*
X70594419Y-60269361D01*
X70220581Y-60195000D01*
X69839419Y-60195000D01*
X69465581Y-60269361D01*
X69113434Y-60415225D01*
X68796509Y-60626987D01*
X68526987Y-60896509D01*
X68315225Y-61213434D01*
X68169361Y-61565581D01*
X68095000Y-61939419D01*
X52357750Y-61939419D01*
X52357750Y-45681500D01*
X52840194Y-45681500D01*
X52843751Y-45717615D01*
X52843750Y-59495395D01*
X52840194Y-59531500D01*
X52854385Y-59675585D01*
X52896413Y-59814133D01*
X52964663Y-59941820D01*
X53056512Y-60053738D01*
X53168430Y-60145587D01*
X53296117Y-60213837D01*
X53434665Y-60255865D01*
X53578750Y-60270056D01*
X53614855Y-60266500D01*
X67392645Y-60266500D01*
X67428750Y-60270056D01*
X67464855Y-60266500D01*
X67572835Y-60255865D01*
X67711383Y-60213837D01*
X67839070Y-60145587D01*
X67950988Y-60053738D01*
X68042837Y-59941820D01*
X68111087Y-59814133D01*
X68153115Y-59675585D01*
X68167306Y-59531500D01*
X68163750Y-59495395D01*
X68163750Y-45717605D01*
X68167306Y-45681500D01*
X71890194Y-45681500D01*
X71893750Y-45717605D01*
X71893751Y-59495385D01*
X71890194Y-59531500D01*
X71904385Y-59675585D01*
X71946413Y-59814133D01*
X72014663Y-59941820D01*
X72106512Y-60053738D01*
X72218430Y-60145587D01*
X72346117Y-60213837D01*
X72484665Y-60255865D01*
X72592645Y-60266500D01*
X72628750Y-60270056D01*
X72664855Y-60266500D01*
X86442645Y-60266500D01*
X86478750Y-60270056D01*
X86514855Y-60266500D01*
X86622835Y-60255865D01*
X86761383Y-60213837D01*
X86889070Y-60145587D01*
X87000988Y-60053738D01*
X87092837Y-59941820D01*
X87161087Y-59814133D01*
X87203115Y-59675585D01*
X87217306Y-59531500D01*
X87213750Y-59495395D01*
X87213750Y-45717605D01*
X87217306Y-45681500D01*
X90940194Y-45681500D01*
X90943751Y-45717615D01*
X90943750Y-59495395D01*
X90940194Y-59531500D01*
X90954385Y-59675585D01*
X90996413Y-59814133D01*
X91064663Y-59941820D01*
X91156512Y-60053738D01*
X91268430Y-60145587D01*
X91396117Y-60213837D01*
X91534665Y-60255865D01*
X91678750Y-60270056D01*
X91714855Y-60266500D01*
X105492645Y-60266500D01*
X105528750Y-60270056D01*
X105564855Y-60266500D01*
X105672835Y-60255865D01*
X105811383Y-60213837D01*
X105939070Y-60145587D01*
X106050988Y-60053738D01*
X106142837Y-59941820D01*
X106211087Y-59814133D01*
X106253115Y-59675585D01*
X106267306Y-59531500D01*
X106263750Y-59495395D01*
X106263750Y-45717605D01*
X106267306Y-45681500D01*
X109990194Y-45681500D01*
X109993750Y-45717605D01*
X109993751Y-59495385D01*
X109990194Y-59531500D01*
X110004385Y-59675585D01*
X110046413Y-59814133D01*
X110114663Y-59941820D01*
X110206512Y-60053738D01*
X110318430Y-60145587D01*
X110446117Y-60213837D01*
X110584665Y-60255865D01*
X110692645Y-60266500D01*
X110728750Y-60270056D01*
X110764855Y-60266500D01*
X124542645Y-60266500D01*
X124578750Y-60270056D01*
X124614855Y-60266500D01*
X124722835Y-60255865D01*
X124861383Y-60213837D01*
X124989070Y-60145587D01*
X125100988Y-60053738D01*
X125192837Y-59941820D01*
X125261087Y-59814133D01*
X125303115Y-59675585D01*
X125317306Y-59531500D01*
X125313750Y-59495395D01*
X125313750Y-45717605D01*
X125317306Y-45681500D01*
X129040194Y-45681500D01*
X129043751Y-45717615D01*
X129043750Y-59495395D01*
X129040194Y-59531500D01*
X129054385Y-59675585D01*
X129096413Y-59814133D01*
X129164663Y-59941820D01*
X129256512Y-60053738D01*
X129368430Y-60145587D01*
X129496117Y-60213837D01*
X129634665Y-60255865D01*
X129778750Y-60270056D01*
X129814855Y-60266500D01*
X143592645Y-60266500D01*
X143628750Y-60270056D01*
X143664855Y-60266500D01*
X143772835Y-60255865D01*
X143911383Y-60213837D01*
X144039070Y-60145587D01*
X144150988Y-60053738D01*
X144242837Y-59941820D01*
X144311087Y-59814133D01*
X144353115Y-59675585D01*
X144367306Y-59531500D01*
X144363750Y-59495395D01*
X144363750Y-45717605D01*
X144367306Y-45681500D01*
X148090194Y-45681500D01*
X148093750Y-45717605D01*
X148093751Y-59495385D01*
X148090194Y-59531500D01*
X148104385Y-59675585D01*
X148146413Y-59814133D01*
X148214663Y-59941820D01*
X148306512Y-60053738D01*
X148418430Y-60145587D01*
X148546117Y-60213837D01*
X148684665Y-60255865D01*
X148792645Y-60266500D01*
X148828750Y-60270056D01*
X148864855Y-60266500D01*
X162642645Y-60266500D01*
X162678750Y-60270056D01*
X162714855Y-60266500D01*
X162822835Y-60255865D01*
X162961383Y-60213837D01*
X163089070Y-60145587D01*
X163200988Y-60053738D01*
X163292837Y-59941820D01*
X163361087Y-59814133D01*
X163403115Y-59675585D01*
X163417306Y-59531500D01*
X163413750Y-59495395D01*
X163413750Y-45717605D01*
X163417306Y-45681500D01*
X167140194Y-45681500D01*
X167143750Y-45717605D01*
X167143751Y-59495385D01*
X167140194Y-59531500D01*
X167154385Y-59675585D01*
X167196413Y-59814133D01*
X167264663Y-59941820D01*
X167356512Y-60053738D01*
X167468430Y-60145587D01*
X167596117Y-60213837D01*
X167734665Y-60255865D01*
X167842645Y-60266500D01*
X167878750Y-60270056D01*
X167914855Y-60266500D01*
X181692645Y-60266500D01*
X181728750Y-60270056D01*
X181764855Y-60266500D01*
X181872835Y-60255865D01*
X182011383Y-60213837D01*
X182139070Y-60145587D01*
X182250988Y-60053738D01*
X182342837Y-59941820D01*
X182411087Y-59814133D01*
X182453115Y-59675585D01*
X182467306Y-59531500D01*
X182463750Y-59495395D01*
X182463750Y-45717605D01*
X182467306Y-45681500D01*
X186190194Y-45681500D01*
X186193750Y-45717605D01*
X186193751Y-59495385D01*
X186190194Y-59531500D01*
X186204385Y-59675585D01*
X186246413Y-59814133D01*
X186314663Y-59941820D01*
X186406512Y-60053738D01*
X186518430Y-60145587D01*
X186646117Y-60213837D01*
X186784665Y-60255865D01*
X186892645Y-60266500D01*
X186928750Y-60270056D01*
X186964855Y-60266500D01*
X200742645Y-60266500D01*
X200778750Y-60270056D01*
X200814855Y-60266500D01*
X200922835Y-60255865D01*
X201061383Y-60213837D01*
X201189070Y-60145587D01*
X201300988Y-60053738D01*
X201392837Y-59941820D01*
X201461087Y-59814133D01*
X201503115Y-59675585D01*
X201517306Y-59531500D01*
X201513750Y-59495395D01*
X201513750Y-45717605D01*
X201517306Y-45681500D01*
X205240194Y-45681500D01*
X205243750Y-45717605D01*
X205243751Y-59495385D01*
X205240194Y-59531500D01*
X205254385Y-59675585D01*
X205296413Y-59814133D01*
X205364663Y-59941820D01*
X205456512Y-60053738D01*
X205568430Y-60145587D01*
X205696117Y-60213837D01*
X205834665Y-60255865D01*
X205942645Y-60266500D01*
X205978750Y-60270056D01*
X206014855Y-60266500D01*
X219792645Y-60266500D01*
X219828750Y-60270056D01*
X219864855Y-60266500D01*
X219972835Y-60255865D01*
X220111383Y-60213837D01*
X220239070Y-60145587D01*
X220350988Y-60053738D01*
X220442837Y-59941820D01*
X220511087Y-59814133D01*
X220553115Y-59675585D01*
X220567306Y-59531500D01*
X220563750Y-59495395D01*
X220563750Y-45717605D01*
X220567306Y-45681500D01*
X224290194Y-45681500D01*
X224293751Y-45717615D01*
X224293750Y-59495395D01*
X224290194Y-59531500D01*
X224304385Y-59675585D01*
X224346413Y-59814133D01*
X224414663Y-59941820D01*
X224506512Y-60053738D01*
X224618430Y-60145587D01*
X224746117Y-60213837D01*
X224884665Y-60255865D01*
X225028750Y-60270056D01*
X225064855Y-60266500D01*
X238842645Y-60266500D01*
X238878750Y-60270056D01*
X238914855Y-60266500D01*
X239022835Y-60255865D01*
X239161383Y-60213837D01*
X239289070Y-60145587D01*
X239400988Y-60053738D01*
X239492837Y-59941820D01*
X239561087Y-59814133D01*
X239603115Y-59675585D01*
X239617306Y-59531500D01*
X239613750Y-59495395D01*
X239613750Y-45717605D01*
X239617306Y-45681500D01*
X239603115Y-45537415D01*
X239561087Y-45398867D01*
X239492837Y-45271180D01*
X239400988Y-45159262D01*
X239289070Y-45067413D01*
X239161383Y-44999163D01*
X239022835Y-44957135D01*
X238914855Y-44946500D01*
X238878750Y-44942944D01*
X238842645Y-44946500D01*
X225064855Y-44946500D01*
X225028750Y-44942944D01*
X224992645Y-44946500D01*
X224884665Y-44957135D01*
X224746117Y-44999163D01*
X224618430Y-45067413D01*
X224506512Y-45159262D01*
X224414663Y-45271180D01*
X224346413Y-45398867D01*
X224304385Y-45537415D01*
X224290194Y-45681500D01*
X220567306Y-45681500D01*
X220553115Y-45537415D01*
X220511087Y-45398867D01*
X220442837Y-45271180D01*
X220350988Y-45159262D01*
X220239070Y-45067413D01*
X220111383Y-44999163D01*
X219972835Y-44957135D01*
X219864855Y-44946500D01*
X219828750Y-44942944D01*
X219792645Y-44946500D01*
X206014855Y-44946500D01*
X205978750Y-44942944D01*
X205942645Y-44946500D01*
X205834665Y-44957135D01*
X205696117Y-44999163D01*
X205568430Y-45067413D01*
X205456512Y-45159262D01*
X205364663Y-45271180D01*
X205296413Y-45398867D01*
X205254385Y-45537415D01*
X205240194Y-45681500D01*
X201517306Y-45681500D01*
X201503115Y-45537415D01*
X201461087Y-45398867D01*
X201392837Y-45271180D01*
X201300988Y-45159262D01*
X201189070Y-45067413D01*
X201061383Y-44999163D01*
X200922835Y-44957135D01*
X200814855Y-44946500D01*
X200778750Y-44942944D01*
X200742645Y-44946500D01*
X186964855Y-44946500D01*
X186928750Y-44942944D01*
X186892645Y-44946500D01*
X186784665Y-44957135D01*
X186646117Y-44999163D01*
X186518430Y-45067413D01*
X186406512Y-45159262D01*
X186314663Y-45271180D01*
X186246413Y-45398867D01*
X186204385Y-45537415D01*
X186190194Y-45681500D01*
X182467306Y-45681500D01*
X182453115Y-45537415D01*
X182411087Y-45398867D01*
X182342837Y-45271180D01*
X182250988Y-45159262D01*
X182139070Y-45067413D01*
X182011383Y-44999163D01*
X181872835Y-44957135D01*
X181764855Y-44946500D01*
X181728750Y-44942944D01*
X181692645Y-44946500D01*
X167914855Y-44946500D01*
X167878750Y-44942944D01*
X167842645Y-44946500D01*
X167734665Y-44957135D01*
X167596117Y-44999163D01*
X167468430Y-45067413D01*
X167356512Y-45159262D01*
X167264663Y-45271180D01*
X167196413Y-45398867D01*
X167154385Y-45537415D01*
X167140194Y-45681500D01*
X163417306Y-45681500D01*
X163403115Y-45537415D01*
X163361087Y-45398867D01*
X163292837Y-45271180D01*
X163200988Y-45159262D01*
X163089070Y-45067413D01*
X162961383Y-44999163D01*
X162822835Y-44957135D01*
X162714855Y-44946500D01*
X162678750Y-44942944D01*
X162642645Y-44946500D01*
X148864855Y-44946500D01*
X148828750Y-44942944D01*
X148792645Y-44946500D01*
X148684665Y-44957135D01*
X148546117Y-44999163D01*
X148418430Y-45067413D01*
X148306512Y-45159262D01*
X148214663Y-45271180D01*
X148146413Y-45398867D01*
X148104385Y-45537415D01*
X148090194Y-45681500D01*
X144367306Y-45681500D01*
X144353115Y-45537415D01*
X144311087Y-45398867D01*
X144242837Y-45271180D01*
X144150988Y-45159262D01*
X144039070Y-45067413D01*
X143911383Y-44999163D01*
X143772835Y-44957135D01*
X143664855Y-44946500D01*
X143628750Y-44942944D01*
X143592645Y-44946500D01*
X129814855Y-44946500D01*
X129778750Y-44942944D01*
X129742645Y-44946500D01*
X129634665Y-44957135D01*
X129496117Y-44999163D01*
X129368430Y-45067413D01*
X129256512Y-45159262D01*
X129164663Y-45271180D01*
X129096413Y-45398867D01*
X129054385Y-45537415D01*
X129040194Y-45681500D01*
X125317306Y-45681500D01*
X125303115Y-45537415D01*
X125261087Y-45398867D01*
X125192837Y-45271180D01*
X125100988Y-45159262D01*
X124989070Y-45067413D01*
X124861383Y-44999163D01*
X124722835Y-44957135D01*
X124614855Y-44946500D01*
X124578750Y-44942944D01*
X124542645Y-44946500D01*
X110764855Y-44946500D01*
X110728750Y-44942944D01*
X110692645Y-44946500D01*
X110584665Y-44957135D01*
X110446117Y-44999163D01*
X110318430Y-45067413D01*
X110206512Y-45159262D01*
X110114663Y-45271180D01*
X110046413Y-45398867D01*
X110004385Y-45537415D01*
X109990194Y-45681500D01*
X106267306Y-45681500D01*
X106253115Y-45537415D01*
X106211087Y-45398867D01*
X106142837Y-45271180D01*
X106050988Y-45159262D01*
X105939070Y-45067413D01*
X105811383Y-44999163D01*
X105672835Y-44957135D01*
X105564855Y-44946500D01*
X105528750Y-44942944D01*
X105492645Y-44946500D01*
X91714855Y-44946500D01*
X91678750Y-44942944D01*
X91642645Y-44946500D01*
X91534665Y-44957135D01*
X91396117Y-44999163D01*
X91268430Y-45067413D01*
X91156512Y-45159262D01*
X91064663Y-45271180D01*
X90996413Y-45398867D01*
X90954385Y-45537415D01*
X90940194Y-45681500D01*
X87217306Y-45681500D01*
X87203115Y-45537415D01*
X87161087Y-45398867D01*
X87092837Y-45271180D01*
X87000988Y-45159262D01*
X86889070Y-45067413D01*
X86761383Y-44999163D01*
X86622835Y-44957135D01*
X86514855Y-44946500D01*
X86478750Y-44942944D01*
X86442645Y-44946500D01*
X72664855Y-44946500D01*
X72628750Y-44942944D01*
X72592645Y-44946500D01*
X72484665Y-44957135D01*
X72346117Y-44999163D01*
X72218430Y-45067413D01*
X72106512Y-45159262D01*
X72014663Y-45271180D01*
X71946413Y-45398867D01*
X71904385Y-45537415D01*
X71890194Y-45681500D01*
X68167306Y-45681500D01*
X68153115Y-45537415D01*
X68111087Y-45398867D01*
X68042837Y-45271180D01*
X67950988Y-45159262D01*
X67839070Y-45067413D01*
X67711383Y-44999163D01*
X67572835Y-44957135D01*
X67464855Y-44946500D01*
X67428750Y-44942944D01*
X67392645Y-44946500D01*
X53614855Y-44946500D01*
X53578750Y-44942944D01*
X53542645Y-44946500D01*
X53434665Y-44957135D01*
X53296117Y-44999163D01*
X53168430Y-45067413D01*
X53056512Y-45159262D01*
X52964663Y-45271180D01*
X52896413Y-45398867D01*
X52854385Y-45537415D01*
X52840194Y-45681500D01*
X52357750Y-45681500D01*
X52357750Y-44079419D01*
X239545000Y-44079419D01*
X239545000Y-44460581D01*
X239619361Y-44834419D01*
X239765225Y-45186566D01*
X239976987Y-45503491D01*
X240246509Y-45773013D01*
X240563434Y-45984775D01*
X240915581Y-46130639D01*
X241289419Y-46205000D01*
X241670581Y-46205000D01*
X242044419Y-46130639D01*
X242396566Y-45984775D01*
X242713491Y-45773013D01*
X242983013Y-45503491D01*
X243194775Y-45186566D01*
X243340639Y-44834419D01*
X243415000Y-44460581D01*
X243415000Y-44079419D01*
X243340639Y-43705581D01*
X243194775Y-43353434D01*
X242983013Y-43036509D01*
X242713491Y-42766987D01*
X242396566Y-42555225D01*
X242044419Y-42409361D01*
X241670581Y-42335000D01*
X241289419Y-42335000D01*
X240915581Y-42409361D01*
X240563434Y-42555225D01*
X240246509Y-42766987D01*
X239976987Y-43036509D01*
X239765225Y-43353434D01*
X239619361Y-43705581D01*
X239545000Y-44079419D01*
X52357750Y-44079419D01*
X52357750Y-42811447D01*
X52385299Y-42530479D01*
X52456458Y-42294788D01*
X52572041Y-42077411D01*
X52727645Y-41886621D01*
X52917343Y-41729689D01*
X53133907Y-41612594D01*
X53369094Y-41539791D01*
X53647778Y-41510500D01*
X242940803Y-41510500D01*
X243221771Y-41538049D01*
X243221771Y-41538049D01*
G37*
X243221771Y-41538049D02*
X243457462Y-41609208D01*
X243674839Y-41724791D01*
X243865629Y-41880395D01*
X244022561Y-42070093D01*
X244139656Y-42286657D01*
X244212459Y-42521844D01*
X244241751Y-42800537D01*
X244241750Y-119552553D01*
X244214201Y-119833521D01*
X244143041Y-120069212D01*
X244027461Y-120286588D01*
X243871854Y-120477379D01*
X243682158Y-120634311D01*
X243465593Y-120751406D01*
X243230406Y-120824209D01*
X242951722Y-120853500D01*
X31658697Y-120853500D01*
X31377729Y-120825951D01*
X31142038Y-120754791D01*
X30924662Y-120639211D01*
X30733871Y-120483604D01*
X30576939Y-120293908D01*
X30459844Y-120077343D01*
X30387041Y-119842156D01*
X30357750Y-119563472D01*
X30357750Y-117909419D01*
X31185000Y-117909419D01*
X31185000Y-118290581D01*
X31259361Y-118664419D01*
X31405225Y-119016566D01*
X31616987Y-119333491D01*
X31886509Y-119603013D01*
X32203434Y-119814775D01*
X32555581Y-119960639D01*
X32929419Y-120035000D01*
X33310581Y-120035000D01*
X33684419Y-119960639D01*
X34036566Y-119814775D01*
X34353491Y-119603013D01*
X34623013Y-119333491D01*
X34834775Y-119016566D01*
X34980639Y-118664419D01*
X35055000Y-118290581D01*
X35055000Y-117909419D01*
X35053011Y-117899419D01*
X239545000Y-117899419D01*
X239545000Y-118280581D01*
X239619361Y-118654419D01*
X239765225Y-119006566D01*
X239976987Y-119323491D01*
X240246509Y-119593013D01*
X240563434Y-119804775D01*
X240915581Y-119950639D01*
X241289419Y-120025000D01*
X241670581Y-120025000D01*
X242044419Y-119950639D01*
X242396566Y-119804775D01*
X242713491Y-119593013D01*
X242983013Y-119323491D01*
X243194775Y-119006566D01*
X243340639Y-118654419D01*
X243415000Y-118280581D01*
X243415000Y-117899419D01*
X243340639Y-117525581D01*
X243194775Y-117173434D01*
X242983013Y-116856509D01*
X242713491Y-116586987D01*
X242396566Y-116375225D01*
X242044419Y-116229361D01*
X241670581Y-116155000D01*
X241289419Y-116155000D01*
X240915581Y-116229361D01*
X240563434Y-116375225D01*
X240246509Y-116586987D01*
X239976987Y-116856509D01*
X239765225Y-117173434D01*
X239619361Y-117525581D01*
X239545000Y-117899419D01*
X35053011Y-117899419D01*
X34980639Y-117535581D01*
X34834775Y-117183434D01*
X34623013Y-116866509D01*
X34353491Y-116596987D01*
X34036566Y-116385225D01*
X33684419Y-116239361D01*
X33310581Y-116165000D01*
X32929419Y-116165000D01*
X32555581Y-116239361D01*
X32203434Y-116385225D01*
X31886509Y-116596987D01*
X31616987Y-116866509D01*
X31405225Y-117183434D01*
X31259361Y-117535581D01*
X31185000Y-117909419D01*
X30357750Y-117909419D01*
X30357750Y-102831500D01*
X90940194Y-102831500D01*
X90943750Y-102867605D01*
X90943751Y-116645385D01*
X90940194Y-116681500D01*
X90954385Y-116825585D01*
X90996413Y-116964133D01*
X91064663Y-117091820D01*
X91156512Y-117203738D01*
X91268430Y-117295587D01*
X91396117Y-117363837D01*
X91534665Y-117405865D01*
X91642645Y-117416500D01*
X91678750Y-117420056D01*
X91714855Y-117416500D01*
X105492645Y-117416500D01*
X105528750Y-117420056D01*
X105564855Y-117416500D01*
X105672835Y-117405865D01*
X105811383Y-117363837D01*
X105939070Y-117295587D01*
X106050988Y-117203738D01*
X106142837Y-117091820D01*
X106211087Y-116964133D01*
X106253115Y-116825585D01*
X106267306Y-116681500D01*
X106263750Y-116645395D01*
X106263750Y-102867605D01*
X106267306Y-102831500D01*
X109990194Y-102831500D01*
X109993751Y-102867615D01*
X109993750Y-116645395D01*
X109990194Y-116681500D01*
X110004385Y-116825585D01*
X110046413Y-116964133D01*
X110114663Y-117091820D01*
X110206512Y-117203738D01*
X110318430Y-117295587D01*
X110446117Y-117363837D01*
X110584665Y-117405865D01*
X110728750Y-117420056D01*
X110764855Y-117416500D01*
X143592645Y-117416500D01*
X143628750Y-117420056D01*
X143664855Y-117416500D01*
X143772835Y-117405865D01*
X143911383Y-117363837D01*
X144039070Y-117295587D01*
X144150988Y-117203738D01*
X144242837Y-117091820D01*
X144311087Y-116964133D01*
X144353115Y-116825585D01*
X144367306Y-116681500D01*
X144363750Y-116645395D01*
X144363750Y-102867605D01*
X144367306Y-102831500D01*
X148090194Y-102831500D01*
X148093750Y-102867605D01*
X148093751Y-116645385D01*
X148090194Y-116681500D01*
X148104385Y-116825585D01*
X148146413Y-116964133D01*
X148214663Y-117091820D01*
X148306512Y-117203738D01*
X148418430Y-117295587D01*
X148546117Y-117363837D01*
X148684665Y-117405865D01*
X148792645Y-117416500D01*
X148828750Y-117420056D01*
X148864855Y-117416500D01*
X181692645Y-117416500D01*
X181728750Y-117420056D01*
X181764855Y-117416500D01*
X181872835Y-117405865D01*
X182011383Y-117363837D01*
X182139070Y-117295587D01*
X182250988Y-117203738D01*
X182342837Y-117091820D01*
X182411087Y-116964133D01*
X182453115Y-116825585D01*
X182467306Y-116681500D01*
X182463750Y-116645395D01*
X182463750Y-102867605D01*
X182467306Y-102831500D01*
X186190194Y-102831500D01*
X186193751Y-102867615D01*
X186193750Y-116645395D01*
X186190194Y-116681500D01*
X186204385Y-116825585D01*
X186246413Y-116964133D01*
X186314663Y-117091820D01*
X186406512Y-117203738D01*
X186518430Y-117295587D01*
X186646117Y-117363837D01*
X186784665Y-117405865D01*
X186928750Y-117420056D01*
X186964855Y-117416500D01*
X200742645Y-117416500D01*
X200778750Y-117420056D01*
X200814855Y-117416500D01*
X200922835Y-117405865D01*
X201061383Y-117363837D01*
X201189070Y-117295587D01*
X201300988Y-117203738D01*
X201392837Y-117091820D01*
X201461087Y-116964133D01*
X201503115Y-116825585D01*
X201517306Y-116681500D01*
X201513750Y-116645395D01*
X201513750Y-102867605D01*
X201517306Y-102831500D01*
X201503115Y-102687415D01*
X201461087Y-102548867D01*
X201392837Y-102421180D01*
X201300988Y-102309262D01*
X201189070Y-102217413D01*
X201061383Y-102149163D01*
X200922835Y-102107135D01*
X200814855Y-102096500D01*
X200778750Y-102092944D01*
X200742645Y-102096500D01*
X186964855Y-102096500D01*
X186928750Y-102092944D01*
X186892645Y-102096500D01*
X186784665Y-102107135D01*
X186646117Y-102149163D01*
X186518430Y-102217413D01*
X186406512Y-102309262D01*
X186314663Y-102421180D01*
X186246413Y-102548867D01*
X186204385Y-102687415D01*
X186190194Y-102831500D01*
X182467306Y-102831500D01*
X182453115Y-102687415D01*
X182411087Y-102548867D01*
X182342837Y-102421180D01*
X182250988Y-102309262D01*
X182139070Y-102217413D01*
X182011383Y-102149163D01*
X181872835Y-102107135D01*
X181764855Y-102096500D01*
X181728750Y-102092944D01*
X181692645Y-102096500D01*
X148864855Y-102096500D01*
X148828750Y-102092944D01*
X148792645Y-102096500D01*
X148684665Y-102107135D01*
X148546117Y-102149163D01*
X148418430Y-102217413D01*
X148306512Y-102309262D01*
X148214663Y-102421180D01*
X148146413Y-102548867D01*
X148104385Y-102687415D01*
X148090194Y-102831500D01*
X144367306Y-102831500D01*
X144353115Y-102687415D01*
X144311087Y-102548867D01*
X144242837Y-102421180D01*
X144150988Y-102309262D01*
X144039070Y-102217413D01*
X143911383Y-102149163D01*
X143772835Y-102107135D01*
X143664855Y-102096500D01*
X143628750Y-102092944D01*
X143592645Y-102096500D01*
X110764855Y-102096500D01*
X110728750Y-102092944D01*
X110692645Y-102096500D01*
X110584665Y-102107135D01*
X110446117Y-102149163D01*
X110318430Y-102217413D01*
X110206512Y-102309262D01*
X110114663Y-102421180D01*
X110046413Y-102548867D01*
X110004385Y-102687415D01*
X109990194Y-102831500D01*
X106267306Y-102831500D01*
X106253115Y-102687415D01*
X106211087Y-102548867D01*
X106142837Y-102421180D01*
X106050988Y-102309262D01*
X105939070Y-102217413D01*
X105811383Y-102149163D01*
X105672835Y-102107135D01*
X105564855Y-102096500D01*
X105528750Y-102092944D01*
X105492645Y-102096500D01*
X91714855Y-102096500D01*
X91678750Y-102092944D01*
X91642645Y-102096500D01*
X91534665Y-102107135D01*
X91396117Y-102149163D01*
X91268430Y-102217413D01*
X91156512Y-102309262D01*
X91064663Y-102421180D01*
X90996413Y-102548867D01*
X90954385Y-102687415D01*
X90940194Y-102831500D01*
X30357750Y-102831500D01*
X30357750Y-100039419D01*
X87145000Y-100039419D01*
X87145000Y-100420581D01*
X87219361Y-100794419D01*
X87365225Y-101146566D01*
X87576987Y-101463491D01*
X87846509Y-101733013D01*
X88163434Y-101944775D01*
X88515581Y-102090639D01*
X88889419Y-102165000D01*
X89270581Y-102165000D01*
X89644419Y-102090639D01*
X89996566Y-101944775D01*
X90313491Y-101733013D01*
X90583013Y-101463491D01*
X90794775Y-101146566D01*
X90940639Y-100794419D01*
X91015000Y-100420581D01*
X91015000Y-100039419D01*
X144295000Y-100039419D01*
X144295000Y-100420581D01*
X144369361Y-100794419D01*
X144515225Y-101146566D01*
X144726987Y-101463491D01*
X144996509Y-101733013D01*
X145313434Y-101944775D01*
X145665581Y-102090639D01*
X146039419Y-102165000D01*
X146420581Y-102165000D01*
X146794419Y-102090639D01*
X147146566Y-101944775D01*
X147463491Y-101733013D01*
X147733013Y-101463491D01*
X147944775Y-101146566D01*
X148090639Y-100794419D01*
X148165000Y-100420581D01*
X148165000Y-100039419D01*
X148090639Y-99665581D01*
X147944775Y-99313434D01*
X147733013Y-98996509D01*
X147463491Y-98726987D01*
X147146566Y-98515225D01*
X146794419Y-98369361D01*
X146420581Y-98295000D01*
X146039419Y-98295000D01*
X145665581Y-98369361D01*
X145313434Y-98515225D01*
X144996509Y-98726987D01*
X144726987Y-98996509D01*
X144515225Y-99313434D01*
X144369361Y-99665581D01*
X144295000Y-100039419D01*
X91015000Y-100039419D01*
X90940639Y-99665581D01*
X90794775Y-99313434D01*
X90583013Y-98996509D01*
X90313491Y-98726987D01*
X89996566Y-98515225D01*
X89644419Y-98369361D01*
X89270581Y-98295000D01*
X88889419Y-98295000D01*
X88515581Y-98369361D01*
X88163434Y-98515225D01*
X87846509Y-98726987D01*
X87576987Y-98996509D01*
X87365225Y-99313434D01*
X87219361Y-99665581D01*
X87145000Y-100039419D01*
X30357750Y-100039419D01*
X30357750Y-83781500D01*
X33790194Y-83781500D01*
X33793751Y-83817615D01*
X33793750Y-97595395D01*
X33790194Y-97631500D01*
X33804385Y-97775585D01*
X33846413Y-97914133D01*
X33914663Y-98041820D01*
X34006512Y-98153738D01*
X34118430Y-98245587D01*
X34246117Y-98313837D01*
X34384665Y-98355865D01*
X34528750Y-98370056D01*
X34564855Y-98366500D01*
X48342645Y-98366500D01*
X48378750Y-98370056D01*
X48414855Y-98366500D01*
X48522835Y-98355865D01*
X48661383Y-98313837D01*
X48789070Y-98245587D01*
X48900988Y-98153738D01*
X48992837Y-98041820D01*
X49061087Y-97914133D01*
X49103115Y-97775585D01*
X49117306Y-97631500D01*
X49113750Y-97595395D01*
X49113750Y-83817605D01*
X49117306Y-83781500D01*
X52840194Y-83781500D01*
X52843750Y-83817605D01*
X52843751Y-97595385D01*
X52840194Y-97631500D01*
X52854385Y-97775585D01*
X52896413Y-97914133D01*
X52964663Y-98041820D01*
X53056512Y-98153738D01*
X53168430Y-98245587D01*
X53296117Y-98313837D01*
X53434665Y-98355865D01*
X53542645Y-98366500D01*
X53578750Y-98370056D01*
X53614855Y-98366500D01*
X67392645Y-98366500D01*
X67428750Y-98370056D01*
X67464855Y-98366500D01*
X67572835Y-98355865D01*
X67711383Y-98313837D01*
X67839070Y-98245587D01*
X67950988Y-98153738D01*
X68042837Y-98041820D01*
X68111087Y-97914133D01*
X68153115Y-97775585D01*
X68167306Y-97631500D01*
X68163750Y-97595395D01*
X68163750Y-83817605D01*
X68167306Y-83781500D01*
X71890194Y-83781500D01*
X71893751Y-83817615D01*
X71893750Y-97595395D01*
X71890194Y-97631500D01*
X71904385Y-97775585D01*
X71946413Y-97914133D01*
X72014663Y-98041820D01*
X72106512Y-98153738D01*
X72218430Y-98245587D01*
X72346117Y-98313837D01*
X72484665Y-98355865D01*
X72628750Y-98370056D01*
X72664855Y-98366500D01*
X86442645Y-98366500D01*
X86478750Y-98370056D01*
X86514855Y-98366500D01*
X86622835Y-98355865D01*
X86761383Y-98313837D01*
X86889070Y-98245587D01*
X87000988Y-98153738D01*
X87092837Y-98041820D01*
X87161087Y-97914133D01*
X87203115Y-97775585D01*
X87217306Y-97631500D01*
X87213750Y-97595395D01*
X87213750Y-83817605D01*
X87217306Y-83781500D01*
X90940194Y-83781500D01*
X90943750Y-83817605D01*
X90943751Y-97595385D01*
X90940194Y-97631500D01*
X90954385Y-97775585D01*
X90996413Y-97914133D01*
X91064663Y-98041820D01*
X91156512Y-98153738D01*
X91268430Y-98245587D01*
X91396117Y-98313837D01*
X91534665Y-98355865D01*
X91642645Y-98366500D01*
X91678750Y-98370056D01*
X91714855Y-98366500D01*
X105492645Y-98366500D01*
X105528750Y-98370056D01*
X105564855Y-98366500D01*
X105672835Y-98355865D01*
X105811383Y-98313837D01*
X105939070Y-98245587D01*
X106050988Y-98153738D01*
X106142837Y-98041820D01*
X106211087Y-97914133D01*
X106253115Y-97775585D01*
X106267306Y-97631500D01*
X106263750Y-97595395D01*
X106263750Y-83817605D01*
X106267306Y-83781500D01*
X109990194Y-83781500D01*
X109993750Y-83817605D01*
X109993751Y-97595385D01*
X109990194Y-97631500D01*
X110004385Y-97775585D01*
X110046413Y-97914133D01*
X110114663Y-98041820D01*
X110206512Y-98153738D01*
X110318430Y-98245587D01*
X110446117Y-98313837D01*
X110584665Y-98355865D01*
X110692645Y-98366500D01*
X110728750Y-98370056D01*
X110764855Y-98366500D01*
X124542645Y-98366500D01*
X124578750Y-98370056D01*
X124614855Y-98366500D01*
X124722835Y-98355865D01*
X124861383Y-98313837D01*
X124989070Y-98245587D01*
X125100988Y-98153738D01*
X125192837Y-98041820D01*
X125261087Y-97914133D01*
X125303115Y-97775585D01*
X125317306Y-97631500D01*
X125313750Y-97595395D01*
X125313750Y-83817605D01*
X125317306Y-83781500D01*
X129040194Y-83781500D01*
X129043751Y-83817615D01*
X129043750Y-97595395D01*
X129040194Y-97631500D01*
X129054385Y-97775585D01*
X129096413Y-97914133D01*
X129164663Y-98041820D01*
X129256512Y-98153738D01*
X129368430Y-98245587D01*
X129496117Y-98313837D01*
X129634665Y-98355865D01*
X129778750Y-98370056D01*
X129814855Y-98366500D01*
X143592645Y-98366500D01*
X143628750Y-98370056D01*
X143664855Y-98366500D01*
X143772835Y-98355865D01*
X143911383Y-98313837D01*
X144039070Y-98245587D01*
X144150988Y-98153738D01*
X144242837Y-98041820D01*
X144311087Y-97914133D01*
X144353115Y-97775585D01*
X144367306Y-97631500D01*
X144363750Y-97595395D01*
X144363750Y-83817605D01*
X144367306Y-83781500D01*
X148090194Y-83781500D01*
X148093751Y-83817615D01*
X148093750Y-97595395D01*
X148090194Y-97631500D01*
X148104385Y-97775585D01*
X148146413Y-97914133D01*
X148214663Y-98041820D01*
X148306512Y-98153738D01*
X148418430Y-98245587D01*
X148546117Y-98313837D01*
X148684665Y-98355865D01*
X148828750Y-98370056D01*
X148864855Y-98366500D01*
X162642645Y-98366500D01*
X162678750Y-98370056D01*
X162714855Y-98366500D01*
X162822835Y-98355865D01*
X162961383Y-98313837D01*
X163089070Y-98245587D01*
X163200988Y-98153738D01*
X163292837Y-98041820D01*
X163361087Y-97914133D01*
X163403115Y-97775585D01*
X163417306Y-97631500D01*
X163413750Y-97595395D01*
X163413750Y-83817605D01*
X163417306Y-83781500D01*
X167140194Y-83781500D01*
X167143751Y-83817615D01*
X167143750Y-97595395D01*
X167140194Y-97631500D01*
X167154385Y-97775585D01*
X167196413Y-97914133D01*
X167264663Y-98041820D01*
X167356512Y-98153738D01*
X167468430Y-98245587D01*
X167596117Y-98313837D01*
X167734665Y-98355865D01*
X167878750Y-98370056D01*
X167914855Y-98366500D01*
X181692645Y-98366500D01*
X181728750Y-98370056D01*
X181764855Y-98366500D01*
X181872835Y-98355865D01*
X182011383Y-98313837D01*
X182139070Y-98245587D01*
X182250988Y-98153738D01*
X182342837Y-98041820D01*
X182411087Y-97914133D01*
X182453115Y-97775585D01*
X182467306Y-97631500D01*
X182463750Y-97595395D01*
X182463750Y-83817605D01*
X182467306Y-83781500D01*
X186190194Y-83781500D01*
X186193751Y-83817615D01*
X186193750Y-97595395D01*
X186190194Y-97631500D01*
X186204385Y-97775585D01*
X186246413Y-97914133D01*
X186314663Y-98041820D01*
X186406512Y-98153738D01*
X186518430Y-98245587D01*
X186646117Y-98313837D01*
X186784665Y-98355865D01*
X186928750Y-98370056D01*
X186964855Y-98366500D01*
X200742645Y-98366500D01*
X200778750Y-98370056D01*
X200814855Y-98366500D01*
X200922835Y-98355865D01*
X201061383Y-98313837D01*
X201189070Y-98245587D01*
X201300988Y-98153738D01*
X201392837Y-98041820D01*
X201461087Y-97914133D01*
X201503115Y-97775585D01*
X201517306Y-97631500D01*
X201513750Y-97595395D01*
X201513750Y-83817605D01*
X201517306Y-83781500D01*
X205240194Y-83781500D01*
X205243750Y-83817605D01*
X205243751Y-97595385D01*
X205240194Y-97631500D01*
X205254385Y-97775585D01*
X205296413Y-97914133D01*
X205364663Y-98041820D01*
X205456512Y-98153738D01*
X205568430Y-98245587D01*
X205696117Y-98313837D01*
X205834665Y-98355865D01*
X205942645Y-98366500D01*
X205978750Y-98370056D01*
X206014855Y-98366500D01*
X219792645Y-98366500D01*
X219828750Y-98370056D01*
X219864855Y-98366500D01*
X219972835Y-98355865D01*
X220111383Y-98313837D01*
X220239070Y-98245587D01*
X220350988Y-98153738D01*
X220442837Y-98041820D01*
X220511087Y-97914133D01*
X220553115Y-97775585D01*
X220567306Y-97631500D01*
X220563750Y-97595395D01*
X220563750Y-83817605D01*
X220567306Y-83781500D01*
X224290194Y-83781500D01*
X224293751Y-83817615D01*
X224293750Y-97595395D01*
X224290194Y-97631500D01*
X224304385Y-97775585D01*
X224346413Y-97914133D01*
X224414663Y-98041820D01*
X224506512Y-98153738D01*
X224618430Y-98245587D01*
X224746117Y-98313837D01*
X224884665Y-98355865D01*
X225028750Y-98370056D01*
X225064855Y-98366500D01*
X238842645Y-98366500D01*
X238878750Y-98370056D01*
X238914855Y-98366500D01*
X239022835Y-98355865D01*
X239161383Y-98313837D01*
X239289070Y-98245587D01*
X239400988Y-98153738D01*
X239492837Y-98041820D01*
X239561087Y-97914133D01*
X239603115Y-97775585D01*
X239617306Y-97631500D01*
X239613750Y-97595395D01*
X239613750Y-83817605D01*
X239617306Y-83781500D01*
X239603115Y-83637415D01*
X239561087Y-83498867D01*
X239492837Y-83371180D01*
X239400988Y-83259262D01*
X239289070Y-83167413D01*
X239161383Y-83099163D01*
X239022835Y-83057135D01*
X238914855Y-83046500D01*
X238878750Y-83042944D01*
X238842645Y-83046500D01*
X225064855Y-83046500D01*
X225028750Y-83042944D01*
X224992645Y-83046500D01*
X224884665Y-83057135D01*
X224746117Y-83099163D01*
X224618430Y-83167413D01*
X224506512Y-83259262D01*
X224414663Y-83371180D01*
X224346413Y-83498867D01*
X224304385Y-83637415D01*
X224290194Y-83781500D01*
X220567306Y-83781500D01*
X220553115Y-83637415D01*
X220511087Y-83498867D01*
X220442837Y-83371180D01*
X220350988Y-83259262D01*
X220239070Y-83167413D01*
X220111383Y-83099163D01*
X219972835Y-83057135D01*
X219864855Y-83046500D01*
X219828750Y-83042944D01*
X219792645Y-83046500D01*
X206014855Y-83046500D01*
X205978750Y-83042944D01*
X205942645Y-83046500D01*
X205834665Y-83057135D01*
X205696117Y-83099163D01*
X205568430Y-83167413D01*
X205456512Y-83259262D01*
X205364663Y-83371180D01*
X205296413Y-83498867D01*
X205254385Y-83637415D01*
X205240194Y-83781500D01*
X201517306Y-83781500D01*
X201503115Y-83637415D01*
X201461087Y-83498867D01*
X201392837Y-83371180D01*
X201300988Y-83259262D01*
X201189070Y-83167413D01*
X201061383Y-83099163D01*
X200922835Y-83057135D01*
X200814855Y-83046500D01*
X200778750Y-83042944D01*
X200742645Y-83046500D01*
X186964855Y-83046500D01*
X186928750Y-83042944D01*
X186892645Y-83046500D01*
X186784665Y-83057135D01*
X186646117Y-83099163D01*
X186518430Y-83167413D01*
X186406512Y-83259262D01*
X186314663Y-83371180D01*
X186246413Y-83498867D01*
X186204385Y-83637415D01*
X186190194Y-83781500D01*
X182467306Y-83781500D01*
X182453115Y-83637415D01*
X182411087Y-83498867D01*
X182342837Y-83371180D01*
X182250988Y-83259262D01*
X182139070Y-83167413D01*
X182011383Y-83099163D01*
X181872835Y-83057135D01*
X181764855Y-83046500D01*
X181728750Y-83042944D01*
X181692645Y-83046500D01*
X167914855Y-83046500D01*
X167878750Y-83042944D01*
X167842645Y-83046500D01*
X167734665Y-83057135D01*
X167596117Y-83099163D01*
X167468430Y-83167413D01*
X167356512Y-83259262D01*
X167264663Y-83371180D01*
X167196413Y-83498867D01*
X167154385Y-83637415D01*
X167140194Y-83781500D01*
X163417306Y-83781500D01*
X163403115Y-83637415D01*
X163361087Y-83498867D01*
X163292837Y-83371180D01*
X163200988Y-83259262D01*
X163089070Y-83167413D01*
X162961383Y-83099163D01*
X162822835Y-83057135D01*
X162714855Y-83046500D01*
X162678750Y-83042944D01*
X162642645Y-83046500D01*
X148864855Y-83046500D01*
X148828750Y-83042944D01*
X148792645Y-83046500D01*
X148684665Y-83057135D01*
X148546117Y-83099163D01*
X148418430Y-83167413D01*
X148306512Y-83259262D01*
X148214663Y-83371180D01*
X148146413Y-83498867D01*
X148104385Y-83637415D01*
X148090194Y-83781500D01*
X144367306Y-83781500D01*
X144353115Y-83637415D01*
X144311087Y-83498867D01*
X144242837Y-83371180D01*
X144150988Y-83259262D01*
X144039070Y-83167413D01*
X143911383Y-83099163D01*
X143772835Y-83057135D01*
X143664855Y-83046500D01*
X143628750Y-83042944D01*
X143592645Y-83046500D01*
X129814855Y-83046500D01*
X129778750Y-83042944D01*
X129742645Y-83046500D01*
X129634665Y-83057135D01*
X129496117Y-83099163D01*
X129368430Y-83167413D01*
X129256512Y-83259262D01*
X129164663Y-83371180D01*
X129096413Y-83498867D01*
X129054385Y-83637415D01*
X129040194Y-83781500D01*
X125317306Y-83781500D01*
X125303115Y-83637415D01*
X125261087Y-83498867D01*
X125192837Y-83371180D01*
X125100988Y-83259262D01*
X124989070Y-83167413D01*
X124861383Y-83099163D01*
X124722835Y-83057135D01*
X124614855Y-83046500D01*
X124578750Y-83042944D01*
X124542645Y-83046500D01*
X110764855Y-83046500D01*
X110728750Y-83042944D01*
X110692645Y-83046500D01*
X110584665Y-83057135D01*
X110446117Y-83099163D01*
X110318430Y-83167413D01*
X110206512Y-83259262D01*
X110114663Y-83371180D01*
X110046413Y-83498867D01*
X110004385Y-83637415D01*
X109990194Y-83781500D01*
X106267306Y-83781500D01*
X106253115Y-83637415D01*
X106211087Y-83498867D01*
X106142837Y-83371180D01*
X106050988Y-83259262D01*
X105939070Y-83167413D01*
X105811383Y-83099163D01*
X105672835Y-83057135D01*
X105564855Y-83046500D01*
X105528750Y-83042944D01*
X105492645Y-83046500D01*
X91714855Y-83046500D01*
X91678750Y-83042944D01*
X91642645Y-83046500D01*
X91534665Y-83057135D01*
X91396117Y-83099163D01*
X91268430Y-83167413D01*
X91156512Y-83259262D01*
X91064663Y-83371180D01*
X90996413Y-83498867D01*
X90954385Y-83637415D01*
X90940194Y-83781500D01*
X87217306Y-83781500D01*
X87203115Y-83637415D01*
X87161087Y-83498867D01*
X87092837Y-83371180D01*
X87000988Y-83259262D01*
X86889070Y-83167413D01*
X86761383Y-83099163D01*
X86622835Y-83057135D01*
X86514855Y-83046500D01*
X86478750Y-83042944D01*
X86442645Y-83046500D01*
X72664855Y-83046500D01*
X72628750Y-83042944D01*
X72592645Y-83046500D01*
X72484665Y-83057135D01*
X72346117Y-83099163D01*
X72218430Y-83167413D01*
X72106512Y-83259262D01*
X72014663Y-83371180D01*
X71946413Y-83498867D01*
X71904385Y-83637415D01*
X71890194Y-83781500D01*
X68167306Y-83781500D01*
X68153115Y-83637415D01*
X68111087Y-83498867D01*
X68042837Y-83371180D01*
X67950988Y-83259262D01*
X67839070Y-83167413D01*
X67711383Y-83099163D01*
X67572835Y-83057135D01*
X67464855Y-83046500D01*
X67428750Y-83042944D01*
X67392645Y-83046500D01*
X53614855Y-83046500D01*
X53578750Y-83042944D01*
X53542645Y-83046500D01*
X53434665Y-83057135D01*
X53296117Y-83099163D01*
X53168430Y-83167413D01*
X53056512Y-83259262D01*
X52964663Y-83371180D01*
X52896413Y-83498867D01*
X52854385Y-83637415D01*
X52840194Y-83781500D01*
X49117306Y-83781500D01*
X49103115Y-83637415D01*
X49061087Y-83498867D01*
X48992837Y-83371180D01*
X48900988Y-83259262D01*
X48789070Y-83167413D01*
X48661383Y-83099163D01*
X48522835Y-83057135D01*
X48414855Y-83046500D01*
X48378750Y-83042944D01*
X48342645Y-83046500D01*
X34564855Y-83046500D01*
X34528750Y-83042944D01*
X34492645Y-83046500D01*
X34384665Y-83057135D01*
X34246117Y-83099163D01*
X34118430Y-83167413D01*
X34006512Y-83259262D01*
X33914663Y-83371180D01*
X33846413Y-83498867D01*
X33804385Y-83637415D01*
X33790194Y-83781500D01*
X30357750Y-83781500D01*
X30357750Y-82811447D01*
X30385299Y-82530479D01*
X30456458Y-82294788D01*
X30572041Y-82077411D01*
X30727645Y-81886621D01*
X30917343Y-81729689D01*
X31133907Y-81612594D01*
X31369094Y-81539791D01*
X31647778Y-81510500D01*
X49658855Y-81510500D01*
X49690944Y-81507339D01*
X49703329Y-81507426D01*
X49713542Y-81506425D01*
X50101735Y-81465624D01*
X50167017Y-81452223D01*
X50232427Y-81439745D01*
X50242251Y-81436780D01*
X50615126Y-81321356D01*
X50676606Y-81295512D01*
X50738303Y-81270585D01*
X50747364Y-81265768D01*
X51090719Y-81080117D01*
X51145974Y-81042847D01*
X51201691Y-81006387D01*
X51209644Y-80999901D01*
X51510398Y-80751095D01*
X51557376Y-80703788D01*
X51604933Y-80657217D01*
X51611475Y-80649310D01*
X51858176Y-80346825D01*
X51895055Y-80291317D01*
X51932677Y-80236372D01*
X51937558Y-80227345D01*
X52120808Y-79882704D01*
X52146210Y-79821074D01*
X52172437Y-79759882D01*
X52175472Y-79750079D01*
X52288290Y-79376407D01*
X52301233Y-79311040D01*
X52315079Y-79245899D01*
X52316152Y-79235693D01*
X52354242Y-78847224D01*
X52354242Y-78847223D01*
X52357750Y-78811605D01*
X52357750Y-64731500D01*
X52840194Y-64731500D01*
X52843751Y-64767615D01*
X52843750Y-78545395D01*
X52840194Y-78581500D01*
X52854385Y-78725585D01*
X52896413Y-78864133D01*
X52964663Y-78991820D01*
X53056512Y-79103738D01*
X53156529Y-79185820D01*
X53168430Y-79195587D01*
X53296117Y-79263837D01*
X53434665Y-79305865D01*
X53578750Y-79320056D01*
X53614855Y-79316500D01*
X67392645Y-79316500D01*
X67428750Y-79320056D01*
X67464855Y-79316500D01*
X67572835Y-79305865D01*
X67711383Y-79263837D01*
X67839070Y-79195587D01*
X67950988Y-79103738D01*
X68042837Y-78991820D01*
X68111087Y-78864133D01*
X68153115Y-78725585D01*
X68167306Y-78581500D01*
X68163750Y-78545395D01*
X68163750Y-64767605D01*
X68167306Y-64731500D01*
X71890194Y-64731500D01*
X71893750Y-64767605D01*
X71893751Y-78545385D01*
X71890194Y-78581500D01*
X71904385Y-78725585D01*
X71946413Y-78864133D01*
X72014663Y-78991820D01*
X72106512Y-79103738D01*
X72218430Y-79195587D01*
X72346117Y-79263837D01*
X72484665Y-79305865D01*
X72592645Y-79316500D01*
X72628750Y-79320056D01*
X72664855Y-79316500D01*
X86442645Y-79316500D01*
X86478750Y-79320056D01*
X86514855Y-79316500D01*
X86622835Y-79305865D01*
X86761383Y-79263837D01*
X86889070Y-79195587D01*
X87000988Y-79103738D01*
X87092837Y-78991820D01*
X87161087Y-78864133D01*
X87203115Y-78725585D01*
X87217306Y-78581500D01*
X87213750Y-78545395D01*
X87213750Y-64767605D01*
X87217306Y-64731500D01*
X90940194Y-64731500D01*
X90943750Y-64767605D01*
X90943751Y-78545385D01*
X90940194Y-78581500D01*
X90954385Y-78725585D01*
X90996413Y-78864133D01*
X91064663Y-78991820D01*
X91156512Y-79103738D01*
X91268430Y-79195587D01*
X91396117Y-79263837D01*
X91534665Y-79305865D01*
X91642645Y-79316500D01*
X91678750Y-79320056D01*
X91714855Y-79316500D01*
X105492645Y-79316500D01*
X105528750Y-79320056D01*
X105564855Y-79316500D01*
X105672835Y-79305865D01*
X105811383Y-79263837D01*
X105939070Y-79195587D01*
X106050988Y-79103738D01*
X106142837Y-78991820D01*
X106211087Y-78864133D01*
X106253115Y-78725585D01*
X106267306Y-78581500D01*
X106263750Y-78545395D01*
X106263750Y-64767605D01*
X106267306Y-64731500D01*
X109990194Y-64731500D01*
X109993750Y-64767605D01*
X109993751Y-78545385D01*
X109990194Y-78581500D01*
X110004385Y-78725585D01*
X110046413Y-78864133D01*
X110114663Y-78991820D01*
X110206512Y-79103738D01*
X110318430Y-79195587D01*
X110446117Y-79263837D01*
X110584665Y-79305865D01*
X110692645Y-79316500D01*
X110728750Y-79320056D01*
X110764855Y-79316500D01*
X124542645Y-79316500D01*
X124578750Y-79320056D01*
X124614855Y-79316500D01*
X124722835Y-79305865D01*
X124861383Y-79263837D01*
X124989070Y-79195587D01*
X125100988Y-79103738D01*
X125192837Y-78991820D01*
X125261087Y-78864133D01*
X125303115Y-78725585D01*
X125317306Y-78581500D01*
X125313750Y-78545395D01*
X125313750Y-64767605D01*
X125317306Y-64731500D01*
X129040194Y-64731500D01*
X129043751Y-64767615D01*
X129043750Y-78545395D01*
X129040194Y-78581500D01*
X129054385Y-78725585D01*
X129096413Y-78864133D01*
X129164663Y-78991820D01*
X129256512Y-79103738D01*
X129356529Y-79185820D01*
X129368430Y-79195587D01*
X129496117Y-79263837D01*
X129634665Y-79305865D01*
X129778750Y-79320056D01*
X129814855Y-79316500D01*
X143592645Y-79316500D01*
X143628750Y-79320056D01*
X143664855Y-79316500D01*
X143772835Y-79305865D01*
X143911383Y-79263837D01*
X144039070Y-79195587D01*
X144150988Y-79103738D01*
X144242837Y-78991820D01*
X144311087Y-78864133D01*
X144353115Y-78725585D01*
X144367306Y-78581500D01*
X144363750Y-78545395D01*
X144363750Y-64767605D01*
X144367306Y-64731500D01*
X148090194Y-64731500D01*
X148093751Y-64767615D01*
X148093750Y-78545395D01*
X148090194Y-78581500D01*
X148104385Y-78725585D01*
X148146413Y-78864133D01*
X148214663Y-78991820D01*
X148306512Y-79103738D01*
X148406529Y-79185820D01*
X148418430Y-79195587D01*
X148546117Y-79263837D01*
X148684665Y-79305865D01*
X148828750Y-79320056D01*
X148864855Y-79316500D01*
X162642645Y-79316500D01*
X162678750Y-79320056D01*
X162714855Y-79316500D01*
X162822835Y-79305865D01*
X162961383Y-79263837D01*
X163089070Y-79195587D01*
X163200988Y-79103738D01*
X163292837Y-78991820D01*
X163361087Y-78864133D01*
X163403115Y-78725585D01*
X163417306Y-78581500D01*
X163413750Y-78545395D01*
X163413750Y-64767605D01*
X163417306Y-64731500D01*
X167140194Y-64731500D01*
X167143751Y-64767615D01*
X167143750Y-78545395D01*
X167140194Y-78581500D01*
X167154385Y-78725585D01*
X167196413Y-78864133D01*
X167264663Y-78991820D01*
X167356512Y-79103738D01*
X167456529Y-79185820D01*
X167468430Y-79195587D01*
X167596117Y-79263837D01*
X167734665Y-79305865D01*
X167878750Y-79320056D01*
X167914855Y-79316500D01*
X181692645Y-79316500D01*
X181728750Y-79320056D01*
X181764855Y-79316500D01*
X181872835Y-79305865D01*
X182011383Y-79263837D01*
X182139070Y-79195587D01*
X182250988Y-79103738D01*
X182342837Y-78991820D01*
X182411087Y-78864133D01*
X182453115Y-78725585D01*
X182467306Y-78581500D01*
X182463750Y-78545395D01*
X182463750Y-64767605D01*
X182467306Y-64731500D01*
X186190194Y-64731500D01*
X186193750Y-64767605D01*
X186193751Y-78545385D01*
X186190194Y-78581500D01*
X186204385Y-78725585D01*
X186246413Y-78864133D01*
X186314663Y-78991820D01*
X186406512Y-79103738D01*
X186518430Y-79195587D01*
X186646117Y-79263837D01*
X186784665Y-79305865D01*
X186892645Y-79316500D01*
X186928750Y-79320056D01*
X186964855Y-79316500D01*
X200742645Y-79316500D01*
X200778750Y-79320056D01*
X200814855Y-79316500D01*
X200922835Y-79305865D01*
X201061383Y-79263837D01*
X201189070Y-79195587D01*
X201300988Y-79103738D01*
X201392837Y-78991820D01*
X201461087Y-78864133D01*
X201503115Y-78725585D01*
X201517306Y-78581500D01*
X201513750Y-78545395D01*
X201513750Y-64767605D01*
X201517306Y-64731500D01*
X205240194Y-64731500D01*
X205243750Y-64767605D01*
X205243751Y-78545385D01*
X205240194Y-78581500D01*
X205254385Y-78725585D01*
X205296413Y-78864133D01*
X205364663Y-78991820D01*
X205456512Y-79103738D01*
X205568430Y-79195587D01*
X205696117Y-79263837D01*
X205834665Y-79305865D01*
X205942645Y-79316500D01*
X205978750Y-79320056D01*
X206014855Y-79316500D01*
X219792645Y-79316500D01*
X219828750Y-79320056D01*
X219864855Y-79316500D01*
X219972835Y-79305865D01*
X220111383Y-79263837D01*
X220239070Y-79195587D01*
X220350988Y-79103738D01*
X220442837Y-78991820D01*
X220511087Y-78864133D01*
X220553115Y-78725585D01*
X220567306Y-78581500D01*
X220563750Y-78545395D01*
X220563750Y-64767605D01*
X220567306Y-64731500D01*
X224290194Y-64731500D01*
X224293751Y-64767615D01*
X224293750Y-78545395D01*
X224290194Y-78581500D01*
X224304385Y-78725585D01*
X224346413Y-78864133D01*
X224414663Y-78991820D01*
X224506512Y-79103738D01*
X224606529Y-79185820D01*
X224618430Y-79195587D01*
X224746117Y-79263837D01*
X224884665Y-79305865D01*
X225028750Y-79320056D01*
X225064855Y-79316500D01*
X238842645Y-79316500D01*
X238878750Y-79320056D01*
X238914855Y-79316500D01*
X239022835Y-79305865D01*
X239161383Y-79263837D01*
X239289070Y-79195587D01*
X239400988Y-79103738D01*
X239492837Y-78991820D01*
X239561087Y-78864133D01*
X239603115Y-78725585D01*
X239617306Y-78581500D01*
X239613750Y-78545395D01*
X239613750Y-64767605D01*
X239617306Y-64731500D01*
X239603115Y-64587415D01*
X239561087Y-64448867D01*
X239492837Y-64321180D01*
X239400988Y-64209262D01*
X239289070Y-64117413D01*
X239161383Y-64049163D01*
X239022835Y-64007135D01*
X238914855Y-63996500D01*
X238878750Y-63992944D01*
X238842645Y-63996500D01*
X225064855Y-63996500D01*
X225028750Y-63992944D01*
X224992645Y-63996500D01*
X224884665Y-64007135D01*
X224746117Y-64049163D01*
X224618430Y-64117413D01*
X224506512Y-64209262D01*
X224414663Y-64321180D01*
X224346413Y-64448867D01*
X224304385Y-64587415D01*
X224290194Y-64731500D01*
X220567306Y-64731500D01*
X220553115Y-64587415D01*
X220511087Y-64448867D01*
X220442837Y-64321180D01*
X220350988Y-64209262D01*
X220239070Y-64117413D01*
X220111383Y-64049163D01*
X219972835Y-64007135D01*
X219864855Y-63996500D01*
X219828750Y-63992944D01*
X219792645Y-63996500D01*
X206014855Y-63996500D01*
X205978750Y-63992944D01*
X205942645Y-63996500D01*
X205834665Y-64007135D01*
X205696117Y-64049163D01*
X205568430Y-64117413D01*
X205456512Y-64209262D01*
X205364663Y-64321180D01*
X205296413Y-64448867D01*
X205254385Y-64587415D01*
X205240194Y-64731500D01*
X201517306Y-64731500D01*
X201503115Y-64587415D01*
X201461087Y-64448867D01*
X201392837Y-64321180D01*
X201300988Y-64209262D01*
X201189070Y-64117413D01*
X201061383Y-64049163D01*
X200922835Y-64007135D01*
X200814855Y-63996500D01*
X200778750Y-63992944D01*
X200742645Y-63996500D01*
X186964855Y-63996500D01*
X186928750Y-63992944D01*
X186892645Y-63996500D01*
X186784665Y-64007135D01*
X186646117Y-64049163D01*
X186518430Y-64117413D01*
X186406512Y-64209262D01*
X186314663Y-64321180D01*
X186246413Y-64448867D01*
X186204385Y-64587415D01*
X186190194Y-64731500D01*
X182467306Y-64731500D01*
X182453115Y-64587415D01*
X182411087Y-64448867D01*
X182342837Y-64321180D01*
X182250988Y-64209262D01*
X182139070Y-64117413D01*
X182011383Y-64049163D01*
X181872835Y-64007135D01*
X181764855Y-63996500D01*
X181728750Y-63992944D01*
X181692645Y-63996500D01*
X167914855Y-63996500D01*
X167878750Y-63992944D01*
X167842645Y-63996500D01*
X167734665Y-64007135D01*
X167596117Y-64049163D01*
X167468430Y-64117413D01*
X167356512Y-64209262D01*
X167264663Y-64321180D01*
X167196413Y-64448867D01*
X167154385Y-64587415D01*
X167140194Y-64731500D01*
X163417306Y-64731500D01*
X163403115Y-64587415D01*
X163361087Y-64448867D01*
X163292837Y-64321180D01*
X163200988Y-64209262D01*
X163089070Y-64117413D01*
X162961383Y-64049163D01*
X162822835Y-64007135D01*
X162714855Y-63996500D01*
X162678750Y-63992944D01*
X162642645Y-63996500D01*
X148864855Y-63996500D01*
X148828750Y-63992944D01*
X148792645Y-63996500D01*
X148684665Y-64007135D01*
X148546117Y-64049163D01*
X148418430Y-64117413D01*
X148306512Y-64209262D01*
X148214663Y-64321180D01*
X148146413Y-64448867D01*
X148104385Y-64587415D01*
X148090194Y-64731500D01*
X144367306Y-64731500D01*
X144353115Y-64587415D01*
X144311087Y-64448867D01*
X144242837Y-64321180D01*
X144150988Y-64209262D01*
X144039070Y-64117413D01*
X143911383Y-64049163D01*
X143772835Y-64007135D01*
X143664855Y-63996500D01*
X143628750Y-63992944D01*
X143592645Y-63996500D01*
X129814855Y-63996500D01*
X129778750Y-63992944D01*
X129742645Y-63996500D01*
X129634665Y-64007135D01*
X129496117Y-64049163D01*
X129368430Y-64117413D01*
X129256512Y-64209262D01*
X129164663Y-64321180D01*
X129096413Y-64448867D01*
X129054385Y-64587415D01*
X129040194Y-64731500D01*
X125317306Y-64731500D01*
X125303115Y-64587415D01*
X125261087Y-64448867D01*
X125192837Y-64321180D01*
X125100988Y-64209262D01*
X124989070Y-64117413D01*
X124861383Y-64049163D01*
X124722835Y-64007135D01*
X124614855Y-63996500D01*
X124578750Y-63992944D01*
X124542645Y-63996500D01*
X110764855Y-63996500D01*
X110728750Y-63992944D01*
X110692645Y-63996500D01*
X110584665Y-64007135D01*
X110446117Y-64049163D01*
X110318430Y-64117413D01*
X110206512Y-64209262D01*
X110114663Y-64321180D01*
X110046413Y-64448867D01*
X110004385Y-64587415D01*
X109990194Y-64731500D01*
X106267306Y-64731500D01*
X106253115Y-64587415D01*
X106211087Y-64448867D01*
X106142837Y-64321180D01*
X106050988Y-64209262D01*
X105939070Y-64117413D01*
X105811383Y-64049163D01*
X105672835Y-64007135D01*
X105564855Y-63996500D01*
X105528750Y-63992944D01*
X105492645Y-63996500D01*
X91714855Y-63996500D01*
X91678750Y-63992944D01*
X91642645Y-63996500D01*
X91534665Y-64007135D01*
X91396117Y-64049163D01*
X91268430Y-64117413D01*
X91156512Y-64209262D01*
X91064663Y-64321180D01*
X90996413Y-64448867D01*
X90954385Y-64587415D01*
X90940194Y-64731500D01*
X87217306Y-64731500D01*
X87203115Y-64587415D01*
X87161087Y-64448867D01*
X87092837Y-64321180D01*
X87000988Y-64209262D01*
X86889070Y-64117413D01*
X86761383Y-64049163D01*
X86622835Y-64007135D01*
X86514855Y-63996500D01*
X86478750Y-63992944D01*
X86442645Y-63996500D01*
X72664855Y-63996500D01*
X72628750Y-63992944D01*
X72592645Y-63996500D01*
X72484665Y-64007135D01*
X72346117Y-64049163D01*
X72218430Y-64117413D01*
X72106512Y-64209262D01*
X72014663Y-64321180D01*
X71946413Y-64448867D01*
X71904385Y-64587415D01*
X71890194Y-64731500D01*
X68167306Y-64731500D01*
X68153115Y-64587415D01*
X68111087Y-64448867D01*
X68042837Y-64321180D01*
X67950988Y-64209262D01*
X67839070Y-64117413D01*
X67711383Y-64049163D01*
X67572835Y-64007135D01*
X67464855Y-63996500D01*
X67428750Y-63992944D01*
X67392645Y-63996500D01*
X53614855Y-63996500D01*
X53578750Y-63992944D01*
X53542645Y-63996500D01*
X53434665Y-64007135D01*
X53296117Y-64049163D01*
X53168430Y-64117413D01*
X53056512Y-64209262D01*
X52964663Y-64321180D01*
X52896413Y-64448867D01*
X52854385Y-64587415D01*
X52840194Y-64731500D01*
X52357750Y-64731500D01*
X52357750Y-61939419D01*
X68095000Y-61939419D01*
X68095000Y-62320581D01*
X68169361Y-62694419D01*
X68315225Y-63046566D01*
X68526987Y-63363491D01*
X68796509Y-63633013D01*
X69113434Y-63844775D01*
X69465581Y-63990639D01*
X69839419Y-64065000D01*
X70220581Y-64065000D01*
X70594419Y-63990639D01*
X70946566Y-63844775D01*
X71263491Y-63633013D01*
X71533013Y-63363491D01*
X71744775Y-63046566D01*
X71890639Y-62694419D01*
X71965000Y-62320581D01*
X71965000Y-61939419D01*
X71890639Y-61565581D01*
X71744775Y-61213434D01*
X71533013Y-60896509D01*
X71263491Y-60626987D01*
X70946566Y-60415225D01*
X70594419Y-60269361D01*
X70220581Y-60195000D01*
X69839419Y-60195000D01*
X69465581Y-60269361D01*
X69113434Y-60415225D01*
X68796509Y-60626987D01*
X68526987Y-60896509D01*
X68315225Y-61213434D01*
X68169361Y-61565581D01*
X68095000Y-61939419D01*
X52357750Y-61939419D01*
X52357750Y-45681500D01*
X52840194Y-45681500D01*
X52843751Y-45717615D01*
X52843750Y-59495395D01*
X52840194Y-59531500D01*
X52854385Y-59675585D01*
X52896413Y-59814133D01*
X52964663Y-59941820D01*
X53056512Y-60053738D01*
X53168430Y-60145587D01*
X53296117Y-60213837D01*
X53434665Y-60255865D01*
X53578750Y-60270056D01*
X53614855Y-60266500D01*
X67392645Y-60266500D01*
X67428750Y-60270056D01*
X67464855Y-60266500D01*
X67572835Y-60255865D01*
X67711383Y-60213837D01*
X67839070Y-60145587D01*
X67950988Y-60053738D01*
X68042837Y-59941820D01*
X68111087Y-59814133D01*
X68153115Y-59675585D01*
X68167306Y-59531500D01*
X68163750Y-59495395D01*
X68163750Y-45717605D01*
X68167306Y-45681500D01*
X71890194Y-45681500D01*
X71893750Y-45717605D01*
X71893751Y-59495385D01*
X71890194Y-59531500D01*
X71904385Y-59675585D01*
X71946413Y-59814133D01*
X72014663Y-59941820D01*
X72106512Y-60053738D01*
X72218430Y-60145587D01*
X72346117Y-60213837D01*
X72484665Y-60255865D01*
X72592645Y-60266500D01*
X72628750Y-60270056D01*
X72664855Y-60266500D01*
X86442645Y-60266500D01*
X86478750Y-60270056D01*
X86514855Y-60266500D01*
X86622835Y-60255865D01*
X86761383Y-60213837D01*
X86889070Y-60145587D01*
X87000988Y-60053738D01*
X87092837Y-59941820D01*
X87161087Y-59814133D01*
X87203115Y-59675585D01*
X87217306Y-59531500D01*
X87213750Y-59495395D01*
X87213750Y-45717605D01*
X87217306Y-45681500D01*
X90940194Y-45681500D01*
X90943751Y-45717615D01*
X90943750Y-59495395D01*
X90940194Y-59531500D01*
X90954385Y-59675585D01*
X90996413Y-59814133D01*
X91064663Y-59941820D01*
X91156512Y-60053738D01*
X91268430Y-60145587D01*
X91396117Y-60213837D01*
X91534665Y-60255865D01*
X91678750Y-60270056D01*
X91714855Y-60266500D01*
X105492645Y-60266500D01*
X105528750Y-60270056D01*
X105564855Y-60266500D01*
X105672835Y-60255865D01*
X105811383Y-60213837D01*
X105939070Y-60145587D01*
X106050988Y-60053738D01*
X106142837Y-59941820D01*
X106211087Y-59814133D01*
X106253115Y-59675585D01*
X106267306Y-59531500D01*
X106263750Y-59495395D01*
X106263750Y-45717605D01*
X106267306Y-45681500D01*
X109990194Y-45681500D01*
X109993750Y-45717605D01*
X109993751Y-59495385D01*
X109990194Y-59531500D01*
X110004385Y-59675585D01*
X110046413Y-59814133D01*
X110114663Y-59941820D01*
X110206512Y-60053738D01*
X110318430Y-60145587D01*
X110446117Y-60213837D01*
X110584665Y-60255865D01*
X110692645Y-60266500D01*
X110728750Y-60270056D01*
X110764855Y-60266500D01*
X124542645Y-60266500D01*
X124578750Y-60270056D01*
X124614855Y-60266500D01*
X124722835Y-60255865D01*
X124861383Y-60213837D01*
X124989070Y-60145587D01*
X125100988Y-60053738D01*
X125192837Y-59941820D01*
X125261087Y-59814133D01*
X125303115Y-59675585D01*
X125317306Y-59531500D01*
X125313750Y-59495395D01*
X125313750Y-45717605D01*
X125317306Y-45681500D01*
X129040194Y-45681500D01*
X129043751Y-45717615D01*
X129043750Y-59495395D01*
X129040194Y-59531500D01*
X129054385Y-59675585D01*
X129096413Y-59814133D01*
X129164663Y-59941820D01*
X129256512Y-60053738D01*
X129368430Y-60145587D01*
X129496117Y-60213837D01*
X129634665Y-60255865D01*
X129778750Y-60270056D01*
X129814855Y-60266500D01*
X143592645Y-60266500D01*
X143628750Y-60270056D01*
X143664855Y-60266500D01*
X143772835Y-60255865D01*
X143911383Y-60213837D01*
X144039070Y-60145587D01*
X144150988Y-60053738D01*
X144242837Y-59941820D01*
X144311087Y-59814133D01*
X144353115Y-59675585D01*
X144367306Y-59531500D01*
X144363750Y-59495395D01*
X144363750Y-45717605D01*
X144367306Y-45681500D01*
X148090194Y-45681500D01*
X148093750Y-45717605D01*
X148093751Y-59495385D01*
X148090194Y-59531500D01*
X148104385Y-59675585D01*
X148146413Y-59814133D01*
X148214663Y-59941820D01*
X148306512Y-60053738D01*
X148418430Y-60145587D01*
X148546117Y-60213837D01*
X148684665Y-60255865D01*
X148792645Y-60266500D01*
X148828750Y-60270056D01*
X148864855Y-60266500D01*
X162642645Y-60266500D01*
X162678750Y-60270056D01*
X162714855Y-60266500D01*
X162822835Y-60255865D01*
X162961383Y-60213837D01*
X163089070Y-60145587D01*
X163200988Y-60053738D01*
X163292837Y-59941820D01*
X163361087Y-59814133D01*
X163403115Y-59675585D01*
X163417306Y-59531500D01*
X163413750Y-59495395D01*
X163413750Y-45717605D01*
X163417306Y-45681500D01*
X167140194Y-45681500D01*
X167143750Y-45717605D01*
X167143751Y-59495385D01*
X167140194Y-59531500D01*
X167154385Y-59675585D01*
X167196413Y-59814133D01*
X167264663Y-59941820D01*
X167356512Y-60053738D01*
X167468430Y-60145587D01*
X167596117Y-60213837D01*
X167734665Y-60255865D01*
X167842645Y-60266500D01*
X167878750Y-60270056D01*
X167914855Y-60266500D01*
X181692645Y-60266500D01*
X181728750Y-60270056D01*
X181764855Y-60266500D01*
X181872835Y-60255865D01*
X182011383Y-60213837D01*
X182139070Y-60145587D01*
X182250988Y-60053738D01*
X182342837Y-59941820D01*
X182411087Y-59814133D01*
X182453115Y-59675585D01*
X182467306Y-59531500D01*
X182463750Y-59495395D01*
X182463750Y-45717605D01*
X182467306Y-45681500D01*
X186190194Y-45681500D01*
X186193750Y-45717605D01*
X186193751Y-59495385D01*
X186190194Y-59531500D01*
X186204385Y-59675585D01*
X186246413Y-59814133D01*
X186314663Y-59941820D01*
X186406512Y-60053738D01*
X186518430Y-60145587D01*
X186646117Y-60213837D01*
X186784665Y-60255865D01*
X186892645Y-60266500D01*
X186928750Y-60270056D01*
X186964855Y-60266500D01*
X200742645Y-60266500D01*
X200778750Y-60270056D01*
X200814855Y-60266500D01*
X200922835Y-60255865D01*
X201061383Y-60213837D01*
X201189070Y-60145587D01*
X201300988Y-60053738D01*
X201392837Y-59941820D01*
X201461087Y-59814133D01*
X201503115Y-59675585D01*
X201517306Y-59531500D01*
X201513750Y-59495395D01*
X201513750Y-45717605D01*
X201517306Y-45681500D01*
X205240194Y-45681500D01*
X205243750Y-45717605D01*
X205243751Y-59495385D01*
X205240194Y-59531500D01*
X205254385Y-59675585D01*
X205296413Y-59814133D01*
X205364663Y-59941820D01*
X205456512Y-60053738D01*
X205568430Y-60145587D01*
X205696117Y-60213837D01*
X205834665Y-60255865D01*
X205942645Y-60266500D01*
X205978750Y-60270056D01*
X206014855Y-60266500D01*
X219792645Y-60266500D01*
X219828750Y-60270056D01*
X219864855Y-60266500D01*
X219972835Y-60255865D01*
X220111383Y-60213837D01*
X220239070Y-60145587D01*
X220350988Y-60053738D01*
X220442837Y-59941820D01*
X220511087Y-59814133D01*
X220553115Y-59675585D01*
X220567306Y-59531500D01*
X220563750Y-59495395D01*
X220563750Y-45717605D01*
X220567306Y-45681500D01*
X224290194Y-45681500D01*
X224293751Y-45717615D01*
X224293750Y-59495395D01*
X224290194Y-59531500D01*
X224304385Y-59675585D01*
X224346413Y-59814133D01*
X224414663Y-59941820D01*
X224506512Y-60053738D01*
X224618430Y-60145587D01*
X224746117Y-60213837D01*
X224884665Y-60255865D01*
X225028750Y-60270056D01*
X225064855Y-60266500D01*
X238842645Y-60266500D01*
X238878750Y-60270056D01*
X238914855Y-60266500D01*
X239022835Y-60255865D01*
X239161383Y-60213837D01*
X239289070Y-60145587D01*
X239400988Y-60053738D01*
X239492837Y-59941820D01*
X239561087Y-59814133D01*
X239603115Y-59675585D01*
X239617306Y-59531500D01*
X239613750Y-59495395D01*
X239613750Y-45717605D01*
X239617306Y-45681500D01*
X239603115Y-45537415D01*
X239561087Y-45398867D01*
X239492837Y-45271180D01*
X239400988Y-45159262D01*
X239289070Y-45067413D01*
X239161383Y-44999163D01*
X239022835Y-44957135D01*
X238914855Y-44946500D01*
X238878750Y-44942944D01*
X238842645Y-44946500D01*
X225064855Y-44946500D01*
X225028750Y-44942944D01*
X224992645Y-44946500D01*
X224884665Y-44957135D01*
X224746117Y-44999163D01*
X224618430Y-45067413D01*
X224506512Y-45159262D01*
X224414663Y-45271180D01*
X224346413Y-45398867D01*
X224304385Y-45537415D01*
X224290194Y-45681500D01*
X220567306Y-45681500D01*
X220553115Y-45537415D01*
X220511087Y-45398867D01*
X220442837Y-45271180D01*
X220350988Y-45159262D01*
X220239070Y-45067413D01*
X220111383Y-44999163D01*
X219972835Y-44957135D01*
X219864855Y-44946500D01*
X219828750Y-44942944D01*
X219792645Y-44946500D01*
X206014855Y-44946500D01*
X205978750Y-44942944D01*
X205942645Y-44946500D01*
X205834665Y-44957135D01*
X205696117Y-44999163D01*
X205568430Y-45067413D01*
X205456512Y-45159262D01*
X205364663Y-45271180D01*
X205296413Y-45398867D01*
X205254385Y-45537415D01*
X205240194Y-45681500D01*
X201517306Y-45681500D01*
X201503115Y-45537415D01*
X201461087Y-45398867D01*
X201392837Y-45271180D01*
X201300988Y-45159262D01*
X201189070Y-45067413D01*
X201061383Y-44999163D01*
X200922835Y-44957135D01*
X200814855Y-44946500D01*
X200778750Y-44942944D01*
X200742645Y-44946500D01*
X186964855Y-44946500D01*
X186928750Y-44942944D01*
X186892645Y-44946500D01*
X186784665Y-44957135D01*
X186646117Y-44999163D01*
X186518430Y-45067413D01*
X186406512Y-45159262D01*
X186314663Y-45271180D01*
X186246413Y-45398867D01*
X186204385Y-45537415D01*
X186190194Y-45681500D01*
X182467306Y-45681500D01*
X182453115Y-45537415D01*
X182411087Y-45398867D01*
X182342837Y-45271180D01*
X182250988Y-45159262D01*
X182139070Y-45067413D01*
X182011383Y-44999163D01*
X181872835Y-44957135D01*
X181764855Y-44946500D01*
X181728750Y-44942944D01*
X181692645Y-44946500D01*
X167914855Y-44946500D01*
X167878750Y-44942944D01*
X167842645Y-44946500D01*
X167734665Y-44957135D01*
X167596117Y-44999163D01*
X167468430Y-45067413D01*
X167356512Y-45159262D01*
X167264663Y-45271180D01*
X167196413Y-45398867D01*
X167154385Y-45537415D01*
X167140194Y-45681500D01*
X163417306Y-45681500D01*
X163403115Y-45537415D01*
X163361087Y-45398867D01*
X163292837Y-45271180D01*
X163200988Y-45159262D01*
X163089070Y-45067413D01*
X162961383Y-44999163D01*
X162822835Y-44957135D01*
X162714855Y-44946500D01*
X162678750Y-44942944D01*
X162642645Y-44946500D01*
X148864855Y-44946500D01*
X148828750Y-44942944D01*
X148792645Y-44946500D01*
X148684665Y-44957135D01*
X148546117Y-44999163D01*
X148418430Y-45067413D01*
X148306512Y-45159262D01*
X148214663Y-45271180D01*
X148146413Y-45398867D01*
X148104385Y-45537415D01*
X148090194Y-45681500D01*
X144367306Y-45681500D01*
X144353115Y-45537415D01*
X144311087Y-45398867D01*
X144242837Y-45271180D01*
X144150988Y-45159262D01*
X144039070Y-45067413D01*
X143911383Y-44999163D01*
X143772835Y-44957135D01*
X143664855Y-44946500D01*
X143628750Y-44942944D01*
X143592645Y-44946500D01*
X129814855Y-44946500D01*
X129778750Y-44942944D01*
X129742645Y-44946500D01*
X129634665Y-44957135D01*
X129496117Y-44999163D01*
X129368430Y-45067413D01*
X129256512Y-45159262D01*
X129164663Y-45271180D01*
X129096413Y-45398867D01*
X129054385Y-45537415D01*
X129040194Y-45681500D01*
X125317306Y-45681500D01*
X125303115Y-45537415D01*
X125261087Y-45398867D01*
X125192837Y-45271180D01*
X125100988Y-45159262D01*
X124989070Y-45067413D01*
X124861383Y-44999163D01*
X124722835Y-44957135D01*
X124614855Y-44946500D01*
X124578750Y-44942944D01*
X124542645Y-44946500D01*
X110764855Y-44946500D01*
X110728750Y-44942944D01*
X110692645Y-44946500D01*
X110584665Y-44957135D01*
X110446117Y-44999163D01*
X110318430Y-45067413D01*
X110206512Y-45159262D01*
X110114663Y-45271180D01*
X110046413Y-45398867D01*
X110004385Y-45537415D01*
X109990194Y-45681500D01*
X106267306Y-45681500D01*
X106253115Y-45537415D01*
X106211087Y-45398867D01*
X106142837Y-45271180D01*
X106050988Y-45159262D01*
X105939070Y-45067413D01*
X105811383Y-44999163D01*
X105672835Y-44957135D01*
X105564855Y-44946500D01*
X105528750Y-44942944D01*
X105492645Y-44946500D01*
X91714855Y-44946500D01*
X91678750Y-44942944D01*
X91642645Y-44946500D01*
X91534665Y-44957135D01*
X91396117Y-44999163D01*
X91268430Y-45067413D01*
X91156512Y-45159262D01*
X91064663Y-45271180D01*
X90996413Y-45398867D01*
X90954385Y-45537415D01*
X90940194Y-45681500D01*
X87217306Y-45681500D01*
X87203115Y-45537415D01*
X87161087Y-45398867D01*
X87092837Y-45271180D01*
X87000988Y-45159262D01*
X86889070Y-45067413D01*
X86761383Y-44999163D01*
X86622835Y-44957135D01*
X86514855Y-44946500D01*
X86478750Y-44942944D01*
X86442645Y-44946500D01*
X72664855Y-44946500D01*
X72628750Y-44942944D01*
X72592645Y-44946500D01*
X72484665Y-44957135D01*
X72346117Y-44999163D01*
X72218430Y-45067413D01*
X72106512Y-45159262D01*
X72014663Y-45271180D01*
X71946413Y-45398867D01*
X71904385Y-45537415D01*
X71890194Y-45681500D01*
X68167306Y-45681500D01*
X68153115Y-45537415D01*
X68111087Y-45398867D01*
X68042837Y-45271180D01*
X67950988Y-45159262D01*
X67839070Y-45067413D01*
X67711383Y-44999163D01*
X67572835Y-44957135D01*
X67464855Y-44946500D01*
X67428750Y-44942944D01*
X67392645Y-44946500D01*
X53614855Y-44946500D01*
X53578750Y-44942944D01*
X53542645Y-44946500D01*
X53434665Y-44957135D01*
X53296117Y-44999163D01*
X53168430Y-45067413D01*
X53056512Y-45159262D01*
X52964663Y-45271180D01*
X52896413Y-45398867D01*
X52854385Y-45537415D01*
X52840194Y-45681500D01*
X52357750Y-45681500D01*
X52357750Y-44079419D01*
X239545000Y-44079419D01*
X239545000Y-44460581D01*
X239619361Y-44834419D01*
X239765225Y-45186566D01*
X239976987Y-45503491D01*
X240246509Y-45773013D01*
X240563434Y-45984775D01*
X240915581Y-46130639D01*
X241289419Y-46205000D01*
X241670581Y-46205000D01*
X242044419Y-46130639D01*
X242396566Y-45984775D01*
X242713491Y-45773013D01*
X242983013Y-45503491D01*
X243194775Y-45186566D01*
X243340639Y-44834419D01*
X243415000Y-44460581D01*
X243415000Y-44079419D01*
X243340639Y-43705581D01*
X243194775Y-43353434D01*
X242983013Y-43036509D01*
X242713491Y-42766987D01*
X242396566Y-42555225D01*
X242044419Y-42409361D01*
X241670581Y-42335000D01*
X241289419Y-42335000D01*
X240915581Y-42409361D01*
X240563434Y-42555225D01*
X240246509Y-42766987D01*
X239976987Y-43036509D01*
X239765225Y-43353434D01*
X239619361Y-43705581D01*
X239545000Y-44079419D01*
X52357750Y-44079419D01*
X52357750Y-42811447D01*
X52385299Y-42530479D01*
X52456458Y-42294788D01*
X52572041Y-42077411D01*
X52727645Y-41886621D01*
X52917343Y-41729689D01*
X53133907Y-41612594D01*
X53369094Y-41539791D01*
X53647778Y-41510500D01*
X242940803Y-41510500D01*
X243221771Y-41538049D01*
G36*
X245711750Y-93530649D02*
G01*
X245711750Y-42739395D01*
X245708589Y-42707306D01*
X245708676Y-42694921D01*
X245707675Y-42684708D01*
X245666874Y-42296515D01*
X245653465Y-42231195D01*
X245640995Y-42165823D01*
X245638030Y-42155999D01*
X245522606Y-41783124D01*
X245496788Y-41721705D01*
X245471836Y-41659947D01*
X245467018Y-41650886D01*
X245281367Y-41307531D01*
X245244092Y-41252268D01*
X245207637Y-41196559D01*
X245201151Y-41188606D01*
X244952344Y-40887851D01*
X244905038Y-40840874D01*
X244858467Y-40793317D01*
X244850560Y-40786775D01*
X244548075Y-40540074D01*
X244492567Y-40503195D01*
X244437622Y-40465573D01*
X244428595Y-40460692D01*
X244083953Y-40277442D01*
X244022337Y-40252046D01*
X243961132Y-40225813D01*
X243951329Y-40222778D01*
X243577657Y-40109960D01*
X243512265Y-40097012D01*
X243447149Y-40083171D01*
X243436943Y-40082098D01*
X243048474Y-40044008D01*
X243048473Y-40044008D01*
X243012855Y-40040500D01*
X129385162Y-40040500D01*
X246582060Y-39617210D01*
X245711750Y-93530649D01*
X245711750Y-93530649D01*
G37*
X245711750Y-93530649D02*
X245711750Y-42739395D01*
X245708589Y-42707306D01*
X245708676Y-42694921D01*
X245707675Y-42684708D01*
X245666874Y-42296515D01*
X245653465Y-42231195D01*
X245640995Y-42165823D01*
X245638030Y-42155999D01*
X245522606Y-41783124D01*
X245496788Y-41721705D01*
X245471836Y-41659947D01*
X245467018Y-41650886D01*
X245281367Y-41307531D01*
X245244092Y-41252268D01*
X245207637Y-41196559D01*
X245201151Y-41188606D01*
X244952344Y-40887851D01*
X244905038Y-40840874D01*
X244858467Y-40793317D01*
X244850560Y-40786775D01*
X244548075Y-40540074D01*
X244492567Y-40503195D01*
X244437622Y-40465573D01*
X244428595Y-40460692D01*
X244083953Y-40277442D01*
X244022337Y-40252046D01*
X243961132Y-40225813D01*
X243951329Y-40222778D01*
X243577657Y-40109960D01*
X243512265Y-40097012D01*
X243447149Y-40083171D01*
X243436943Y-40082098D01*
X243048474Y-40044008D01*
X243048473Y-40044008D01*
X243012855Y-40040500D01*
X129385162Y-40040500D01*
X246582060Y-39617210D01*
X245711750Y-93530649D01*
G36*
X29735101Y-80799906D02*
G01*
X29688124Y-80847212D01*
X29640567Y-80893783D01*
X29634025Y-80901690D01*
X29387324Y-81204175D01*
X29350445Y-81259683D01*
X29317545Y-81307732D01*
X29317091Y-80676008D01*
X29890294Y-80671519D01*
X29735101Y-80799906D01*
X29735101Y-80799906D01*
G37*
X29735101Y-80799906D02*
X29688124Y-80847212D01*
X29640567Y-80893783D01*
X29634025Y-80901690D01*
X29387324Y-81204175D01*
X29350445Y-81259683D01*
X29317545Y-81307732D01*
X29317091Y-80676008D01*
X29890294Y-80671519D01*
X29735101Y-80799906D01*
M02*
